<svg xmlns="http://www.w3.org/2000/svg" width="85.218" height="91" viewBox="0 0 85.218 91">
  <g id="Grupo_1218692" data-name="Grupo 1218692" transform="translate(-180 -4540)">
    <rect id="Rectángulo_422063" data-name="Rectángulo 422063" width="54" height="91" transform="translate(211 4540)" fill="#e6e6e6"/>
    <g id="car_12125650" transform="translate(148.196 4515.163)">
      <g id="Grupo_1218680" data-name="Grupo 1218680" transform="translate(31.804 56.367)">
        <g id="Grupo_1218646" data-name="Grupo 1218646" transform="translate(3.959 35.655)">
          <g id="Grupo_1218644" data-name="Grupo 1218644">
            <path id="Trazado_1086237" data-name="Trazado 1086237" d="M64.82,370.533H55.291a3.215,3.215,0,0,1-3.215-3.215V351.4a3.215,3.215,0,0,1,3.215-3.215H64.82a3.215,3.215,0,0,1,3.215,3.215v15.921A3.215,3.215,0,0,1,64.82,370.533Z" transform="translate(-52.076 -348.182)" fill="#e6e7e8"/>
          </g>
          <g id="Grupo_1218645" data-name="Grupo 1218645" transform="translate(61.341)">
            <path id="Trazado_1086238" data-name="Trazado 1086238" d="M378.941,370.533h-9.529a3.215,3.215,0,0,1-3.215-3.215V351.4a3.215,3.215,0,0,1,3.215-3.215h9.529a3.215,3.215,0,0,1,3.215,3.215v15.921A3.215,3.215,0,0,1,378.941,370.533Z" transform="translate(-366.197 -348.182)" fill="#e6e7e8"/>
          </g>
        </g>
        <g id="Grupo_1218649" data-name="Grupo 1218649" transform="translate(2.494 34.19)">
          <g id="Grupo_1218647" data-name="Grupo 1218647">
            <path id="Trazado_1086239" data-name="Trazado 1086239" d="M58.784,365.962H49.255a4.685,4.685,0,0,1-4.68-4.68V345.362a4.685,4.685,0,0,1,4.68-4.68h9.529a4.685,4.685,0,0,1,4.68,4.68v15.921A4.685,4.685,0,0,1,58.784,365.962Zm-9.529-22.351a1.753,1.753,0,0,0-1.751,1.751v15.921a1.753,1.753,0,0,0,1.751,1.751h9.529a1.753,1.753,0,0,0,1.751-1.751V345.362a1.753,1.753,0,0,0-1.751-1.751Z" transform="translate(-44.575 -340.682)" fill="#231f20"/>
          </g>
          <g id="Grupo_1218648" data-name="Grupo 1218648" transform="translate(61.341)">
            <path id="Trazado_1086240" data-name="Trazado 1086240" d="M372.905,365.962h-9.529a4.685,4.685,0,0,1-4.68-4.68V345.362a4.685,4.685,0,0,1,4.68-4.68h9.529a4.685,4.685,0,0,1,4.68,4.68v15.921A4.685,4.685,0,0,1,372.905,365.962Zm-9.529-22.351a1.753,1.753,0,0,0-1.75,1.751v15.921a1.753,1.753,0,0,0,1.75,1.751h9.529a1.753,1.753,0,0,0,1.751-1.751V345.362a1.753,1.753,0,0,0-1.751-1.751Z" transform="translate(-358.696 -340.682)" fill="#231f20"/>
          </g>
        </g>
        <g id="Grupo_1218650" data-name="Grupo 1218650" transform="translate(3.709 1.465)">
          <path id="Trazado_1086241" data-name="Trazado 1086241" d="M120.318,190.795l-4.013-13.258a6.248,6.248,0,0,0-5.98-4.438H69.066a6.248,6.248,0,0,0-5.98,4.438l-4.013,13.258-5.866,4.7a6.441,6.441,0,0,0-2.388,5.575l.767,8.956a9.86,9.86,0,0,0,1.316,4.142l3.194,5.452a6.68,6.68,0,0,0,5.764,3.3h55.672a6.68,6.68,0,0,0,5.764-3.3l3.194-5.452a9.86,9.86,0,0,0,1.316-4.142l.767-8.956a6.441,6.441,0,0,0-2.388-5.575Z" transform="translate(-50.795 -173.099)" fill="#ff597a"/>
        </g>
        <g id="Grupo_1218651" data-name="Grupo 1218651" transform="translate(3.709 1.465)">
          <path id="Trazado_1086242" data-name="Trazado 1086242" d="M120.318,190.795l-4.013-13.258a6.248,6.248,0,0,0-5.98-4.438H69.066a6.248,6.248,0,0,0-5.98,4.438l-4.013,13.258-5.866,4.7a6.441,6.441,0,0,0-2.388,5.575l.767,8.956a9.86,9.86,0,0,0,1.316,4.142l3.194,5.452a6.68,6.68,0,0,0,5.764,3.3h55.672a6.68,6.68,0,0,0,5.764-3.3l3.194-5.452a9.86,9.86,0,0,0,1.316-4.142l.767-8.956a6.441,6.441,0,0,0-2.388-5.575Z" transform="translate(-50.795 -173.099)" fill="#ff597a"/>
        </g>
        <g id="Grupo_1218652" data-name="Grupo 1218652" transform="translate(3.715 28.042)">
          <path id="Trazado_1086243" data-name="Trazado 1086243" d="M123.32,329.146l3.194-5.452a9.86,9.86,0,0,0,1.316-4.142l.767-8.956a6.434,6.434,0,0,0-.035-1.4c-6.6,3.524-18.96,8.072-38.822,8.089-21.113.018-33.109-4.118-38.914-7.009,0,.106.008.211.017.317l.767,8.956a9.86,9.86,0,0,0,1.316,4.142l3.194,5.452a6.68,6.68,0,0,0,5.764,3.3h55.672a6.68,6.68,0,0,0,5.764-3.3Z" transform="translate(-50.826 -309.2)" fill="#d34a65"/>
        </g>
        <g id="Grupo_1218653" data-name="Grupo 1218653" transform="translate(48.208 49.828)">
          <path id="Trazado_1086244" data-name="Trazado 1086244" d="M281.365,423.692h-1.227a1.465,1.465,0,0,1,0-2.929h1.227a1.465,1.465,0,0,1,0,2.929Z" transform="translate(-278.674 -420.763)" fill="#231f20"/>
        </g>
        <g id="Grupo_1218654" data-name="Grupo 1218654" transform="translate(2.244)">
          <path id="Trazado_1086245" data-name="Trazado 1086245" d="M111.495,218.355H96.8a1.465,1.465,0,1,1,0-2.929h14.69a5.235,5.235,0,0,0,4.5-2.579l3.193-5.452a8.446,8.446,0,0,0,1.121-3.526l.767-8.956a4.968,4.968,0,0,0-1.845-4.307l-5.866-4.7a1.464,1.464,0,0,1-.486-.718l-4.013-13.258a4.756,4.756,0,0,0-4.579-3.4H63.029a4.756,4.756,0,0,0-4.578,3.4l-4.013,13.258a1.464,1.464,0,0,1-.486.718l-5.866,4.7a4.968,4.968,0,0,0-1.845,4.307l.767,8.956a8.448,8.448,0,0,0,1.121,3.526l3.194,5.452a5.234,5.234,0,0,0,4.5,2.579H85.774a1.465,1.465,0,1,1,0,2.929H55.822a8.174,8.174,0,0,1-7.028-4.028L45.6,208.875a11.4,11.4,0,0,1-1.511-4.757l-.767-8.956a7.892,7.892,0,0,1,2.931-6.843l5.512-4.419,3.881-12.824a7.668,7.668,0,0,1,7.382-5.479h41.259a7.669,7.669,0,0,1,7.382,5.479l3.881,12.824,5.512,4.419a7.893,7.893,0,0,1,2.932,6.843l-.767,8.956a11.394,11.394,0,0,1-1.511,4.757l-3.193,5.452a8.175,8.175,0,0,1-7.028,4.028Z" transform="translate(-43.294 -165.598)" fill="#231f20"/>
        </g>
        <g id="Grupo_1218655" data-name="Grupo 1218655" transform="translate(16.688 5.849)">
          <path id="Trazado_1086246" data-name="Trazado 1086246" d="M165.721,197.979a3.4,3.4,0,0,0-3.256-2.429H123.9a3.4,3.4,0,0,0-3.256,2.429l-3.383,11.373H169.1Z" transform="translate(-117.264 -195.55)" fill="#00e4ff"/>
        </g>
        <g id="Grupo_1218656" data-name="Grupo 1218656" transform="translate(16.688 11.533)">
          <path id="Trazado_1086247" data-name="Trazado 1086247" d="M169.1,232.774l-2.415-8.118c-17,4.777-37.353,2.148-47.123.376l-2.3,7.742H169.1Z" transform="translate(-117.263 -224.656)" fill="#00c3ff"/>
        </g>
        <g id="Grupo_1218657" data-name="Grupo 1218657" transform="translate(16.688 11.533)">
          <path id="Trazado_1086248" data-name="Trazado 1086248" d="M169.1,232.774l-2.415-8.118c-17,4.777-37.353,2.148-47.123.376l-2.3,7.742H169.1Z" transform="translate(-117.263 -224.656)" fill="#00c3ff"/>
        </g>
        <g id="Grupo_1218660" data-name="Grupo 1218660" transform="translate(14.872 24.004)">
          <g id="Grupo_1218658" data-name="Grupo 1218658">
            <path id="Trazado_1086249" data-name="Trazado 1086249" d="M135.678,297.532H118.9a6.722,6.722,0,0,1-4.17-1.457l-6.213-4.944a1.464,1.464,0,1,1,1.824-2.292l6.213,4.944a3.782,3.782,0,0,0,2.346.819h16.782a1.465,1.465,0,1,1,0,2.929Z" transform="translate(-107.961 -288.52)" fill="#231f20"/>
          </g>
          <g id="Grupo_1218659" data-name="Grupo 1218659" transform="translate(26.292 0)">
            <path id="Trazado_1086250" data-name="Trazado 1086250" d="M260.848,297.532H244.065a1.465,1.465,0,0,1,0-2.929h16.782a3.78,3.78,0,0,0,2.345-.819l6.213-4.944a1.464,1.464,0,1,1,1.824,2.292l-6.213,4.944A6.721,6.721,0,0,1,260.848,297.532Z" transform="translate(-242.601 -288.521)" fill="#231f20"/>
          </g>
        </g>
        <g id="Grupo_1218663" data-name="Grupo 1218663" transform="translate(6.806 26.878)">
          <g id="Grupo_1218661" data-name="Grupo 1218661" transform="translate(0)">
            <ellipse id="Elipse_14451" data-name="Elipse 14451" cx="4.085" cy="5.057" rx="4.085" ry="5.057" transform="translate(0 5.433) rotate(-41.676)" fill="#ffcf9d"/>
          </g>
          <g id="Grupo_1218662" data-name="Grupo 1218662" transform="translate(58.813 0.051)">
            <ellipse id="Elipse_14452" data-name="Elipse 14452" cx="5.057" cy="4.085" rx="5.057" ry="4.085" transform="translate(0 7.555) rotate(-48.324)" fill="#ffcf9d"/>
          </g>
        </g>
        <g id="Grupo_1218664" data-name="Grupo 1218664" transform="translate(23.701 42.212)">
          <path id="Trazado_1086251" data-name="Trazado 1086251" d="M189.52,381.76H154.646a1.469,1.469,0,0,0-1.384,1.963l.349.977a2.529,2.529,0,0,0,2.382,1.678h32.181a2.529,2.529,0,0,0,2.382-1.678l.349-.977a1.469,1.469,0,0,0-1.384-1.963Z" transform="translate(-153.175 -381.76)" fill="#e6e7e8"/>
        </g>
        <g id="Grupo_1218667" data-name="Grupo 1218667" transform="translate(11.938 42.932)">
          <g id="Grupo_1218665" data-name="Grupo 1218665">
            <path id="Trazado_1086252" data-name="Trazado 1086252" d="M92.94,385.45h5.773l.99,3.9H94.27Z" transform="translate(-92.94 -385.45)" fill="#e6e7e8"/>
          </g>
          <g id="Grupo_1218666" data-name="Grupo 1218666" transform="translate(54.578)">
            <path id="Trazado_1086253" data-name="Trazado 1086253" d="M379.191,385.45h-5.773l-.99,3.9h5.432Z" transform="translate(-372.428 -385.45)" fill="#e6e7e8"/>
          </g>
        </g>
        <g id="Grupo_1218668" data-name="Grupo 1218668" transform="translate(72.017 10.713)">
          <path id="Trazado_1086254" data-name="Trazado 1086254" d="M400.6,224.892l3.058-3.234a3.841,3.841,0,0,1,2.791-1.2h3.868a1.6,1.6,0,0,1,1.565,1.267l.419,1.968a1.6,1.6,0,0,1-1.565,1.933H404.9l-3.09,3.28Z" transform="translate(-400.596 -220.456)" fill="#ff597a"/>
        </g>
        <g id="Grupo_1218669" data-name="Grupo 1218669" transform="translate(1.465 10.713)">
          <path id="Trazado_1086255" data-name="Trazado 1086255" d="M51.041,224.892l-3.058-3.234a3.841,3.841,0,0,0-2.791-1.2H41.324a1.6,1.6,0,0,0-1.565,1.267l-.419,1.968a1.6,1.6,0,0,0,1.565,1.933h5.831l3.09,3.28Z" transform="translate(-39.305 -220.456)" fill="#ff597a"/>
        </g>
        <g id="Grupo_1218670" data-name="Grupo 1218670" transform="translate(15.224 4.384)">
          <path id="Trazado_1086256" data-name="Trazado 1086256" d="M163.069,204.781H111.228a1.465,1.465,0,0,1-1.4-1.882l3.383-11.373a4.892,4.892,0,0,1,4.66-3.476h38.561a4.892,4.892,0,0,1,4.66,3.476l3.384,11.373a1.465,1.465,0,0,1-1.4,1.882Zm-49.877-2.929h47.913l-2.824-9.491a1.945,1.945,0,0,0-1.853-1.382H117.868a1.945,1.945,0,0,0-1.853,1.382Z" transform="translate(-109.764 -188.05)" fill="#231f20"/>
        </g>
        <g id="Grupo_1218673" data-name="Grupo 1218673" transform="translate(7.196 27.269)">
          <g id="Grupo_1218671" data-name="Grupo 1218671" transform="translate(0 0.01)">
            <path id="Trazado_1086257" data-name="Trazado 1086257" d="M75.625,317.522a6.034,6.034,0,0,1-.988-.083,7.4,7.4,0,0,1-5.977-6.719,5.145,5.145,0,0,1,1.663-4.19c2.286-2.034,6.09-1.5,8.481,1.184h0a7.154,7.154,0,0,1,1.852,4.371,5.145,5.145,0,0,1-1.663,4.19A4.989,4.989,0,0,1,75.625,317.522Zm-1.925-9.3a2.11,2.11,0,0,0-1.43.5,2.278,2.278,0,0,0-.684,1.862,4.484,4.484,0,0,0,3.53,3.969,2.1,2.1,0,0,0,2.614-2.325,4.281,4.281,0,0,0-1.114-2.563A4.079,4.079,0,0,0,73.7,308.218Z" transform="translate(-68.653 -305.294)" fill="#231f20"/>
          </g>
          <g id="Grupo_1218672" data-name="Grupo 1218672" transform="translate(58.816)">
            <path id="Trazado_1086258" data-name="Trazado 1086258" d="M374.884,317.479a4.988,4.988,0,0,1-3.368-1.247,5.146,5.146,0,0,1-1.663-4.19,7.4,7.4,0,0,1,5.977-6.719,5.017,5.017,0,0,1,6.019,5.354,7.4,7.4,0,0,1-5.977,6.719A6.033,6.033,0,0,1,374.884,317.479Zm1.919-9.308a3.016,3.016,0,0,0-.494.042,4.28,4.28,0,0,0-2.416,1.405h0a4.281,4.281,0,0,0-1.114,2.563,2.1,2.1,0,0,0,2.613,2.325,4.483,4.483,0,0,0,3.53-3.969,2.278,2.278,0,0,0-.684-1.862,2.119,2.119,0,0,0-1.436-.5Zm-4,.474h0Z" transform="translate(-369.846 -305.241)" fill="#231f20"/>
          </g>
        </g>
        <g id="Grupo_1218674" data-name="Grupo 1218674" transform="translate(22.238 40.747)">
          <path id="Trazado_1086259" data-name="Trazado 1086259" d="M182.145,381.808H149.964a4,4,0,0,1-3.761-2.65l-.349-.977a2.934,2.934,0,0,1,2.763-3.92h34.875a2.934,2.934,0,0,1,2.763,3.92l-.349.977a4,4,0,0,1-3.761,2.65Zm-33.528-4.619.345.983a1.067,1.067,0,0,0,1,.706h32.181a1.067,1.067,0,0,0,1-.706l.349-.977,0-.006H148.617Z" transform="translate(-145.684 -374.261)" fill="#231f20"/>
        </g>
        <g id="Grupo_1218677" data-name="Grupo 1218677" transform="translate(10.474 41.468)">
          <g id="Grupo_1218675" data-name="Grupo 1218675" transform="translate(0 0)">
            <path id="Trazado_1086260" data-name="Trazado 1086260" d="M93.668,384.777H88.235a1.464,1.464,0,0,1-1.386-.991l-1.33-3.9A1.465,1.465,0,0,1,86.9,377.95h5.773a1.464,1.464,0,0,1,1.42,1.1l.99,3.9a1.465,1.465,0,0,1-1.42,1.825Zm-4.385-2.929h2.5l-.246-.969H88.952Z" transform="translate(-85.44 -377.95)" fill="#231f20"/>
          </g>
          <g id="Grupo_1218676" data-name="Grupo 1218676" transform="translate(54.578)">
            <path id="Trazado_1086261" data-name="Trazado 1086261" d="M371.825,384.777h-5.432a1.465,1.465,0,0,1-1.42-1.825l.99-3.9a1.464,1.464,0,0,1,1.42-1.1h5.773a1.465,1.465,0,0,1,1.386,1.938l-1.33,3.9A1.464,1.464,0,0,1,371.825,384.777Zm-3.549-2.929h2.5l.331-.969h-2.586Z" transform="translate(-364.928 -377.95)" fill="#231f20"/>
          </g>
        </g>
        <g id="Grupo_1218678" data-name="Grupo 1218678" transform="translate(70.552 9.248)">
          <path id="Trazado_1086262" data-name="Trazado 1086262" d="M395.775,224.333a1.465,1.465,0,0,1-1.4-1.04l-1.214-4.013a1.465,1.465,0,0,1,.337-1.43l3.058-3.234a5.328,5.328,0,0,1,3.855-1.661h3.868a3.079,3.079,0,0,1,3,2.427l.419,1.968a3.065,3.065,0,0,1-3,3.7h-5.2l-2.656,2.82A1.464,1.464,0,0,1,395.775,224.333Zm.434-5.088.235.778,1.355-1.438a1.464,1.464,0,0,1,1.066-.46H404.7a.136.136,0,0,0,.132-.164l-.419-1.968a.136.136,0,0,0-.132-.107h-3.868a2.387,2.387,0,0,0-1.727.744Z" transform="translate(-393.096 -212.955)" fill="#231f20"/>
        </g>
        <g id="Grupo_1218679" data-name="Grupo 1218679" transform="translate(0 9.248)">
          <path id="Trazado_1086263" data-name="Trazado 1086263" d="M43.79,224.333a1.464,1.464,0,0,1-1.066-.46l-2.656-2.82h-5.2a3.064,3.064,0,0,1-3-3.7l.419-1.968a3.079,3.079,0,0,1,3-2.427h3.868a5.328,5.328,0,0,1,3.855,1.66l3.058,3.234a1.465,1.465,0,0,1,.338,1.43l-1.214,4.013a1.465,1.465,0,0,1-1.4,1.04Zm-8.5-8.449a.136.136,0,0,0-.132.107l-.419,1.968a.135.135,0,0,0,.132.164H40.7a1.464,1.464,0,0,1,1.066.46l1.355,1.438.235-.778-2.474-2.617a2.386,2.386,0,0,0-1.727-.744Z" transform="translate(-31.804 -212.955)" fill="#231f20"/>
        </g>
      </g>
      <g id="Grupo_1218681" data-name="Grupo 1218681" transform="translate(78.877 31.325)">
        <circle id="Elipse_14453" data-name="Elipse 14453" cx="18.227" cy="18.227" r="18.227" fill="#e6e7e8"/>
      </g>
      <g id="Grupo_1218682" data-name="Grupo 1218682" transform="translate(79.148 43.27)">
        <path id="Trazado_1086264" data-name="Trazado 1086264" d="M309.318,98.529c-11.024,11.092-27.576,10.429-35.07,9.427a18.229,18.229,0,1,0,35.071-9.427Z" transform="translate(-274.248 -98.529)" fill="#cccccd"/>
      </g>
      <g id="Grupo_1218683" data-name="Grupo 1218683" transform="translate(77.412 29.86)">
        <path id="Trazado_1086265" data-name="Trazado 1086265" d="M285.05,69.242a19.7,19.7,0,1,1,9.83-36.756,1.464,1.464,0,0,1-1.464,2.537,16.776,16.776,0,1,0,6.779,7.337,1.465,1.465,0,0,1,2.645-1.259,19.7,19.7,0,0,1-17.79,28.142Z" transform="translate(-265.359 -29.86)" fill="#231f20"/>
      </g>
      <g id="Grupo_1218684" data-name="Grupo 1218684" transform="translate(108.754 35.429)">
        <path id="Trazado_1086266" data-name="Trazado 1086266" d="M428.012,62.064a1.461,1.461,0,0,1-1.109-.508c-.2-.235-.416-.468-.633-.694a1.465,1.465,0,1,1,2.108-2.034c.255.264.505.538.743.814a1.465,1.465,0,0,1-1.108,2.422Z" transform="translate(-425.859 -58.381)" fill="#231f20"/>
      </g>
      <g id="Grupo_1218685" data-name="Grupo 1218685" transform="translate(90.73 36.895)">
        <path id="Trazado_1086267" data-name="Trazado 1086267" d="M343.161,79.443V69.193a3.307,3.307,0,0,0-6.614,0V79.443a6.3,6.3,0,1,0,6.614,0Z" transform="translate(-333.557 -65.886)" fill="#ff597a"/>
      </g>
      <g id="Grupo_1218686" data-name="Grupo 1218686" transform="translate(89.265 35.43)">
        <path id="Trazado_1086268" data-name="Trazado 1086268" d="M333.827,86.528q-.277,0-.556-.019a7.761,7.761,0,0,1-4.224-13.864V63.157a4.772,4.772,0,0,1,9.543,0v9.487a7.708,7.708,0,0,1,2.99,6.122,7.789,7.789,0,0,1-2.466,5.674,7.684,7.684,0,0,1-5.287,2.087Zm-.008-25.213a1.845,1.845,0,0,0-1.842,1.842V73.408a1.465,1.465,0,0,1-.694,1.246,4.832,4.832,0,1,0,5.073,0,1.465,1.465,0,0,1-.694-1.246V63.157A1.844,1.844,0,0,0,333.819,61.315Z" transform="translate(-326.058 -58.386)" fill="#231f20"/>
      </g>
      <g id="Grupo_1218687" data-name="Grupo 1218687" transform="translate(92.255 41.222)">
        <path id="Trazado_1086269" data-name="Trazado 1086269" d="M345.251,90.972h-2.419a1.465,1.465,0,0,1,0-2.929h2.419a1.465,1.465,0,1,1,0,2.929Z" transform="translate(-341.367 -88.043)" fill="#231f20"/>
      </g>
      <g id="Grupo_1218688" data-name="Grupo 1218688" transform="translate(92.255 46.28)">
        <path id="Trazado_1086270" data-name="Trazado 1086270" d="M345.251,116.876h-2.419a1.465,1.465,0,0,1,0-2.929h2.419a1.465,1.465,0,1,1,0,2.929Z" transform="translate(-341.367 -113.947)" fill="#231f20"/>
      </g>
      <g id="Grupo_1218689" data-name="Grupo 1218689" transform="translate(61.119 36.206)">
        <path id="Trazado_1086271" data-name="Trazado 1086271" d="M183.675,79.618a1.465,1.465,0,0,1-.966-2.565l.9-.794a1.3,1.3,0,0,0,.121-1.827l-.509-.581a4.2,4.2,0,0,1,.3-5.878,1.3,1.3,0,0,0,.051-1.849l-1.243-1.287a1.465,1.465,0,1,1,2.107-2.035l1.243,1.287a4.225,4.225,0,0,1-.165,6.03,1.289,1.289,0,0,0-.093,1.8l.509.581a4.229,4.229,0,0,1-.393,5.958l-.9.794A1.459,1.459,0,0,1,183.675,79.618Z" transform="translate(-181.925 -62.355)" fill="#231f20"/>
      </g>
      <g id="Grupo_1218690" data-name="Grupo 1218690" transform="translate(67.818 36.206)">
        <path id="Trazado_1086272" data-name="Trazado 1086272" d="M217.978,79.618a1.465,1.465,0,0,1-.966-2.565l.9-.794a1.3,1.3,0,0,0,.121-1.827l-.509-.581a4.2,4.2,0,0,1,.3-5.878,1.3,1.3,0,0,0,.051-1.849l-1.243-1.287a1.465,1.465,0,0,1,2.107-2.035l1.243,1.287a4.225,4.225,0,0,1-.165,6.03,1.289,1.289,0,0,0-.093,1.8l.509.581a4.229,4.229,0,0,1-.393,5.958l-.9.794A1.459,1.459,0,0,1,217.978,79.618Z" transform="translate(-216.228 -62.355)" fill="#231f20"/>
      </g>
      <g id="Grupo_1218691" data-name="Grupo 1218691" transform="translate(54.491 36.206)">
        <path id="Trazado_1086273" data-name="Trazado 1086273" d="M149.73,79.618a1.465,1.465,0,0,1-.966-2.565l.9-.794a1.3,1.3,0,0,0,.121-1.827l-.509-.581a4.2,4.2,0,0,1,.3-5.878,1.3,1.3,0,0,0,.05-1.849l-1.243-1.287A1.465,1.465,0,0,1,150.5,62.8l1.243,1.287a4.224,4.224,0,0,1-.164,6.03,1.289,1.289,0,0,0-.093,1.8l.509.581a4.229,4.229,0,0,1-.393,5.958l-.9.794a1.459,1.459,0,0,1-.965.364Z" transform="translate(-147.98 -62.356)" fill="#231f20"/>
      </g>
    </g>
  </g>
</svg>
