<svg xmlns="http://www.w3.org/2000/svg" xmlns:xlink="http://www.w3.org/1999/xlink" width="93.934" height="93.934" viewBox="0 0 93.934 93.934">
  <defs>
    <filter id="Trazado_982547" x="0" y="0" width="93.934" height="93.934" filterUnits="userSpaceOnUse">
      <feOffset dy="3" input="SourceAlpha"/>
      <feGaussianBlur stdDeviation="3" result="blur"/>
      <feFlood flood-opacity="0.161"/>
      <feComposite operator="in" in2="blur"/>
      <feComposite in="SourceGraphic"/>
    </filter>
  </defs>
  <g id="Grupo_1218778" data-name="Grupo 1218778" transform="translate(-191.066 -1611)">
    <g id="Grupo_1218048" data-name="Grupo 1218048" transform="translate(0 -6838.729)">
      <g id="Grupo_1214711" data-name="Grupo 1214711" transform="translate(-0.229 3321.729)">
        <g id="Grupo_1214432" data-name="Grupo 1214432" transform="translate(-0.771 -2738.674)">
          <g id="Grupo_1183196" data-name="Grupo 1183196" transform="translate(1 1016.674)">
            <g id="Grupo_1179610" data-name="Grupo 1179610" transform="translate(8 4723.467)">
              <g id="Grupo_1175227" data-name="Grupo 1175227" transform="translate(-5.967 140.533)">
                <g id="Grupo_1167337" data-name="Grupo 1167337" transform="translate(198.033 1992)">
                  <g id="Grupo_1166720" data-name="Grupo 1166720">
                    <g id="Grupo_1164305" data-name="Grupo 1164305">
                      <g id="Grupo_1163948" data-name="Grupo 1163948">
                        <g id="Grupo_1158168" data-name="Grupo 1158168">
                          <g id="Grupo_1152576" data-name="Grupo 1152576">
                            <g id="Grupo_1148633" data-name="Grupo 1148633">
                              <g id="Grupo_1148525" data-name="Grupo 1148525">
                                <g transform="matrix(1, 0, 0, 1, -9, -6)" filter="url(#Trazado_982547)">
                                  <g id="Trazado_982547-2" data-name="Trazado 982547" transform="translate(9 6)" fill="#eaf5fb">
                                    <path d="M 37.966796875 74.43359375 C 33.04315185546875 74.43359375 28.26757431030273 73.46962738037109 23.77274131774902 71.56847381591797 C 19.43047523498535 69.73184967041016 15.53040790557861 67.10224914550781 12.18087482452393 63.75271987915039 C 8.831341743469238 60.4031867980957 6.201741218566895 56.50312042236328 4.365118980407715 52.16086196899414 C 2.463963508605957 47.66601943969727 1.499996900558472 42.89044189453125 1.499996900558472 37.966796875 C 1.499996900558472 33.04315185546875 2.463963508605957 28.26757431030273 4.365118980407715 23.77274131774902 C 6.201741218566895 19.43047523498535 8.831341743469238 15.53040790557861 12.18087482452393 12.18087482452393 C 15.53040790557861 8.831341743469238 19.43047523498535 6.201741218566895 23.77274131774902 4.365118980407715 C 28.26757431030273 2.463963508605957 33.04315185546875 1.499996900558472 37.966796875 1.499996900558472 C 42.89044189453125 1.499996900558472 47.66601943969727 2.463963508605957 52.16086196899414 4.365118980407715 C 56.50312042236328 6.201741218566895 60.4031867980957 8.831341743469238 63.75271987915039 12.18087482452393 C 67.10224914550781 15.53040790557861 69.73184967041016 19.43047523498535 71.56847381591797 23.77274131774902 C 73.46962738037109 28.26757431030273 74.43359375 33.04315185546875 74.43359375 37.966796875 C 74.43359375 42.89044189453125 73.46962738037109 47.66601943969727 71.56847381591797 52.16086196899414 C 69.73184967041016 56.50313186645508 67.10224914550781 60.4031867980957 63.75271987915039 63.75271987915039 C 60.4031867980957 67.10224914550781 56.50313186645508 69.73184967041016 52.16086196899414 71.56847381591797 C 47.66601943969727 73.46962738037109 42.89044189453125 74.43359375 37.966796875 74.43359375 Z" stroke="none"/>
                                    <path d="M 37.966796875 3 C 33.2449836730957 3 28.66600799560547 3.924095153808594 24.35705947875977 5.746635437011719 C 20.19359588623047 7.507637023925781 16.45379638671875 10.02928161621094 13.24153518676758 13.24153518676758 C 10.02927398681641 16.45379638671875 7.507621765136719 20.19359588623047 5.746635437011719 24.35705947875977 C 3.924095153808594 28.66600799560547 3 33.2449836730957 3 37.966796875 C 3 42.6886100769043 3.924095153808594 47.26758575439453 5.746635437011719 51.57653427124023 C 7.507621765136719 55.73999786376953 10.02927398681641 59.47979736328125 13.24153518676758 62.69205856323242 C 16.45379638671875 65.90431976318359 20.19359588623047 68.42597198486328 24.35705947875977 70.18695831298828 C 28.66600799560547 72.00949859619141 33.2449836730957 72.93359375 37.966796875 72.93359375 C 42.6886100769043 72.93359375 47.26758575439453 72.00949859619141 51.57653427124023 70.18695831298828 C 55.73999786376953 68.42597198486328 59.47979736328125 65.90431976318359 62.69205856323242 62.69205856323242 C 65.90431976318359 59.47979736328125 68.42597198486328 55.73999786376953 70.18695831298828 51.57653427124023 C 72.00949859619141 47.26758575439453 72.93359375 42.6886100769043 72.93359375 37.966796875 C 72.93359375 33.2449836730957 72.00949859619141 28.66600799560547 70.18695831298828 24.35705947875977 C 68.42597198486328 20.19359588623047 65.90431976318359 16.45379638671875 62.69205856323242 13.24153518676758 C 59.47979736328125 10.02928161621094 55.73999786376953 7.507637023925781 51.57653427124023 5.746635437011719 C 47.26758575439453 3.924095153808594 42.6886100769043 3 37.966796875 3 M 37.966796875 0 C 58.93528366088867 0 75.93359375 16.99832153320312 75.93359375 37.966796875 C 75.93359375 58.93528366088867 58.93528366088867 75.93359375 37.966796875 75.93359375 C 16.99831008911133 75.93359375 0 58.93528366088867 0 37.966796875 C 0 16.99832153320312 16.99831008911133 0 37.966796875 0 Z" stroke="none" fill="#3ea6db"/>
                                  </g>
                                </g>
                              </g>
                            </g>
                          </g>
                        </g>
                      </g>
                    </g>
                  </g>
                </g>
              </g>
            </g>
          </g>
        </g>
      </g>
    </g>
    <g id="proceso-de-trabajo_1_" data-name="proceso-de-trabajo (1)" transform="translate(207.652 1624.585)">
      <g id="Grupo_1218776" data-name="Grupo 1218776" transform="translate(0.949 0.949)">
        <path id="Trazado_1086371" data-name="Trazado 1086371" d="M57.011,10.433h0A27,27,0,0,0,30.148,34.708l7.128-.334a20.007,20.007,0,0,1,19.735-16.91l-.032.011V20.2l6.891-5.568L56.979,8v2.444" transform="translate(-27.52 -8)" fill="#ffe27a"/>
        <path id="Trazado_1086372" data-name="Trazado 1086372" d="M108.107,74.624l5.19-4.194A19.979,19.979,0,0,0,88.161,88.806l.243-.011a20.006,20.006,0,0,1,19.735-16.91l-.032.011Z" transform="translate(-78.648 -62.42)" fill="#f9cf58"/>
        <path id="Trazado_1086373" data-name="Trazado 1086373" d="M169.717,155.187l-2.258-.339a10.535,10.535,0,0,0-1.66-4.007L167.155,149a.808.808,0,0,0-.079-1.051l-1.169-1.169a.808.808,0,0,0-1.051-.079l-1.837,1.357a10.534,10.534,0,0,0-4.007-1.66l-.339-2.258a.808.808,0,0,0-.8-.688h-1.653a.808.808,0,0,0-.8.688l-.339,2.258a10.533,10.533,0,0,0-4.007,1.66l-1.837-1.357a.808.808,0,0,0-1.051.079l-1.169,1.169a.808.808,0,0,0-.079,1.051l1.357,1.837a10.535,10.535,0,0,0-1.66,4.007l-2.258.339a.808.808,0,0,0-.688.8v1.653a.808.808,0,0,0,.688.8l2.258.339a10.535,10.535,0,0,0,1.66,4.007l-1.357,1.837a.808.808,0,0,0,.079,1.051l1.169,1.169a.808.808,0,0,0,1.051.079l1.837-1.357a10.534,10.534,0,0,0,4.007,1.66l.339,2.258a.808.808,0,0,0,.8.688h1.653a.808.808,0,0,0,.8-.688l.339-2.258a10.533,10.533,0,0,0,4.007-1.66l1.837,1.357a.808.808,0,0,0,1.051-.079l1.169-1.169a.808.808,0,0,0,.079-1.051l-1.357-1.837a10.535,10.535,0,0,0,1.66-4.007l2.258-.339a.808.808,0,0,0,.688-.8v-1.653A.808.808,0,0,0,169.717,155.187Zm-12.669,6.971a5.346,5.346,0,1,1,5.346-5.346A5.346,5.346,0,0,1,157.048,162.158Z" transform="translate(-127.589 -127.38)" fill="#ff4755"/>
        <path id="Trazado_1086374" data-name="Trazado 1086374" d="M10.461,204.591c0,.009,0,.018,0,.028a27,27,0,0,0,24.276,26.863l-.418-7.142a19.972,19.972,0,0,1-16.827-19.721c0-.009,0-.018,0-.028H20.2L14.637,197.7,8,204.591h2.444" transform="translate(-8 -175.187)" fill="#8bcaff"/>
        <path id="Trazado_1086375" data-name="Trazado 1086375" d="M204.591,295.727h.055a19.972,19.972,0,0,0,19.72-16.821l7.148-.486a27,27,0,0,1-26.868,24.338h-.055v2.434l-6.891-6.637,6.891-5.568v2.729Z" transform="translate(-175.187 -246.328)" fill="#98db7c"/>
        <path id="Trazado_1086376" data-name="Trazado 1086376" d="M221.877,266.068A5.367,5.367,0,0,0,221.77,265a5.347,5.347,0,0,1-10.478,0,5.346,5.346,0,1,0,10.585,1.068Z" transform="translate(-187.072 -234.5)" fill="#fc2b3a"/>
        <path id="Trazado_1086377" data-name="Trazado 1086377" d="M216.491,300.624a27.123,27.123,0,0,1-5.351-.531l5.3,5.1v-2.434h.055a27,27,0,0,0,26.868-24.338l-.368.382A27.007,27.007,0,0,1,216.491,300.624Z" transform="translate(-187.032 -246.329)" fill="#82d361"/>
        <path id="Trazado_1086378" data-name="Trazado 1086378" d="M50.381,280.127a27.012,27.012,0,0,1-21.565-24.359h-.082c0,.009,0,.018,0,.028a27,27,0,0,0,24.276,26.863Z" transform="translate(-26.272 -226.364)" fill="#6cc4ff"/>
        <path id="Trazado_1086379" data-name="Trazado 1086379" d="M303,56.5c0-.009,0-.018,0-.028A27,27,0,0,0,278.664,29.6l4.229,4.073-3.8,3.067A19.972,19.972,0,0,1,295.97,56.47c0,.009,0,.018,0,.028H293.2l5.568,6.891,6.637-6.891Z" transform="translate(-246.542 -27.038)" fill="#ffba57"/>
        <g id="Grupo_1218775" data-name="Grupo 1218775" transform="translate(32.555 8.011)">
          <path id="Trazado_1086380" data-name="Trazado 1086380" d="M284.411,75.5l-2.095,1.693a19.974,19.974,0,0,1,16.843,18.666q.028-.533.029-1.073A19.975,19.975,0,0,0,284.411,75.5Z" transform="translate(-282.316 -75.501)" fill="#ffac3e"/>
        </g>
      </g>
      <g id="Grupo_1218777" data-name="Grupo 1218777" transform="translate(0 0)">
        <path id="Trazado_1086381" data-name="Trazado 1086381" d="M209.82,203.347a6.252,6.252,0,0,0-5.87,8.4.892.892,0,1,0,1.675-.613,4.465,4.465,0,1,1,1.894,2.294.892.892,0,0,0-.921,1.528,6.249,6.249,0,1,0,3.221-11.6Z" transform="translate(-179.412 -179.214)"/>
        <path id="Trazado_1086382" data-name="Trazado 1086382" d="M163.044,147.478l-1.654-.249a11.362,11.362,0,0,0-1.322-3.19l.994-1.346a1.691,1.691,0,0,0-.165-2.214l-1.171-1.171a1.691,1.691,0,0,0-2.214-.165l-1.346.994a11.356,11.356,0,0,0-3.19-1.322l-.249-1.654a1.691,1.691,0,0,0-1.682-1.448H149.39a1.691,1.691,0,0,0-1.682,1.448l-.249,1.654a11.357,11.357,0,0,0-3.19,1.322l-1.346-.994a1.691,1.691,0,0,0-2.214.166l-1.171,1.171a1.691,1.691,0,0,0-.166,2.214l.994,1.346a11.349,11.349,0,0,0-1.322,3.19l-1.654.249a1.691,1.691,0,0,0-1.449,1.682v1.656a1.691,1.691,0,0,0,1.448,1.682l1.654.249a11.357,11.357,0,0,0,1.322,3.19l-.994,1.346a1.691,1.691,0,0,0,.165,2.214l1.171,1.171a1.691,1.691,0,0,0,2.214.165l1.346-.994a11.356,11.356,0,0,0,3.19,1.322l.249,1.654a1.691,1.691,0,0,0,1.682,1.448h1.656a1.691,1.691,0,0,0,1.682-1.448l.249-1.654a11.356,11.356,0,0,0,3.19-1.322l1.346.994a1.691,1.691,0,0,0,2.214-.165L160.9,159.5a1.691,1.691,0,0,0,.165-2.214l-.994-1.346a11.353,11.353,0,0,0,1.322-3.19l1.654-.249a1.691,1.691,0,0,0,1.449-1.682V149.16a1.691,1.691,0,0,0-1.448-1.682Zm-.335,3.268-2.192.33a.892.892,0,0,0-.744.718,9.616,9.616,0,0,1-1.523,3.676.892.892,0,0,0,.019,1.033l1.318,1.784-1.071,1.071-1.784-1.318a.892.892,0,0,0-1.033-.019,9.615,9.615,0,0,1-3.676,1.523.892.892,0,0,0-.718.744l-.329,2.192H149.46l-.33-2.192a.892.892,0,0,0-.718-.744,9.616,9.616,0,0,1-3.676-1.523.891.891,0,0,0-1.033.019l-1.784,1.318-1.071-1.071,1.318-1.784a.892.892,0,0,0,.019-1.033,9.614,9.614,0,0,1-1.523-3.676.892.892,0,0,0-.744-.718l-2.192-.33v-1.514l2.192-.33a.892.892,0,0,0,.744-.718,9.615,9.615,0,0,1,1.523-3.676.891.891,0,0,0-.019-1.033l-1.318-1.784,1.071-1.071,1.784,1.318a.892.892,0,0,0,1.033.019,9.618,9.618,0,0,1,3.676-1.524.892.892,0,0,0,.718-.744l.33-2.192h1.514l.329,2.192a.892.892,0,0,0,.718.744,9.614,9.614,0,0,1,3.676,1.524.892.892,0,0,0,1.033-.019l1.784-1.318,1.071,1.071-1.318,1.784a.892.892,0,0,0-.019,1.033,9.615,9.615,0,0,1,1.523,3.676.892.892,0,0,0,.744.718l2.192.33Z" transform="translate(-119.81 -119.607)"/>
        <path id="Trazado_1086383" data-name="Trazado 1086383" d="M60.691,30.06a.892.892,0,0,0-.821-.543H58.339A27.945,27.945,0,0,0,33.475,2.605L31.026.247a.9.9,0,0,0-1.51.642V2.45A27.746,27.746,0,0,0,14.323,7.527a.892.892,0,1,0,1.028,1.458A25.991,25.991,0,0,1,30.408,4.219a.892.892,0,0,0,.892-.892V2.987l4.667,4.494L31.3,11.252v-.879a.892.892,0,0,0-.892-.892A20.906,20.906,0,0,0,10.144,25.254L8.233,22.888A.9.9,0,0,0,6.9,22.83L4.8,25a26.128,26.128,0,0,1,7.865-13.851.892.892,0,0,0-1.21-1.311A27.889,27.889,0,0,0,2.639,27.252L.247,29.735a.9.9,0,0,0,.642,1.511H2.476a27.946,27.946,0,0,0,24.8,26.906l2.455,2.364a.9.9,0,0,0,1.51-.642V58.315A27.729,27.729,0,0,0,46.682,53.1a.892.892,0,0,0-1.04-1.449A25.98,25.98,0,0,1,30.4,56.543h-.045a.892.892,0,0,0-.892.892v.342l-4.667-4.494,4.667-3.771v.878a.892.892,0,0,0,.886.892h.061A20.906,20.906,0,0,0,50.657,35.56l1.87,2.314a.9.9,0,0,0,1.336.058l2.164-2.247A26.144,26.144,0,0,1,48.31,49.457a.892.892,0,0,0,1.221,1.3,27.906,27.906,0,0,0,8.652-17.311l2.33-2.42a.891.891,0,0,0,.178-.967Zm-37.8,22.469a.9.9,0,0,0-.058,1.336l2.2,2.123a26.169,26.169,0,0,1-20.786-25.6v-.031a.892.892,0,0,0-.892-.892H2.986L7.481,24.8l3.77,4.667H10.4a.889.889,0,0,0-.892.889v.031A20.906,20.906,0,0,0,25.234,50.633Zm19.993-7.661a19.106,19.106,0,0,1-11.635,4.611V47.644a.9.9,0,0,0-1.452-.694L27.013,49.2a19.122,19.122,0,0,1-15.7-17.95h1.807a.9.9,0,0,0,.694-1.452l-2.228-2.757a19.121,19.121,0,0,1,17.931-15.75v1.833a.9.9,0,0,0,1.452.694l2.79-2.254A19.121,19.121,0,0,1,49.5,29.517H47.642a.9.9,0,0,0-.694,1.452l2.272,2.812a19.126,19.126,0,0,1-6.341,11.086Zm10.4-8.9L49.509,31.3h.906a.889.889,0,0,0,.892-.889v-.031A20.907,20.907,0,0,0,35.54,10.119l2.333-1.885A.9.9,0,0,0,37.931,6.9L35.713,4.761A26.168,26.168,0,0,1,56.569,30.378v.031a.892.892,0,0,0,.892.892h.314Z" transform="translate(0 0)"/>
      </g>
    </g>
  </g>
</svg>
