<svg xmlns="http://www.w3.org/2000/svg" xmlns:xlink="http://www.w3.org/1999/xlink" width="93.934" height="93.934" viewBox="0 0 93.934 93.934">
  <defs>
    <filter id="Trazado_982547" x="0" y="0" width="93.934" height="93.934" filterUnits="userSpaceOnUse">
      <feOffset dy="3" input="SourceAlpha"/>
      <feGaussianBlur stdDeviation="3" result="blur"/>
      <feFlood flood-opacity="0.161"/>
      <feComposite operator="in" in2="blur"/>
      <feComposite in="SourceGraphic"/>
    </filter>
  </defs>
  <g id="Grupo_1218785" data-name="Grupo 1218785" transform="translate(-1031.066 -1611)">
    <g id="Grupo_1218056" data-name="Grupo 1218056" transform="translate(840 -6838.729)">
      <g id="Grupo_1214711" data-name="Grupo 1214711" transform="translate(-0.229 3321.729)">
        <g id="Grupo_1214432" data-name="Grupo 1214432" transform="translate(-0.771 -2738.674)">
          <g id="Grupo_1183196" data-name="Grupo 1183196" transform="translate(1 1016.674)">
            <g id="Grupo_1179610" data-name="Grupo 1179610" transform="translate(8 4723.467)">
              <g id="Grupo_1175227" data-name="Grupo 1175227" transform="translate(-5.967 140.533)">
                <g id="Grupo_1167337" data-name="Grupo 1167337" transform="translate(198.033 1992)">
                  <g id="Grupo_1166720" data-name="Grupo 1166720">
                    <g id="Grupo_1164305" data-name="Grupo 1164305">
                      <g id="Grupo_1163948" data-name="Grupo 1163948">
                        <g id="Grupo_1158168" data-name="Grupo 1158168">
                          <g id="Grupo_1152576" data-name="Grupo 1152576">
                            <g id="Grupo_1148633" data-name="Grupo 1148633">
                              <g id="Grupo_1148525" data-name="Grupo 1148525">
                                <g transform="matrix(1, 0, 0, 1, -9, -6)" filter="url(#Trazado_982547)">
                                  <g id="Trazado_982547-2" data-name="Trazado 982547" transform="translate(9 6)" fill="#eaf5fb">
                                    <path d="M 37.966796875 74.43359375 C 33.04315185546875 74.43359375 28.26757431030273 73.46962738037109 23.77274131774902 71.56847381591797 C 19.43047523498535 69.73184967041016 15.53040790557861 67.10224914550781 12.18087482452393 63.75271987915039 C 8.831341743469238 60.4031867980957 6.201741218566895 56.50312042236328 4.365118980407715 52.16086196899414 C 2.463963508605957 47.66601943969727 1.499996900558472 42.89044189453125 1.499996900558472 37.966796875 C 1.499996900558472 33.04315185546875 2.463963508605957 28.26757431030273 4.365118980407715 23.77274131774902 C 6.201741218566895 19.43047523498535 8.831341743469238 15.53040790557861 12.18087482452393 12.18087482452393 C 15.53040790557861 8.831341743469238 19.43047523498535 6.201741218566895 23.77274131774902 4.365118980407715 C 28.26757431030273 2.463963508605957 33.04315185546875 1.499996900558472 37.966796875 1.499996900558472 C 42.89044189453125 1.499996900558472 47.66601943969727 2.463963508605957 52.16086196899414 4.365118980407715 C 56.50312042236328 6.201741218566895 60.4031867980957 8.831341743469238 63.75271987915039 12.18087482452393 C 67.10224914550781 15.53040790557861 69.73184967041016 19.43047523498535 71.56847381591797 23.77274131774902 C 73.46962738037109 28.26757431030273 74.43359375 33.04315185546875 74.43359375 37.966796875 C 74.43359375 42.89044189453125 73.46962738037109 47.66601943969727 71.56847381591797 52.16086196899414 C 69.73184967041016 56.50313186645508 67.10224914550781 60.4031867980957 63.75271987915039 63.75271987915039 C 60.4031867980957 67.10224914550781 56.50313186645508 69.73184967041016 52.16086196899414 71.56847381591797 C 47.66601943969727 73.46962738037109 42.89044189453125 74.43359375 37.966796875 74.43359375 Z" stroke="none"/>
                                    <path d="M 37.966796875 3 C 33.2449836730957 3 28.66600799560547 3.924095153808594 24.35705947875977 5.746635437011719 C 20.19359588623047 7.507637023925781 16.45379638671875 10.02928161621094 13.24153518676758 13.24153518676758 C 10.02927398681641 16.45379638671875 7.507621765136719 20.19359588623047 5.746635437011719 24.35705947875977 C 3.924095153808594 28.66600799560547 3 33.2449836730957 3 37.966796875 C 3 42.6886100769043 3.924095153808594 47.26758575439453 5.746635437011719 51.57653427124023 C 7.507621765136719 55.73999786376953 10.02927398681641 59.47979736328125 13.24153518676758 62.69205856323242 C 16.45379638671875 65.90431976318359 20.19359588623047 68.42597198486328 24.35705947875977 70.18695831298828 C 28.66600799560547 72.00949859619141 33.2449836730957 72.93359375 37.966796875 72.93359375 C 42.6886100769043 72.93359375 47.26758575439453 72.00949859619141 51.57653427124023 70.18695831298828 C 55.73999786376953 68.42597198486328 59.47979736328125 65.90431976318359 62.69205856323242 62.69205856323242 C 65.90431976318359 59.47979736328125 68.42597198486328 55.73999786376953 70.18695831298828 51.57653427124023 C 72.00949859619141 47.26758575439453 72.93359375 42.6886100769043 72.93359375 37.966796875 C 72.93359375 33.2449836730957 72.00949859619141 28.66600799560547 70.18695831298828 24.35705947875977 C 68.42597198486328 20.19359588623047 65.90431976318359 16.45379638671875 62.69205856323242 13.24153518676758 C 59.47979736328125 10.02928161621094 55.73999786376953 7.507637023925781 51.57653427124023 5.746635437011719 C 47.26758575439453 3.924095153808594 42.6886100769043 3 37.966796875 3 M 37.966796875 0 C 58.93528366088867 0 75.93359375 16.99832153320312 75.93359375 37.966796875 C 75.93359375 58.93528366088867 58.93528366088867 75.93359375 37.966796875 75.93359375 C 16.99831008911133 75.93359375 0 58.93528366088867 0 37.966796875 C 0 16.99832153320312 16.99831008911133 0 37.966796875 0 Z" stroke="none" fill="#3ea6db"/>
                                  </g>
                                </g>
                              </g>
                            </g>
                          </g>
                        </g>
                      </g>
                    </g>
                  </g>
                </g>
              </g>
            </g>
          </g>
        </g>
      </g>
    </g>
    <g id="alcanzar-el-objetivo" transform="translate(1054.236 1628.416)">
      <g id="Grupo_1218784" data-name="Grupo 1218784" transform="translate(1.707 6.041)">
        <g id="Grupo_1218781" data-name="Grupo 1218781" transform="translate(0 20.342)">
          <path id="Trazado_1086413" data-name="Trazado 1086413" d="M8.888,407.479h6.828a.389.389,0,0,1,.388.388v7.864a.389.389,0,0,1-.388.388H8.888a.389.389,0,0,1-.388-.388v-7.864A.389.389,0,0,1,8.888,407.479Z" transform="translate(-8.5 -390.626)" fill="#ff6372" fill-rule="evenodd"/>
          <path id="Trazado_1086414" data-name="Trazado 1086414" d="M131.366,347.874h6.828a.389.389,0,0,1,.388.388v13.482a.389.389,0,0,1-.388.388h-6.828a.389.389,0,0,1-.388-.388V348.262A.389.389,0,0,1,131.366,347.874Z" transform="translate(-119.435 -336.639)" fill="#ffd54f" fill-rule="evenodd"/>
          <path id="Trazado_1086415" data-name="Trazado 1086415" d="M253.843,288.27h6.828a.389.389,0,0,1,.388.388v19.1a.389.389,0,0,1-.388.388h-6.828a.389.389,0,0,1-.388-.388v-19.1A.389.389,0,0,1,253.843,288.27Z" transform="translate(-230.368 -282.652)" fill="#6ce75a" fill-rule="evenodd"/>
          <path id="Trazado_1086416" data-name="Trazado 1086416" d="M376.321,228.665h6.828a.389.389,0,0,1,.388.388v24.717a.389.389,0,0,1-.388.388h-6.828a.389.389,0,0,1-.388-.388V229.053A.389.389,0,0,1,376.321,228.665Z" transform="translate(-341.303 -228.665)" fill="#43a2ff" fill-rule="evenodd"/>
        </g>
        <g id="Grupo_1218782" data-name="Grupo 1218782" transform="translate(31.746)">
          <path id="Trazado_1086417" data-name="Trazado 1086417" d="M356.047,25.684H367.4v2.933a8.573,8.573,0,0,1-3.324,6.572,3.021,3.021,0,0,0-.9,3.8l.668,1.333H359.6l.667-1.333a3.021,3.021,0,0,0-.9-3.8,8.573,8.573,0,0,1-3.324-6.572V25.684Z" transform="translate(-355.037 -24.473)" fill="#ffd54f" fill-rule="evenodd"/>
          <path id="Trazado_1086418" data-name="Trazado 1086418" d="M384.042,154.246h4.391a.933.933,0,0,1,.93.93v1.931h-6.252v-1.931A.933.933,0,0,1,384.042,154.246Z" transform="translate(-379.551 -140.918)" fill="#ffb700" fill-rule="evenodd"/>
          <path id="Trazado_1086419" data-name="Trazado 1086419" d="M361.708,176.512h8.626a.919.919,0,0,1,.916.916v1.68a.378.378,0,0,1-.377.377h-9.705a.378.378,0,0,1-.377-.377v-1.68A.919.919,0,0,1,361.708,176.512Z" transform="translate(-359.335 -161.086)" fill="#ffd54f" fill-rule="evenodd"/>
          <path id="Trazado_1086420" data-name="Trazado 1086420" d="M346.218,12.837h11.6a.889.889,0,1,1,0,1.778h-11.6a.889.889,0,1,1,0-1.778Z" transform="translate(-345.329 -12.837)" fill="#ffb700" fill-rule="evenodd"/>
        </g>
        <g id="Grupo_1218783" data-name="Grupo 1218783" transform="translate(4.357 4.942)">
          <circle id="Elipse_14465" data-name="Elipse 14465" cx="9.042" cy="9.042" r="9.042" transform="translate(4.128)" fill="#ff6372"/>
          <circle id="Elipse_14466" data-name="Elipse 14466" cx="5.796" cy="5.796" r="5.796" transform="translate(6.196 4.726) rotate(-13.3)" fill="#f0f0f0"/>
          <circle id="Elipse_14467" data-name="Elipse 14467" cx="1.664" cy="1.664" r="1.664" transform="matrix(0.987, -0.16, 0.16, 0.987, 11.256, 7.667)" fill="#ff6372"/>
          <path id="Trazado_1086421" data-name="Trazado 1086421" d="M61.4,230.131l-3.315.094-3.359,3.359,3.315-.094L57.95,236.8l3.359-3.358Z" transform="translate(-54.729 -214.594)" fill="#7a7785" fill-rule="evenodd"/>
        </g>
      </g>
      <path id="Trazado_1086422" data-name="Trazado 1086422" d="M9.724,27.314l2.285-.065-.065,2.286-1.9,1.9.043-1.538a.707.707,0,0,0-.707-.727h-.02l-1.538.044Zm8.41-5.189a2.35,2.35,0,0,0,1.1.272,2.374,2.374,0,1,0-2.1-1.272l-1.962,1.962a5.1,5.1,0,1,1,1,1Zm.142-2.1a.958.958,0,1,0,.957-.957A.959.959,0,0,0,18.276,20.025Zm.957-8.334a8.33,8.33,0,0,0-6.369,13.7l1.3-1.3a6.5,6.5,0,1,1,1,1l-1.3,1.3a8.333,8.333,0,1,0,5.369-14.7ZM6.084,30.68l2.568-.073-.074,2.567a.707.707,0,0,0,1.206.52l3.359-3.359a.7.7,0,0,0,.207-.48l.057-2.02a9.753,9.753,0,1,0-1.985-1.984l-2.02.057a.705.705,0,0,0-.48.207L5.565,29.474a.706.706,0,0,0-.15.78A.714.714,0,0,0,6.084,30.68ZM47.653,11.55A3.709,3.709,0,0,1,44.986,15.1a9.067,9.067,0,0,0,1.537-4.921V9.962h1.13Zm-5.584,4.64a7.87,7.87,0,0,0,3.041-6.005V8.527H35.17v1.658a7.871,7.871,0,0,0,3.04,6.006,3.739,3.739,0,0,1,1.47,2.471H40.6A3.74,3.74,0,0,1,42.069,16.19Zm.489,4.109v.462H37.721V20.3a.227.227,0,0,1,.224-.224h4.391a.226.226,0,0,1,.224.224Zm2.1,2.085v1.351H35.617V22.384a.212.212,0,0,1,.21-.209h8.626A.212.212,0,0,1,44.662,22.384ZM32.626,11.55V9.962h1.13v.223A9.08,9.08,0,0,0,35.292,15.1,3.709,3.709,0,0,1,32.626,11.55Zm1.716-4.8h11.6a.182.182,0,1,1,0,.365h-11.6a.182.182,0,0,1,0-.365Zm14.019,1.8H46.524V8.413a1.6,1.6,0,0,0-.586-3.079h-11.6a1.6,1.6,0,0,0-.585,3.079v.135H31.92a.706.706,0,0,0-.707.707V11.55a5.122,5.122,0,0,0,5.117,5.117h.263a8.238,8.238,0,0,0,.771.656,2.337,2.337,0,0,1,.881,1.339h-.3A1.639,1.639,0,0,0,36.307,20.3v.462h-.48A1.625,1.625,0,0,0,34.2,22.384v2.058a.707.707,0,0,0,.707.707H45.369a.707.707,0,0,0,.707-.707V22.384a1.624,1.624,0,0,0-1.623-1.623h-.48V20.3a1.639,1.639,0,0,0-1.637-1.637h-.3a2.337,2.337,0,0,1,.88-1.339,8.359,8.359,0,0,0,.772-.656h.263a5.122,5.122,0,0,0,5.117-5.117V9.255a.706.706,0,0,0-.707-.707ZM8.605,51.17H2.414V43.943H8.605Zm.319-8.642H2.1a1.1,1.1,0,0,0-1.1,1.1v7.864a1.1,1.1,0,0,0,1.1,1.1H8.924a1.1,1.1,0,0,0,1.1-1.1V43.625A1.1,1.1,0,0,0,8.924,42.529ZM43.235,51.17H37.044V27.09h6.191Zm.319-25.494H36.725a1.1,1.1,0,0,0-1.1,1.1V51.489a1.1,1.1,0,0,0,1.1,1.1h6.829a1.1,1.1,0,0,0,1.1-1.1V26.771A1.1,1.1,0,0,0,43.554,25.676ZM31.692,51.17H25.5V32.708h6.19Zm.319-19.876a1.1,1.1,0,0,1,1.1,1.1v19.1a1.1,1.1,0,0,1-1.1,1.1H25.183a1.1,1.1,0,0,1-1.1-1.1v-19.1a1.1,1.1,0,0,1,1.1-1.1ZM20.149,51.17H13.957V38.325h6.191Zm.319-14.259H13.639a1.1,1.1,0,0,0-1.1,1.1V51.489a1.1,1.1,0,0,0,1.1,1.1h6.828a1.1,1.1,0,0,0,1.1-1.1V38.007A1.1,1.1,0,0,0,20.467,36.912Z" fill-rule="evenodd"/>
    </g>
  </g>
</svg>
