<svg xmlns="http://www.w3.org/2000/svg" xmlns:xlink="http://www.w3.org/1999/xlink" width="93.934" height="93.934" viewBox="0 0 93.934 93.934">
  <defs>
    <filter id="Trazado_982547" x="0" y="0" width="93.934" height="93.934" filterUnits="userSpaceOnUse">
      <feOffset dy="3" input="SourceAlpha"/>
      <feGaussianBlur stdDeviation="3" result="blur"/>
      <feFlood flood-opacity="0.161"/>
      <feComposite operator="in" in2="blur"/>
      <feComposite in="SourceGraphic"/>
    </filter>
  </defs>
  <g id="Grupo_1218786" data-name="Grupo 1218786" transform="translate(-191.066 -1763)">
    <g id="Grupo_1218057" data-name="Grupo 1218057" transform="translate(0 -6686.729)">
      <g id="Grupo_1214711" data-name="Grupo 1214711" transform="translate(-0.229 3321.729)">
        <g id="Grupo_1214432" data-name="Grupo 1214432" transform="translate(-0.771 -2738.674)">
          <g id="Grupo_1183196" data-name="Grupo 1183196" transform="translate(1 1016.674)">
            <g id="Grupo_1179610" data-name="Grupo 1179610" transform="translate(8 4723.467)">
              <g id="Grupo_1175227" data-name="Grupo 1175227" transform="translate(-5.967 140.533)">
                <g id="Grupo_1167337" data-name="Grupo 1167337" transform="translate(198.033 1992)">
                  <g id="Grupo_1166720" data-name="Grupo 1166720">
                    <g id="Grupo_1164305" data-name="Grupo 1164305">
                      <g id="Grupo_1163948" data-name="Grupo 1163948">
                        <g id="Grupo_1158168" data-name="Grupo 1158168">
                          <g id="Grupo_1152576" data-name="Grupo 1152576">
                            <g id="Grupo_1148633" data-name="Grupo 1148633">
                              <g id="Grupo_1148525" data-name="Grupo 1148525">
                                <g transform="matrix(1, 0, 0, 1, -9, -6)" filter="url(#Trazado_982547)">
                                  <g id="Trazado_982547-2" data-name="Trazado 982547" transform="translate(9 6)" fill="#eaf5fb">
                                    <path d="M 37.966796875 74.43359375 C 33.04315185546875 74.43359375 28.26757431030273 73.46962738037109 23.77274131774902 71.56847381591797 C 19.43047523498535 69.73184967041016 15.53040790557861 67.10224914550781 12.18087482452393 63.75271987915039 C 8.831341743469238 60.4031867980957 6.201741218566895 56.50312042236328 4.365118980407715 52.16086196899414 C 2.463963508605957 47.66601943969727 1.499996900558472 42.89044189453125 1.499996900558472 37.966796875 C 1.499996900558472 33.04315185546875 2.463963508605957 28.26757431030273 4.365118980407715 23.77274131774902 C 6.201741218566895 19.43047523498535 8.831341743469238 15.53040790557861 12.18087482452393 12.18087482452393 C 15.53040790557861 8.831341743469238 19.43047523498535 6.201741218566895 23.77274131774902 4.365118980407715 C 28.26757431030273 2.463963508605957 33.04315185546875 1.499996900558472 37.966796875 1.499996900558472 C 42.89044189453125 1.499996900558472 47.66601943969727 2.463963508605957 52.16086196899414 4.365118980407715 C 56.50312042236328 6.201741218566895 60.4031867980957 8.831341743469238 63.75271987915039 12.18087482452393 C 67.10224914550781 15.53040790557861 69.73184967041016 19.43047523498535 71.56847381591797 23.77274131774902 C 73.46962738037109 28.26757431030273 74.43359375 33.04315185546875 74.43359375 37.966796875 C 74.43359375 42.89044189453125 73.46962738037109 47.66601943969727 71.56847381591797 52.16086196899414 C 69.73184967041016 56.50313186645508 67.10224914550781 60.4031867980957 63.75271987915039 63.75271987915039 C 60.4031867980957 67.10224914550781 56.50313186645508 69.73184967041016 52.16086196899414 71.56847381591797 C 47.66601943969727 73.46962738037109 42.89044189453125 74.43359375 37.966796875 74.43359375 Z" stroke="none"/>
                                    <path d="M 37.966796875 3 C 33.2449836730957 3 28.66600799560547 3.924095153808594 24.35705947875977 5.746635437011719 C 20.19359588623047 7.507637023925781 16.45379638671875 10.02928161621094 13.24153518676758 13.24153518676758 C 10.02927398681641 16.45379638671875 7.507621765136719 20.19359588623047 5.746635437011719 24.35705947875977 C 3.924095153808594 28.66600799560547 3 33.2449836730957 3 37.966796875 C 3 42.6886100769043 3.924095153808594 47.26758575439453 5.746635437011719 51.57653427124023 C 7.507621765136719 55.73999786376953 10.02927398681641 59.47979736328125 13.24153518676758 62.69205856323242 C 16.45379638671875 65.90431976318359 20.19359588623047 68.42597198486328 24.35705947875977 70.18695831298828 C 28.66600799560547 72.00949859619141 33.2449836730957 72.93359375 37.966796875 72.93359375 C 42.6886100769043 72.93359375 47.26758575439453 72.00949859619141 51.57653427124023 70.18695831298828 C 55.73999786376953 68.42597198486328 59.47979736328125 65.90431976318359 62.69205856323242 62.69205856323242 C 65.90431976318359 59.47979736328125 68.42597198486328 55.73999786376953 70.18695831298828 51.57653427124023 C 72.00949859619141 47.26758575439453 72.93359375 42.6886100769043 72.93359375 37.966796875 C 72.93359375 33.2449836730957 72.00949859619141 28.66600799560547 70.18695831298828 24.35705947875977 C 68.42597198486328 20.19359588623047 65.90431976318359 16.45379638671875 62.69205856323242 13.24153518676758 C 59.47979736328125 10.02928161621094 55.73999786376953 7.507637023925781 51.57653427124023 5.746635437011719 C 47.26758575439453 3.924095153808594 42.6886100769043 3 37.966796875 3 M 37.966796875 0 C 58.93528366088867 0 75.93359375 16.99832153320312 75.93359375 37.966796875 C 75.93359375 58.93528366088867 58.93528366088867 75.93359375 37.966796875 75.93359375 C 16.99831008911133 75.93359375 0 58.93528366088867 0 37.966796875 C 0 16.99832153320312 16.99831008911133 0 37.966796875 0 Z" stroke="none" fill="#3ea6db"/>
                                  </g>
                                </g>
                              </g>
                            </g>
                          </g>
                        </g>
                      </g>
                    </g>
                  </g>
                </g>
              </g>
            </g>
          </g>
        </g>
      </g>
    </g>
    <g id="administracion" transform="translate(212.139 1783.414)">
      <path id="Trazado_1086423" data-name="Trazado 1086423" d="M15,50H26.053v3.158H15Z" transform="translate(-2.947 -10.316)" fill="#aab2bd"/>
      <path id="Trazado_1086424" data-name="Trazado 1086424" d="M28.253,54.695a2.363,2.363,0,0,1,.695,1.674.792.792,0,0,1-.789.789H10.789A.792.792,0,0,1,10,56.368,2.365,2.365,0,0,1,12.368,54h14.21A2.363,2.363,0,0,1,28.253,54.695Z" transform="translate(-1.895 -11.158)" fill="#aab2bd"/>
      <path id="Trazado_1086425" data-name="Trazado 1086425" d="M30.421,44.105H5.158A3.158,3.158,0,0,1,2,40.947V25.158A3.158,3.158,0,0,1,5.158,22H30.421a3.158,3.158,0,0,1,3.158,3.158V40.947A3.158,3.158,0,0,1,30.421,44.105Z" transform="translate(-0.211 -4.421)" fill="#ccd1d9"/>
      <circle id="Elipse_14468" data-name="Elipse 14468" cx="6.134" cy="6.134" r="6.134" transform="translate(1.755 1.755)" fill="#ffeaa7"/>
      <path id="Trazado_1086426" data-name="Trazado 1086426" d="M8.829,12a4.731,4.731,0,0,1,4.389,2.961,6.312,6.312,0,0,1-8.779,0A4.731,4.731,0,0,1,8.829,12Z" transform="translate(-0.724 -2.316)" fill="#ff826e"/>
      <path id="Trazado_1086427" data-name="Trazado 1086427" d="M30.474,41.789H6.789A.79.79,0,0,1,6,41V26.789A.79.79,0,0,1,6.789,26H30.474a.79.79,0,0,1,.789.789V41A.79.79,0,0,1,30.474,41.789Z" transform="translate(-1.053 -5.263)" fill="#69d6f4"/>
      <circle id="Elipse_14469" data-name="Elipse 14469" cx="6.572" cy="6.572" r="6.572" transform="translate(14.022 14.022)" fill="#ffeaa7"/>
      <path id="Trazado_1086428" data-name="Trazado 1086428" d="M24.829,28a4.731,4.731,0,0,1,4.389,2.961,6.312,6.312,0,0,1-8.779,0A4.731,4.731,0,0,1,24.829,28Z" transform="translate(-4.093 -5.684)" fill="#ff826e"/>
      <circle id="Elipse_14470" data-name="Elipse 14470" cx="2.191" cy="2.191" r="2.191" transform="translate(6.136 5.259)" fill="#f0d0b4"/>
      <circle id="Elipse_14471" data-name="Elipse 14471" cx="2.191" cy="2.191" r="2.191" transform="translate(18.403 17.527)" fill="#f0d0b4"/>
      <path id="Trazado_1086429" data-name="Trazado 1086429" d="M54.368,9.105v3.158l-1.895.521A7.448,7.448,0,0,1,51.968,14l.971,1.705-2.234,2.234L49,16.968a15.183,15.183,0,0,1-1.737.821V14.631a1.315,1.315,0,0,0-.032-.308v-.008a3.947,3.947,0,1,0-3.095,0,1.383,1.383,0,0,0-.032.316v3.158a15.183,15.183,0,0,1-1.737-.821l-1.705.971-.15-.15-2.084-2.084L39.4,14a7.447,7.447,0,0,1-.505-1.216L37,12.263V9.105l1.895-.521A7.447,7.447,0,0,1,39.4,7.368l-.971-1.705,2.234-2.234,1.705.971a7.448,7.448,0,0,1,1.216-.505L44.105,2h3.158l.521,1.895A7.448,7.448,0,0,1,49,4.4l1.705-.971,2.234,2.234-.971,1.705a7.447,7.447,0,0,1,.505,1.216Z" transform="translate(-7.579 -0.211)" fill="#ffc729"/>
      <path id="Trazado_1086430" data-name="Trazado 1086430" d="M56.789,54v6.316H41V54H56.789Z" transform="translate(-8.421 -11.158)" fill="#b4dd7f"/>
      <path id="Trazado_1086431" data-name="Trazado 1086431" d="M53.368,28.631a1.584,1.584,0,0,1,1.579-1.579,1.59,1.59,0,0,1,1.579,1.579V38.895a4.731,4.731,0,0,1-.947,2.842l-1.421,1.895V46H41.526V43.631l-1.184-2.439-1.5-3.087a4.7,4.7,0,0,1-.592-1.761l-.545-4.374a2.924,2.924,0,0,0-.126-.592,3.9,3.9,0,0,0-.561-1.255L36.205,28.9A1.181,1.181,0,0,1,36,28.229a1.21,1.21,0,0,1,1.216-1.208c.126,0,.245.008.363.016a4.295,4.295,0,0,1,3.055,1.674,4.2,4.2,0,0,1,.789,1.761l.892,4.445h.789L43.563,34a3.125,3.125,0,0,0,.332-1.413V17.579a1.383,1.383,0,0,1,.032-.316A1.59,1.59,0,0,1,45.474,16a1.544,1.544,0,0,1,1.113.466,1.528,1.528,0,0,1,.434.8v.008a1.315,1.315,0,0,1,.032.308v9.474a1.584,1.584,0,0,1,1.579-1.579,1.59,1.59,0,0,1,1.579,1.579,1.584,1.584,0,0,1,1.579-1.579,1.59,1.59,0,0,1,1.579,1.579Z" transform="translate(-7.369 -3.158)" fill="#f0d0b4"/>
      <path id="Trazado_1086432" data-name="Trazado 1086432" d="M48.842,39.052a5.556,5.556,0,0,0,1.105-3.316V25.474A2.361,2.361,0,0,0,46.7,23.279a2.347,2.347,0,0,0-3.856-1.137,2.3,2.3,0,0,0-2.368-.471V18.11c.286-.129.606-.287.931-.455l1.858,1.059,3.084-3.085L45.28,13.763c.082-.178.158-.359.226-.541l2.072-.567V8.292l-2.072-.567c-.068-.182-.144-.362-.226-.541l1.067-1.867L43.263,2.232,41.394,3.3c-.179-.082-.359-.158-.54-.226L40.287,1H35.924l-.567,2.072c-.181.068-.362.143-.541.226L32.948,2.232,29.864,5.318,30.93,7.185c-.082.178-.158.359-.226.541l-2.073.567V9.684H23.895a2.371,2.371,0,0,0-2.368,2.368v1.626a6.714,6.714,0,0,0-1.579,0V9.684a2.371,2.371,0,0,0-2.368-2.368H15.164a7.105,7.105,0,1,0,0,1.579h2.415a.79.79,0,0,1,.789.789v4.362a7.135,7.135,0,0,0-3.535,2.743H4.947A3.952,3.952,0,0,0,1,20.737V36.526a3.952,3.952,0,0,0,3.947,3.947h6.316v1.579h-.789A3.161,3.161,0,0,0,7.316,45.21a1.581,1.581,0,0,0,1.579,1.579H26.263a1.581,1.581,0,0,0,1.579-1.579,3.161,3.161,0,0,0-3.158-3.158h-.789V40.473H30.21a3.909,3.909,0,0,0,2.587-.992l.571,1.173v1.4H31.789v7.895H49.158V42.052H47.579V40.736ZM4.693,12.444a3.939,3.939,0,0,1,6.824,0,5.5,5.5,0,0,1-6.824,0ZM6.526,7.316A1.579,1.579,0,1,1,8.105,8.895,1.581,1.581,0,0,1,6.526,7.316Zm6.1,3.955a5.481,5.481,0,0,0-2.181-1.856,3.158,3.158,0,1,0-4.683,0,5.481,5.481,0,0,0-2.181,1.856,5.526,5.526,0,1,1,9.046,0Zm15.55,14.912.812,1.219a3.514,3.514,0,0,1,.43.923v7.412H5.737V21.526h7.941a7.1,7.1,0,0,0,14.117,0h1.626v1.592a2,2,0,0,0-1.243,3.065Zm-9.02-6.236a1.579,1.579,0,1,1,1.579,1.579A1.581,1.581,0,0,1,19.158,19.947Zm1.579,3.158a3.926,3.926,0,0,1,3.412,1.971,5.5,5.5,0,0,1-6.824,0,3.926,3.926,0,0,1,3.412-1.971Zm8.684-3.158H27.8a7.055,7.055,0,0,0-.368-1.579H30.21a2.371,2.371,0,0,1,2.368,2.368v3.156A5.058,5.058,0,0,0,31,23.223v-1.7a1.581,1.581,0,0,0-1.579-1.579Zm3.994-1.5,1.392-.793c.317.164.64.324.931.455V29.432a2.368,2.368,0,0,1-.242,1.041l-.662-3.311a5.064,5.064,0,0,0-.677-1.689h0V20.737a3.914,3.914,0,0,0-.743-2.288ZM36.222,13a3.157,3.157,0,1,1,3.766,0,2.344,2.344,0,0,0-3.766,0ZM30.21,9.5l1.731-.474.127-.414a6.321,6.321,0,0,1,.452-1.081l.2-.384-.892-1.562L33.213,4.2l1.562.891.384-.2a6.216,6.216,0,0,1,1.082-.451l.414-.128.475-1.731h1.952l.474,1.731.414.128a6.32,6.32,0,0,1,1.082.452l.383.2L43,4.2l1.381,1.382-.892,1.562.2.384a6.259,6.259,0,0,1,.452,1.081l.127.414L46,9.5V11.45l-1.731.474-.127.414a6.322,6.322,0,0,1-.452,1.081l-.2.384.892,1.562L43,16.747l-1.562-.891-.383.2c-.212.112-.4.212-.578.3V14.569a4.737,4.737,0,1,0-4.737,0v1.789c-.168-.085-.356-.182-.577-.3l-.384-.2-1.562.891-1.381-1.382.892-1.562-.2-.384a6.259,6.259,0,0,1-.452-1.081l-.127-.414L30.21,11.45Zm-7.105,2.556a.79.79,0,0,1,.789-.789h4.737v1.392l2.072.567c.068.182.144.362.226.541L29.863,15.63l1.284,1.284a3.9,3.9,0,0,0-.937-.125H26.64a7.135,7.135,0,0,0-3.535-2.743ZM20.737,15.21A5.519,5.519,0,0,1,25.26,23.9a5.481,5.481,0,0,0-2.181-1.856,3.158,3.158,0,1,0-4.683,0A5.481,5.481,0,0,0,16.214,23.9a5.519,5.519,0,0,1,4.523-8.692Zm5.526,30-17.368,0v0a1.581,1.581,0,0,1,1.579-1.579h14.21A1.581,1.581,0,0,1,26.263,45.21Zm-3.947-3.158H12.842V40.473h9.474Zm7.895-3.158H4.947a2.371,2.371,0,0,1-2.368-2.368V20.737a2.371,2.371,0,0,1,2.368-2.368h9.1a7.012,7.012,0,0,0-.368,1.579H5.737a1.581,1.581,0,0,0-1.579,1.579v14.21a1.581,1.581,0,0,0,1.579,1.579H29.421A1.579,1.579,0,0,0,31,35.777l1.059,2.179A2.338,2.338,0,0,1,30.21,38.894Zm17.368,9.474H33.368V43.631h14.21ZM34.947,42.052V40.292l-2.792-5.737a3.9,3.9,0,0,1-.489-1.468l-.546-4.369a5.1,5.1,0,0,0-.815-2.191l-.813-1.22a.422.422,0,0,1,.351-.657,3.52,3.52,0,0,1,3.441,2.821L34.3,32.546h1.925L36.9,31.2a3.969,3.969,0,0,0,.417-1.764V14.421a.789.789,0,1,1,1.579,0V27.052h1.579V23.895a.789.789,0,1,1,1.579,0v3.158h1.579V23.895a.789.789,0,1,1,1.579,0v3.158h1.579V25.474a.789.789,0,1,1,1.579,0V35.737a3.969,3.969,0,0,1-.789,2.368L46,40.211v1.842Z" transform="translate(0 0)"/>
      <path id="Trazado_1086433" data-name="Trazado 1086433" d="M26.368,35.316H24.789v3.158H23.21V36.895H21.631v1.579H20.053V35.316H18.474v3.158H16.895V32.158H15.316v6.316H13.737V30.579H12.158v7.895H10.579V29H9V40.053H27.947V38.474H26.368Z" transform="translate(-1.684 -5.895)"/>
    </g>
  </g>
</svg>
