<svg xmlns="http://www.w3.org/2000/svg" xmlns:xlink="http://www.w3.org/1999/xlink" width="110" height="110" viewBox="0 0 110 110">
  <defs>
    <filter id="Trazado_982547" x="0" y="0" width="110" height="110" filterUnits="userSpaceOnUse">
      <feOffset dy="3" input="SourceAlpha"/>
      <feGaussianBlur stdDeviation="3" result="blur"/>
      <feFlood flood-opacity="0.161"/>
      <feComposite operator="in" in2="blur"/>
      <feComposite in="SourceGraphic"/>
    </filter>
  </defs>
  <g id="Grupo_1219334" data-name="Grupo 1219334" transform="translate(-799 -2709.417)">
    <g id="Grupo_1215976" data-name="Grupo 1215976" transform="translate(808 2715.417)">
      <g id="Grupo_1214724" data-name="Grupo 1214724" transform="translate(0 0)">
        <g id="Grupo_1200150" data-name="Grupo 1200150">
          <g id="Grupo_1185951" data-name="Grupo 1185951" transform="translate(0 0)">
            <g id="Grupo_1184083" data-name="Grupo 1184083">
              <g id="Grupo_1183743" data-name="Grupo 1183743">
                <g id="Grupo_1181545" data-name="Grupo 1181545">
                  <g id="Grupo_1177562" data-name="Grupo 1177562">
                    <g id="Grupo_1173147" data-name="Grupo 1173147">
                      <g id="Grupo_1163801" data-name="Grupo 1163801">
                        <g id="Grupo_1163014" data-name="Grupo 1163014">
                          <g id="Grupo_1157015" data-name="Grupo 1157015">
                            <g id="Grupo_1155792" data-name="Grupo 1155792">
                              <g id="Grupo_1154703" data-name="Grupo 1154703">
                                <g id="Grupo_1150789" data-name="Grupo 1150789">
                                  <g id="Grupo_1154212" data-name="Grupo 1154212">
                                    <g id="Grupo_1152583" data-name="Grupo 1152583">
                                      <g id="Grupo_1146973" data-name="Grupo 1146973">
                                        <g id="Grupo_1146954" data-name="Grupo 1146954">
                                          <g transform="matrix(1, 0, 0, 1, -9, -6)" filter="url(#Trazado_982547)">
                                            <g id="Trazado_982547-2" data-name="Trazado 982547" transform="translate(9 6)" fill="#ffefc0">
                                              <path d="M 45.99999618530273 90.49984741210938 C 39.99187469482422 90.49984741210938 34.16427612304688 89.323486328125 28.67906379699707 87.00343322753906 C 23.38020896911621 84.76221466064453 18.62104988098145 81.55340576171875 14.53375625610352 77.46612548828125 C 10.44647598266602 73.37884521484375 7.237649440765381 68.61968231201172 4.99642276763916 63.32084274291992 C 2.676369428634644 57.83562850952148 1.500009536743164 52.00802993774414 1.500009536743164 45.99992370605469 C 1.500009536743164 39.99181747436523 2.676369428634644 34.16421890258789 4.99642276763916 28.67900276184082 C 7.237649440765381 23.38016319274902 10.44647598266602 18.62100410461426 14.53375625610352 14.53372383117676 C 18.62104988098145 10.44644355773926 23.38020896911621 7.237630367279053 28.67906379699707 4.996417045593262 C 34.16427612304688 2.676363706588745 39.99187469482422 1.500003695487976 45.99999618530273 1.500003695487976 C 52.00811767578125 1.500003695487976 57.83571624755859 2.676363706588745 63.32093048095703 4.996417045593262 C 68.61978149414062 7.237630367279053 73.37894439697266 10.44644355773926 77.46623992919922 14.53372383117676 C 81.55351257324219 18.62100410461426 84.76234436035156 23.38016319274902 87.00357055664062 28.67900276184082 C 89.32362365722656 34.16421890258789 90.49998474121094 39.99181747436523 90.49998474121094 45.99992370605469 C 90.49998474121094 52.00802993774414 89.32362365722656 57.83562850952148 87.00357055664062 63.32084274291992 C 84.76234436035156 68.61968231201172 81.55351257324219 73.37884521484375 77.46623992919922 77.46612548828125 C 73.37894439697266 81.55340576171875 68.61978149414062 84.76221466064453 63.32093048095703 87.00343322753906 C 57.83571624755859 89.323486328125 52.00811767578125 90.49984741210938 45.99999618530273 90.49984741210938 Z" stroke="none"/>
                                              <path d="M 45.99999618530273 2.999992370605469 C 40.19371032714844 2.999992370605469 34.56270980834961 4.136497497558594 29.26338195800781 6.377906799316406 C 24.14334106445312 8.543510437011719 19.54442596435547 11.64437866210938 15.59441375732422 15.59438323974609 C 11.64439392089844 19.54439544677734 8.543525695800781 24.14329528808594 6.377922058105469 29.26333618164062 C 4.136512756347656 34.56265258789062 3.000007629394531 40.19365310668945 3.000007629394531 45.99992370605469 C 3.000007629394531 51.80619430541992 4.136512756347656 57.43719482421875 6.377922058105469 62.73651123046875 C 8.543525695800781 67.85655212402344 11.64439392089844 72.45545196533203 15.59441375732422 76.40546417236328 C 19.54442596435547 80.35546875 24.14334106445312 83.45633697509766 29.26338195800781 85.62194061279297 C 34.56270980834961 87.86334991455078 40.19371032714844 88.99985504150391 45.99999618530273 88.99985504150391 C 51.80628204345703 88.99985504150391 57.43728256225586 87.86334991455078 62.73661041259766 85.62194061279297 C 67.85665130615234 83.45633697509766 72.45555114746094 80.35546875 76.40556335449219 76.40546417236328 C 80.35558319091797 72.45545196533203 83.45645141601562 67.85655212402344 85.62205505371094 62.73651123046875 C 87.86347961425781 57.43719482421875 88.99998474121094 51.80619430541992 88.99998474121094 45.99992370605469 C 88.99998474121094 40.19365310668945 87.86347961425781 34.56265258789062 85.62205505371094 29.26333618164062 C 83.45645141601562 24.14329528808594 80.35558319091797 19.54439544677734 76.40556335449219 15.59438323974609 C 72.45555114746094 11.64437866210938 67.85665130615234 8.543510437011719 62.73661041259766 6.377906799316406 C 57.43728256225586 4.136497497558594 51.80628204345703 2.999992370605469 45.99999618530273 2.999992370605469 M 45.99999618530273 -7.62939453125e-06 C 71.40506744384766 -7.62939453125e-06 91.99998474121094 20.59486389160156 91.99998474121094 45.99992370605469 C 91.99998474121094 71.40498352050781 71.40506744384766 91.99985504150391 45.99999618530273 91.99985504150391 C 20.59490966796875 91.99985504150391 7.62939453125e-06 71.40498352050781 7.62939453125e-06 45.99992370605469 C 7.62939453125e-06 20.59486389160156 20.59490966796875 -7.62939453125e-06 45.99999618530273 -7.62939453125e-06 Z" stroke="none" fill="#fc3"/>
                                            </g>
                                          </g>
                                        </g>
                                      </g>
                                    </g>
                                  </g>
                                </g>
                              </g>
                            </g>
                          </g>
                        </g>
                      </g>
                    </g>
                  </g>
                </g>
              </g>
            </g>
          </g>
        </g>
      </g>
    </g>
    <g id="Layer_x0020_1" transform="translate(817.905 2725.285)">
      <path id="Trazado_1087327" data-name="Trazado 1087327" d="M22.408,44.484A22.076,22.076,0,1,1,44.484,22.408,22.1,22.1,0,0,1,22.408,44.484Zm0-42.458A20.382,20.382,0,1,0,42.789,22.408,20.405,20.405,0,0,0,22.408,2.026Z" transform="translate(13.688 13.725)" fill-rule="evenodd"/>
      <path id="Trazado_1087328" data-name="Trazado 1087328" d="M14.736,44.484C6.9,44.484.518,34.58.518,22.408S6.9.332,14.736.332s14.219,9.9,14.219,22.076S22.576,44.484,14.736,44.484Zm0-42.458c-6.906,0-12.525,9.144-12.525,20.382S7.83,42.789,14.736,42.789,27.26,33.646,27.26,22.408,21.642,2.026,14.736,2.026Z" transform="translate(21.36 13.725)" fill-rule="evenodd"/>
      <path id="Trazado_1087329" data-name="Trazado 1087329" d="M7.044,44.484c-8.454,0-8.453-44.152,0-44.152S15.5,44.484,7.044,44.484Zm0-42.458c-1.9,0-4.668,7.94-4.668,20.382S5.14,42.789,7.044,42.789s4.668-7.94,4.668-20.382S8.947,2.026,7.044,2.026Z" transform="translate(29.051 13.725)" fill-rule="evenodd"/>
      <path id="Trazado_1087330" data-name="Trazado 1087330" d="M22.408,28.955C10.236,28.955.332,22.576.332,14.736S10.235.518,22.408.518,44.484,6.9,44.484,14.736s-9.9,14.219-22.076,14.219Zm0-26.744C11.169,2.211,2.026,7.83,2.026,14.736S11.169,27.26,22.408,27.26s20.382-5.619,20.382-12.525S33.646,2.211,22.408,2.211Z" transform="translate(13.688 21.397)" fill-rule="evenodd"/>
      <path id="Trazado_1087331" data-name="Trazado 1087331" d="M22.421,13.427C-7.029,13.427-7.033.7,22.421.7,51.837.7,51.834,13.427,22.421,13.427Zm0-11.03C9.979,2.4,2.039,5.161,2.039,7.065s7.94,4.668,20.382,4.668S42.8,8.968,42.8,7.064,34.862,2.4,22.421,2.4Z" transform="translate(13.675 29.068)" fill-rule="evenodd"/>
      <path id="Trazado_1087332" data-name="Trazado 1087332" d="M6.56,1.927H1.4A.847.847,0,0,1,1.4.233H6.56A.847.847,0,0,1,6.56,1.927Z" transform="translate(23.155 9.625)" fill-rule="evenodd"/>
      <path id="Trazado_1087333" data-name="Trazado 1087333" d="M3.379,6.094c-3.889,0-3.89-5.911,0-5.911S7.269,6.094,3.379,6.094Zm0-4.217a1.262,1.262,0,0,0,0,2.524,1.262,1.262,0,0,0,0-2.524Z" transform="translate(19.064 7.566)" fill-rule="evenodd"/>
      <path id="Trazado_1087334" data-name="Trazado 1087334" d="M6.983,1.927H1.82a.847.847,0,0,1,0-1.694H6.983A.847.847,0,0,1,6.983,1.927Z" transform="translate(40.656 9.625)" fill-rule="evenodd"/>
      <path id="Trazado_1087335" data-name="Trazado 1087335" d="M4.024,6.094c-3.89,0-3.889-5.911,0-5.911S7.914,6.094,4.024,6.094Zm0-4.217a1.262,1.262,0,0,0,0,2.524,1.262,1.262,0,0,0,0-2.524Z" transform="translate(45.724 7.566)" fill-rule="evenodd"/>
      <path id="Trazado_1087336" data-name="Trazado 1087336" d="M1.68,11.623a.847.847,0,0,1-.847-.847V.936a.847.847,0,0,1,1.694,0v9.839a.847.847,0,0,1-.847.847Z" transform="translate(34.415 4.128)" fill-rule="evenodd"/>
      <path id="Trazado_1087337" data-name="Trazado 1087337" d="M14.291,9.993a.847.847,0,0,1-.847-.847V1a.847.847,0,0,1,1.694,0V9.147a.847.847,0,0,1-.847.846ZM1.529,9.973a.847.847,0,0,1-.847-.847V1A.847.847,0,0,1,2.376,1V9.126A.846.846,0,0,1,1.529,9.973Z" transform="translate(28.185 6.719)" fill-rule="evenodd"/>
      <path id="Trazado_1087338" data-name="Trazado 1087338" d="M3.551,5.974c-3.89,0-3.889-5.911,0-5.911S7.441,5.974,3.551,5.974Zm0-4.218a1.262,1.262,0,0,0,0,2.524A1.262,1.262,0,0,0,3.551,1.756Z" transform="translate(26.164 2.592)" fill-rule="evenodd"/>
      <path id="Trazado_1087339" data-name="Trazado 1087339" d="M3.852,5.974c-3.89,0-3.889-5.911,0-5.911S7.742,5.974,3.852,5.974Zm0-4.218a1.262,1.262,0,0,0,0,2.524A1.262,1.262,0,0,0,3.852,1.756Z" transform="translate(38.624 2.592)" fill-rule="evenodd"/>
      <path id="Trazado_1087340" data-name="Trazado 1087340" d="M3.7,5.911C-.188,5.911-.187,0,3.7,0S7.592,5.911,3.7,5.911Zm0-4.217a1.262,1.262,0,0,0,0,2.524,1.262,1.262,0,0,0,0-2.524Z" transform="translate(32.394 0)" fill-rule="evenodd"/>
      <path id="Trazado_1087341" data-name="Trazado 1087341" d="M2.281,7.407a.847.847,0,0,1-.847-.847V1.4a.847.847,0,0,1,1.694,0V6.56A.847.847,0,0,1,2.281,7.407Z" transform="translate(59.243 23.192)" fill-rule="evenodd"/>
      <path id="Trazado_1087342" data-name="Trazado 1087342" d="M4.3,6.371c-3.89,0-3.89-5.91,0-5.91S8.192,6.371,4.3,6.371Zm0-4.217a1.262,1.262,0,0,0,0,2.524A1.262,1.262,0,0,0,4.3,2.154Z" transform="translate(57.222 19.065)" fill-rule="evenodd"/>
      <path id="Trazado_1087343" data-name="Trazado 1087343" d="M2.281,7.83a.847.847,0,0,1-.847-.847V1.82a.847.847,0,0,1,1.694,0V6.983A.847.847,0,0,1,2.281,7.83Z" transform="translate(59.243 40.693)" fill-rule="evenodd"/>
      <path id="Trazado_1087344" data-name="Trazado 1087344" d="M4.3,7.017c-3.889,0-3.89-5.911,0-5.911S8.193,7.017,4.3,7.017ZM4.3,2.8a1.262,1.262,0,0,0,0,2.523A1.262,1.262,0,0,0,4.3,2.8Z" transform="translate(57.221 45.723)" fill-rule="evenodd"/>
      <path id="Trazado_1087345" data-name="Trazado 1087345" d="M12.01,2.527H2.171a.847.847,0,0,1,0-1.694H12.01A.847.847,0,0,1,12.01,2.527Z" transform="translate(55.153 34.452)" fill-rule="evenodd"/>
      <path id="Trazado_1087346" data-name="Trazado 1087346" d="M10.3,15.138H2.148a.847.847,0,0,1,0-1.694H10.3A.847.847,0,0,1,10.3,15.138Zm0-12.761H2.169a.847.847,0,0,1,0-1.694H10.3A.847.847,0,0,1,10.3,2.376Z" transform="translate(54.213 28.222)" fill-rule="evenodd"/>
      <path id="Trazado_1087347" data-name="Trazado 1087347" d="M4.423,6.543c-3.89,0-3.89-5.91,0-5.91s3.891,5.91,0,5.91Zm0-4.217a1.262,1.262,0,0,0,0,2.524A1.262,1.262,0,0,0,4.423,2.326Z" transform="translate(62.195 26.165)" fill-rule="evenodd"/>
      <path id="Trazado_1087348" data-name="Trazado 1087348" d="M4.423,6.845c-3.89,0-3.891-5.911,0-5.911S8.314,6.845,4.423,6.845Zm0-4.217a1.262,1.262,0,0,0,0,2.523A1.262,1.262,0,0,0,4.423,2.628Z" transform="translate(62.195 38.624)" fill-rule="evenodd"/>
      <path id="Trazado_1087349" data-name="Trazado 1087349" d="M4.485,6.694C.6,6.694.6.784,4.485.784S8.375,6.694,4.485,6.694Zm0-4.218A1.262,1.262,0,0,0,4.485,5,1.262,1.262,0,0,0,4.485,2.477Z" transform="translate(64.787 32.394)" fill-rule="evenodd"/>
      <path id="Trazado_1087350" data-name="Trazado 1087350" d="M6.983,3.128H1.82a.847.847,0,0,1,0-1.694H6.983A.847.847,0,0,1,6.983,3.128Z" transform="translate(40.656 59.281)" fill-rule="evenodd"/>
      <path id="Trazado_1087351" data-name="Trazado 1087351" d="M4.024,7.295c-3.89,0-3.889-5.911,0-5.911S7.914,7.295,4.024,7.295Zm0-4.217a1.262,1.262,0,0,0,0,2.523A1.262,1.262,0,0,0,4.024,3.078Z" transform="translate(45.724 57.222)" fill-rule="evenodd"/>
      <path id="Trazado_1087352" data-name="Trazado 1087352" d="M6.56,3.127H1.4a.847.847,0,0,1,0-1.694H6.56A.847.847,0,0,1,6.56,3.127Z" transform="translate(23.155 59.281)" fill-rule="evenodd"/>
      <path id="Trazado_1087353" data-name="Trazado 1087353" d="M3.379,7.295c-3.889,0-3.89-5.911,0-5.911S7.269,7.295,3.379,7.295Zm0-4.217a1.262,1.262,0,0,0,0,2.523A1.262,1.262,0,0,0,3.379,3.078Z" transform="translate(19.064 57.222)" fill-rule="evenodd"/>
      <path id="Trazado_1087354" data-name="Trazado 1087354" d="M1.68,12.857a.847.847,0,0,1-.847-.847V2.171a.847.847,0,0,1,1.694,0V12.01a.847.847,0,0,1-.847.847Z" transform="translate(34.415 55.191)" fill-rule="evenodd"/>
      <path id="Trazado_1087355" data-name="Trazado 1087355" d="M14.291,11.142a.848.848,0,0,1-.847-.847V2.169a.847.847,0,0,1,1.694,0V10.3a.848.848,0,0,1-.847.847Zm-12.762,0A.848.848,0,0,1,.683,10.3V2.148a.847.847,0,0,1,1.694,0V10.3A.847.847,0,0,1,1.529,11.142Z" transform="translate(28.185 54.251)" fill-rule="evenodd"/>
      <path id="Trazado_1087356" data-name="Trazado 1087356" d="M3.852,7.416c-3.89,0-3.889-5.912,0-5.912S7.742,7.416,3.852,7.416Zm0-4.218a1.262,1.262,0,0,0,0,2.524A1.262,1.262,0,0,0,3.852,3.2Z" transform="translate(38.624 62.196)" fill-rule="evenodd"/>
      <path id="Trazado_1087357" data-name="Trazado 1087357" d="M3.551,7.416c-3.89,0-3.889-5.912,0-5.912S7.441,7.416,3.551,7.416Zm0-4.218a1.262,1.262,0,0,0,0,2.524A1.262,1.262,0,0,0,3.551,3.2Z" transform="translate(26.164 62.196)" fill-rule="evenodd"/>
      <path id="Trazado_1087358" data-name="Trazado 1087358" d="M3.7,7.478c-3.889,0-3.89-5.911,0-5.911S7.592,7.478,3.7,7.478Zm0-4.217a1.262,1.262,0,0,0,0,2.523A1.262,1.262,0,0,0,3.7,3.261Z" transform="translate(32.394 64.787)" fill-rule="evenodd"/>
      <path id="Trazado_1087359" data-name="Trazado 1087359" d="M1.08,7.83a.847.847,0,0,1-.847-.847V1.82a.847.847,0,0,1,1.694,0V6.983a.847.847,0,0,1-.847.847Z" transform="translate(9.587 40.693)" fill-rule="evenodd"/>
      <path id="Trazado_1087360" data-name="Trazado 1087360" d="M3.1,7.017c-3.889,0-3.89-5.911,0-5.911S6.991,7.017,3.1,7.017ZM3.1,2.8a1.262,1.262,0,0,0,0,2.523A1.262,1.262,0,0,0,3.1,2.8Z" transform="translate(7.566 45.723)" fill-rule="evenodd"/>
      <path id="Trazado_1087361" data-name="Trazado 1087361" d="M1.08,7.407A.847.847,0,0,1,.233,6.56V1.4a.847.847,0,0,1,1.694,0V6.56a.847.847,0,0,1-.847.847Z" transform="translate(9.588 23.192)" fill-rule="evenodd"/>
      <path id="Trazado_1087362" data-name="Trazado 1087362" d="M3.1,6.371c-3.89,0-3.891-5.91,0-5.91S6.991,6.371,3.1,6.371Zm0-4.217a1.262,1.262,0,0,0,0,2.524A1.262,1.262,0,0,0,3.1,2.154Z" transform="translate(7.566 19.065)" fill-rule="evenodd"/>
      <path id="Trazado_1087363" data-name="Trazado 1087363" d="M10.776,2.527H.936a.847.847,0,0,1,0-1.694h9.839A.847.847,0,0,1,10.776,2.527Z" transform="translate(4.091 34.452)" fill-rule="evenodd"/>
      <path id="Trazado_1087364" data-name="Trazado 1087364" d="M9.126,15.138H1a.847.847,0,0,1,0-1.694H9.126A.847.847,0,0,1,9.126,15.138Zm.02-12.761H1A.847.847,0,0,1,1,.683H9.147a.847.847,0,0,1,0,1.694Z" transform="translate(6.682 28.222)" fill-rule="evenodd"/>
      <path id="Trazado_1087365" data-name="Trazado 1087365" d="M2.981,6.845c-3.89,0-3.891-5.911,0-5.911S6.871,6.845,2.981,6.845Zm0-4.217a1.262,1.262,0,0,0,0,2.523A1.262,1.262,0,0,0,2.981,2.628Z" transform="translate(2.591 38.624)" fill-rule="evenodd"/>
      <path id="Trazado_1087366" data-name="Trazado 1087366" d="M2.981,6.543c-3.89,0-3.891-5.91,0-5.91s3.889,5.91,0,5.91Zm0-4.217a1.262,1.262,0,0,0,0,2.524A1.262,1.262,0,0,0,2.981,2.326Z" transform="translate(2.592 26.165)" fill-rule="evenodd"/>
      <path id="Trazado_1087367" data-name="Trazado 1087367" d="M2.919,6.694c-3.89,0-3.891-5.911,0-5.911S6.808,6.694,2.919,6.694Zm0-4.218A1.262,1.262,0,0,0,2.919,5,1.262,1.262,0,0,0,2.919,2.477Z" transform="translate(0 32.394)" fill-rule="evenodd"/>
      <path id="Trazado_1087368" data-name="Trazado 1087368" d="M1.469,1.146a1.262,1.262,0,0,0,0,2.523A1.262,1.262,0,0,0,1.469,1.146Z" transform="translate(9.198 47.378)" fill="#b5dd49" fill-rule="evenodd"/>
      <path id="Trazado_1087369" data-name="Trazado 1087369" d="M1.349,3.5a1.262,1.262,0,0,0,0-2.523A1.262,1.262,0,0,0,1.349,3.5Z" transform="translate(4.224 40.278)" fill="#fbdc44" fill-rule="evenodd"/>
      <path id="Trazado_1087370" data-name="Trazado 1087370" d="M1.286,3.348a1.262,1.262,0,0,0,0-2.524A1.262,1.262,0,0,0,1.286,3.348Z" transform="translate(1.632 34.047)" fill="#fe687c" fill-rule="evenodd"/>
      <path id="Trazado_1087371" data-name="Trazado 1087371" d="M1.349.673a1.262,1.262,0,0,0,0,2.524A1.262,1.262,0,0,0,1.349.673Z" transform="translate(4.224 27.817)" fill="#fbdc44" fill-rule="evenodd"/>
      <path id="Trazado_1087372" data-name="Trazado 1087372" d="M1.469.5a1.262,1.262,0,0,0,0,2.524A1.262,1.262,0,0,0,1.469.5Z" transform="translate(9.198 20.718)" fill="#b5dd49" fill-rule="evenodd"/>
      <path id="Trazado_1087373" data-name="Trazado 1087373" d="M1.747.223a1.262,1.262,0,0,0,0,2.524A1.262,1.262,0,0,0,1.747.223Z" transform="translate(20.696 9.22)" fill="#b5dd49" fill-rule="evenodd"/>
      <path id="Trazado_1087374" data-name="Trazado 1087374" d="M1.919.1a1.262,1.262,0,0,0,0,2.524A1.262,1.262,0,0,0,1.919.1Z" transform="translate(27.796 4.245)" fill="#fbdc44" fill-rule="evenodd"/>
      <path id="Trazado_1087375" data-name="Trazado 1087375" d="M2.07.04a1.262,1.262,0,0,0,0,2.524A1.262,1.262,0,0,0,2.07.04Z" transform="translate(34.026 1.654)" fill="#fe687c" fill-rule="evenodd"/>
      <path id="Trazado_1087376" data-name="Trazado 1087376" d="M2.22.1a1.262,1.262,0,0,0,0,2.524A1.262,1.262,0,0,0,2.22.1Z" transform="translate(40.256 4.245)" fill="#fbdc44" fill-rule="evenodd"/>
      <path id="Trazado_1087377" data-name="Trazado 1087377" d="M2.391.223a1.262,1.262,0,0,0,0,2.524A1.262,1.262,0,0,0,2.391.223Z" transform="translate(47.356 9.22)" fill="#b5dd49" fill-rule="evenodd"/>
      <path id="Trazado_1087378" data-name="Trazado 1087378" d="M2.67,1.146a1.262,1.262,0,0,0,0,2.523A1.262,1.262,0,0,0,2.67,1.146Z" transform="translate(58.854 47.378)" fill="#b5dd49" fill-rule="evenodd"/>
      <path id="Trazado_1087379" data-name="Trazado 1087379" d="M2.791.974a1.262,1.262,0,0,0,0,2.523A1.262,1.262,0,0,0,2.791.974Z" transform="translate(63.827 40.278)" fill="#fbdc44" fill-rule="evenodd"/>
      <path id="Trazado_1087380" data-name="Trazado 1087380" d="M2.853.824a1.262,1.262,0,0,0,0,2.524A1.262,1.262,0,0,0,2.853.824Z" transform="translate(66.419 34.047)" fill="#fe687c" fill-rule="evenodd"/>
      <path id="Trazado_1087381" data-name="Trazado 1087381" d="M2.791,3.2a1.262,1.262,0,0,0,0-2.524A1.262,1.262,0,0,0,2.791,3.2Z" transform="translate(63.827 27.817)" fill="#fbdc44" fill-rule="evenodd"/>
      <path id="Trazado_1087382" data-name="Trazado 1087382" d="M2.67,3.025A1.262,1.262,0,0,0,2.67.5,1.262,1.262,0,0,0,2.67,3.025Z" transform="translate(58.854 20.718)" fill="#b5dd49" fill-rule="evenodd"/>
      <path id="Trazado_1087383" data-name="Trazado 1087383" d="M2.392,3.947a1.262,1.262,0,0,0,0-2.523A1.262,1.262,0,0,0,2.392,3.947Z" transform="translate(47.356 58.876)" fill="#b5dd49" fill-rule="evenodd"/>
      <path id="Trazado_1087384" data-name="Trazado 1087384" d="M2.22,4.068a1.262,1.262,0,0,0,0-2.524A1.262,1.262,0,0,0,2.22,4.068Z" transform="translate(40.256 63.849)" fill="#fbdc44" fill-rule="evenodd"/>
      <path id="Trazado_1087385" data-name="Trazado 1087385" d="M2.07,4.13a1.262,1.262,0,0,0,0-2.523A1.262,1.262,0,0,0,2.07,4.13Z" transform="translate(34.026 66.442)" fill="#fe687c" fill-rule="evenodd"/>
      <path id="Trazado_1087386" data-name="Trazado 1087386" d="M1.919,4.068a1.262,1.262,0,0,0,0-2.524A1.262,1.262,0,0,0,1.919,4.068Z" transform="translate(27.795 63.849)" fill="#fbdc44" fill-rule="evenodd"/>
      <path id="Trazado_1087387" data-name="Trazado 1087387" d="M1.747,3.947a1.262,1.262,0,0,0,0-2.523A1.262,1.262,0,0,0,1.747,3.947Z" transform="translate(20.696 58.876)" fill="#b5dd49" fill-rule="evenodd"/>
      <g id="Grupo_1219333" data-name="Grupo 1219333" transform="translate(15.713 15.751)">
        <path id="Trazado_1087388" data-name="Trazado 1087388" d="M5.844,7.548a19.878,19.878,0,0,1,7.145,4.821A20.49,20.49,0,0,0,1.022.4,19.878,19.878,0,0,1,5.844,7.548Z" transform="translate(26.489 0.884)" fill="#46c4ef" fill-rule="evenodd"/>
        <path id="Trazado_1087389" data-name="Trazado 1087389" d="M8.217,7.445C7.143,4.714,4.61,2.33,1.154.623A30.563,30.563,0,0,1,2.239,5.285a20.175,20.175,0,0,1,5.978,2.16Z" transform="translate(31.978 9.995)" fill="#46c4ef" fill-rule="evenodd"/>
        <path id="Trazado_1087390" data-name="Trazado 1087390" d="M7.5,4.022C7.5,3,5.22,1.733,1.185.777c.1,1.059.153,2.143.153,3.245s-.052,2.186-.153,3.245C5.22,6.31,7.5,5.042,7.5,4.022Z" transform="translate(33.262 16.36)" fill="#46c4ef" fill-rule="evenodd"/>
        <path id="Trazado_1087391" data-name="Trazado 1087391" d="M8.217.923a20.177,20.177,0,0,1-5.978,2.16A30.558,30.558,0,0,1,1.154,7.744C4.609,6.037,7.143,3.653,8.217.923Z" transform="translate(31.979 22.402)" fill="#46c4ef" fill-rule="evenodd"/>
        <path id="Trazado_1087392" data-name="Trazado 1087392" d="M12.988,1.022A19.878,19.878,0,0,1,5.843,5.843a19.88,19.88,0,0,1-4.821,7.145A20.49,20.49,0,0,0,12.988,1.022Z" transform="translate(26.49 26.49)" fill="#46c4ef" fill-rule="evenodd"/>
        <path id="Trazado_1087393" data-name="Trazado 1087393" d="M.925,8.187C3.623,7.1,5.979,4.578,7.67,1.154a30.592,30.592,0,0,1-4.7,1.09A20.976,20.976,0,0,1,.925,8.187Z" transform="translate(22.476 31.979)" fill="#46c4ef" fill-rule="evenodd"/>
        <path id="Trazado_1087394" data-name="Trazado 1087394" d="M.981,7.606A28.118,28.118,0,0,0,6.241,6.2,28.081,28.081,0,0,0,7.642.982a58.146,58.146,0,0,1-5.953.706C1.534,3.767,1.3,5.768.981,7.606Z" transform="translate(24.809 24.853)" fill="#46c4ef" fill-rule="evenodd"/>
        <path id="Trazado_1087395" data-name="Trazado 1087395" d="M1,9.6a57.42,57.42,0,0,0,6.1-.807,32.955,32.955,0,0,0,.2-3.617,32.945,32.945,0,0,0-.2-3.616A57.426,57.426,0,0,0,1,.749,85.463,85.463,0,0,1,1,9.6Z" transform="translate(25.608 15.21)" fill="#46c4ef" fill-rule="evenodd"/>
        <path id="Trazado_1087396" data-name="Trazado 1087396" d="M1.689,6.487a58.2,58.2,0,0,1,5.953.706,28.087,28.087,0,0,0-1.4-5.216A28.112,28.112,0,0,0,.981.568c.317,1.839.553,3.839.708,5.919Z" transform="translate(24.809 7.737)" fill="#46c4ef" fill-rule="evenodd"/>
        <path id="Trazado_1087397" data-name="Trazado 1087397" d="M2.975,6.33a30.6,30.6,0,0,1,4.7,1.09C5.98,4,3.624,1.477.925.386A20.973,20.973,0,0,1,2.975,6.33Z" transform="translate(22.475 0.212)" fill="#46c4ef" fill-rule="evenodd"/>
        <path id="Trazado_1087398" data-name="Trazado 1087398" d="M7.268,6.689C6.311,2.654,5.042.372,4.022.372S1.734,2.654.777,6.689c1.059-.1,2.143-.153,3.245-.153s2.186.052,3.245.153Z" transform="translate(16.36 -0.372)" fill="#46c4ef" fill-rule="evenodd"/>
        <path id="Trazado_1087399" data-name="Trazado 1087399" d="M8.786.755a33.222,33.222,0,0,0-7.233,0,57.372,57.372,0,0,0-.8,6.069q2.087-.1,4.421-.1t4.421.1a57.375,57.375,0,0,0-.8-6.069Z" transform="translate(15.212 7.3)" fill="#46c4ef" fill-rule="evenodd"/>
        <path id="Trazado_1087400" data-name="Trazado 1087400" d="M9.952.871C8.517.788,7,.743,5.411.743S2.306.788.871.871C.788,2.306.743,3.822.743,5.411S.788,8.516.871,9.951c1.435.083,2.951.128,4.541.128s3.105-.045,4.541-.128c.083-1.435.128-2.951.128-4.541S10.035,2.306,9.952.871Z" transform="translate(14.971 14.971)" fill="#46c4ef" fill-rule="evenodd"/>
        <path id="Trazado_1087401" data-name="Trazado 1087401" d="M9.591,1Q7.5,1.1,5.17,1.1T.749,1a57.412,57.412,0,0,0,.8,6.068,32.955,32.955,0,0,0,3.617.2,32.949,32.949,0,0,0,3.616-.2A57.365,57.365,0,0,0,9.591,1Z" transform="translate(15.212 25.64)" fill="#46c4ef" fill-rule="evenodd"/>
        <path id="Trazado_1087402" data-name="Trazado 1087402" d="M7.268,1.185c-1.059.1-2.143.153-3.245.153S1.836,1.286.777,1.185C1.734,5.22,3,7.5,4.022,7.5S6.311,5.22,7.268,1.185Z" transform="translate(16.36 33.262)" fill="#46c4ef" fill-rule="evenodd"/>
        <path id="Trazado_1087403" data-name="Trazado 1087403" d="M7.369,8.187a20.973,20.973,0,0,1-2.05-5.943,30.575,30.575,0,0,1-4.7-1.09C2.314,4.578,4.67,7.1,7.369,8.187Z" transform="translate(9.995 31.978)" fill="#46c4ef" fill-rule="evenodd"/>
        <path id="Trazado_1087404" data-name="Trazado 1087404" d="M1.969,6.195A28.111,28.111,0,0,0,7.229,7.6c-.317-1.839-.553-3.839-.708-5.918A58.422,58.422,0,0,1,.568.982,28.1,28.1,0,0,0,1.969,6.2Z" transform="translate(7.745 24.855)" fill="#46c4ef" fill-rule="evenodd"/>
        <path id="Trazado_1087405" data-name="Trazado 1087405" d="M.755,8.789a57.478,57.478,0,0,0,6.1.807,85.467,85.467,0,0,1,0-8.847,57.382,57.382,0,0,0-6.1.807,33.222,33.222,0,0,0,0,7.233Z" transform="translate(7.3 15.21)" fill="#46c4ef" fill-rule="evenodd"/>
        <path id="Trazado_1087406" data-name="Trazado 1087406" d="M.568,7.19a58.411,58.411,0,0,1,5.953-.7c.155-2.08.391-4.08.708-5.919A28.129,28.129,0,0,0,1.969,1.977,28.091,28.091,0,0,0,.568,7.19Z" transform="translate(7.745 7.737)" fill="#46c4ef" fill-rule="evenodd"/>
        <path id="Trazado_1087407" data-name="Trazado 1087407" d="M.623,7.42a30.6,30.6,0,0,1,4.7-1.09A20.983,20.983,0,0,1,7.37.386C4.671,1.477,2.314,4,.623,7.42Z" transform="translate(9.995 0.212)" fill="#46c4ef" fill-rule="evenodd"/>
        <path id="Trazado_1087408" data-name="Trazado 1087408" d="M6.358,5.281A30.56,30.56,0,0,1,7.442.623C3.994,2.326,1.464,4.7.386,7.426A20.35,20.35,0,0,1,6.358,5.281Z" transform="translate(0.19 9.995)" fill="#46c4ef" fill-rule="evenodd"/>
        <path id="Trazado_1087409" data-name="Trazado 1087409" d="M.4,12.37A19.874,19.874,0,0,1,7.548,7.548,19.877,19.877,0,0,1,12.37.4,20.491,20.491,0,0,0,.4,12.37Z" transform="translate(0.884 0.884)" fill="#46c4ef" fill-rule="evenodd"/>
        <path id="Trazado_1087410" data-name="Trazado 1087410" d="M6.689.777C2.654,1.734.372,3,.372,4.022S2.654,6.311,6.689,7.268c-.1-1.06-.153-2.143-.153-3.246S6.588,1.836,6.689.777Z" transform="translate(-0.372 16.36)" fill="#46c4ef" fill-rule="evenodd"/>
        <path id="Trazado_1087411" data-name="Trazado 1087411" d="M6.358,3.068A20.356,20.356,0,0,1,.386.923c1.078,2.722,3.609,5.1,7.056,6.8A30.554,30.554,0,0,1,6.358,3.068Z" transform="translate(0.19 22.421)" fill="#46c4ef" fill-rule="evenodd"/>
        <path id="Trazado_1087412" data-name="Trazado 1087412" d="M7.548,5.844A19.876,19.876,0,0,1,.4,1.022,20.491,20.491,0,0,0,12.369,12.989,19.876,19.876,0,0,1,7.548,5.844Z" transform="translate(0.884 26.489)" fill="#46c4ef" fill-rule="evenodd"/>
      </g>
    </g>
  </g>
</svg>
