<svg xmlns="http://www.w3.org/2000/svg" xmlns:xlink="http://www.w3.org/1999/xlink" width="110" height="110" viewBox="0 0 110 110">
  <defs>
    <filter id="Trazado_982547" x="0" y="0" width="110" height="110" filterUnits="userSpaceOnUse">
      <feOffset dy="3" input="SourceAlpha"/>
      <feGaussianBlur stdDeviation="3" result="blur"/>
      <feFlood flood-opacity="0.161"/>
      <feComposite operator="in" in2="blur"/>
      <feComposite in="SourceGraphic"/>
    </filter>
  </defs>
  <g id="Grupo_1219339" data-name="Grupo 1219339" transform="translate(-1114 -2710.417)">
    <g id="Grupo_1215979" data-name="Grupo 1215979" transform="translate(1123 2716.417)">
      <g id="Grupo_1214725" data-name="Grupo 1214725" transform="translate(0 0)">
        <g id="Grupo_1200151" data-name="Grupo 1200151">
          <g id="Grupo_1185952" data-name="Grupo 1185952" transform="translate(0 0)">
            <g id="Grupo_1184115" data-name="Grupo 1184115">
              <g id="Grupo_1183744" data-name="Grupo 1183744">
                <g id="Grupo_1181546" data-name="Grupo 1181546">
                  <g id="Grupo_1177563" data-name="Grupo 1177563">
                    <g id="Grupo_1173148" data-name="Grupo 1173148">
                      <g id="Grupo_1163803" data-name="Grupo 1163803">
                        <g id="Grupo_1163015" data-name="Grupo 1163015">
                          <g id="Grupo_1157017" data-name="Grupo 1157017">
                            <g id="Grupo_1155793" data-name="Grupo 1155793">
                              <g id="Grupo_1154704" data-name="Grupo 1154704">
                                <g id="Grupo_1150790" data-name="Grupo 1150790">
                                  <g id="Grupo_1154214" data-name="Grupo 1154214">
                                    <g id="Grupo_1152583" data-name="Grupo 1152583">
                                      <g id="Grupo_1146973" data-name="Grupo 1146973">
                                        <g id="Grupo_1146954" data-name="Grupo 1146954">
                                          <g transform="matrix(1, 0, 0, 1, -9, -6)" filter="url(#Trazado_982547)">
                                            <g id="Trazado_982547-2" data-name="Trazado 982547" transform="translate(9 6)" fill="#ffefc0">
                                              <path d="M 45.99999618530273 90.49984741210938 C 39.99187469482422 90.49984741210938 34.16427612304688 89.323486328125 28.67906379699707 87.00343322753906 C 23.38020896911621 84.76221466064453 18.62104988098145 81.55340576171875 14.53375625610352 77.46612548828125 C 10.44647598266602 73.37884521484375 7.237649440765381 68.61968231201172 4.99642276763916 63.32084274291992 C 2.676369428634644 57.83562850952148 1.500009536743164 52.00802993774414 1.500009536743164 45.99992370605469 C 1.500009536743164 39.99181747436523 2.676369428634644 34.16421890258789 4.99642276763916 28.67900276184082 C 7.237649440765381 23.38016319274902 10.44647598266602 18.62100410461426 14.53375625610352 14.53372383117676 C 18.62104988098145 10.44644355773926 23.38020896911621 7.237630367279053 28.67906379699707 4.996417045593262 C 34.16427612304688 2.676363706588745 39.99187469482422 1.500003695487976 45.99999618530273 1.500003695487976 C 52.00811767578125 1.500003695487976 57.83571624755859 2.676363706588745 63.32093048095703 4.996417045593262 C 68.61978149414062 7.237630367279053 73.37894439697266 10.44644355773926 77.46623992919922 14.53372383117676 C 81.55351257324219 18.62100410461426 84.76234436035156 23.38016319274902 87.00357055664062 28.67900276184082 C 89.32362365722656 34.16421890258789 90.49998474121094 39.99181747436523 90.49998474121094 45.99992370605469 C 90.49998474121094 52.00802993774414 89.32362365722656 57.83562850952148 87.00357055664062 63.32084274291992 C 84.76234436035156 68.61968231201172 81.55351257324219 73.37884521484375 77.46623992919922 77.46612548828125 C 73.37894439697266 81.55340576171875 68.61978149414062 84.76221466064453 63.32093048095703 87.00343322753906 C 57.83571624755859 89.323486328125 52.00811767578125 90.49984741210938 45.99999618530273 90.49984741210938 Z" stroke="none"/>
                                              <path d="M 45.99999618530273 2.999992370605469 C 40.19371032714844 2.999992370605469 34.56270980834961 4.136497497558594 29.26338195800781 6.377906799316406 C 24.14334106445312 8.543510437011719 19.54442596435547 11.64437866210938 15.59441375732422 15.59438323974609 C 11.64439392089844 19.54439544677734 8.543525695800781 24.14329528808594 6.377922058105469 29.26333618164062 C 4.136512756347656 34.56265258789062 3.000007629394531 40.19365310668945 3.000007629394531 45.99992370605469 C 3.000007629394531 51.80619430541992 4.136512756347656 57.43719482421875 6.377922058105469 62.73651123046875 C 8.543525695800781 67.85655212402344 11.64439392089844 72.45545196533203 15.59441375732422 76.40546417236328 C 19.54442596435547 80.35546875 24.14334106445312 83.45633697509766 29.26338195800781 85.62194061279297 C 34.56270980834961 87.86334991455078 40.19371032714844 88.99985504150391 45.99999618530273 88.99985504150391 C 51.80628204345703 88.99985504150391 57.43728256225586 87.86334991455078 62.73661041259766 85.62194061279297 C 67.85665130615234 83.45633697509766 72.45555114746094 80.35546875 76.40556335449219 76.40546417236328 C 80.35558319091797 72.45545196533203 83.45645141601562 67.85655212402344 85.62205505371094 62.73651123046875 C 87.86347961425781 57.43719482421875 88.99998474121094 51.80619430541992 88.99998474121094 45.99992370605469 C 88.99998474121094 40.19365310668945 87.86347961425781 34.56265258789062 85.62205505371094 29.26333618164062 C 83.45645141601562 24.14329528808594 80.35558319091797 19.54439544677734 76.40556335449219 15.59438323974609 C 72.45555114746094 11.64437866210938 67.85665130615234 8.543510437011719 62.73661041259766 6.377906799316406 C 57.43728256225586 4.136497497558594 51.80628204345703 2.999992370605469 45.99999618530273 2.999992370605469 M 45.99999618530273 -7.62939453125e-06 C 71.40506744384766 -7.62939453125e-06 91.99998474121094 20.59486389160156 91.99998474121094 45.99992370605469 C 91.99998474121094 71.40498352050781 71.40506744384766 91.99985504150391 45.99999618530273 91.99985504150391 C 20.59490966796875 91.99985504150391 7.62939453125e-06 71.40498352050781 7.62939453125e-06 45.99992370605469 C 7.62939453125e-06 20.59486389160156 20.59490966796875 -7.62939453125e-06 45.99999618530273 -7.62939453125e-06 Z" stroke="none" fill="#fc3"/>
                                            </g>
                                          </g>
                                        </g>
                                      </g>
                                    </g>
                                  </g>
                                </g>
                              </g>
                            </g>
                          </g>
                        </g>
                      </g>
                    </g>
                  </g>
                </g>
              </g>
            </g>
          </g>
        </g>
      </g>
    </g>
    <g id="administracion-de-empresas" transform="translate(1100.644 2721.972)">
      <g id="Grupo_1219338" data-name="Grupo 1219338" transform="translate(33.047 15.612)">
        <g id="Grupo_1219335" data-name="Grupo 1219335" transform="translate(10.953)">
          <path id="Trazado_1087413" data-name="Trazado 1087413" d="M141.608,63.051a20.041,20.041,0,0,1,5.868,2.433l3.813-1.693,4.494,4.494L154.09,72.1a20.037,20.037,0,0,1,2.433,5.869l3.89,1.5v6.355l-3.891,1.5a20.044,20.044,0,0,1-2.433,5.868L155.783,97l-4.494,4.494L147.477,99.8a20.037,20.037,0,0,1-5.869,2.433l-1.5,3.89h-6.355l-1.5-3.891A20.041,20.041,0,0,1,126.39,99.8l-3.813,1.693L118.083,97l1.693-3.812a20.037,20.037,0,0,1-2.433-5.869l-3.89-1.5V79.462l3.891-1.5a20.035,20.035,0,0,1,2.433-5.868l-1.693-3.812,4.494-4.494,3.813,1.693a20.041,20.041,0,0,1,5.868-2.433l1.5-3.891h6.355Z" transform="translate(-113.453 -59.16)" fill="#ffe177" fill-rule="evenodd"/>
          <path id="Trazado_1087414" data-name="Trazado 1087414" d="M175.212,99.8l-3.813,1.693-.587-.587,3.575-1.588q.407.251.825.481ZM190.43,63.052a20.041,20.041,0,0,1,5.868,2.433l-1.084.481a26.431,26.431,0,0,0-6.693-2.914l-1.5-3.891h1.909ZM196.3,99.8a20.037,20.037,0,0,1-5.869,2.433l-1.5,3.89h-1.909l1.5-3.89a26.424,26.424,0,0,0,6.694-2.914Zm-25.487-35.42.587-.587,3.813,1.693q-.418.231-.825.481Zm27.977,0,1.322-.587,4.494,4.494L202.912,72.1a20.037,20.037,0,0,1,2.433,5.869l3.89,1.5v6.355l-3.891,1.5a20.043,20.043,0,0,1-2.433,5.868L204.6,97l-4.494,4.494-1.322-.587L202.7,97,201,93.184a20.039,20.039,0,0,0,2.433-5.868l3.891-1.5V79.463l-3.89-1.5A20.035,20.035,0,0,0,201,72.1l1.693-3.812Z" transform="translate(-162.275 -59.161)" fill="#ffd064" fill-rule="evenodd"/>
          <ellipse id="Elipse_14486" data-name="Elipse 14486" cx="15.525" cy="15.525" rx="15.525" ry="15.525" transform="translate(1.519 23.481) rotate(-45)" fill="#eceff1"/>
          <path id="Trazado_1087415" data-name="Trazado 1087415" d="M182.424,112.606a15.526,15.526,0,0,0,0,31.051c.314,0,.626-.011.936-.029a15.525,15.525,0,0,1,0-30.993C183.051,112.617,182.739,112.606,182.424,112.606Z" transform="translate(-158.944 -104.651)" fill="#d1d1d6" fill-rule="evenodd"/>
        </g>
        <g id="Grupo_1219336" data-name="Grupo 1219336" transform="translate(0 40.102)">
          <path id="Trazado_1087416" data-name="Trazado 1087416" d="M67.176,336.9l11.467-6.644c2.152-1.247,4.341-2.131,6.706-1.364,2.637.855,6.944,2.692,11.336,3.484a3.185,3.185,0,0,1,2.2,3.816c-.444,1.655-1.842,2.509-3.816,2.2l1.535.246a7.148,7.148,0,0,0,4.915-.856l11.025-6.422c8.57-4.991,9.829,2.688,6.98,4.442L99.52,348.126a7.337,7.337,0,0,1-5.941.838l-14.513-3.889-5.374,3.1a2.171,2.171,0,0,1-2.959-.793l-4.346-7.528a2.171,2.171,0,0,1,.79-2.958Z" transform="translate(-62.192 -328.606)" fill="#f6dccd" fill-rule="evenodd"/>
          <path id="Trazado_1087417" data-name="Trazado 1087417" d="M218.526,368.537a3.146,3.146,0,0,1-3.554,1.517c-2.377-.629-4.752-1.273-7.127-1.91a1.193,1.193,0,0,1,.617-2.3Z" transform="translate(-182.09 -360.264)" fill="#f1cbbc" fill-rule="evenodd"/>
          <path id="Trazado_1087418" data-name="Trazado 1087418" d="M67.176,336.9l11.468-6.644c2.152-1.247,4.341-2.131,6.706-1.364,1.411.458,3.3,1.2,5.424,1.905L68.56,343.623l-2.174-3.765A2.171,2.171,0,0,1,67.176,336.9Z" transform="translate(-62.191 -328.606)" fill="#f1cbbc" fill-rule="evenodd"/>
          <path id="Trazado_1087419" data-name="Trazado 1087419" d="M45.985,355.315l9.095,16.069a1.628,1.628,0,0,1-.613,2.212l-3.093,1.751a1.628,1.628,0,0,1-2.212-.613l-9.095-16.069a1.628,1.628,0,0,1,.613-2.212l3.093-1.751A1.628,1.628,0,0,1,45.985,355.315Z" transform="translate(-39.857 -350.639)" fill="#d1d1d6" fill-rule="evenodd"/>
          <path id="Trazado_1087420" data-name="Trazado 1087420" d="M75,366.356l1.61,2.844,1.592,2.813a1.628,1.628,0,0,1-.608,2.21L78.7,373.6a1.628,1.628,0,0,0,.613-2.212l-1.6-2.822L74.511,362.9,71.3,357.223l-1.08-1.908a1.63,1.63,0,0,0-1.891-.752l1.869,3.3,3.207,5.667,1.6,2.822Z" transform="translate(-64.092 -350.64)" fill="#b1b1b5" fill-rule="evenodd"/>
        </g>
        <g id="Grupo_1219337" data-name="Grupo 1219337" transform="translate(24.534 17.093)">
          <path id="Trazado_1087421" data-name="Trazado 1087421" d="M205.592,232h2.414a.9.9,0,0,1,.893.893v3.041a.9.9,0,0,1-.893.893h-2.414a.9.9,0,0,1-.893-.893v-3.041A.9.9,0,0,1,205.592,232Z" transform="translate(-204.699 -223.367)" fill="#fe646f" fill-rule="evenodd"/>
          <path id="Trazado_1087422" data-name="Trazado 1087422" d="M218.261,232h1.288a.9.9,0,0,1,.893.893v3.041a.9.9,0,0,1-.893.893h-1.288a.9.9,0,0,0,.893-.893v-3.041A.9.9,0,0,0,218.261,232Z" transform="translate(-216.243 -223.367)" fill="#fd4755" fill-rule="evenodd"/>
          <path id="Trazado_1087423" data-name="Trazado 1087423" d="M258,203.63h2.414a.9.9,0,0,1,.893.893v7.263a.9.9,0,0,1-.893.893H258a.9.9,0,0,1-.893-.893v-7.263A.9.9,0,0,1,258,203.63Z" transform="translate(-249.305 -199.221)" fill="#6cf5c2" fill-rule="evenodd"/>
          <path id="Trazado_1087424" data-name="Trazado 1087424" d="M270.666,203.63h1.288a.9.9,0,0,1,.893.893v7.263a.9.9,0,0,1-.893.893h-1.288a.9.9,0,0,0,.893-.893v-7.263A.9.9,0,0,0,270.666,203.63Z" transform="translate(-260.848 -199.221)" fill="#00e499" fill-rule="evenodd"/>
          <path id="Trazado_1087425" data-name="Trazado 1087425" d="M310.4,174h2.414a.9.9,0,0,1,.893.893v11.673a.9.9,0,0,1-.893.893H310.4a.9.9,0,0,1-.893-.893V174.9A.9.9,0,0,1,310.4,174Z" transform="translate(-293.911 -174.005)" fill="#8ac9fe" fill-rule="evenodd"/>
          <path id="Trazado_1087426" data-name="Trazado 1087426" d="M323.072,174h1.288a.9.9,0,0,1,.893.893v11.673a.9.9,0,0,1-.893.893h-1.288a.9.9,0,0,0,.893-.893V174.9A.9.9,0,0,0,323.072,174Z" transform="translate(-305.454 -174.005)" fill="#60b7ff" fill-rule="evenodd"/>
        </g>
      </g>
      <path id="Trazado_1087427" data-name="Trazado 1087427" d="M74.371,44.973H76.19V33.9H74.371Zm-2.381,1.19V32.7a1.19,1.19,0,0,1,1.191-1.19h4.2a1.19,1.19,0,0,1,1.19,1.19V46.164a1.19,1.19,0,0,1-1.19,1.191h-4.2A1.19,1.19,0,0,1,71.99,46.164Zm-3.6-7.859H66.572v6.668h1.817Zm2.382-1.191v9.05a1.191,1.191,0,0,1-1.191,1.191h-4.2a1.191,1.191,0,0,1-1.191-1.191v-9.05a1.191,1.191,0,0,1,1.191-1.191h4.2A1.191,1.191,0,0,1,70.771,37.114Zm-12,7.859h1.819V42.527H58.772Zm-1.191,2.382a1.191,1.191,0,0,1-1.191-1.191V41.336a1.191,1.191,0,0,1,1.191-1.191h4.2a1.19,1.19,0,0,1,1.19,1.191v4.827a1.19,1.19,0,0,1-1.19,1.191Zm2.136-9.037a1.19,1.19,0,0,1-.731-2.13l7.022-5.464a1.19,1.19,0,0,1,.4-2.312h0l2.979,0A1.19,1.19,0,0,1,70.536,29.9l-.726,2.888a1.19,1.19,0,0,1-1.153.9,1.157,1.157,0,0,1-.291-.036A1.189,1.189,0,0,1,67.47,32.6l-7.022,5.465a1.187,1.187,0,0,1-.73.25ZM37.09,62.792a1.1,1.1,0,1,0,1.253.933A1.105,1.105,0,0,0,37.09,62.792Zm16.056-23.7A14.335,14.335,0,1,1,67.48,53.428,14.351,14.351,0,0,1,53.146,39.093Zm-2.382,0A16.716,16.716,0,1,1,67.48,55.809,16.735,16.735,0,0,1,50.764,39.093ZM90.25,58.925C89.4,57.5,87.064,57.719,84,59.5L72.976,65.925a8.3,8.3,0,0,1-5.7,1L65.9,66.7l-.024,0-.024,0c-1.721-.352-3.313-.807-5-1.289-.765-.219-1.558-.445-2.364-.661a1.191,1.191,0,1,1,.616-2.3c.825.221,1.627.45,2.4.671,1.624.464,3.158.9,4.77,1.234a1.86,1.86,0,0,0,2.314-1.357,1.981,1.981,0,0,0-1.353-2.353,57.381,57.381,0,0,1-9.074-2.689c-.893-.323-1.664-.6-2.332-.818-2.006-.651-3.945.221-5.742,1.262l-8.038,4.654L47.3,72.321l2.021-1.166a1.186,1.186,0,0,1,.9-.119L64.74,74.925a6.171,6.171,0,0,0,5.01-.7L89.761,61.9a2.348,2.348,0,0,0,.49-2.977ZM47.236,77.041a.437.437,0,0,1-.163.589l-3.094,1.751a.43.43,0,0,1-.328.039.435.435,0,0,1-.262-.2l-9.1-16.072a.438.438,0,0,1,.163-.59l3.094-1.751a.419.419,0,0,1,.208-.055.477.477,0,0,1,.121.016.425.425,0,0,1,.261.2Zm4.593-22.079-1.777-1.778,1.36-3.064a1.193,1.193,0,0,0-.075-1.108,18.827,18.827,0,0,1-2.289-5.52,1.188,1.188,0,0,0-.729-.836l-3.129-1.2v-4.72l3.129-1.2a1.188,1.188,0,0,0,.731-.835,18.838,18.838,0,0,1,2.287-5.519,1.188,1.188,0,0,0,.075-1.108L50.052,25l3.337-3.338,3.066,1.362a1.19,1.19,0,0,0,1.107-.074,18.826,18.826,0,0,1,5.519-2.288,1.191,1.191,0,0,0,.836-.731l1.2-3.128h4.719l1.2,3.128a1.192,1.192,0,0,0,.836.731A18.828,18.828,0,0,1,77.4,22.95a1.189,1.189,0,0,0,1.107.074l3.066-1.362L84.912,25,83.55,28.065a1.193,1.193,0,0,0,.074,1.107,18.829,18.829,0,0,1,2.289,5.521,1.189,1.189,0,0,0,.729.836l3.129,1.2v4.72l-3.129,1.2a1.188,1.188,0,0,0-.731.835,18.827,18.827,0,0,1-2.288,5.519,1.19,1.19,0,0,0-.074,1.107l1.362,3.066-3.338,3.338-3.065-1.361a1.188,1.188,0,0,0-1.107.074,18.825,18.825,0,0,1-5.522,2.289,1.192,1.192,0,0,0-.834.731l-.736,1.91a4.561,4.561,0,0,0-2.4-1.812,1.106,1.106,0,0,0-.155-.039,55.039,55.039,0,0,1-8.775-2.6c-.876-.317-1.7-.615-2.407-.843a7.447,7.447,0,0,0-4.74.094ZM70.609,64.4a4.557,4.557,0,0,0,.241-.648,1.189,1.189,0,0,0,.92-.747l1.277-3.316a21.209,21.209,0,0,0,5.059-2.1l2.525,1.122-8.853,5.157a6,6,0,0,1-1.17.529Zm21.728-6.617a4.72,4.72,0,0,1-1.327,6.151L71,76.251a8.514,8.514,0,0,1-4.5,1.294,9.158,9.158,0,0,1-2.373-.32L50.086,73.464l-1.612.93.834,1.474A2.817,2.817,0,0,1,48.245,79.7l-3.094,1.751a2.789,2.789,0,0,1-1.378.365,2.85,2.85,0,0,1-.759-.1,2.8,2.8,0,0,1-1.7-1.324L32.22,64.32a2.818,2.818,0,0,1,1.063-3.835l3.094-1.751A2.821,2.821,0,0,1,40.213,59.8l.668,1.18L48.9,56.334c.2-.113.4-.225.6-.336L47.79,54.29a1.189,1.189,0,0,1-.247-1.325l1.444-3.249a21.11,21.11,0,0,1-2.1-5.059l-3.316-1.276a1.19,1.19,0,0,1-.764-1.111V35.915a1.19,1.19,0,0,1,.764-1.111l3.316-1.276a21.165,21.165,0,0,1,2.1-5.058l-1.444-3.25a1.189,1.189,0,0,1,.247-1.325L52.283,19.4a1.193,1.193,0,0,1,1.326-.246L56.858,20.6a21.2,21.2,0,0,1,5.057-2.1l1.277-3.316a1.19,1.19,0,0,1,1.111-.763h6.354a1.192,1.192,0,0,1,1.112.763L73.047,18.5A21.208,21.208,0,0,1,78.1,20.6l3.249-1.443a1.194,1.194,0,0,1,1.326.246l4.493,4.494a1.192,1.192,0,0,1,.247,1.325l-1.444,3.249a21.11,21.11,0,0,1,2.1,5.059L91.389,34.8a1.19,1.19,0,0,1,.764,1.111V42.27a1.19,1.19,0,0,1-.764,1.111l-3.316,1.276a21.172,21.172,0,0,1-2.1,5.057l1.444,3.251a1.191,1.191,0,0,1-.247,1.325l-1.991,1.992c2.556-.99,4.287-.733,5.417-.154a28.384,28.384,0,0,0,5.6-17.035,28.68,28.68,0,0,0-3.886-14.434,1.191,1.191,0,0,1,2.058-1.2,31.081,31.081,0,0,1,4.21,15.633,30.744,30.744,0,0,1-6.24,18.686ZM40.8,55.068A31.1,31.1,0,0,1,85.392,13.675L84.9,11.952a1.191,1.191,0,0,1,2.291-.654L88.7,16.6a1.192,1.192,0,0,1-1.1,1.517l-5.512.2h-.045A1.191,1.191,0,0,1,82,15.939l2.345-.085A28.717,28.717,0,0,0,42.842,53.843,1.19,1.19,0,1,1,40.8,55.068Z" transform="translate(0 0)" fill="#242222" fill-rule="evenodd"/>
    </g>
  </g>
</svg>
