<svg xmlns="http://www.w3.org/2000/svg" xmlns:xlink="http://www.w3.org/1999/xlink" width="110" height="110" viewBox="0 0 110 110">
  <defs>
    <filter id="Trazado_982547" x="0" y="0" width="110" height="110" filterUnits="userSpaceOnUse">
      <feOffset dy="3" input="SourceAlpha"/>
      <feGaussianBlur stdDeviation="3" result="blur"/>
      <feFlood flood-opacity="0.161"/>
      <feComposite operator="in" in2="blur"/>
      <feComposite in="SourceGraphic"/>
    </filter>
  </defs>
  <g id="Grupo_1219340" data-name="Grupo 1219340" transform="translate(-3709 -2717.417)">
    <g id="Grupo_1218064" data-name="Grupo 1218064" transform="translate(3718 2723.417)">
      <g id="Grupo_1214724" data-name="Grupo 1214724" transform="translate(0 0)">
        <g id="Grupo_1200150" data-name="Grupo 1200150">
          <g id="Grupo_1185951" data-name="Grupo 1185951" transform="translate(0 0)">
            <g id="Grupo_1184083" data-name="Grupo 1184083">
              <g id="Grupo_1183743" data-name="Grupo 1183743">
                <g id="Grupo_1181545" data-name="Grupo 1181545">
                  <g id="Grupo_1177562" data-name="Grupo 1177562">
                    <g id="Grupo_1173147" data-name="Grupo 1173147">
                      <g id="Grupo_1163801" data-name="Grupo 1163801">
                        <g id="Grupo_1163014" data-name="Grupo 1163014">
                          <g id="Grupo_1157015" data-name="Grupo 1157015">
                            <g id="Grupo_1155792" data-name="Grupo 1155792">
                              <g id="Grupo_1154703" data-name="Grupo 1154703">
                                <g id="Grupo_1150789" data-name="Grupo 1150789">
                                  <g id="Grupo_1154212" data-name="Grupo 1154212">
                                    <g id="Grupo_1152583" data-name="Grupo 1152583">
                                      <g id="Grupo_1146973" data-name="Grupo 1146973">
                                        <g id="Grupo_1146954" data-name="Grupo 1146954">
                                          <g transform="matrix(1, 0, 0, 1, -9, -6)" filter="url(#Trazado_982547)">
                                            <g id="Trazado_982547-2" data-name="Trazado 982547" transform="translate(9 6)" fill="#ffefc0">
                                              <path d="M 45.99999618530273 90.49984741210938 C 39.99187469482422 90.49984741210938 34.16427612304688 89.323486328125 28.67906379699707 87.00343322753906 C 23.38020896911621 84.76221466064453 18.62104988098145 81.55340576171875 14.53375625610352 77.46612548828125 C 10.44647598266602 73.37884521484375 7.237649440765381 68.61968231201172 4.99642276763916 63.32084274291992 C 2.676369428634644 57.83562850952148 1.500009536743164 52.00802993774414 1.500009536743164 45.99992370605469 C 1.500009536743164 39.99181747436523 2.676369428634644 34.16421890258789 4.99642276763916 28.67900276184082 C 7.237649440765381 23.38016319274902 10.44647598266602 18.62100410461426 14.53375625610352 14.53372383117676 C 18.62104988098145 10.44644355773926 23.38020896911621 7.237630367279053 28.67906379699707 4.996417045593262 C 34.16427612304688 2.676363706588745 39.99187469482422 1.500003695487976 45.99999618530273 1.500003695487976 C 52.00811767578125 1.500003695487976 57.83571624755859 2.676363706588745 63.32093048095703 4.996417045593262 C 68.61978149414062 7.237630367279053 73.37894439697266 10.44644355773926 77.46623992919922 14.53372383117676 C 81.55351257324219 18.62100410461426 84.76234436035156 23.38016319274902 87.00357055664062 28.67900276184082 C 89.32362365722656 34.16421890258789 90.49998474121094 39.99181747436523 90.49998474121094 45.99992370605469 C 90.49998474121094 52.00802993774414 89.32362365722656 57.83562850952148 87.00357055664062 63.32084274291992 C 84.76234436035156 68.61968231201172 81.55351257324219 73.37884521484375 77.46623992919922 77.46612548828125 C 73.37894439697266 81.55340576171875 68.61978149414062 84.76221466064453 63.32093048095703 87.00343322753906 C 57.83571624755859 89.323486328125 52.00811767578125 90.49984741210938 45.99999618530273 90.49984741210938 Z" stroke="none"/>
                                              <path d="M 45.99999618530273 2.999992370605469 C 40.19371032714844 2.999992370605469 34.56270980834961 4.136497497558594 29.26338195800781 6.377906799316406 C 24.14334106445312 8.543510437011719 19.54442596435547 11.64437866210938 15.59441375732422 15.59438323974609 C 11.64439392089844 19.54439544677734 8.543525695800781 24.14329528808594 6.377922058105469 29.26333618164062 C 4.136512756347656 34.56265258789062 3.000007629394531 40.19365310668945 3.000007629394531 45.99992370605469 C 3.000007629394531 51.80619430541992 4.136512756347656 57.43719482421875 6.377922058105469 62.73651123046875 C 8.543525695800781 67.85655212402344 11.64439392089844 72.45545196533203 15.59441375732422 76.40546417236328 C 19.54442596435547 80.35546875 24.14334106445312 83.45633697509766 29.26338195800781 85.62194061279297 C 34.56270980834961 87.86334991455078 40.19371032714844 88.99985504150391 45.99999618530273 88.99985504150391 C 51.80628204345703 88.99985504150391 57.43728256225586 87.86334991455078 62.73661041259766 85.62194061279297 C 67.85665130615234 83.45633697509766 72.45555114746094 80.35546875 76.40556335449219 76.40546417236328 C 80.35558319091797 72.45545196533203 83.45645141601562 67.85655212402344 85.62205505371094 62.73651123046875 C 87.86347961425781 57.43719482421875 88.99998474121094 51.80619430541992 88.99998474121094 45.99992370605469 C 88.99998474121094 40.19365310668945 87.86347961425781 34.56265258789062 85.62205505371094 29.26333618164062 C 83.45645141601562 24.14329528808594 80.35558319091797 19.54439544677734 76.40556335449219 15.59438323974609 C 72.45555114746094 11.64437866210938 67.85665130615234 8.543510437011719 62.73661041259766 6.377906799316406 C 57.43728256225586 4.136497497558594 51.80628204345703 2.999992370605469 45.99999618530273 2.999992370605469 M 45.99999618530273 -7.62939453125e-06 C 71.40506744384766 -7.62939453125e-06 91.99998474121094 20.59486389160156 91.99998474121094 45.99992370605469 C 91.99998474121094 71.40498352050781 71.40506744384766 91.99985504150391 45.99999618530273 91.99985504150391 C 20.59490966796875 91.99985504150391 7.62939453125e-06 71.40498352050781 7.62939453125e-06 45.99992370605469 C 7.62939453125e-06 20.59486389160156 20.59490966796875 -7.62939453125e-06 45.99999618530273 -7.62939453125e-06 Z" stroke="none" fill="#fc3"/>
                                            </g>
                                          </g>
                                        </g>
                                      </g>
                                    </g>
                                  </g>
                                </g>
                              </g>
                            </g>
                          </g>
                        </g>
                      </g>
                    </g>
                  </g>
                </g>
              </g>
            </g>
          </g>
        </g>
      </g>
    </g>
    <g id="layer1" transform="translate(3729.119 2454.971)">
      <path id="path5579-1" d="M28.388,298.969H18.233L19.361,284.3,5.821,305.739H15.976l-1.128,14.669Z" transform="translate(17.272 12.094)" fill="#ffbc42"/>
      <path id="path21659-7-3-8-4" d="M51.531,313.582A32.74,32.74,0,0,0,5.3,283.769l2.021,4.042a28.217,28.217,0,0,1,34.061,42.7l-4.519-4.512v12.412H49.274L44.6,333.721a32.559,32.559,0,0,0,6.933-20.138Z" transform="translate(15.568 0.862)" fill="#33b9ef"/>
      <path id="path21147-1-52-7-9-1" d="M.794,307.536a32.74,32.74,0,0,0,46.232,29.813L45,333.308a28.217,28.217,0,0,1-34.061-42.7l4.519,4.512V282.712H3.05L7.727,287.4A32.559,32.559,0,0,0,.794,307.536Z" transform="translate(0.861 6.909)" fill="#33b9ef"/>
      <path id="path24254-5-53" d="M34.381,280.6A33.743,33.743,0,0,0,20.4,283.6a1.129,1.129,0,1,0,.932,2.056,31.567,31.567,0,0,1,37.917,48.206,1.13,1.13,0,0,0,.115,1.512l2.757,2.766H53.554v-8.562l2.6,2.59a1.128,1.128,0,1,0,1.591-1.6l-4.513-4.513a1.131,1.131,0,0,0-1.924.8v12.41A1.129,1.129,0,0,0,52.43,340.4H64.84a1.129,1.129,0,0,0,.8-1.924l-4-4.015A33.809,33.809,0,0,0,34.381,280.6Zm0,4.516a29.263,29.263,0,0,0-11.954,2.532,1.13,1.13,0,1,0,.917,2.065,27.092,27.092,0,0,1,35.2,36.974,1.128,1.128,0,1,0,2.008,1.025,29.341,29.341,0,0,0-26.17-42.6Zm-30.47,3.381a1.129,1.129,0,0,0-.8,1.924l4,4.015a33.847,33.847,0,0,0,41.236,50.86,1.13,1.13,0,0,0-.932-2.058A31.6,31.6,0,0,1,9.476,295a1.132,1.132,0,0,0-.093-1.5l-2.748-2.759H15.2v8.564l-2.6-2.592a1.128,1.128,0,1,0-1.591,1.6l4.516,4.516a1.129,1.129,0,0,0,1.933-.8V289.625a1.129,1.129,0,0,0-1.133-1.133Zm31.766,7.3L22.143,317.23a1.128,1.128,0,0,0,.948,1.732h8.939L31,332.414a1.128,1.128,0,0,0,2.074.692l13.545-21.441a1.128,1.128,0,0,0-.959-1.732H35.5a1.129,1.129,0,1,0,0,2.259h8.112L33.594,328.051l.776-10.129a1.129,1.129,0,0,0-1.124-1.216H25.14l10.021-15.868-.434,5.6a1.128,1.128,0,1,0,2.25.165l.782-10.12a1.13,1.13,0,0,0-2.083-.69ZM9.158,300.563a1.132,1.132,0,0,0-.956.624,29.354,29.354,0,0,0,38.124,40.066,1.131,1.131,0,0,0-.917-2.067,27.092,27.092,0,0,1-35.2-36.974,1.128,1.128,0,0,0-1.051-1.648Z" transform="translate(0 0)"/>
    </g>
  </g>
</svg>
