<svg xmlns="http://www.w3.org/2000/svg" xmlns:xlink="http://www.w3.org/1999/xlink" width="110" height="110" viewBox="0 0 110 110">
  <defs>
    <filter id="Trazado_982547" x="0" y="0" width="110" height="110" filterUnits="userSpaceOnUse">
      <feOffset dy="3" input="SourceAlpha"/>
      <feGaussianBlur stdDeviation="3" result="blur"/>
      <feFlood flood-opacity="0.161"/>
      <feComposite operator="in" in2="blur"/>
      <feComposite in="SourceGraphic"/>
    </filter>
  </defs>
  <g id="Grupo_1219347" data-name="Grupo 1219347" transform="translate(-4024 -2718.417)">
    <g id="Grupo_1218065" data-name="Grupo 1218065" transform="translate(4033 2724.417)">
      <g id="Grupo_1214725" data-name="Grupo 1214725" transform="translate(0 0)">
        <g id="Grupo_1200151" data-name="Grupo 1200151">
          <g id="Grupo_1185952" data-name="Grupo 1185952" transform="translate(0 0)">
            <g id="Grupo_1184115" data-name="Grupo 1184115">
              <g id="Grupo_1183744" data-name="Grupo 1183744">
                <g id="Grupo_1181546" data-name="Grupo 1181546">
                  <g id="Grupo_1177563" data-name="Grupo 1177563">
                    <g id="Grupo_1173148" data-name="Grupo 1173148">
                      <g id="Grupo_1163803" data-name="Grupo 1163803">
                        <g id="Grupo_1163015" data-name="Grupo 1163015">
                          <g id="Grupo_1157017" data-name="Grupo 1157017">
                            <g id="Grupo_1155793" data-name="Grupo 1155793">
                              <g id="Grupo_1154704" data-name="Grupo 1154704">
                                <g id="Grupo_1150790" data-name="Grupo 1150790">
                                  <g id="Grupo_1154214" data-name="Grupo 1154214">
                                    <g id="Grupo_1152583" data-name="Grupo 1152583">
                                      <g id="Grupo_1146973" data-name="Grupo 1146973">
                                        <g id="Grupo_1146954" data-name="Grupo 1146954">
                                          <g transform="matrix(1, 0, 0, 1, -9, -6)" filter="url(#Trazado_982547)">
                                            <g id="Trazado_982547-2" data-name="Trazado 982547" transform="translate(9 6)" fill="#ffefc0">
                                              <path d="M 45.99999618530273 90.49984741210938 C 39.99187469482422 90.49984741210938 34.16427612304688 89.323486328125 28.67906379699707 87.00343322753906 C 23.38020896911621 84.76221466064453 18.62104988098145 81.55340576171875 14.53375625610352 77.46612548828125 C 10.44647598266602 73.37884521484375 7.237649440765381 68.61968231201172 4.99642276763916 63.32084274291992 C 2.676369428634644 57.83562850952148 1.500009536743164 52.00802993774414 1.500009536743164 45.99992370605469 C 1.500009536743164 39.99181747436523 2.676369428634644 34.16421890258789 4.99642276763916 28.67900276184082 C 7.237649440765381 23.38016319274902 10.44647598266602 18.62100410461426 14.53375625610352 14.53372383117676 C 18.62104988098145 10.44644355773926 23.38020896911621 7.237630367279053 28.67906379699707 4.996417045593262 C 34.16427612304688 2.676363706588745 39.99187469482422 1.500003695487976 45.99999618530273 1.500003695487976 C 52.00811767578125 1.500003695487976 57.83571624755859 2.676363706588745 63.32093048095703 4.996417045593262 C 68.61978149414062 7.237630367279053 73.37894439697266 10.44644355773926 77.46623992919922 14.53372383117676 C 81.55351257324219 18.62100410461426 84.76234436035156 23.38016319274902 87.00357055664062 28.67900276184082 C 89.32362365722656 34.16421890258789 90.49998474121094 39.99181747436523 90.49998474121094 45.99992370605469 C 90.49998474121094 52.00802993774414 89.32362365722656 57.83562850952148 87.00357055664062 63.32084274291992 C 84.76234436035156 68.61968231201172 81.55351257324219 73.37884521484375 77.46623992919922 77.46612548828125 C 73.37894439697266 81.55340576171875 68.61978149414062 84.76221466064453 63.32093048095703 87.00343322753906 C 57.83571624755859 89.323486328125 52.00811767578125 90.49984741210938 45.99999618530273 90.49984741210938 Z" stroke="none"/>
                                              <path d="M 45.99999618530273 2.999992370605469 C 40.19371032714844 2.999992370605469 34.56270980834961 4.136497497558594 29.26338195800781 6.377906799316406 C 24.14334106445312 8.543510437011719 19.54442596435547 11.64437866210938 15.59441375732422 15.59438323974609 C 11.64439392089844 19.54439544677734 8.543525695800781 24.14329528808594 6.377922058105469 29.26333618164062 C 4.136512756347656 34.56265258789062 3.000007629394531 40.19365310668945 3.000007629394531 45.99992370605469 C 3.000007629394531 51.80619430541992 4.136512756347656 57.43719482421875 6.377922058105469 62.73651123046875 C 8.543525695800781 67.85655212402344 11.64439392089844 72.45545196533203 15.59441375732422 76.40546417236328 C 19.54442596435547 80.35546875 24.14334106445312 83.45633697509766 29.26338195800781 85.62194061279297 C 34.56270980834961 87.86334991455078 40.19371032714844 88.99985504150391 45.99999618530273 88.99985504150391 C 51.80628204345703 88.99985504150391 57.43728256225586 87.86334991455078 62.73661041259766 85.62194061279297 C 67.85665130615234 83.45633697509766 72.45555114746094 80.35546875 76.40556335449219 76.40546417236328 C 80.35558319091797 72.45545196533203 83.45645141601562 67.85655212402344 85.62205505371094 62.73651123046875 C 87.86347961425781 57.43719482421875 88.99998474121094 51.80619430541992 88.99998474121094 45.99992370605469 C 88.99998474121094 40.19365310668945 87.86347961425781 34.56265258789062 85.62205505371094 29.26333618164062 C 83.45645141601562 24.14329528808594 80.35558319091797 19.54439544677734 76.40556335449219 15.59438323974609 C 72.45555114746094 11.64437866210938 67.85665130615234 8.543510437011719 62.73661041259766 6.377906799316406 C 57.43728256225586 4.136497497558594 51.80628204345703 2.999992370605469 45.99999618530273 2.999992370605469 M 45.99999618530273 -7.62939453125e-06 C 71.40506744384766 -7.62939453125e-06 91.99998474121094 20.59486389160156 91.99998474121094 45.99992370605469 C 91.99998474121094 71.40498352050781 71.40506744384766 91.99985504150391 45.99999618530273 91.99985504150391 C 20.59490966796875 91.99985504150391 7.62939453125e-06 71.40498352050781 7.62939453125e-06 45.99992370605469 C 7.62939453125e-06 20.59486389160156 20.59490966796875 -7.62939453125e-06 45.99999618530273 -7.62939453125e-06 Z" stroke="none" fill="#fc3"/>
                                            </g>
                                          </g>
                                        </g>
                                      </g>
                                    </g>
                                  </g>
                                </g>
                              </g>
                            </g>
                          </g>
                        </g>
                      </g>
                    </g>
                  </g>
                </g>
              </g>
            </g>
          </g>
        </g>
      </g>
    </g>
    <g id="Layer_2" transform="translate(4040.935 2727.72)">
      <g id="Grupo_1219346" data-name="Grupo 1219346" transform="translate(2.524 2.523)">
        <path id="Trazado_1087428" data-name="Trazado 1087428" d="M386.816,14.225v39.7h9.743v-39.7h2.575l-7.446-6.7-7.446,6.7Z" transform="translate(-331.477 -6.832)" fill="#f8d250"/>
        <path id="Trazado_1087429" data-name="Trazado 1087429" d="M402.869,56.012H406.1v39.7h-3.227Z" transform="translate(-347.53 -48.618)" fill="#f8ae46"/>
        <path id="Trazado_1087430" data-name="Trazado 1087430" d="M262.578,64.223V91.409h9.743V64.223H274.9l-7.446-6.7L260,64.223Z" transform="translate(-224.412 -49.918)" fill="#f8d250"/>
        <path id="Trazado_1087431" data-name="Trazado 1087431" d="M278.631,106.01h3.2V133.2h-3.2Z" transform="translate(-240.465 -91.705)" fill="#f8ae46"/>
        <g id="Grupo_1219341" data-name="Grupo 1219341" transform="translate(0.691 19.242)">
          <path id="Trazado_1087432" data-name="Trazado 1087432" d="M57.724,171.508v-9.359H52.246a20.087,20.087,0,0,0-2.434-5.89l3.869-3.869-6.618-6.618L43.2,149.632a20.086,20.086,0,0,0-5.9-2.453v-5.451H27.945v5.435a20.083,20.083,0,0,0-5.926,2.442l-3.834-3.834-6.618,6.618,3.826,3.826a20.083,20.083,0,0,0-2.461,5.933H7.524v9.359h5.408a20.083,20.083,0,0,0,2.461,5.933l-3.826,3.826,6.618,6.618,3.834-3.834a20.087,20.087,0,0,0,5.926,2.442v5.435H37.3v-5.451a20.088,20.088,0,0,0,5.9-2.453l3.862,3.862,6.618-6.618L49.812,177.4a20.087,20.087,0,0,0,2.434-5.89Zm-25.1,4.66a9.339,9.339,0,1,1,9.339-9.339A9.339,9.339,0,0,1,32.624,176.168Z" transform="translate(-7.524 -141.728)" fill="#494a47"/>
          <path id="Trazado_1087433" data-name="Trazado 1087433" d="M111.268,230.6A14.871,14.871,0,1,0,96.4,245.472,14.871,14.871,0,0,0,111.268,230.6ZM96.4,239.94a9.339,9.339,0,1,1,9.339-9.339A9.339,9.339,0,0,1,96.4,239.94Z" transform="translate(-71.297 -205.501)" fill="#333331"/>
        </g>
        <g id="Grupo_1219345" data-name="Grupo 1219345" transform="translate(0 0)">
          <path id="Trazado_1087434" data-name="Trazado 1087434" d="M454.755,303.027l-3.386-2.681,1.354-1.71a1.831,1.831,0,0,1,2.573-.3l.514.407a1.831,1.831,0,0,1,.3,2.573Z" transform="translate(-389.326 -257.106)" fill="#cdcdc6"/>
          <path id="Trazado_1087435" data-name="Trazado 1087435" d="M320.882,303.027l3.386-2.681-1.354-1.71a1.831,1.831,0,0,0-2.573-.3l-.514.407a1.831,1.831,0,0,0-.3,2.573Z" transform="translate(-275.368 -257.106)" fill="#cdcdc6"/>
          <g id="Grupo_1219342" data-name="Grupo 1219342" transform="translate(52.563 34.766)">
            <path id="Trazado_1087436" data-name="Trazado 1087436" d="M382.791,254.039h5.851v3.021h-5.851Z" transform="translate(-382.791 -254.039)" fill="#cdcdc6"/>
            <path id="Trazado_1087437" data-name="Trazado 1087437" d="M388.748,275.892h4.2v4.736h-4.2Z" transform="translate(-387.925 -272.871)" fill="#333331"/>
          </g>
          <g id="Grupo_1219344" data-name="Grupo 1219344">
            <circle id="Elipse_14487" data-name="Elipse 14487" cx="13.903" cy="13.903" r="13.903" transform="translate(41.586 41.577)" fill="#68c0e0"/>
            <path id="Trazado_1087438" data-name="Trazado 1087438" d="M306.6,317.215a13.9,13.9,0,0,1,12.292-13.81,14.051,14.051,0,0,0-1.611-.093,13.9,13.9,0,1,0,1.611,27.713A13.9,13.9,0,0,1,306.6,317.215Z" transform="translate(-261.788 -261.735)" fill="#3282a1"/>
            <circle id="Elipse_14488" data-name="Elipse 14488" cx="11.138" cy="11.138" r="11.138" transform="translate(44.351 44.342)" fill="#fff"/>
            <path id="Trazado_1087439" data-name="Trazado 1087439" d="M326.6,334.5a11.138,11.138,0,0,1,9.695-11.042,11.14,11.14,0,1,0-.335,22.037A11.14,11.14,0,0,1,326.6,334.5Z" transform="translate(-279.026 -278.973)" fill="#cdcdc6"/>
            <circle id="Elipse_14489" data-name="Elipse 14489" cx="2.068" cy="2.068" r="2.068" transform="translate(53.421 53.412)" fill="#e15f4f"/>
            <g id="Grupo_1219343" data-name="Grupo 1219343">
              <path id="Trazado_1087440" data-name="Trazado 1087440" d="M126.575,250.749a10.03,10.03,0,1,0,10.03,10.03A10.042,10.042,0,0,0,126.575,250.749Zm0,18.679a8.648,8.648,0,1,1,8.648-8.648A8.658,8.658,0,0,1,126.575,269.428Z" transform="translate(-100.784 -216.437)"/>
              <path id="Trazado_1087441" data-name="Trazado 1087441" d="M68.927,48.326l.921-1.164a2.523,2.523,0,0,0-.412-3.544l-.514-.407a2.534,2.534,0,0,0-.626-.364V10.608H70.18a.691.691,0,0,0,.462-1.2L63.2,2.7a.691.691,0,0,0-.925,0L54.825,9.4a.691.691,0,0,0,.462,1.2h1.884V36.6H55.087a.691.691,0,0,0-.691.691V40.31a.691.691,0,0,0,.691.691h.132v2.677q-.564.11-1.113.262V42.186a.691.691,0,0,0-.691-.691H51.124V17.519h1.884a.691.691,0,0,0,.462-1.2l-7.446-6.7a.691.691,0,0,0-.925,0l-7.446,6.7a.691.691,0,0,0,.462,1.2H40V27.587L38.786,28.8a20.744,20.744,0,0,0-5.1-2.121V21.765A.691.691,0,0,0,33,21.074H23.636a.691.691,0,0,0-.691.691V26.66a20.736,20.736,0,0,0-5.126,2.113l-3.453-3.453a.691.691,0,0,0-.977,0L6.769,31.937a.691.691,0,0,0,0,.977l3.445,3.445a20.745,20.745,0,0,0-2.13,5.135H3.215a.691.691,0,0,0-.691.691v9.359a.691.691,0,0,0,.691.691H8.084a20.739,20.739,0,0,0,2.13,5.135L6.769,60.816a.691.691,0,0,0,0,.977l6.618,6.618a.691.691,0,0,0,.977,0l3.453-3.453a20.738,20.738,0,0,0,5.126,2.112v4.9a.691.691,0,0,0,.691.691h9.359a.691.691,0,0,0,.691-.691V67.052a20.747,20.747,0,0,0,5.1-2.121l3.48,3.48a.691.691,0,0,0,.977,0l2.505-2.505a14.589,14.589,0,1,0,23.179-17.58ZM69,45.465a1.132,1.132,0,0,1-.239.839l-.811,1.025a14.681,14.681,0,0,0-2.338-1.778l.847-1.069a1.141,1.141,0,0,1,1.6-.186l.514.407a1.133,1.133,0,0,1,.425.762ZM57.863,9.226h-.774l5.646-5.082L68.38,9.226h-.774a.691.691,0,0,0-.691.691V42.709a2.5,2.5,0,0,0-1.535.915l-.992,1.253a14.476,14.476,0,0,0-3.581-1.2V41h.132a.691.691,0,0,0,.691-.691V37.29a.691.691,0,0,0-.691-.691H58.554V9.917a.691.691,0,0,0-.691-.691ZM55.778,37.981h4.469v1.639H55.778ZM56.6,41h2.822v2.476c-.464-.045-.935-.068-1.411-.068s-.946.024-1.411.068Zm-3.878,3.4q-.567.221-1.111.488l-1-1.266a2.51,2.51,0,0,0-.968-.747h3.081Zm-4.093-.352a1.152,1.152,0,0,1,.134.008,1.134,1.134,0,0,1,.762.425l.858,1.084a14.689,14.689,0,0,0-2.334,1.782L47.225,46.3a1.142,1.142,0,0,1,.186-1.6l.514-.407a1.13,1.13,0,0,1,.705-.247Zm-.155-2.555a20.738,20.738,0,0,0-2.1-5.091l3.368-3.368v8.46ZM40.69,16.137h-.774l5.645-5.082,5.646,5.082h-.774a.691.691,0,0,0-.691.691V31.817l-6.5-6.5a.691.691,0,0,0-.977,0l-.885.885V16.828a.691.691,0,0,0-.691-.691Zm2.065,50.809-3.373-3.373a.691.691,0,0,0-.852-.1,19.374,19.374,0,0,1-5.7,2.369.691.691,0,0,0-.53.672v4.76H24.327V66.531a.691.691,0,0,0-.533-.673A19.377,19.377,0,0,1,18.072,63.5a.691.691,0,0,0-.851.1l-3.345,3.345L8.235,61.3l3.338-3.338a.691.691,0,0,0,.1-.852A19.371,19.371,0,0,1,9.3,51.385a.691.691,0,0,0-.672-.532H3.906V42.877H8.623a.691.691,0,0,0,.672-.532,19.374,19.374,0,0,1,2.377-5.729.691.691,0,0,0-.1-.852L8.235,32.426l5.641-5.641,3.345,3.345a.691.691,0,0,0,.851.1,19.371,19.371,0,0,1,5.722-2.358.691.691,0,0,0,.533-.673V22.456H32.3v4.76a.691.691,0,0,0,.53.672,19.367,19.367,0,0,1,5.7,2.369.691.691,0,0,0,.852-.1l3.373-3.373L48.4,32.426l-3.38,3.381a.691.691,0,0,0-.1.851,19.378,19.378,0,0,1,2.35,5.688.691.691,0,0,0,.45.494,2.526,2.526,0,0,0-.647.373l-.514.407a2.525,2.525,0,0,0-.412,3.544l.938,1.185a14.569,14.569,0,0,0-2.048,16.321Zm15.258,4.27A13.212,13.212,0,1,1,71.225,58,13.227,13.227,0,0,1,58.013,71.216Z" transform="translate(-2.524 -2.523)"/>
              <path id="Trazado_1087442" data-name="Trazado 1087442" d="M330.205,318.314a11.829,11.829,0,1,0,11.829,11.829A11.843,11.843,0,0,0,330.205,318.314Zm0,22.277a10.447,10.447,0,1,1,10.447-10.447A10.459,10.459,0,0,1,330.205,340.591Z" transform="translate(-274.717 -274.663)"/>
              <path id="Trazado_1087443" data-name="Trazado 1087443" d="M399.646,339.707a.691.691,0,0,0,.691-.691v-.809a.691.691,0,0,0-1.382,0v.809A.691.691,0,0,0,399.646,339.707Z" transform="translate(-344.157 -291.211)"/>
              <path id="Trazado_1087444" data-name="Trazado 1087444" d="M399.646,454.421a.691.691,0,0,0-.691.691v.809a.691.691,0,1,0,1.382,0v-.809A.691.691,0,0,0,399.646,454.421Z" transform="translate(-344.157 -391.956)"/>
              <path id="Trazado_1087445" data-name="Trazado 1087445" d="M426.927,345.079a.691.691,0,0,0-.938.276l-.387.71a.691.691,0,0,0,1.214.661l.387-.71A.691.691,0,0,0,426.927,345.079Z" transform="translate(-367.049 -297.656)"/>
              <path id="Trazado_1087446" data-name="Trazado 1087446" d="M371,447.739a.691.691,0,0,0-.938.276l-.387.71a.691.691,0,1,0,1.214.661l.387-.71A.691.691,0,0,0,371,447.739Z" transform="translate(-318.853 -386.126)"/>
              <path id="Trazado_1087447" data-name="Trazado 1087447" d="M446.969,368.591a.688.688,0,0,0,.361-.1l.689-.423a.691.691,0,0,0-.723-1.178l-.689.423a.691.691,0,0,0,.362,1.28Z" transform="translate(-384.938 -316.434)"/>
              <path id="Trazado_1087448" data-name="Trazado 1087448" d="M347.666,428.044l-.689.423a.691.691,0,1,0,.723,1.178l.689-.423a.691.691,0,0,0-.723-1.178Z" transform="translate(-299.08 -369.138)"/>
              <path id="Trazado_1087449" data-name="Trazado 1087449" d="M348.389,367.309l-.689-.423a.691.691,0,1,0-.723,1.178l.689.423a.691.691,0,0,0,.723-1.178Z" transform="translate(-299.08 -316.433)"/>
              <path id="Trazado_1087450" data-name="Trazado 1087450" d="M448.021,428.466l-.689-.423a.691.691,0,1,0-.723,1.178l.689.423a.691.691,0,0,0,.723-1.178Z" transform="translate(-384.94 -369.136)"/>
              <path id="Trazado_1087451" data-name="Trazado 1087451" d="M426.817,448.015a.691.691,0,1,0-1.214.661l.387.71a.691.691,0,1,0,1.214-.661Z" transform="translate(-367.049 -386.125)"/>
              <path id="Trazado_1087452" data-name="Trazado 1087452" d="M370.89,345.357a.691.691,0,1,0-1.214.661l.387.71a.691.691,0,0,0,1.214-.661Z" transform="translate(-318.853 -297.657)"/>
              <path id="Trazado_1087453" data-name="Trazado 1087453" d="M455.983,398.894h-.809a.691.691,0,1,0,0,1.382h.809a.691.691,0,1,0,0-1.382Z" transform="translate(-392.01 -344.105)"/>
              <path id="Trazado_1087454" data-name="Trazado 1087454" d="M339.77,399.585a.691.691,0,0,0-.691-.691h-.808a.691.691,0,1,0,0,1.382h.808A.691.691,0,0,0,339.77,399.585Z" transform="translate(-291.265 -344.105)"/>
              <path id="Trazado_1087455" data-name="Trazado 1087455" d="M387.453,365.385v-2.392a.691.691,0,1,0-1.382,0v2.388a2.759,2.759,0,1,0,1.382,0Zm-.7,4.043a1.377,1.377,0,1,1,1.377-1.377A1.379,1.379,0,0,1,386.753,369.428Z" transform="translate(-331.264 -312.571)"/>
            </g>
          </g>
        </g>
      </g>
    </g>
  </g>
</svg>
