<svg xmlns="http://www.w3.org/2000/svg" xmlns:xlink="http://www.w3.org/1999/xlink" width="110" height="110" viewBox="0 0 110 110">
  <defs>
    <filter id="Trazado_982547" x="0" y="0" width="110" height="110" filterUnits="userSpaceOnUse">
      <feOffset dy="3" input="SourceAlpha"/>
      <feGaussianBlur stdDeviation="3" result="blur"/>
      <feFlood flood-opacity="0.161"/>
      <feComposite operator="in" in2="blur"/>
      <feComposite in="SourceGraphic"/>
    </filter>
  </defs>
  <g id="Grupo_1219349" data-name="Grupo 1219349" transform="translate(-3709 -3062.417)">
    <g id="Grupo_1218066" data-name="Grupo 1218066" transform="translate(3718 3068.417)">
      <g id="Grupo_1214724" data-name="Grupo 1214724" transform="translate(0 0)">
        <g id="Grupo_1200150" data-name="Grupo 1200150">
          <g id="Grupo_1185951" data-name="Grupo 1185951" transform="translate(0 0)">
            <g id="Grupo_1184083" data-name="Grupo 1184083">
              <g id="Grupo_1183743" data-name="Grupo 1183743">
                <g id="Grupo_1181545" data-name="Grupo 1181545">
                  <g id="Grupo_1177562" data-name="Grupo 1177562">
                    <g id="Grupo_1173147" data-name="Grupo 1173147">
                      <g id="Grupo_1163801" data-name="Grupo 1163801">
                        <g id="Grupo_1163014" data-name="Grupo 1163014">
                          <g id="Grupo_1157015" data-name="Grupo 1157015">
                            <g id="Grupo_1155792" data-name="Grupo 1155792">
                              <g id="Grupo_1154703" data-name="Grupo 1154703">
                                <g id="Grupo_1150789" data-name="Grupo 1150789">
                                  <g id="Grupo_1154212" data-name="Grupo 1154212">
                                    <g id="Grupo_1152583" data-name="Grupo 1152583">
                                      <g id="Grupo_1146973" data-name="Grupo 1146973">
                                        <g id="Grupo_1146954" data-name="Grupo 1146954">
                                          <g transform="matrix(1, 0, 0, 1, -9, -6)" filter="url(#Trazado_982547)">
                                            <g id="Trazado_982547-2" data-name="Trazado 982547" transform="translate(9 6)" fill="#ffefc0">
                                              <path d="M 45.99999618530273 90.49984741210938 C 39.99187469482422 90.49984741210938 34.16427612304688 89.323486328125 28.67906379699707 87.00343322753906 C 23.38020896911621 84.76221466064453 18.62104988098145 81.55340576171875 14.53375625610352 77.46612548828125 C 10.44647598266602 73.37884521484375 7.237649440765381 68.61968231201172 4.99642276763916 63.32084274291992 C 2.676369428634644 57.83562850952148 1.500009536743164 52.00802993774414 1.500009536743164 45.99992370605469 C 1.500009536743164 39.99181747436523 2.676369428634644 34.16421890258789 4.99642276763916 28.67900276184082 C 7.237649440765381 23.38016319274902 10.44647598266602 18.62100410461426 14.53375625610352 14.53372383117676 C 18.62104988098145 10.44644355773926 23.38020896911621 7.237630367279053 28.67906379699707 4.996417045593262 C 34.16427612304688 2.676363706588745 39.99187469482422 1.500003695487976 45.99999618530273 1.500003695487976 C 52.00811767578125 1.500003695487976 57.83571624755859 2.676363706588745 63.32093048095703 4.996417045593262 C 68.61978149414062 7.237630367279053 73.37894439697266 10.44644355773926 77.46623992919922 14.53372383117676 C 81.55351257324219 18.62100410461426 84.76234436035156 23.38016319274902 87.00357055664062 28.67900276184082 C 89.32362365722656 34.16421890258789 90.49998474121094 39.99181747436523 90.49998474121094 45.99992370605469 C 90.49998474121094 52.00802993774414 89.32362365722656 57.83562850952148 87.00357055664062 63.32084274291992 C 84.76234436035156 68.61968231201172 81.55351257324219 73.37884521484375 77.46623992919922 77.46612548828125 C 73.37894439697266 81.55340576171875 68.61978149414062 84.76221466064453 63.32093048095703 87.00343322753906 C 57.83571624755859 89.323486328125 52.00811767578125 90.49984741210938 45.99999618530273 90.49984741210938 Z" stroke="none"/>
                                              <path d="M 45.99999618530273 2.999992370605469 C 40.19371032714844 2.999992370605469 34.56270980834961 4.136497497558594 29.26338195800781 6.377906799316406 C 24.14334106445312 8.543510437011719 19.54442596435547 11.64437866210938 15.59441375732422 15.59438323974609 C 11.64439392089844 19.54439544677734 8.543525695800781 24.14329528808594 6.377922058105469 29.26333618164062 C 4.136512756347656 34.56265258789062 3.000007629394531 40.19365310668945 3.000007629394531 45.99992370605469 C 3.000007629394531 51.80619430541992 4.136512756347656 57.43719482421875 6.377922058105469 62.73651123046875 C 8.543525695800781 67.85655212402344 11.64439392089844 72.45545196533203 15.59441375732422 76.40546417236328 C 19.54442596435547 80.35546875 24.14334106445312 83.45633697509766 29.26338195800781 85.62194061279297 C 34.56270980834961 87.86334991455078 40.19371032714844 88.99985504150391 45.99999618530273 88.99985504150391 C 51.80628204345703 88.99985504150391 57.43728256225586 87.86334991455078 62.73661041259766 85.62194061279297 C 67.85665130615234 83.45633697509766 72.45555114746094 80.35546875 76.40556335449219 76.40546417236328 C 80.35558319091797 72.45545196533203 83.45645141601562 67.85655212402344 85.62205505371094 62.73651123046875 C 87.86347961425781 57.43719482421875 88.99998474121094 51.80619430541992 88.99998474121094 45.99992370605469 C 88.99998474121094 40.19365310668945 87.86347961425781 34.56265258789062 85.62205505371094 29.26333618164062 C 83.45645141601562 24.14329528808594 80.35558319091797 19.54439544677734 76.40556335449219 15.59438323974609 C 72.45555114746094 11.64437866210938 67.85665130615234 8.543510437011719 62.73661041259766 6.377906799316406 C 57.43728256225586 4.136497497558594 51.80628204345703 2.999992370605469 45.99999618530273 2.999992370605469 M 45.99999618530273 -7.62939453125e-06 C 71.40506744384766 -7.62939453125e-06 91.99998474121094 20.59486389160156 91.99998474121094 45.99992370605469 C 91.99998474121094 71.40498352050781 71.40506744384766 91.99985504150391 45.99999618530273 91.99985504150391 C 20.59490966796875 91.99985504150391 7.62939453125e-06 71.40498352050781 7.62939453125e-06 45.99992370605469 C 7.62939453125e-06 20.59486389160156 20.59490966796875 -7.62939453125e-06 45.99999618530273 -7.62939453125e-06 Z" stroke="none" fill="#fc3"/>
                                            </g>
                                          </g>
                                        </g>
                                      </g>
                                    </g>
                                  </g>
                                </g>
                              </g>
                            </g>
                          </g>
                        </g>
                      </g>
                    </g>
                  </g>
                </g>
              </g>
            </g>
          </g>
        </g>
      </g>
    </g>
    <g id="ambiental" transform="translate(3711.097 3032.619)">
      <g id="Grupo_1219348" data-name="Grupo 1219348" transform="translate(16.468 45.593)">
        <path id="Trazado_1087456" data-name="Trazado 1087456" d="M20.369,82.412c-.016-.436-.029-.873-.029-1.309A32.521,32.521,0,0,1,66.477,51.565a35.531,35.531,0,0,0,8.432-5.246,3.023,3.023,0,0,1,3.93,0,35.533,35.533,0,0,0,8.442,5.25A39.866,39.866,0,0,0,97.2,54.5a1.98,1.98,0,0,1,1.681,1.913,36.961,36.961,0,0,1-13.957,30.12,32.567,32.567,0,0,1-19.807,24.7,32.97,32.97,0,0,0,7.541,1.665c1.244.1,1.734,1.876,1.628,2.946a2.211,2.211,0,0,1-2.765,2.113,58.072,58.072,0,0,1-11.36-3.358q-16.145,4.5-27.113-3.262T16.5,83.542a.943.943,0,0,1,.962-1.191q1.477.014,2.906.06Z" transform="translate(-16.468 -45.593)" fill-rule="evenodd"/>
        <path id="Trazado_1087457" data-name="Trazado 1087457" d="M289.812,65.576a.115.115,0,0,0-.1-.106,41.759,41.759,0,0,1-10.395-3.07,37.411,37.411,0,0,1-8.884-5.529,1.172,1.172,0,0,0-1.511,0,37.41,37.41,0,0,1-8.883,5.529,41.759,41.759,0,0,1-10.395,3.07.115.115,0,0,0-.1.106,35.137,35.137,0,0,0,20.129,32.881,35.137,35.137,0,0,0,20.129-32.881Zm-4.8,15.615a.94.94,0,1,1-1.7-.811A31.652,31.652,0,0,0,286.381,68.3a44.779,44.779,0,0,1-8.875-2.98,41.072,41.072,0,0,1-7.824-4.683A40.043,40.043,0,0,1,266.06,63.1a42.147,42.147,0,0,1-4.623,2.409.941.941,0,1,1-.767-1.718,40.255,40.255,0,0,0,4.416-2.3,38.034,38.034,0,0,0,4-2.774.943.943,0,0,1,1.184-.009,39,39,0,0,0,8.019,4.9,43.015,43.015,0,0,0,9.253,3.015.941.941,0,0,1,.752.944,33.569,33.569,0,0,1-3.282,13.625ZM255.486,65.7a.942.942,0,1,1,.531,1.807q-.962.285-1.893.519-.553.139-1.14.269a31.726,31.726,0,0,0,16.7,26.345,31.7,31.7,0,0,0,9.9-8.281.94.94,0,1,1,1.475,1.165,33.618,33.618,0,0,1-10.935,9.014.941.941,0,0,1-.869,0A33.608,33.608,0,0,1,251.074,67.6a.941.941,0,0,1,.751-.976q.883-.182,1.841-.422.935-.235,1.819-.5Zm16.643,12.353a2.447,2.447,0,1,1-4.894,0L266.7,66.978a2.829,2.829,0,0,1,.86-2.017,3.04,3.04,0,0,1,1.979-.869,2.679,2.679,0,0,1,.288,0,3.04,3.04,0,0,1,1.979.869,2.829,2.829,0,0,1,.86,2.017l-.537,11.077Zm-2.447,4.895a3.36,3.36,0,1,1-2.376.984,3.361,3.361,0,0,1,2.376-.984Z" transform="translate(-209.432 -54.702)" fill="#a0d468" fill-rule="evenodd"/>
        <path id="Trazado_1087458" data-name="Trazado 1087458" d="M300.109,354.3H289.1a33.369,33.369,0,0,1-4.1,8.564q.273,1.291.45,2.648a30.689,30.689,0,0,0,12.794-8.823Q299.235,355.542,300.109,354.3Z" transform="translate(-238.796 -301.18)" fill="#69d6f4" fill-rule="evenodd"/>
        <path id="Trazado_1087459" data-name="Trazado 1087459" d="M271.18,354.3h-5.418a26.649,26.649,0,0,1,2.674,6.07A33.145,33.145,0,0,0,271.18,354.3Z" transform="translate(-222.866 -301.18)" fill="#69d6f4" fill-rule="evenodd"/>
        <path id="Trazado_1087460" data-name="Trazado 1087460" d="M237.01,272.244h7.273a54,54,0,0,0,1.977-11.379,37.216,37.216,0,0,1-3.413-3.395h-10.3V267.53A26.3,26.3,0,0,1,237.01,272.244Z" transform="translate(-195.369 -221.013)" fill="#69d6f4" fill-rule="evenodd"/>
        <path id="Trazado_1087461" data-name="Trazado 1087461" d="M312.145,295.578h11.663a30.437,30.437,0,0,0,3.51-8.63,36.975,36.975,0,0,1-5.409,3.047.939.939,0,0,1-.782,0,37.031,37.031,0,0,1-7.2-4.341,55.541,55.541,0,0,1-1.786,9.924Z" transform="translate(-261.267 -244.346)" fill="#69d6f4" fill-rule="evenodd"/>
        <path id="Trazado_1087462" data-name="Trazado 1087462" d="M234.361,159.092h-1.81v15.04h8.736q-.977-1.266-1.846-2.615a36.806,36.806,0,0,1-5.08-12.425Z" transform="translate(-195.369 -139.562)" fill="#69d6f4" fill-rule="evenodd"/>
        <path id="Trazado_1087463" data-name="Trazado 1087463" d="M154.94,159.092H143.285a55.738,55.738,0,0,0-2.2,15.04h13.85Z" transform="translate(-119.646 -139.562)" fill="#69d6f4" fill-rule="evenodd"/>
        <path id="Trazado_1087464" data-name="Trazado 1087464" d="M65.179,159.092H53.605a30.475,30.475,0,0,0-4.481,15.04H63.061A58.088,58.088,0,0,1,65.179,159.092Z" transform="translate(-43.505 -139.562)" fill="#69d6f4" fill-rule="evenodd"/>
        <path id="Trazado_1087465" data-name="Trazado 1087465" d="M82.459,90.163h10.9a37.841,37.841,0,0,1,2-4.877,21.991,21.991,0,0,1,5.363-7.168A30.7,30.7,0,0,0,82.459,90.163Z" transform="translate(-71.104 -72.521)" fill="#69d6f4" fill-rule="evenodd"/>
        <path id="Trazado_1087466" data-name="Trazado 1087466" d="M157.419,87.023h11.04v-12.7c-3.592.483-6.872,3.7-9.345,8.662a35.351,35.351,0,0,0-1.7,4.036Z" transform="translate(-133.165 -69.381)" fill="#69d6f4" fill-rule="evenodd"/>
        <path id="Trazado_1087467" data-name="Trazado 1087467" d="M232.547,87.023h1.469a37.25,37.25,0,0,1-.411-6.819,1.98,1.98,0,0,1,1.681-1.913q1.551-.248,3.05-.608a12.415,12.415,0,0,0-2.814-2.306,8.04,8.04,0,0,0-2.977-1.053Z" transform="translate(-195.365 -69.381)" fill="#69d6f4" fill-rule="evenodd"/>
        <path id="Trazado_1087468" data-name="Trazado 1087468" d="M154.931,257.47H141.079q.017,1.324.094,2.643a43.172,43.172,0,0,1,12.27,4.993q.766.476,1.487.983Z" transform="translate(-119.637 -221.012)" fill="#69d6f4" fill-rule="evenodd"/>
        <path id="Trazado_1087469" data-name="Trazado 1087469" d="M63.042,257.47H49.1q.006.221.017.442a84.964,84.964,0,0,1,13.995,1.752Q63.06,258.568,63.042,257.47Z" transform="translate(-43.485 -221.012)" fill="#69d6f4" fill-rule="evenodd"/>
        <path id="Trazado_1087470" data-name="Trazado 1087470" d="M265.478,78.092a16.856,16.856,0,0,1,2.159,2.168q1.216-.359,2.389-.788a30.5,30.5,0,0,0-4.548-1.38Z" transform="translate(-222.631 -72.5)" fill="#69d6f4" fill-rule="evenodd"/>
        <path id="Trazado_1087471" data-name="Trazado 1087471" d="M217.162,402.022c-7.005-.537-16.187-4.791-25.8-9.49a70.23,70.23,0,0,0,8.2,4.872,63.156,63.156,0,0,0,16.921,5.938C217.3,403.483,217.286,402.032,217.162,402.022Z" transform="translate(-161.264 -332.834)" fill="#f0bc5e" fill-rule="evenodd"/>
        <path id="Trazado_1087472" data-name="Trazado 1087472" d="M71.018,295.9a24.863,24.863,0,0,0-11.943-18.6Q48.36,270.645,28.3,270.27q5.377,18.4,15.475,25.553Q53.2,302.5,66.932,299.4q-1.6-.719-3.22-1.538A66.177,66.177,0,0,1,48.59,287.485a.942.942,0,0,1,1-1.584C56.651,289.321,63.72,293.043,71.018,295.9Z" transform="translate(-26.264 -231.61)" fill="#b4dd7f" fill-rule="evenodd"/>
      </g>
      <circle id="Elipse_14490" data-name="Elipse 14490" cx="1.472" cy="1.472" r="1.472" transform="translate(75.247 75.729)" fill="#f24646"/>
      <path id="Trazado_1087473" data-name="Trazado 1087473" d="M361.744,123.566a.6.6,0,0,0,.167-.439c.173-3.557.533-7.52.533-11.033a.95.95,0,0,0-.293-.675,1.15,1.15,0,0,0-.747-.331c-.033,0-.078,0-.111,0a1.151,1.151,0,0,0-.747.331.951.951,0,0,0-.293.675c0,3.49.358,7.426.53,10.959.026.211-.006.336.171.513a.56.56,0,0,0,.792,0Z" transform="translate(-284.63 -54.225)" fill="#f24646" fill-rule="evenodd"/>
    </g>
  </g>
</svg>
