<svg xmlns="http://www.w3.org/2000/svg" xmlns:xlink="http://www.w3.org/1999/xlink" width="93.934" height="93.934" viewBox="0 0 93.934 93.934">
  <defs>
    <filter id="Trazado_982547" x="0" y="0" width="93.934" height="93.934" filterUnits="userSpaceOnUse">
      <feOffset dy="3" input="SourceAlpha"/>
      <feGaussianBlur stdDeviation="3" result="blur"/>
      <feFlood flood-opacity="0.161"/>
      <feComposite operator="in" in2="blur"/>
      <feComposite in="SourceGraphic"/>
    </filter>
  </defs>
  <g id="Grupo_1219362" data-name="Grupo 1219362" transform="translate(-1031.066 -440)">
    <g id="Grupo_1218071" data-name="Grupo 1218071" transform="translate(840 -8009.729)">
      <g id="Grupo_1214711" data-name="Grupo 1214711" transform="translate(-0.229 3321.729)">
        <g id="Grupo_1214432" data-name="Grupo 1214432" transform="translate(-0.771 -2738.674)">
          <g id="Grupo_1183196" data-name="Grupo 1183196" transform="translate(1 1016.674)">
            <g id="Grupo_1179610" data-name="Grupo 1179610" transform="translate(8 4723.467)">
              <g id="Grupo_1175227" data-name="Grupo 1175227" transform="translate(-5.967 140.533)">
                <g id="Grupo_1167337" data-name="Grupo 1167337" transform="translate(198.033 1992)">
                  <g id="Grupo_1166720" data-name="Grupo 1166720">
                    <g id="Grupo_1164305" data-name="Grupo 1164305">
                      <g id="Grupo_1163948" data-name="Grupo 1163948">
                        <g id="Grupo_1158168" data-name="Grupo 1158168">
                          <g id="Grupo_1152576" data-name="Grupo 1152576">
                            <g id="Grupo_1148633" data-name="Grupo 1148633">
                              <g id="Grupo_1148525" data-name="Grupo 1148525">
                                <g transform="matrix(1, 0, 0, 1, -9, -6)" filter="url(#Trazado_982547)">
                                  <g id="Trazado_982547-2" data-name="Trazado 982547" transform="translate(9 6)" fill="#eaf5fb">
                                    <path d="M 37.966796875 74.43359375 C 33.04315185546875 74.43359375 28.26757431030273 73.46962738037109 23.77274131774902 71.56847381591797 C 19.43047523498535 69.73184967041016 15.53040790557861 67.10224914550781 12.18087482452393 63.75271987915039 C 8.831341743469238 60.4031867980957 6.201741218566895 56.50312042236328 4.365118980407715 52.16086196899414 C 2.463963508605957 47.66601943969727 1.499996900558472 42.89044189453125 1.499996900558472 37.966796875 C 1.499996900558472 33.04315185546875 2.463963508605957 28.26757431030273 4.365118980407715 23.77274131774902 C 6.201741218566895 19.43047523498535 8.831341743469238 15.53040790557861 12.18087482452393 12.18087482452393 C 15.53040790557861 8.831341743469238 19.43047523498535 6.201741218566895 23.77274131774902 4.365118980407715 C 28.26757431030273 2.463963508605957 33.04315185546875 1.499996900558472 37.966796875 1.499996900558472 C 42.89044189453125 1.499996900558472 47.66601943969727 2.463963508605957 52.16086196899414 4.365118980407715 C 56.50312042236328 6.201741218566895 60.4031867980957 8.831341743469238 63.75271987915039 12.18087482452393 C 67.10224914550781 15.53040790557861 69.73184967041016 19.43047523498535 71.56847381591797 23.77274131774902 C 73.46962738037109 28.26757431030273 74.43359375 33.04315185546875 74.43359375 37.966796875 C 74.43359375 42.89044189453125 73.46962738037109 47.66601943969727 71.56847381591797 52.16086196899414 C 69.73184967041016 56.50313186645508 67.10224914550781 60.4031867980957 63.75271987915039 63.75271987915039 C 60.4031867980957 67.10224914550781 56.50313186645508 69.73184967041016 52.16086196899414 71.56847381591797 C 47.66601943969727 73.46962738037109 42.89044189453125 74.43359375 37.966796875 74.43359375 Z" stroke="none"/>
                                    <path d="M 37.966796875 3 C 33.2449836730957 3 28.66600799560547 3.924095153808594 24.35705947875977 5.746635437011719 C 20.19359588623047 7.507637023925781 16.45379638671875 10.02928161621094 13.24153518676758 13.24153518676758 C 10.02927398681641 16.45379638671875 7.507621765136719 20.19359588623047 5.746635437011719 24.35705947875977 C 3.924095153808594 28.66600799560547 3 33.2449836730957 3 37.966796875 C 3 42.6886100769043 3.924095153808594 47.26758575439453 5.746635437011719 51.57653427124023 C 7.507621765136719 55.73999786376953 10.02927398681641 59.47979736328125 13.24153518676758 62.69205856323242 C 16.45379638671875 65.90431976318359 20.19359588623047 68.42597198486328 24.35705947875977 70.18695831298828 C 28.66600799560547 72.00949859619141 33.2449836730957 72.93359375 37.966796875 72.93359375 C 42.6886100769043 72.93359375 47.26758575439453 72.00949859619141 51.57653427124023 70.18695831298828 C 55.73999786376953 68.42597198486328 59.47979736328125 65.90431976318359 62.69205856323242 62.69205856323242 C 65.90431976318359 59.47979736328125 68.42597198486328 55.73999786376953 70.18695831298828 51.57653427124023 C 72.00949859619141 47.26758575439453 72.93359375 42.6886100769043 72.93359375 37.966796875 C 72.93359375 33.2449836730957 72.00949859619141 28.66600799560547 70.18695831298828 24.35705947875977 C 68.42597198486328 20.19359588623047 65.90431976318359 16.45379638671875 62.69205856323242 13.24153518676758 C 59.47979736328125 10.02928161621094 55.73999786376953 7.507637023925781 51.57653427124023 5.746635437011719 C 47.26758575439453 3.924095153808594 42.6886100769043 3 37.966796875 3 M 37.966796875 0 C 58.93528366088867 0 75.93359375 16.99832153320312 75.93359375 37.966796875 C 75.93359375 58.93528366088867 58.93528366088867 75.93359375 37.966796875 75.93359375 C 16.99831008911133 75.93359375 0 58.93528366088867 0 37.966796875 C 0 16.99832153320312 16.99831008911133 0 37.966796875 0 Z" stroke="none" fill="#3ea6db"/>
                                  </g>
                                </g>
                              </g>
                            </g>
                          </g>
                        </g>
                      </g>
                    </g>
                  </g>
                </g>
              </g>
            </g>
          </g>
        </g>
      </g>
    </g>
    <g id="sostenibilidad" transform="translate(1031.071 431.934)">
      <g id="Grupo_1219361" data-name="Grupo 1219361" transform="translate(10.072 10.092)">
        <g id="Grupo_1219357" data-name="Grupo 1219357" transform="translate(28.231 10.659)">
          <circle id="Elipse_14499" data-name="Elipse 14499" cx="20.766" cy="20.766" r="20.766" transform="translate(0 1.744) rotate(-2.407)" fill="#a4d4ff"/>
          <g id="Grupo_1219356" data-name="Grupo 1219356" transform="translate(5.048 0.854)">
            <path id="Trazado_1087516" data-name="Trazado 1087516" d="M248.127,113.361c-2.372-2.091-1.376-3.109.492-3.626,2.149-.6,5.451-.527,6.106-.666,1.533-.326,1.974-1.4.8-2.42-1.376-1.193-3.786-2.5-4.347-3.573-.776-1.477-.212-1.917.788-2.227,2.119-.655,6.2-.722,3.677-8.8a20.8,20.8,0,0,0-23.138,7.2,12.081,12.081,0,0,1,2.453,4.728c.322,6.583,3.432,6.526,4.346,6.883,2.311.9,4.045,6.266,5.488,7.938.836.968,2.6,3,5.377,1.526C253.542,118.541,249.124,114.24,248.127,113.361Z" transform="translate(-232.507 -90.996)" fill="#89c053" fill-rule="evenodd"/>
            <path id="Trazado_1087517" data-name="Trazado 1087517" d="M417.988,204.743c-1.92,1.877.834,5.923-3.442,8.56-2.464,1.519,1.375,4.553,0,8.1a1.938,1.938,0,0,0,.526,2.229,20.8,20.8,0,0,0,7.839-19.895C420.21,203.634,418.714,204.033,417.988,204.743Z" transform="translate(-385.848 -186.395)" fill="#89c053" fill-rule="evenodd"/>
          </g>
        </g>
        <g id="Grupo_1219359" data-name="Grupo 1219359" transform="translate(0 42.35)">
          <g id="Grupo_1219358" data-name="Grupo 1219358" transform="translate(4.574)">
            <path id="Trazado_1087518" data-name="Trazado 1087518" d="M60.845,294.026c-5,2.451-10.053,4.806-15.088,7.191l7.106,17.028,10.452-5.091a6.288,6.288,0,0,1,4.67-.4l11.088,3.211c3.514,1.017,7.864-.852,11.134-2.115l20.8-8.033c5.477-2.115,6.8-13.108-6.139-9.31l-14.84,4.356a4.728,4.728,0,0,0-3.33-3.316l-10.054-2.686C69.791,290.007,66.3,291.351,60.845,294.026Z" transform="translate(-45.757 -291.617)" fill="#efc7a4" fill-rule="evenodd"/>
            <path id="Trazado_1087519" data-name="Trazado 1087519" d="M209.208,334.695l-22.477-6a4.731,4.731,0,0,0,3.34,5.775l13.361,3.57A4.732,4.732,0,0,0,209.208,334.695Z" transform="translate(-164.928 -322.992)" fill="#d5a889" fill-rule="evenodd"/>
          </g>
          <path id="Trazado_1087520" data-name="Trazado 1087520" d="M33.5,336.965l-5.33,2.213a2.279,2.279,0,0,1-2.972-1.226L16.176,316.28A2.264,2.264,0,0,1,17.4,313.3l5.33-2.213a2.279,2.279,0,0,1,2.972,1.226l9.025,21.672A2.264,2.264,0,0,1,33.5,336.965Z" transform="translate(-15.998 -307.951)" fill="#e4e8eb" fill-rule="evenodd"/>
        </g>
        <g id="Grupo_1219360" data-name="Grupo 1219360" transform="translate(39.388)">
          <path id="Trazado_1087521" data-name="Trazado 1087521" d="M282.718,26.564c-1.723-.342-5.273-.927-7.332-2.7a10.309,10.309,0,0,1-3.134-6.951.769.769,0,0,1,.821-.816,10.748,10.748,0,0,1,6.948,3.132C281.758,21.185,282.193,24.219,282.718,26.564Z" transform="translate(-272.25 -16.098)" fill="#c6ea94" fill-rule="evenodd"/>
          <path id="Trazado_1087522" data-name="Trazado 1087522" d="M340.353,50.511c1.723-.342,5.273-.927,7.332-2.7a10.309,10.309,0,0,0,3.134-6.951.769.769,0,0,0-.821-.816,10.748,10.748,0,0,0-6.948,3.132C341.313,45.132,340.878,48.166,340.353,50.511Z" transform="translate(-329.885 -36.364)" fill="#c6ea94" fill-rule="evenodd"/>
        </g>
      </g>
      <path id="Trazado_1087523" data-name="Trazado 1087523" d="M79.5,65.667,58.7,73.685c-.222.085-.448.174-.68.263-3.048,1.186-6.842,2.664-9.768,1.813L37.164,72.543a7.386,7.386,0,0,0-5.44.463l-3.36,1.635-6.23-14.956c2.588-1.224,5.326-2.527,8.078-3.872,5.3-2.593,8.365-3.737,14.7.754a1.085,1.085,0,0,0,.344.164L55.31,59.424a3.641,3.641,0,0,1-1.885,7.033l-13.357-3.58a1.077,1.077,0,0,0-.558,2.08l13.359,3.578a5.8,5.8,0,0,0,7.273-6.063L74.061,58.39c4.6-1.348,7.791-.832,8.541,1.383.712,2.1-.824,5.017-3.1,5.895ZM27.816,79.829a1.193,1.193,0,0,0,0-.92L18.786,57.24a1.2,1.2,0,0,0-1.567-.647L11.89,58.806a1.189,1.189,0,0,0-.647,1.567l9.025,21.67a1.2,1.2,0,0,0,1.567.647l5.329-2.214A1.2,1.2,0,0,0,27.816,79.829Zm12.42-37.45a19.606,19.606,0,0,0,3.159,10.7A26.167,26.167,0,0,1,46,54.7l9.865,2.642a5.755,5.755,0,0,1,3.514,2.7c.066.117.129.234.187.352l11.221-3.291a4.1,4.1,0,0,1,.254-.873,5.567,5.567,0,0,0-.372-3.927c-.506-1.462-1.2-3.464.812-4.7,2.063-1.273,2.089-2.811,2.121-4.595.023-1.357.049-2.759,1.133-3.82.874-.853,2.242-1.276,4.345-1.321A19.883,19.883,0,0,0,68.064,24.45c.482,2.317.365,4.089-.355,5.38a5.6,5.6,0,0,1-3.938,2.489c-.234.06-.455.116-.644.175a2.452,2.452,0,0,0-.38.145,2.334,2.334,0,0,0,.226.553,9.975,9.975,0,0,0,2.234,1.858c.65.459,1.321.932,1.864,1.4a2.476,2.476,0,0,1,.975,2.474,2.71,2.71,0,0,1-2.257,1.813,11.3,11.3,0,0,1-1.482.12,23.343,23.343,0,0,0-4.56.53,2.23,2.23,0,0,0-1.093.511c.015.083.135.487,1.025,1.271.93.819,3.941,3.7,3.634,6.289a3.117,3.117,0,0,1-1.8,2.436,5.141,5.141,0,0,1-2.419.656c-2.179,0-3.629-1.682-4.276-2.43A17.1,17.1,0,0,1,53,47.06c-.9-1.75-2.142-4.147-3.242-4.576-.051-.02-.179-.053-.291-.082-1.322-.346-4.418-1.157-4.74-7.75A11.981,11.981,0,0,0,43.393,31.7a19.568,19.568,0,0,0-3.158,10.683ZM58.849,22.718V26.65a1.075,1.075,0,0,0,1.074,1.076h0A1.076,1.076,0,0,0,61,26.65V25.133a22.039,22.039,0,0,0,4.684-1.368c.647,2.34.7,4.027.144,5.019a3.736,3.736,0,0,1-2.593,1.451c-.26.067-.506.129-.745.2a2.55,2.55,0,0,0-1.762,1.345,2.874,2.874,0,0,0,.338,2.408,9.478,9.478,0,0,0,2.9,2.616c.607.427,1.234.87,1.7,1.27a1.185,1.185,0,0,1,.273.315,1.422,1.422,0,0,1-.595.24c-.139.028-.694.053-1.139.077a25.023,25.023,0,0,0-5.031.6c-.564.157-2.281.632-2.619,2.1-.358,1.556,1.193,2.924,1.7,3.373,1.511,1.332,3.049,3.335,2.92,4.422-.025.215-.124.5-.667.787-1.872.992-3.031-.087-4.059-1.279a16.544,16.544,0,0,1-1.539-2.642c-1.179-2.283-2.513-4.87-4.373-5.6a4.715,4.715,0,0,0-.525-.158c-1.01-.265-2.892-.757-3.138-5.775a12.8,12.8,0,0,0-2.131-4.693,19.669,19.669,0,0,1,14.1-7.134ZM50.56,11.209a9.657,9.657,0,0,1,5.864,2.74,8.348,8.348,0,0,1,1.6,3.194l-2.582-2.582a1.076,1.076,0,0,0-1.522,1.522L56.5,18.659a9.251,9.251,0,0,1-3.2-1.605A9.094,9.094,0,0,1,50.56,11.209Zm12.866,6.422a9.653,9.653,0,0,1,5.864-2.74,9.1,9.1,0,0,1-2.735,5.846,9.282,9.282,0,0,1-3.2,1.6l2.576-2.576a1.076,1.076,0,0,0-1.521-1.522l-2.582,2.583a8.321,8.321,0,0,1,1.6-3.194Zm10.541,38.55a19.618,19.618,0,0,0,5.5-16.164c-2.044.005-2.887.378-3.229.714-.432.421-.466,1.156-.486,2.317-.033,1.9-.08,4.5-3.145,6.388-.438.271-.481.5.094,2.169a8.115,8.115,0,0,1,.542,4.782l.209-.062Q73.713,56.25,73.967,56.181Zm10.674,2.9A5.143,5.143,0,0,0,80.99,55.8a10.149,10.149,0,0,0-3.634-.257,21.852,21.852,0,0,0,0-26.335,22.059,22.059,0,0,0-9.166-7.05,11.587,11.587,0,0,0,3.3-8.419,1.074,1.074,0,0,0-1.059-1.059A11.968,11.968,0,0,0,61.818,16.2,7.693,7.693,0,0,0,61,17.311v-5.66a1.076,1.076,0,1,0-2.152,0v1.98a7.725,7.725,0,0,0-.816-1.111A12.01,12.01,0,0,0,49.421,9a1.077,1.077,0,0,0-1.059,1.06,11.463,11.463,0,0,0,3.53,8.624,11.81,11.81,0,0,0,4.382,2.157A21.851,21.851,0,0,0,40.191,51.749c-3.917-1.083-6.982.2-10.923,2.131-2.708,1.324-5.407,2.61-7.96,3.816l-.534-1.285A3.357,3.357,0,0,0,16.4,54.6l-5.331,2.214A3.342,3.342,0,0,0,9.257,61.2l9.024,21.669a3.355,3.355,0,0,0,4.379,1.807l5.329-2.213A3.342,3.342,0,0,0,29.8,78.082l-.6-1.452,3.474-1.69a5.234,5.234,0,0,1,3.9-.332L47.65,77.827a8.927,8.927,0,0,0,2.516.34c2.945,0,6.036-1.2,8.632-2.213l.673-.261,20.8-8.018C83.644,66.378,85.724,62.282,84.64,59.081Z" transform="translate(0)" fill-rule="evenodd"/>
    </g>
  </g>
</svg>
