<svg xmlns="http://www.w3.org/2000/svg" xmlns:xlink="http://www.w3.org/1999/xlink" width="93.934" height="93.934" viewBox="0 0 93.934 93.934">
  <defs>
    <filter id="Trazado_982547" x="0" y="0" width="93.934" height="93.934" filterUnits="userSpaceOnUse">
      <feOffset dy="3" input="SourceAlpha"/>
      <feGaussianBlur stdDeviation="3" result="blur"/>
      <feFlood flood-opacity="0.161"/>
      <feComposite operator="in" in2="blur"/>
      <feComposite in="SourceGraphic"/>
    </filter>
  </defs>
  <g id="Grupo_1220047" data-name="Grupo 1220047" transform="translate(-191.066 -2462.033)">
    <g id="Grupo_1220043" data-name="Grupo 1220043" transform="translate(0 -1)">
      <g id="Grupo_1218072" data-name="Grupo 1218072" transform="translate(200.066 2469.033)">
        <g id="Grupo_1214711" data-name="Grupo 1214711">
          <g id="Grupo_1214432" data-name="Grupo 1214432">
            <g id="Grupo_1183196" data-name="Grupo 1183196" transform="translate(0 0)">
              <g id="Grupo_1179610" data-name="Grupo 1179610">
                <g id="Grupo_1175227" data-name="Grupo 1175227">
                  <g id="Grupo_1167337" data-name="Grupo 1167337">
                    <g id="Grupo_1166720" data-name="Grupo 1166720">
                      <g id="Grupo_1164305" data-name="Grupo 1164305">
                        <g id="Grupo_1163948" data-name="Grupo 1163948">
                          <g id="Grupo_1158168" data-name="Grupo 1158168">
                            <g id="Grupo_1152576" data-name="Grupo 1152576">
                              <g id="Grupo_1148633" data-name="Grupo 1148633">
                                <g id="Grupo_1148525" data-name="Grupo 1148525">
                                  <g transform="matrix(1, 0, 0, 1, -9, -6)" filter="url(#Trazado_982547)">
                                    <g id="Trazado_982547-2" data-name="Trazado 982547" transform="translate(9 6)" fill="#eaf5fb">
                                      <path d="M 37.966796875 74.43359375 C 33.04315185546875 74.43359375 28.26757431030273 73.46962738037109 23.77274131774902 71.56847381591797 C 19.43047523498535 69.73184967041016 15.53040790557861 67.10224914550781 12.18087482452393 63.75271987915039 C 8.831341743469238 60.4031867980957 6.201741218566895 56.50312042236328 4.365118980407715 52.16086196899414 C 2.463963508605957 47.66601943969727 1.499996900558472 42.89044189453125 1.499996900558472 37.966796875 C 1.499996900558472 33.04315185546875 2.463963508605957 28.26757431030273 4.365118980407715 23.77274131774902 C 6.201741218566895 19.43047523498535 8.831341743469238 15.53040790557861 12.18087482452393 12.18087482452393 C 15.53040790557861 8.831341743469238 19.43047523498535 6.201741218566895 23.77274131774902 4.365118980407715 C 28.26757431030273 2.463963508605957 33.04315185546875 1.499996900558472 37.966796875 1.499996900558472 C 42.89044189453125 1.499996900558472 47.66601943969727 2.463963508605957 52.16086196899414 4.365118980407715 C 56.50312042236328 6.201741218566895 60.4031867980957 8.831341743469238 63.75271987915039 12.18087482452393 C 67.10224914550781 15.53040790557861 69.73184967041016 19.43047523498535 71.56847381591797 23.77274131774902 C 73.46962738037109 28.26757431030273 74.43359375 33.04315185546875 74.43359375 37.966796875 C 74.43359375 42.89044189453125 73.46962738037109 47.66601943969727 71.56847381591797 52.16086196899414 C 69.73184967041016 56.50313186645508 67.10224914550781 60.4031867980957 63.75271987915039 63.75271987915039 C 60.4031867980957 67.10224914550781 56.50313186645508 69.73184967041016 52.16086196899414 71.56847381591797 C 47.66601943969727 73.46962738037109 42.89044189453125 74.43359375 37.966796875 74.43359375 Z" stroke="none"/>
                                      <path d="M 37.966796875 3 C 33.2449836730957 3 28.66600799560547 3.924095153808594 24.35705947875977 5.746635437011719 C 20.19359588623047 7.507637023925781 16.45379638671875 10.02928161621094 13.24153518676758 13.24153518676758 C 10.02927398681641 16.45379638671875 7.507621765136719 20.19359588623047 5.746635437011719 24.35705947875977 C 3.924095153808594 28.66600799560547 3 33.2449836730957 3 37.966796875 C 3 42.6886100769043 3.924095153808594 47.26758575439453 5.746635437011719 51.57653427124023 C 7.507621765136719 55.73999786376953 10.02927398681641 59.47979736328125 13.24153518676758 62.69205856323242 C 16.45379638671875 65.90431976318359 20.19359588623047 68.42597198486328 24.35705947875977 70.18695831298828 C 28.66600799560547 72.00949859619141 33.2449836730957 72.93359375 37.966796875 72.93359375 C 42.6886100769043 72.93359375 47.26758575439453 72.00949859619141 51.57653427124023 70.18695831298828 C 55.73999786376953 68.42597198486328 59.47979736328125 65.90431976318359 62.69205856323242 62.69205856323242 C 65.90431976318359 59.47979736328125 68.42597198486328 55.73999786376953 70.18695831298828 51.57653427124023 C 72.00949859619141 47.26758575439453 72.93359375 42.6886100769043 72.93359375 37.966796875 C 72.93359375 33.2449836730957 72.00949859619141 28.66600799560547 70.18695831298828 24.35705947875977 C 68.42597198486328 20.19359588623047 65.90431976318359 16.45379638671875 62.69205856323242 13.24153518676758 C 59.47979736328125 10.02928161621094 55.73999786376953 7.507637023925781 51.57653427124023 5.746635437011719 C 47.26758575439453 3.924095153808594 42.6886100769043 3 37.966796875 3 M 37.966796875 0 C 58.93528366088867 0 75.93359375 16.99832153320312 75.93359375 37.966796875 C 75.93359375 58.93528366088867 58.93528366088867 75.93359375 37.966796875 75.93359375 C 16.99831008911133 75.93359375 0 58.93528366088867 0 37.966796875 C 0 16.99832153320312 16.99831008911133 0 37.966796875 0 Z" stroke="none" fill="#3ea6db"/>
                                    </g>
                                  </g>
                                </g>
                              </g>
                            </g>
                          </g>
                        </g>
                      </g>
                    </g>
                  </g>
                </g>
              </g>
            </g>
          </g>
        </g>
      </g>
    </g>
    <g id="energia" transform="translate(208 2482.001)">
      <path id="Trazado_1089266" data-name="Trazado 1089266" d="M54.2,31.83A1.98,1.98,0,0,0,55,32h2a2.006,2.006,0,0,0,2-2V29a2.006,2.006,0,0,0-2-2H55a2.009,2.009,0,0,0-2,1.95V31Z" fill="#78a33b"/>
      <path id="Trazado_1089267" data-name="Trazado 1089267" d="M5.8,31.83A1.98,1.98,0,0,1,5,32H3a2.006,2.006,0,0,1-2-2V29a2.006,2.006,0,0,1,2-2H5a2.009,2.009,0,0,1,2,1.95V31Z" fill="#78a33b"/>
      <path id="Trazado_1089268" data-name="Trazado 1089268" d="M4,44V57a2.006,2.006,0,0,0,2,2h4a2.006,2.006,0,0,0,2-2V52Z" fill="#69707a"/>
      <path id="Trazado_1089269" data-name="Trazado 1089269" d="M56,44V57a2.006,2.006,0,0,1-2,2H50a2.006,2.006,0,0,1-2-2V52Z" fill="#69707a"/>
      <path id="Trazado_1089270" data-name="Trazado 1089270" d="M56,39.97V49a3,3,0,0,1-3,3H7a3,3,0,0,1-3-3V39.97a15.859,15.859,0,0,1,.48-3.88A40.361,40.361,0,0,1,6.53,30L8,29H51l2.47,1a40.36,40.36,0,0,1,2.05,6.09A15.859,15.859,0,0,1,56,39.97Z" fill="#9fd164"/>
      <path id="Trazado_1089271" data-name="Trazado 1089271" d="M53.47,30H6.53a40.383,40.383,0,0,1,2.76-5.35l4.12-6.7A2.014,2.014,0,0,1,15.12,17H44.88a2.014,2.014,0,0,1,1.71.95l4.12,6.7A40.383,40.383,0,0,1,53.47,30Z" fill="#d1d4dc"/>
      <path id="Trazado_1089272" data-name="Trazado 1089272" d="M38,36a1,1,0,0,1,.894,1.447l-1,2A1,1,0,0,1,37,40H23a1,1,0,0,1-.894-.553l-1-2A1,1,0,0,1,22,36Z" fill="#8abf47"/>
      <path id="Trazado_1089273" data-name="Trazado 1089273" d="M9,38.973V36.027a1.01,1.01,0,0,1,1.124-1.019l5.019.645A2.157,2.157,0,0,1,17,37.813v.009A2.149,2.149,0,0,1,14.88,40H10a1.014,1.014,0,0,1-1-1.027Z" fill="#fff"/>
      <path id="Trazado_1089274" data-name="Trazado 1089274" d="M51,38.973V36.027a1.01,1.01,0,0,0-1.124-1.019l-5.019.645A2.157,2.157,0,0,0,43,37.813v.009A2.149,2.149,0,0,0,45.12,40H50a1.014,1.014,0,0,0,1-1.027Z" fill="#fff"/>
      <circle id="Elipse_14574" data-name="Elipse 14574" cx="12" cy="12" r="12" transform="translate(18 1)" fill="#f7bc31"/>
      <path id="Trazado_1089275" data-name="Trazado 1089275" d="M56,44v5a3,3,0,0,1-3,3H7a3,3,0,0,1-3-3V44Z" fill="#8abf47"/>
      <g id="Grupo_1220046" data-name="Grupo 1220046">
        <path id="Trazado_1089276" data-name="Trazado 1089276" d="M38,35H22a2,2,0,0,0-1.789,2.9l1,2A1.991,1.991,0,0,0,23,41H37a1.99,1.99,0,0,0,1.789-1.1l1-2A2,2,0,0,0,38,35Zm-1,4H23l-1-2H38Z" fill="#373737"/>
        <path id="Trazado_1089277" data-name="Trazado 1089277" d="M15.271,34.66l-5.021-.644a1.993,1.993,0,0,0-1.562.481A2.037,2.037,0,0,0,8,36.027v2.946A2.016,2.016,0,0,0,10,41h4.88a3.187,3.187,0,0,0,.391-6.34ZM14.88,39H10.011A.037.037,0,0,1,10,38.97V36l5.018.645A1.187,1.187,0,0,1,14.88,39Z" fill="#373737"/>
        <path id="Trazado_1089278" data-name="Trazado 1089278" d="M49.749,34.016l-5.02.644A3.187,3.187,0,0,0,45.12,41H50a2.016,2.016,0,0,0,2-2.027V36.027a2.037,2.037,0,0,0-.688-1.53,1.984,1.984,0,0,0-1.563-.481ZM50,38.973,45.12,39a1.187,1.187,0,0,1-.136-2.355L50,36.027Z" fill="#373737"/>
        <path id="Trazado_1089279" data-name="Trazado 1089279" d="M57,26H55a2.977,2.977,0,0,0-1.957.752q-.693-1.335-1.481-2.625l-4.125-6.708A3,3,0,0,0,44.88,16H42.637a13,13,0,1,0-25.593-4.082,1,1,0,1,0,1.994.164,10.99,10.99,0,1,1,.587,4.585V16.66a.974.974,0,0,0-.182-.3c-.008-.009-.013-.022-.022-.032a.973.973,0,0,0-.247-.183c-.023-.013-.041-.033-.065-.044a3.826,3.826,0,0,0-.387-.09L18.69,16H15.12a3.006,3.006,0,0,0-2.562,1.427l-4.12,6.7q-.791,1.287-1.482,2.625A2.972,2.972,0,0,0,5,26H3a3,3,0,0,0-3,3v1a3,3,0,0,0,3,3H4.334c-.307.938-.584,1.886-.824,2.846A16.927,16.927,0,0,0,3,39.97V57a3,3,0,0,0,3,3h4a3,3,0,0,0,3-3V53H47v4a3,3,0,0,0,3,3h4a3,3,0,0,0,3-3V39.97a16.839,16.839,0,0,0-.511-4.122c-.24-.961-.517-1.91-.824-2.848H57a3,3,0,0,0,3-3V29A3,3,0,0,0,57,26ZM7,51a2,2,0,0,1-2-2V45H55v4a2,2,0,0,1-2,2Zm48-8H5V39.97a14.912,14.912,0,0,1,.451-3.641A39.654,39.654,0,0,1,7.208,31H52.792a39.681,39.681,0,0,1,1.758,5.334A14.871,14.871,0,0,1,55,39.97ZM10.142,25.174l4.115-6.693A1.016,1.016,0,0,1,15.12,18H18a12.994,12.994,0,0,0,24,0h2.88a1.012,1.012,0,0,1,.858.474l4.119,6.7A39.538,39.538,0,0,1,51.9,29H8.1a39.749,39.749,0,0,1,2.042-3.826ZM5,31H3a1,1,0,0,1-1-1V29a1,1,0,0,1,1-1H5a1,1,0,0,1,.962.811q-.486,1.077-.912,2.178c-.017,0-.033.011-.05.011Zm6,26a1,1,0,0,1-1,1H6a1,1,0,0,1-1-1V52.444A3.959,3.959,0,0,0,7,53h4Zm43,1H50a1,1,0,0,1-1-1V53h4a3.959,3.959,0,0,0,2-.556V57A1,1,0,0,1,54,58Zm4-28a1,1,0,0,1-1,1H55c-.017,0-.034-.01-.051-.011q-.423-1.1-.911-2.177A1,1,0,0,1,55,28h2a1,1,0,0,1,1,1Z" fill="#373737"/>
        <path id="Trazado_1089280" data-name="Trazado 1089280" d="M30.394,5.081a1,1,0,0,0-1.313.525l-3,7A1,1,0,0,0,27,14h4.483l-2.4,5.606a1,1,0,0,0,.525,1.313A.979.979,0,0,0,30,21a1,1,0,0,0,.919-.606l3-7A1,1,0,0,0,33,12H28.517l2.4-5.606a1,1,0,0,0-.523-1.313Z" fill="#373737"/>
        <path id="Trazado_1089281" data-name="Trazado 1089281" d="M41,47H19a1,1,0,0,0,0,2H41a1,1,0,0,0,0-2Z" fill="#373737"/>
      </g>
    </g>
  </g>
</svg>
