<svg xmlns="http://www.w3.org/2000/svg" xmlns:xlink="http://www.w3.org/1999/xlink" width="93.934" height="93.934" viewBox="0 0 93.934 93.934">
  <defs>
    <filter id="Trazado_982547" x="0" y="0" width="93.934" height="93.934" filterUnits="userSpaceOnUse">
      <feOffset dy="3" input="SourceAlpha"/>
      <feGaussianBlur stdDeviation="3" result="blur"/>
      <feFlood flood-opacity="0.161"/>
      <feComposite operator="in" in2="blur"/>
      <feComposite in="SourceGraphic"/>
    </filter>
  </defs>
  <g id="Grupo_1220048" data-name="Grupo 1220048" transform="translate(-821.066 -2458.033)">
    <g id="Grupo_1220044" data-name="Grupo 1220044" transform="translate(0 -1)">
      <g id="Grupo_1218073" data-name="Grupo 1218073" transform="translate(830.066 2465.033)">
        <g id="Grupo_1214711" data-name="Grupo 1214711">
          <g id="Grupo_1214432" data-name="Grupo 1214432">
            <g id="Grupo_1183196" data-name="Grupo 1183196" transform="translate(0 0)">
              <g id="Grupo_1179610" data-name="Grupo 1179610">
                <g id="Grupo_1175227" data-name="Grupo 1175227">
                  <g id="Grupo_1167337" data-name="Grupo 1167337">
                    <g id="Grupo_1166720" data-name="Grupo 1166720">
                      <g id="Grupo_1164305" data-name="Grupo 1164305">
                        <g id="Grupo_1163948" data-name="Grupo 1163948">
                          <g id="Grupo_1158168" data-name="Grupo 1158168">
                            <g id="Grupo_1152576" data-name="Grupo 1152576">
                              <g id="Grupo_1148633" data-name="Grupo 1148633">
                                <g id="Grupo_1148525" data-name="Grupo 1148525">
                                  <g transform="matrix(1, 0, 0, 1, -9, -6)" filter="url(#Trazado_982547)">
                                    <g id="Trazado_982547-2" data-name="Trazado 982547" transform="translate(9 6)" fill="#eaf5fb">
                                      <path d="M 37.966796875 74.43359375 C 33.04315185546875 74.43359375 28.26757431030273 73.46962738037109 23.77274131774902 71.56847381591797 C 19.43047523498535 69.73184967041016 15.53040790557861 67.10224914550781 12.18087482452393 63.75271987915039 C 8.831341743469238 60.4031867980957 6.201741218566895 56.50312042236328 4.365118980407715 52.16086196899414 C 2.463963508605957 47.66601943969727 1.499996900558472 42.89044189453125 1.499996900558472 37.966796875 C 1.499996900558472 33.04315185546875 2.463963508605957 28.26757431030273 4.365118980407715 23.77274131774902 C 6.201741218566895 19.43047523498535 8.831341743469238 15.53040790557861 12.18087482452393 12.18087482452393 C 15.53040790557861 8.831341743469238 19.43047523498535 6.201741218566895 23.77274131774902 4.365118980407715 C 28.26757431030273 2.463963508605957 33.04315185546875 1.499996900558472 37.966796875 1.499996900558472 C 42.89044189453125 1.499996900558472 47.66601943969727 2.463963508605957 52.16086196899414 4.365118980407715 C 56.50312042236328 6.201741218566895 60.4031867980957 8.831341743469238 63.75271987915039 12.18087482452393 C 67.10224914550781 15.53040790557861 69.73184967041016 19.43047523498535 71.56847381591797 23.77274131774902 C 73.46962738037109 28.26757431030273 74.43359375 33.04315185546875 74.43359375 37.966796875 C 74.43359375 42.89044189453125 73.46962738037109 47.66601943969727 71.56847381591797 52.16086196899414 C 69.73184967041016 56.50313186645508 67.10224914550781 60.4031867980957 63.75271987915039 63.75271987915039 C 60.4031867980957 67.10224914550781 56.50313186645508 69.73184967041016 52.16086196899414 71.56847381591797 C 47.66601943969727 73.46962738037109 42.89044189453125 74.43359375 37.966796875 74.43359375 Z" stroke="none"/>
                                      <path d="M 37.966796875 3 C 33.2449836730957 3 28.66600799560547 3.924095153808594 24.35705947875977 5.746635437011719 C 20.19359588623047 7.507637023925781 16.45379638671875 10.02928161621094 13.24153518676758 13.24153518676758 C 10.02927398681641 16.45379638671875 7.507621765136719 20.19359588623047 5.746635437011719 24.35705947875977 C 3.924095153808594 28.66600799560547 3 33.2449836730957 3 37.966796875 C 3 42.6886100769043 3.924095153808594 47.26758575439453 5.746635437011719 51.57653427124023 C 7.507621765136719 55.73999786376953 10.02927398681641 59.47979736328125 13.24153518676758 62.69205856323242 C 16.45379638671875 65.90431976318359 20.19359588623047 68.42597198486328 24.35705947875977 70.18695831298828 C 28.66600799560547 72.00949859619141 33.2449836730957 72.93359375 37.966796875 72.93359375 C 42.6886100769043 72.93359375 47.26758575439453 72.00949859619141 51.57653427124023 70.18695831298828 C 55.73999786376953 68.42597198486328 59.47979736328125 65.90431976318359 62.69205856323242 62.69205856323242 C 65.90431976318359 59.47979736328125 68.42597198486328 55.73999786376953 70.18695831298828 51.57653427124023 C 72.00949859619141 47.26758575439453 72.93359375 42.6886100769043 72.93359375 37.966796875 C 72.93359375 33.2449836730957 72.00949859619141 28.66600799560547 70.18695831298828 24.35705947875977 C 68.42597198486328 20.19359588623047 65.90431976318359 16.45379638671875 62.69205856323242 13.24153518676758 C 59.47979736328125 10.02928161621094 55.73999786376953 7.507637023925781 51.57653427124023 5.746635437011719 C 47.26758575439453 3.924095153808594 42.6886100769043 3 37.966796875 3 M 37.966796875 0 C 58.93528366088867 0 75.93359375 16.99832153320312 75.93359375 37.966796875 C 75.93359375 58.93528366088867 58.93528366088867 75.93359375 37.966796875 75.93359375 C 16.99831008911133 75.93359375 0 58.93528366088867 0 37.966796875 C 0 16.99832153320312 16.99831008911133 0 37.966796875 0 Z" stroke="none" fill="#3ea6db"/>
                                    </g>
                                  </g>
                                </g>
                              </g>
                            </g>
                          </g>
                        </g>
                      </g>
                    </g>
                  </g>
                </g>
              </g>
            </g>
          </g>
        </g>
      </g>
    </g>
    <g id="computadora" transform="translate(834.573 2486.494)">
      <path id="Trazado_1089282" data-name="Trazado 1089282" d="M200.383,331.074v.141a1.731,1.731,0,0,1-1.732,1.732h-16.22a1.731,1.731,0,0,1-1.732-1.732v-.141a1.749,1.749,0,0,1,1.35-1.689,5.626,5.626,0,0,0,4.2-4.54,5.532,5.532,0,0,0,.075-.916v-1.307h8.444v1.307a5.532,5.532,0,0,0,.075.916,5.626,5.626,0,0,0,4.2,4.54,1.749,1.749,0,0,1,1.35,1.689Zm0,0" transform="translate(-157.081 -280.454)" fill="#4e7693"/>
      <path id="Trazado_1089283" data-name="Trazado 1089283" d="M231.721,324.845h-8.593a5.532,5.532,0,0,0,.075-.916v-1.307h8.444v1.307A5.532,5.532,0,0,0,231.721,324.845Zm0,0" transform="translate(-193.965 -280.454)" fill="#38627c"/>
      <path id="Trazado_1089284" data-name="Trazado 1089284" d="M72.459,276.293H7.5v4.1A2.606,2.606,0,0,0,10.106,283H69.853a2.606,2.606,0,0,0,2.605-2.606Zm0,0" transform="translate(-6.52 -240.181)" fill="#618baa"/>
      <path id="Trazado_1089285" data-name="Trazado 1089285" d="M69.853,7.5H10.106A2.606,2.606,0,0,0,7.5,10.106v36.63a2.606,2.606,0,0,0,2.606,2.606H69.854a2.606,2.606,0,0,0,2.605-2.606V10.106A2.606,2.606,0,0,0,69.853,7.5Zm0,0" transform="translate(-6.52 -6.52)" fill="#bddff4"/>
      <path id="Trazado_1089286" data-name="Trazado 1089286" d="M458.594,10.1V46.737a2.606,2.606,0,0,1-2.606,2.6h-4.3a2.606,2.606,0,0,0,2.606-2.6V10.1a2.606,2.606,0,0,0-2.606-2.6h4.3a2.606,2.606,0,0,1,2.606,2.6Zm0,0" transform="translate(-392.655 -6.52)" fill="#9cc6db"/>
      <path id="Trazado_1089287" data-name="Trazado 1089287" d="M72.459,276.293V280.4a2.606,2.606,0,0,1-2.606,2.6H10.107A2.606,2.606,0,0,1,7.5,280.4v-4.105Zm0,0" transform="translate(-6.52 -240.181)" fill="#618baa"/>
      <path id="Trazado_1089288" data-name="Trazado 1089288" d="M458.594,276.293V280.4a2.606,2.606,0,0,1-2.606,2.6h-4.3a2.606,2.606,0,0,0,2.606-2.6v-4.105Zm0,0" transform="translate(-392.655 -240.181)" fill="#38627c"/>
      <path id="Trazado_1089289" data-name="Trazado 1089289" d="M326.617,142.885V139.67a4.167,4.167,0,0,0-4.167-4.167h-3.214a.79.79,0,0,0-.79.789v3.214a4.167,4.167,0,0,0,4.167,4.167h3.214A.789.789,0,0,0,326.617,142.885Zm0,0" transform="translate(-276.824 -117.793)" fill="#5be167"/>
      <path id="Trazado_1089290" data-name="Trazado 1089290" d="M380.965,170.55v-3.215a4.167,4.167,0,0,1,4.167-4.167h3.214a.79.79,0,0,1,.79.79v3.214a4.167,4.167,0,0,1-4.167,4.167h-3.214A.789.789,0,0,1,380.965,170.55Zm0,0" transform="translate(-331.172 -141.841)" fill="#1fc974"/>
      <path id="Trazado_1089291" data-name="Trazado 1089291" d="M353.457,53.065l-2.273-2.273a4.168,4.168,0,0,1,0-5.893l2.273-2.273a.789.789,0,0,1,1.117,0l2.273,2.273a4.168,4.168,0,0,1,0,5.893l-2.273,2.273a.789.789,0,0,1-1.117,0Zm0,0" transform="translate(-304.223 -36.853)" fill="#1fc974"/>
      <path id="Trazado_1089292" data-name="Trazado 1089292" d="M236.6,89.274a1.8,1.8,0,1,1-1.8-1.8A1.8,1.8,0,0,1,236.6,89.274Zm0,0" transform="translate(-202.55 -76.044)" fill="#43a3f9"/>
      <path id="Trazado_1089293" data-name="Trazado 1089293" d="M119.395,145.922a1.8,1.8,0,1,1-1.8-1.8A1.8,1.8,0,0,1,119.395,145.922Zm0,0" transform="translate(-100.666 -125.288)" fill="#5be167"/>
      <path id="Trazado_1089294" data-name="Trazado 1089294" d="M63.334,0H59.22a.98.98,0,0,0,0,1.961h4.114a1.627,1.627,0,0,1,1.626,1.626V35.131h-63V32.76A.98.98,0,1,0,0,32.76v7.456A3.59,3.59,0,0,0,3.587,43.8H28.246a4.626,4.626,0,0,1-3.512,4.177,2.729,2.729,0,0,0-2.1,2.641v.141a2.715,2.715,0,0,0,2.712,2.712H41.571a2.715,2.715,0,0,0,2.712-2.712V50.62a2.729,2.729,0,0,0-2.1-2.641A4.625,4.625,0,0,1,38.675,43.8H63.334a3.59,3.59,0,0,0,3.586-3.586V3.586A3.59,3.59,0,0,0,63.334,0ZM41.717,49.883a.772.772,0,0,1,.605.737v.141a.752.752,0,0,1-.751.751H25.349a.752.752,0,0,1-.751-.751V50.62a.772.772,0,0,1,.605-.737A6.584,6.584,0,0,0,30.21,43.8h6.5a6.584,6.584,0,0,0,5.006,6.081Zm21.617-8.041H3.587a1.627,1.627,0,0,1-1.626-1.626V37.092h63v3.125A1.627,1.627,0,0,1,63.334,41.842Zm0,0" transform="translate(0)"/>
      <path id="Trazado_1089295" data-name="Trazado 1089295" d="M.98,29.274a.98.98,0,0,0,.98-.98V3.587A1.627,1.627,0,0,1,3.586,1.961H38.153a.98.98,0,0,0,0-1.961H3.586A3.59,3.59,0,0,0,0,3.587V28.294A.98.98,0,0,0,.98,29.274Zm0,0" transform="translate(0 0)"/>
      <path id="Trazado_1089296" data-name="Trazado 1089296" d="M319.57,1.961H331.7A.98.98,0,0,0,331.7,0H319.57a.98.98,0,1,0,0,1.961Zm0,0" transform="translate(-276.95)"/>
      <path id="Trazado_1089297" data-name="Trazado 1089297" d="M316.092,57.2h3.024v4.449a.98.98,0,1,0,1.961,0v-.833H324.1a5.153,5.153,0,0,0,5.147-5.147V52.45a1.772,1.772,0,0,0-1.77-1.77h-3.214a5.121,5.121,0,0,0-3.187,1.11V47.462a1.81,1.81,0,0,0,.271-.223l2.273-2.273a5.153,5.153,0,0,0,0-7.279l-2.273-2.273a1.769,1.769,0,0,0-2.5,0l-2.273,2.273a5.154,5.154,0,0,0,0,7.279l2.273,2.273a1.779,1.779,0,0,0,.271.223v.712a5.12,5.12,0,0,0-3.187-1.109h-3.214a1.772,1.772,0,0,0-1.77,1.77v3.214a5.153,5.153,0,0,0,5.147,5.147Zm8.171-4.555h3.024v3.024a3.19,3.19,0,0,1-3.187,3.187h-1.68l2.433-2.433a.98.98,0,1,0-1.386-1.387l-2.391,2.391V55.828a3.191,3.191,0,0,1,3.187-3.187Zm-6.305-9.061a3.19,3.19,0,0,1,0-4.507l2.138-2.138,2.138,2.138a3.19,3.19,0,0,1,0,4.507l-1.188,1.188V41.326a.98.98,0,1,0-1.961,0v3.381Zm-5.053,5.446h3.024a3.19,3.19,0,0,1,3.187,3.186v1.595l-2.391-2.391a.98.98,0,0,0-1.386,1.387l2.433,2.433h-1.68a3.19,3.19,0,0,1-3.186-3.187V49.025Zm0,0" transform="translate(-270.304 -30.334)"/>
      <path id="Trazado_1089298" data-name="Trazado 1089298" d="M70.589,76.661a.98.98,0,0,0,.98-.98v-3.1a.98.98,0,0,0-1.961,0V73.2H45.426V52.633h.688a.98.98,0,1,0,0-1.961h-3.1a.98.98,0,1,0,0,1.961h.449V74.18a.98.98,0,0,0,.98.98H69.609v.52a.98.98,0,0,0,.98.981Zm0,0" transform="translate(-36.541 -44.05)"/>
      <path id="Trazado_1089299" data-name="Trazado 1089299" d="M101.81,79.973a2.772,2.772,0,0,0-2.529,3.92l-8.833,8.833L89.02,91.3a2.777,2.777,0,1,0-5.057,0L80.3,94.955a.98.98,0,0,0,1.386,1.387l3.659-3.659a2.747,2.747,0,0,0,2.284,0L89.756,94.8a.981.981,0,0,0,1.386,0l9.526-9.526a2.776,2.776,0,1,0,1.142-5.306ZM85.675,90.155a.817.817,0,1,1,.817.816A.818.818,0,0,1,85.675,90.155Zm16.136-6.588a.817.817,0,1,1,.816-.817A.818.818,0,0,1,101.81,83.567Zm0,0" transform="translate(-69.559 -69.52)"/>
      <path id="Trazado_1089300" data-name="Trazado 1089300" d="M234.07,137.828h1.859a.98.98,0,1,0,0-1.961H234.07a.98.98,0,0,0,0,1.961Zm0,0" transform="translate(-202.625 -118.109)"/>
      <path id="Trazado_1089301" data-name="Trazado 1089301" d="M234.07,161.262h1.859a.98.98,0,1,0,0-1.961H234.07a.98.98,0,0,0,0,1.961Zm0,0" transform="translate(-202.625 -138.48)"/>
      <path id="Trazado_1089302" data-name="Trazado 1089302" d="M234.07,184.7h1.859a.98.98,0,1,0,0-1.961H234.07a.98.98,0,0,0,0,1.961Zm0,0" transform="translate(-202.625 -158.854)"/>
      <path id="Trazado_1089303" data-name="Trazado 1089303" d="M235.929,54.531a.98.98,0,0,0,0-1.961h-1.859a.98.98,0,1,0,0,1.961Zm0,0" transform="translate(-202.625 -45.699)"/>
    </g>
  </g>
</svg>
