<svg xmlns="http://www.w3.org/2000/svg" xmlns:xlink="http://www.w3.org/1999/xlink" width="113" height="113" viewBox="0 0 113 113">
  <defs>
    <filter id="Trazado_982547" x="0" y="0" width="113" height="113" filterUnits="userSpaceOnUse">
      <feOffset dy="3" input="SourceAlpha"/>
      <feGaussianBlur stdDeviation="3" result="blur"/>
      <feFlood flood-opacity="0.161"/>
      <feComposite operator="in" in2="blur"/>
      <feComposite in="SourceGraphic"/>
    </filter>
  </defs>
  <g id="Grupo_1219860" data-name="Grupo 1219860" transform="translate(-428.75 -3131.008)">
    <g id="Grupo_1218074" data-name="Grupo 1218074" transform="translate(-0.25 -1035.938)">
      <g id="Grupo_1210956" data-name="Grupo 1210956" transform="translate(438 4172.946)">
        <g id="Grupo_1209935" data-name="Grupo 1209935">
          <g id="Grupo_1208705" data-name="Grupo 1208705">
            <g id="Grupo_1148633" data-name="Grupo 1148633">
              <g id="Grupo_1148525" data-name="Grupo 1148525">
                <g transform="matrix(1, 0, 0, 1, -9, -6)" filter="url(#Trazado_982547)">
                  <g id="Trazado_982547-2" data-name="Trazado 982547" transform="translate(9 6)" fill="#ffefc0">
                    <path d="M 47.5 93.5 C 41.28937149047852 93.5 35.26533508300781 92.28397369384766 29.59518623352051 89.88570404052734 C 24.11771965026855 87.56893157958984 19.19813346862793 84.25196075439453 14.97309303283691 80.02691650390625 C 10.74804019927979 75.80186462402344 7.431066513061523 70.88229370117188 5.114293098449707 65.40481567382812 C 2.716026782989502 59.73468017578125 1.5 53.71062850952148 1.5 47.5 C 1.5 41.28937149047852 2.716026782989502 35.26533508300781 5.114293098449707 29.59518623352051 C 7.431066513061523 24.11771965026855 10.74804019927979 19.19813346862793 14.97309303283691 14.97309303283691 C 19.19813346862793 10.74804019927979 24.11771965026855 7.431066513061523 29.59518623352051 5.114293098449707 C 35.26533508300781 2.716026782989502 41.28937149047852 1.5 47.5 1.5 C 53.71062850952148 1.5 59.73468017578125 2.716026782989502 65.40481567382812 5.114293098449707 C 70.88229370117188 7.431066513061523 75.80186462402344 10.74804019927979 80.02691650390625 14.97309303283691 C 84.25196075439453 19.19813346862793 87.56893157958984 24.11771965026855 89.88570404052734 29.59518623352051 C 92.28397369384766 35.26533508300781 93.5 41.28937149047852 93.5 47.5 C 93.5 53.71062850952148 92.28397369384766 59.73468017578125 89.88570404052734 65.40481567382812 C 87.56893157958984 70.88229370117188 84.25196075439453 75.80186462402344 80.02691650390625 80.02691650390625 C 75.80186462402344 84.25196075439453 70.88229370117188 87.56893157958984 65.40481567382812 89.88570404052734 C 59.73468017578125 92.28397369384766 53.71062850952148 93.5 47.5 93.5 Z" stroke="none"/>
                    <path d="M 47.5 3 C 41.49121475219727 3 35.66376876831055 4.176155090332031 30.17950439453125 6.495796203613281 C 24.88084411621094 8.736953735351562 20.12152099609375 11.94598388671875 16.03375244140625 16.03375244140625 C 11.94598388671875 20.12152099609375 8.736953735351562 24.88084411621094 6.495796203613281 30.17950439453125 C 4.176155090332031 35.66376876831055 3 41.49121475219727 3 47.5 C 3 53.50878524780273 4.176155090332031 59.33623123168945 6.495796203613281 64.82049560546875 C 8.736953735351562 70.11915588378906 11.94598388671875 74.87847900390625 16.03375244140625 78.96624755859375 C 20.12152099609375 83.05401611328125 24.88084411621094 86.26304626464844 30.17950439453125 88.50419616699219 C 35.66376876831055 90.82384490966797 41.49121475219727 92 47.5 92 C 53.50878524780273 92 59.33623123168945 90.82384490966797 64.82049560546875 88.50419616699219 C 70.11915588378906 86.26304626464844 74.87847900390625 83.05401611328125 78.96624755859375 78.96624755859375 C 83.05401611328125 74.87847900390625 86.26304626464844 70.11915588378906 88.50419616699219 64.82049560546875 C 90.82384490966797 59.33623123168945 92 53.50878524780273 92 47.5 C 92 41.49121475219727 90.82384490966797 35.66376876831055 88.50419616699219 30.17950439453125 C 86.26304626464844 24.88084411621094 83.05401611328125 20.12152099609375 78.96624755859375 16.03375244140625 C 74.87847900390625 11.94598388671875 70.11915588378906 8.736953735351562 64.82049560546875 6.495796203613281 C 59.33623123168945 4.176155090332031 53.50878524780273 3 47.5 3 M 47.5 0 C 73.7335205078125 0 95 21.2664794921875 95 47.5 C 95 73.7335205078125 73.7335205078125 95 47.5 95 C 21.2664794921875 95 0 73.7335205078125 0 47.5 C 0 21.2664794921875 21.2664794921875 0 47.5 0 Z" stroke="none" fill="#fc3"/>
                  </g>
                </g>
              </g>
            </g>
          </g>
        </g>
      </g>
    </g>
    <g id="lavar" transform="translate(442.869 3148.006)">
      <g id="Grupo_1219858" data-name="Grupo 1219858" transform="translate(1.578 1.577)">
        <path id="Trazado_1088965" data-name="Trazado 1088965" d="M81.172,422H17.257c-3.442,0-7.186,2.756-7.254,6.18a6.412,6.412,0,0,0,6.439,6.439H81.3a6.309,6.309,0,0,0,6.308-6.186A6.409,6.409,0,0,0,81.172,422Z" transform="translate(-10.001 -357.014)" fill="#b3f1ff"/>
        <path id="Trazado_1088966" data-name="Trazado 1088966" d="M362.308,422A6.309,6.309,0,1,1,356,428.309,6.31,6.31,0,0,1,362.308,422Z" transform="translate(-301.424 -357.014)" fill="#fff5f5"/>
        <path id="Trazado_1088967" data-name="Trazado 1088967" d="M82.308,422A6.309,6.309,0,1,1,76,428.309,6.31,6.31,0,0,1,82.308,422Z" transform="translate(-65.589 -357.014)" fill="#fff5f5"/>
        <path id="Trazado_1088968" data-name="Trazado 1088968" d="M365.463,302c9.464,0,9.464,3.439,9.464,4.732,0,4.964-4.865,14.2-9.464,14.2S356,311.7,356,306.732C356,305.439,356,302,365.463,302Z" transform="translate(-301.424 -255.942)" fill="#ff7b79"/>
        <path id="Trazado_1088969" data-name="Trazado 1088969" d="M179.154,10,176,16.309H227.42V10Z" transform="translate(-149.816 -10)" fill="#b3f1ff"/>
        <path id="Trazado_1088970" data-name="Trazado 1088970" d="M176,50h25.237s-1.6,6.309-12.619,6.309S176,50,176,50Z" transform="translate(-149.816 -43.691)" fill="#fff5f5"/>
        <g id="Grupo_1219857" data-name="Grupo 1219857" transform="translate(4.101 46.058)">
          <path id="Trazado_1088971" data-name="Trazado 1088971" d="M205.463,302c9.464,0,9.464,3.439,9.464,4.732,0,4.964-4.865,14.2-9.464,14.2S196,311.7,196,306.732C196,305.439,196,302,205.463,302Z" transform="translate(-170.762 -302)" fill="#ff7b79"/>
          <path id="Trazado_1088972" data-name="Trazado 1088972" d="M45.463,302c9.464,0,9.464,3.439,9.464,4.732,0,4.964-4.865,14.2-9.464,14.2S36,311.7,36,306.732C36,305.439,36,302,45.463,302Z" transform="translate(-35.999 -302)" fill="#ff7b79"/>
        </g>
      </g>
      <g id="Grupo_1219859" data-name="Grupo 1219859" transform="translate(0.001)">
        <ellipse id="Elipse_14530" data-name="Elipse 14530" cx="1.884" cy="1.413" rx="1.884" ry="1.413" transform="translate(66.874 52.746)"/>
        <ellipse id="Elipse_14531" data-name="Elipse 14531" cx="1.413" cy="1.884" rx="1.413" ry="1.884" transform="translate(64.048 58.397)"/>
        <circle id="Elipse_14532" data-name="Elipse 14532" cx="1.413" cy="1.413" r="1.413" transform="translate(61.223 52.746)"/>
        <circle id="Elipse_14533" data-name="Elipse 14533" cx="1.413" cy="1.413" r="1.413" transform="translate(61.223 71.584)"/>
        <circle id="Elipse_14534" data-name="Elipse 14534" cx="1.413" cy="1.413" r="1.413" transform="translate(42.385 52.746)"/>
        <circle id="Elipse_14535" data-name="Elipse 14535" cx="1.884" cy="1.884" r="1.884" transform="translate(38.617 58.397)"/>
        <circle id="Elipse_14536" data-name="Elipse 14536" cx="1.413" cy="1.413" r="1.413" transform="translate(35.792 52.746)"/>
        <circle id="Elipse_14537" data-name="Elipse 14537" cx="1.413" cy="1.413" r="1.413" transform="translate(16.954 52.746)"/>
        <circle id="Elipse_14538" data-name="Elipse 14538" cx="1.413" cy="1.413" r="1.413" transform="translate(16.954 71.584)"/>
        <circle id="Elipse_14539" data-name="Elipse 14539" cx="1.884" cy="1.884" r="1.884" transform="translate(13.186 58.397)"/>
        <circle id="Elipse_14540" data-name="Elipse 14540" cx="1.413" cy="1.413" r="1.413" transform="translate(10.361 52.746)"/>
        <path id="Trazado_1088973" data-name="Trazado 1088973" d="M247.576,132.309a1.577,1.577,0,0,0,1.577-1.577v-3.155a1.577,1.577,0,1,0-3.155,0v3.155A1.577,1.577,0,0,0,247.576,132.309Z" transform="translate(-207.197 -106.126)"/>
        <path id="Trazado_1088974" data-name="Trazado 1088974" d="M246,190.732a1.577,1.577,0,1,0,3.155,0v-3.155a1.577,1.577,0,1,0-3.155,0Z" transform="translate(-207.197 -156.662)"/>
        <path id="Trazado_1088975" data-name="Trazado 1088975" d="M307.256,128.517a1.577,1.577,0,1,0,2.732-1.577l-1.577-2.732a1.577,1.577,0,0,0-2.732,1.577Z" transform="translate(-257.285 -103.951)"/>
        <path id="Trazado_1088976" data-name="Trazado 1088976" d="M339.411,181.054a1.577,1.577,0,0,0,.577-2.155l-1.577-2.732a1.577,1.577,0,0,0-2.732,1.577l1.577,2.732A1.577,1.577,0,0,0,339.411,181.054Z" transform="translate(-282.553 -147.715)"/>
        <path id="Trazado_1088977" data-name="Trazado 1088977" d="M179.041,128.516l1.577-2.732a1.577,1.577,0,0,0-2.732-1.577l-1.577,2.732a1.577,1.577,0,1,0,2.732,1.577Z" transform="translate(-148.321 -103.951)"/>
        <path id="Trazado_1088978" data-name="Trazado 1088978" d="M149.041,180.477l1.577-2.732a1.577,1.577,0,0,0-2.732-1.577l-1.577,2.732a1.577,1.577,0,0,0,2.732,1.577Z" transform="translate(-123.053 -147.715)"/>
        <path id="Trazado_1088979" data-name="Trazado 1088979" d="M220.587,1.577A1.577,1.577,0,0,0,219.009,0H170.743a1.577,1.577,0,0,0-1.411.872l-3.155,6.309a1.576,1.576,0,0,0-.115,1.092h0c.078.306,2.04,7.5,14.148,7.5,9.24,0,12.571-4.189,13.665-6.309h25.137a1.577,1.577,0,0,0,1.577-1.577Zm-40.38,11.041c-5.6,0-8.427-1.707-9.822-3.156h19.643C188.634,10.912,185.8,12.619,180.207,12.619ZM170.14,6.309l1.577-3.155H188.7l1.577,3.155Zm47.292,0H193.8l-1.577-3.155h25.209V6.309Z" transform="translate(-139.827)"/>
        <circle id="Elipse_14541" data-name="Elipse 14541" cx="1.884" cy="1.884" r="1.884" transform="translate(38.617 77.235)"/>
        <path id="Trazado_1088980" data-name="Trazado 1088980" d="M0,284.963a7.992,7.992,0,0,0,8.016,8.048H33.282a1.577,1.577,0,1,0,0-3.155H24.6a7.872,7.872,0,0,0,0-9.466H56.158a7.872,7.872,0,0,0,0,9.466h-8.68a1.577,1.577,0,1,0,0,3.155h25.4a7.887,7.887,0,1,0-.125-15.773H71.337A19.929,19.929,0,0,0,73.42,274.4a20.854,20.854,0,0,0,3.239-9.783,4.957,4.957,0,0,0-1.73-4.045,9.428,9.428,0,0,0-4.556-1.9c1.642-1.363,3.131-3.14,3.131-5.1a1.577,1.577,0,1,0-3.155,0c0,.971-1.486,2.376-3.155,3.532v-3.532a1.577,1.577,0,1,0-3.155,0v3.536c-1.669-1.155-3.155-2.56-3.155-3.536a1.577,1.577,0,1,0-3.155,0c0,1.961,1.489,3.738,3.131,5.1a9.428,9.428,0,0,0-4.556,1.9,4.957,4.957,0,0,0-1.73,4.045,20.856,20.856,0,0,0,3.239,9.783,19.916,19.916,0,0,0,2.083,2.836H46.1a19.929,19.929,0,0,0,2.083-2.836,20.854,20.854,0,0,0,3.239-9.783,4.957,4.957,0,0,0-1.73-4.045,9.428,9.428,0,0,0-4.556-1.9c1.642-1.363,3.131-3.14,3.131-5.1a1.577,1.577,0,1,0-3.155,0c0,.971-1.486,2.376-3.155,3.532v-3.532a1.577,1.577,0,1,0-3.155,0v3.536c-1.669-1.155-3.155-2.56-3.155-3.536a1.577,1.577,0,1,0-3.155,0c0,1.961,1.489,3.738,3.131,5.1a9.428,9.428,0,0,0-4.556,1.9,4.957,4.957,0,0,0-1.73,4.045,20.856,20.856,0,0,0,3.239,9.783,19.916,19.916,0,0,0,2.083,2.836h-13.8a19.929,19.929,0,0,0,2.083-2.836,20.854,20.854,0,0,0,3.239-9.783,4.957,4.957,0,0,0-1.73-4.045,9.428,9.428,0,0,0-4.556-1.9c1.642-1.363,3.131-3.14,3.131-5.1a1.577,1.577,0,1,0-3.155,0c0,.971-1.486,2.376-3.155,3.532v-3.532a1.577,1.577,0,1,0-3.155,0v3.536c-1.669-1.155-3.155-2.56-3.155-3.536a1.577,1.577,0,1,0-3.155,0c0,1.961,1.489,3.738,3.131,5.1a9.428,9.428,0,0,0-4.556,1.9,4.957,4.957,0,0,0-1.73,4.045A20.856,20.856,0,0,0,7.341,274.4a19.916,19.916,0,0,0,2.083,2.836h-.59c-4.1,0-8.743,3.3-8.831,7.726Zm72.746-4.571a4.833,4.833,0,0,1,4.855,4.825,4.754,4.754,0,0,1-4.731,4.639H68.768a7.87,7.87,0,0,0,0-9.464ZM57.731,264.619a1.869,1.869,0,0,1,.636-1.657c.647-.559,2.45-1.5,7.244-1.5h.012c4.794,0,6.6.939,7.244,1.5a1.869,1.869,0,0,1,.636,1.657,17.837,17.837,0,0,1-2.775,8.137c-1.691,2.765-3.649,4.482-5.111,4.482s-3.42-1.717-5.111-4.482A17.837,17.837,0,0,1,57.731,264.619Zm4.732,15.773a4.732,4.732,0,1,1-4.732,4.732A4.737,4.737,0,0,1,62.463,280.392ZM32.494,264.619a1.869,1.869,0,0,1,.636-1.657c.647-.559,2.45-1.5,7.244-1.5h.012c4.794,0,6.6.939,7.244,1.5a1.869,1.869,0,0,1,.636,1.657,17.837,17.837,0,0,1-2.775,8.137c-1.691,2.765-3.649,4.482-5.111,4.482s-3.42-1.717-5.111-4.482A17.837,17.837,0,0,1,32.494,264.619ZM23.03,285.124A4.732,4.732,0,1,1,18.3,280.39,4.737,4.737,0,0,1,23.03,285.124ZM7.256,264.619a1.869,1.869,0,0,1,.636-1.657c.647-.559,2.45-1.5,7.244-1.5h.012c4.794,0,6.6.939,7.244,1.5a1.869,1.869,0,0,1,.636,1.657,17.837,17.837,0,0,1-2.775,8.137c-1.691,2.765-3.649,4.482-5.111,4.482s-3.42-1.717-5.111-4.482a17.837,17.837,0,0,1-2.775-8.137Zm4.736,15.772a7.872,7.872,0,0,0,0,9.466H8.018a4.838,4.838,0,0,1-4.862-4.83c.051-2.567,3.147-4.635,5.677-4.635Z" transform="translate(-0.001 -212.251)"/>
      </g>
    </g>
  </g>
</svg>
