<svg xmlns="http://www.w3.org/2000/svg" xmlns:xlink="http://www.w3.org/1999/xlink" width="113" height="113" viewBox="0 0 113 113">
  <defs>
    <filter id="Trazado_982547" x="0" y="0" width="113" height="113" filterUnits="userSpaceOnUse">
      <feOffset dy="3" input="SourceAlpha"/>
      <feGaussianBlur stdDeviation="3" result="blur"/>
      <feFlood flood-opacity="0.161"/>
      <feComposite operator="in" in2="blur"/>
      <feComposite in="SourceGraphic"/>
    </filter>
  </defs>
  <g id="Grupo_1219862" data-name="Grupo 1219862" transform="translate(-1058.75 -3131.008)">
    <g id="Grupo_1218075" data-name="Grupo 1218075" transform="translate(-0.25 -1035.938)">
      <g id="Grupo_1212851" data-name="Grupo 1212851" transform="translate(1068 4172.946)">
        <g id="Grupo_1209935" data-name="Grupo 1209935">
          <g id="Grupo_1208705" data-name="Grupo 1208705">
            <g id="Grupo_1148633" data-name="Grupo 1148633">
              <g id="Grupo_1148525" data-name="Grupo 1148525">
                <g transform="matrix(1, 0, 0, 1, -9, -6)" filter="url(#Trazado_982547)">
                  <g id="Trazado_982547-2" data-name="Trazado 982547" transform="translate(9 6)" fill="#ffefc0">
                    <path d="M 47.5 93.5 C 41.28937149047852 93.5 35.26533508300781 92.28397369384766 29.59518623352051 89.88570404052734 C 24.11771965026855 87.56893157958984 19.19813346862793 84.25196075439453 14.97309303283691 80.02691650390625 C 10.74804019927979 75.80186462402344 7.431066513061523 70.88229370117188 5.114293098449707 65.40481567382812 C 2.716026782989502 59.73468017578125 1.5 53.71062850952148 1.5 47.5 C 1.5 41.28937149047852 2.716026782989502 35.26533508300781 5.114293098449707 29.59518623352051 C 7.431066513061523 24.11771965026855 10.74804019927979 19.19813346862793 14.97309303283691 14.97309303283691 C 19.19813346862793 10.74804019927979 24.11771965026855 7.431066513061523 29.59518623352051 5.114293098449707 C 35.26533508300781 2.716026782989502 41.28937149047852 1.5 47.5 1.5 C 53.71062850952148 1.5 59.73468017578125 2.716026782989502 65.40481567382812 5.114293098449707 C 70.88229370117188 7.431066513061523 75.80186462402344 10.74804019927979 80.02691650390625 14.97309303283691 C 84.25196075439453 19.19813346862793 87.56893157958984 24.11771965026855 89.88570404052734 29.59518623352051 C 92.28397369384766 35.26533508300781 93.5 41.28937149047852 93.5 47.5 C 93.5 53.71062850952148 92.28397369384766 59.73468017578125 89.88570404052734 65.40481567382812 C 87.56893157958984 70.88229370117188 84.25196075439453 75.80186462402344 80.02691650390625 80.02691650390625 C 75.80186462402344 84.25196075439453 70.88229370117188 87.56893157958984 65.40481567382812 89.88570404052734 C 59.73468017578125 92.28397369384766 53.71062850952148 93.5 47.5 93.5 Z" stroke="none"/>
                    <path d="M 47.5 3 C 41.49121475219727 3 35.66376876831055 4.176155090332031 30.17950439453125 6.495796203613281 C 24.88084411621094 8.736953735351562 20.12152099609375 11.94598388671875 16.03375244140625 16.03375244140625 C 11.94598388671875 20.12152099609375 8.736953735351562 24.88084411621094 6.495796203613281 30.17950439453125 C 4.176155090332031 35.66376876831055 3 41.49121475219727 3 47.5 C 3 53.50878524780273 4.176155090332031 59.33623123168945 6.495796203613281 64.82049560546875 C 8.736953735351562 70.11915588378906 11.94598388671875 74.87847900390625 16.03375244140625 78.96624755859375 C 20.12152099609375 83.05401611328125 24.88084411621094 86.26304626464844 30.17950439453125 88.50419616699219 C 35.66376876831055 90.82384490966797 41.49121475219727 92 47.5 92 C 53.50878524780273 92 59.33623123168945 90.82384490966797 64.82049560546875 88.50419616699219 C 70.11915588378906 86.26304626464844 74.87847900390625 83.05401611328125 78.96624755859375 78.96624755859375 C 83.05401611328125 74.87847900390625 86.26304626464844 70.11915588378906 88.50419616699219 64.82049560546875 C 90.82384490966797 59.33623123168945 92 53.50878524780273 92 47.5 C 92 41.49121475219727 90.82384490966797 35.66376876831055 88.50419616699219 30.17950439453125 C 86.26304626464844 24.88084411621094 83.05401611328125 20.12152099609375 78.96624755859375 16.03375244140625 C 74.87847900390625 11.94598388671875 70.11915588378906 8.736953735351562 64.82049560546875 6.495796203613281 C 59.33623123168945 4.176155090332031 53.50878524780273 3 47.5 3 M 47.5 0 C 73.7335205078125 0 95 21.2664794921875 95 47.5 C 95 73.7335205078125 73.7335205078125 95 47.5 95 C 21.2664794921875 95 0 73.7335205078125 0 47.5 C 0 21.2664794921875 21.2664794921875 0 47.5 0 Z" stroke="none" fill="#fc3"/>
                  </g>
                </g>
              </g>
            </g>
          </g>
        </g>
      </g>
    </g>
    <g id="Layer_1" data-name="Layer 1" transform="translate(1071.366 3145.486)">
      <g id="Grupo_1219861" data-name="Grupo 1219861" transform="translate(6.95 12.937)">
        <path id="Trazado_1088981" data-name="Trazado 1088981" d="M140.554,44.414A25.434,25.434,0,1,1,115.12,18.98a25.434,25.434,0,0,1,25.434,25.434Z" transform="translate(-77.936 -18.98)" fill="#6cf" fill-rule="evenodd"/>
        <path id="Trazado_1088982" data-name="Trazado 1088982" d="M113.709,69.853a25.432,25.432,0,1,1,0-50.863A26.029,26.029,0,0,0,94.233,44.422,26.026,26.026,0,0,0,113.709,69.853Z" transform="translate(-76.743 -18.988)" fill="#4da6ff" fill-rule="evenodd"/>
        <path id="Trazado_1088983" data-name="Trazado 1088983" d="M162.315,72.634c-.609.068-2.349.188-2.964.193V71.64c.721-1.925,2.674-7.8.9-10.3-4.7-6.654-4.695-1.888-2.936-9.186l-4.028-3.184c-.368-.17-2.967.443-3.631.208-2.134-.756-3.283-.889-3.865-1.741-1.239-1.813-.184-5.968-3.186-7.279a18.605,18.605,0,0,1,.159-12.214A25.343,25.343,0,0,1,153.926,22.5c.916.719,1.161,3.29-.078,4.273.86,2.148,2.525,2.493,4.243,4.367,1.452-5.125,5.215-3.469,6.618-2.241,1.027.9,2.27,1.577,2.063,2.594-.148.73-2.384.938-2.346,1.476.5,6.927-3.324,2.113-4.746,4.128-1.288,1.825-2.341,4.108-3.632,6.147-.869-1.858.4-1.916-3.156-1.838-3.579.078-5.284,5.317-1.244,4.7,2.815-.43,4.146-.3,6.781,2.75,12.708-1.939,15.058,5.752,16,8.187,1.514,3.91-10.551,10.476-12.141,15.047A4.057,4.057,0,0,1,162.315,72.634Z" transform="translate(-121.964 -21.962)" fill="#52cc7b" fill-rule="evenodd"/>
        <path id="Trazado_1088984" data-name="Trazado 1088984" d="M141.829,36.38a17.086,17.086,0,0,1,.952-8.439A25.343,25.343,0,0,1,153.94,22.5a2.028,2.028,0,0,1,.605,1A25.887,25.887,0,0,0,141.829,36.38Z" transform="translate(-121.978 -21.962)" fill="#3d997a" fill-rule="evenodd"/>
        <path id="Trazado_1088985" data-name="Trazado 1088985" d="M77.671,426.944H91.363a.935.935,0,0,1,.976.876c.013,1.111.049,1.944.06,3.356a.934.934,0,0,1-.976.892H77.732a.936.936,0,0,1-.976-.873c-.015-.991-.052-1.529-.061-3.362A.934.934,0,0,1,77.671,426.944Z" transform="translate(-66.932 -364.553)" fill="#6cf" fill-rule="evenodd"/>
        <path id="Trazado_1088986" data-name="Trazado 1088986" d="M80.2,432.073H77.732a.936.936,0,0,1-.976-.873c-.015-.991-.052-1.529-.061-3.362a.933.933,0,0,1,.976-.888H80.14a.933.933,0,0,0-.976.888c.009,1.833.046,2.37.061,3.362A.936.936,0,0,0,80.2,432.073Z" transform="translate(-66.932 -364.559)" fill="#4da6ff" fill-rule="evenodd"/>
        <path id="Trazado_1088987" data-name="Trazado 1088987" d="M24.335,220.7H36.354v3.635a1.346,1.346,0,0,1-1.346,1.346H25.681a1.346,1.346,0,0,1-1.346-1.346Zm-3.918-28.515L20.091,192l0-10.678a3.7,3.7,0,0,0-2.146-3.371c-1.6-.734-3.44-1.072-3.733,1.416-.989,8.385-3.768,21.654,3.476,27.761,5.877,4.955,6.65,6.4,6.65,8.449H36.354S36.747,201.8,20.418,192.183Z" transform="translate(-12.855 -153.184)" fill="#ffd9b3" fill-rule="evenodd"/>
      </g>
      <path id="Trazado_1088988" data-name="Trazado 1088988" d="M24.334,215.575c0-2.054-.773-3.5-6.65-8.449-7.244-6.107-4.466-19.375-3.476-27.76.257-2.183,1.7-2.19,3.137-1.663a2.262,2.262,0,0,0-.778,1.663c-.989,8.385-3.873,20.82,3.926,27.1,5.986,4.822,6.2,7.052,6.2,9.106Zm2.36,8.759V220.7h-2.36v3.635a1.346,1.346,0,0,0,1.346,1.346H28.04a1.346,1.346,0,0,1-1.346-1.346Z" transform="translate(-5.903 -140.248)" fill="#fb9"/>
      <path id="Trazado_1088989" data-name="Trazado 1088989" d="M348.321,427.832c-.009,1.833-.046,2.37-.061,3.362a.936.936,0,0,1-.976.873h-13.69a.933.933,0,0,1-.976-.892c.011-1.412.047-2.245.06-3.356a.935.935,0,0,1,.976-.876h13.691A.933.933,0,0,1,348.321,427.832Z" transform="translate(-276.766 -351.616)" fill="#6cf" fill-rule="evenodd"/>
      <path id="Trazado_1088990" data-name="Trazado 1088990" d="M413.357,431.2c.015-.991.052-1.529.061-3.362a.934.934,0,0,0-.976-.888h2.469a.933.933,0,0,1,.976.888c-.009,1.833-.046,2.37-.061,3.362a.936.936,0,0,1-.976.873h-2.469a.936.936,0,0,0,.976-.873Z" transform="translate(-344.331 -351.622)" fill="#4da6ff" fill-rule="evenodd"/>
      <path id="Trazado_1088991" data-name="Trazado 1088991" d="M357.5,224.332a1.346,1.346,0,0,1-1.346,1.346h-9.328a1.346,1.346,0,0,1-1.346-1.346V220.7H357.5Zm-12.019-8.759H357.5c0-2.054.773-3.5,6.65-8.449,7.244-6.107,4.466-19.375,3.476-27.76-.293-2.488-2.13-2.15-3.733-1.416a3.7,3.7,0,0,0-2.146,3.371l0,10.678-.326.185c-16.329,9.619-15.937,23.391-15.937,23.391Z" transform="translate(-287.659 -140.246)" fill="#ffd9b3" fill-rule="evenodd"/>
      <path id="Trazado_1088992" data-name="Trazado 1088992" d="M401.191,215.574c0-2.054.213-4.284,6.2-9.106,7.8-6.284,4.916-18.719,3.926-27.1a2.263,2.263,0,0,0-.778-1.663c1.434-.527,2.88-.521,3.137,1.663.989,8.385,3.768,21.654-3.476,27.76-5.877,4.955-6.65,6.4-6.65,8.449Zm-1.346,10.1H402.2a1.346,1.346,0,0,0,1.346-1.346V220.7h-2.359v3.635a1.346,1.346,0,0,1-1.345,1.346Z" transform="translate(-333.712 -140.247)" fill="#fb9"/>
      <path id="Trazado_1088993" data-name="Trazado 1088993" d="M177.7,97.938h7.83a.287.287,0,0,1,.271.382l-4.376,12.351a.287.287,0,0,0,.271.382H185.3a.287.287,0,0,1,.217.476l-9.9,16.49a.287.287,0,0,1-.484-.292l2.909-13.392a.287.287,0,0,0-.268-.39H174.41a.287.287,0,0,1-.281-.347l3.285-15.433A.287.287,0,0,1,177.7,97.938Z" transform="translate(-142.51 -72.926)" fill="#ffdf40"/>
      <path id="Trazado_1088994" data-name="Trazado 1088994" d="M176.238,126.975l-.627,1.045a.287.287,0,0,1-.484-.292l2.909-13.392a.287.287,0,0,0-.268-.39H174.41a.287.287,0,0,1-.281-.347l3.285-15.433a.287.287,0,0,1,.281-.227h1.467l-3.028,14.219a.287.287,0,0,0,.281.347h3.358a.287.287,0,0,1,.268.39Z" transform="translate(-142.51 -72.926)" fill="#ffbe40"/>
      <path id="Trazado_1088995" data-name="Trazado 1088995" d="M265.011,97.938h7.83a.287.287,0,0,1,.271.382l-4.376,12.351a.287.287,0,0,0,.271.382h3.61a.287.287,0,0,1,.217.476l-9.906,16.49a.287.287,0,0,1-.485-.292l2.909-13.392a.287.287,0,0,0-.268-.39h-3.357a.287.287,0,0,1-.281-.347l3.286-15.433a.287.287,0,0,1,.281-.227Z" transform="translate(-216.472 -72.926)" fill="#ffdf40"/>
      <path id="Trazado_1088996" data-name="Trazado 1088996" d="M263.554,126.975l-.627,1.045a.287.287,0,0,1-.486-.292l2.909-13.392a.287.287,0,0,0-.268-.39h-3.357a.287.287,0,0,1-.281-.347l3.286-15.433a.287.287,0,0,1,.281-.227h1.467l-3.028,14.219a.287.287,0,0,0,.281.347h3.358a.287.287,0,0,1,.268.39Z" transform="translate(-216.472 -72.926)" fill="#ffbe40"/>
      <path id="Trazado_1088997" data-name="Trazado 1088997" d="M70.638,38.35a26.5,26.5,0,1,0-26.5,26.5A26.534,26.534,0,0,0,70.638,38.35ZM38.612,15.583a1.7,1.7,0,0,1-.443,1.305,1.071,1.071,0,0,0-.329,1.237,7.1,7.1,0,0,0,2.689,3.161,12.467,12.467,0,0,1,1.759,1.532,1.071,1.071,0,0,0,1.819-.432c.427-1.509,1.074-2.4,1.921-2.652a3.572,3.572,0,0,1,2.963.925c.233.2.467.39.693.57a5.214,5.214,0,0,1,1,.933,8.9,8.9,0,0,1-.828.609,4.547,4.547,0,0,0-1.325,1.15A1.364,1.364,0,0,0,47.211,25l-.493,2.32a2.942,2.942,0,0,0-2.626,1.147,5.992,5.992,0,0,1-1.215,1.274l1.419-4a1.358,1.358,0,0,0-1.28-1.812h-7.83A1.364,1.364,0,0,0,33.857,25l-2.238,10.51c-.5-1.847-1.162-4.025-3.126-5.141a17.412,17.412,0,0,1,.156-10.811,24.3,24.3,0,0,1,9.806-4.9,2.726,2.726,0,0,1,.156.927ZM51.425,38.6a1.36,1.36,0,0,0,1.109.574h2.22L48.02,50.388l1.894-8.722a1.358,1.358,0,0,0-1.3-1.739h-2.39l2.952-13.866h6.087l-4.006,11.3a1.36,1.36,0,0,0,.172,1.237ZM58.3,48.061c.043.115.084.223.122.321.586,1.514-3.1,4.806-5.784,7.21-2.773,2.479-5.4,4.825-6.273,7.019q-.55.05-1.106.076a43.428,43.428,0,0,0,1.961-6.864l.046-.047a1.077,1.077,0,0,0,.11-.152l7.613-12.673A11.439,11.439,0,0,1,58.3,48.061ZM43.527,42.582l-1.148-.876,1.184-1.971.5.065-.134.628a1.357,1.357,0,0,0,1.328,1.64h2.383l-1.812,8.339a16.955,16.955,0,0,0-2.216-2.154,3.574,3.574,0,0,1-.532-.488,13.259,13.259,0,0,1,.58-3c.08-.329.168-.688.262-1.08a1.071,1.071,0,0,0-.391-1.1Zm-7.15-2.065a1.358,1.358,0,0,0-1.119-.589h-2.39l2.952-13.866h6.087L37.9,37.367a1.358,1.358,0,0,0,1.28,1.811H41.4L34.665,50.389l1.895-8.722a1.357,1.357,0,0,0-.183-1.15ZM44.506,37.7l-.6-.079a1.359,1.359,0,0,0-1.113-.584h-2.5l1.524-4.3a8.329,8.329,0,0,0,4.028-3.04.524.524,0,0,1,.415-.214Zm-24.736.651a24.261,24.261,0,0,1,5.975-15.966,21.469,21.469,0,0,0,.823,9.03,1.071,1.071,0,0,0,.6.675c1.489.65,1.98,2.467,2.455,4.224a9.711,9.711,0,0,0,1.108,2.907l.117-.08-.274,1.287A1.358,1.358,0,0,0,31.9,42.069h2.383L31.582,54.5a1.357,1.357,0,0,0,2.327,1.274,1.057,1.057,0,0,0,.111-.152L41.27,43.553l.4.307-.1.4c-.9,3.675-1.033,4.239.669,5.646a16.243,16.243,0,0,1,2.995,3.2l-.3,1.4a1.354,1.354,0,0,0,.148,1.095,44.023,44.023,0,0,1-2.108,7.088,24.393,24.393,0,0,1-23.2-24.335ZM49.034,62.218a38.04,38.04,0,0,1,5.027-5.03c3.844-3.437,7.475-6.683,6.354-9.579q-.054-.141-.116-.306a13.347,13.347,0,0,0-4.2-6.2l1.15-1.915a1.358,1.358,0,0,0-1.1-2.148h-2.5l4.006-11.3a1.358,1.358,0,0,0-1.279-1.811h-4.45a2.26,2.26,0,0,0,.889-1.26c.295-1.449-.862-2.369-1.791-3.108-.207-.165-.421-.335-.616-.5a5.581,5.581,0,0,0-4.981-1.366,4.56,4.56,0,0,0-2.776,2.54c-.284-.234-.559-.443-.819-.64A6.087,6.087,0,0,1,40.11,17.9a4.134,4.134,0,0,0,.644-2.323,5.082,5.082,0,0,0-.184-1.329,24.365,24.365,0,0,1,8.464,47.97ZM33.428,76.17a2.005,2.005,0,0,0-1.95-1.929A24.657,24.657,0,0,0,29.552,66.7c-1.835-4.341-5.8-10.527-14.294-15.59l0-10.06a4.783,4.783,0,0,0-2.77-4.344c-1.6-.733-2.838-.829-3.789-.295a3.138,3.138,0,0,0-1.453,2.559c-.109.928-.241,1.914-.38,2.958-1.122,8.417-2.656,19.943,4.228,25.746,4.574,3.856,5.818,5.429,6.15,6.61a2.081,2.081,0,0,0-1.036.559,1.9,1.9,0,0,0-.563,1.356c.006,1.194.024,1.848.039,2.424.008.311.016.6.021.948a1.993,1.993,0,0,0,1.656,1.891v2.642a2.419,2.419,0,0,0,2.416,2.416H29.1a2.419,2.419,0,0,0,2.416-2.416V81.5a2.1,2.1,0,0,0,1.407-.606,1.9,1.9,0,0,0,.561-1.361c-.006-.812-.021-1.428-.034-2.023C33.444,77.067,33.434,76.644,33.428,76.17ZM17.842,79.36c-.005-.28-.012-.53-.019-.794-.015-.534-.031-1.136-.037-2.189h13.5c.006.411.015.789.024,1.179.012.541.025,1.1.032,1.8ZM12.471,66.039c-5.987-5.047-4.542-15.9-3.487-23.826.14-1.052.272-2.046.384-2.99.059-.5.2-.841.376-.943.109-.061.563-.214,1.849.375a2.637,2.637,0,0,1,1.521,2.4l0,9.739a4.174,4.174,0,0,0-1.873,3.168c-.142,1.641.978,3.891,3.423,6.876a48.4,48.4,0,0,0,3.479,3.793,1.07,1.07,0,1,0,1.484-1.543c-2.694-2.593-6.415-7.082-6.254-8.941a2.485,2.485,0,0,1,.576-1.32c8.088,4.76,11.849,10.556,13.582,14.6a22.9,22.9,0,0,1,1.793,6.807H19.421C19.091,72.227,17.6,70.36,12.471,66.039ZM29.1,84.382H19.777a.275.275,0,0,1-.275-.275V81.5h9.878v2.605A.275.275,0,0,1,29.1,84.382Zm52.3-42.459c-.139-1.042-.27-2.026-.379-2.952a3.141,3.141,0,0,0-1.453-2.559c-.951-.534-2.19-.438-3.789.295a4.783,4.783,0,0,0-2.771,4.344l0,10.06C64.522,56.173,60.553,62.36,58.718,66.7a24.628,24.628,0,0,0-1.927,7.539,2.005,2.005,0,0,0-1.95,1.929c-.006.474-.015.9-.026,1.337-.014.6-.028,1.211-.035,2.023a1.9,1.9,0,0,0,.561,1.361,2.1,2.1,0,0,0,1.407.606v2.609a2.419,2.419,0,0,0,2.416,2.416h9.328a2.419,2.419,0,0,0,2.416-2.416V81.464a1.993,1.993,0,0,0,1.654-1.891c.005-.348.013-.639.022-.951.015-.576.033-1.229.039-2.422a1.9,1.9,0,0,0-.562-1.356,2.081,2.081,0,0,0-1.036-.559c.332-1.18,1.575-2.753,6.15-6.61,6.885-5.8,5.35-17.334,4.228-25.753ZM70.484,76.377c-.007,1.052-.023,1.653-.037,2.187-.007.265-.014.515-.019.8h-13.5c.007-.706.02-1.263.032-1.8.009-.391.018-.768.024-1.179Zm-1.991,8H59.164a.275.275,0,0,1-.275-.275V81.5h9.878v2.605a.275.275,0,0,1-.275.275ZM75.8,66.039c-5.126,4.321-6.62,6.188-6.95,8.2H58.943a22.89,22.89,0,0,1,1.793-6.807c1.733-4.048,5.494-9.845,13.582-14.6a2.484,2.484,0,0,1,.576,1.32c.161,1.859-3.56,6.347-6.254,8.941a1.07,1.07,0,1,0,1.484,1.543A48.439,48.439,0,0,0,73.6,60.835c2.445-2.986,3.565-5.235,3.423-6.876a4.174,4.174,0,0,0-1.873-3.168l0-9.739a2.637,2.637,0,0,1,1.521-2.4c1.285-.589,1.74-.436,1.848-.375.18.1.317.445.376.943.111.941.243,1.933.382,2.982,1.056,7.93,2.5,18.788-3.485,23.835Z"/>
    </g>
  </g>
</svg>
