<svg xmlns="http://www.w3.org/2000/svg" xmlns:xlink="http://www.w3.org/1999/xlink" width="103" height="103" viewBox="0 0 103 103">
  <defs>
    <filter id="Trazado_978624" x="0" y="0" width="103" height="103" filterUnits="userSpaceOnUse">
      <feOffset dy="3" input="SourceAlpha"/>
      <feGaussianBlur stdDeviation="3" result="blur"/>
      <feFlood flood-opacity="0.161"/>
      <feComposite operator="in" in2="blur"/>
      <feComposite in="SourceGraphic"/>
    </filter>
  </defs>
  <g id="Grupo_1218205" data-name="Grupo 1218205" transform="translate(-191 -457)">
    <g id="Grupo_1217981" data-name="Grupo 1217981" transform="translate(200 463)">
      <g id="Grupo_1213565" data-name="Grupo 1213565" transform="translate(0)">
        <g id="Grupo_1210098" data-name="Grupo 1210098">
          <g id="Grupo_1178144" data-name="Grupo 1178144">
            <g id="Grupo_1177896" data-name="Grupo 1177896">
              <g id="Grupo_1176881" data-name="Grupo 1176881">
                <g id="Grupo_1175148" data-name="Grupo 1175148">
                  <g id="Grupo_1173798" data-name="Grupo 1173798">
                    <g id="Grupo_1171925" data-name="Grupo 1171925">
                      <g id="Grupo_1164524" data-name="Grupo 1164524">
                        <g id="Grupo_1144123" data-name="Grupo 1144123">
                          <g transform="matrix(1, 0, 0, 1, -9, -6)" filter="url(#Trazado_978624)">
                            <g id="Trazado_978624-2" data-name="Trazado 978624" transform="translate(9 6)" fill="#fff9e9">
                              <path d="M 42.5 83.5 C 36.96437835693359 83.5 31.59512901306152 82.41617584228516 26.54141235351562 80.27863311767578 C 21.65934181213379 78.21369171142578 17.27447128295898 75.25723266601562 13.50862312316895 71.49137878417969 C 9.742764472961426 67.72553253173828 6.786305904388428 63.34066009521484 4.721364498138428 58.45858764648438 C 2.583823442459106 53.40486907958984 1.5 48.03562164306641 1.5 42.5 C 1.5 36.96437835693359 2.583823442459106 31.59512901306152 4.721364498138428 26.54141235351562 C 6.786305904388428 21.65934181213379 9.742764472961426 17.27447128295898 13.50862312316895 13.50862312316895 C 17.27447128295898 9.742764472961426 21.65934181213379 6.786305904388428 26.54141235351562 4.721364498138428 C 31.59512901306152 2.583823442459106 36.96437835693359 1.5 42.5 1.5 C 48.03562164306641 1.5 53.40486907958984 2.583823442459106 58.45858764648438 4.721364498138428 C 63.34066009521484 6.786305904388428 67.72553253173828 9.742764472961426 71.49137878417969 13.50862312316895 C 75.25723266601562 17.27447128295898 78.21369171142578 21.65934181213379 80.27863311767578 26.54141235351562 C 82.41617584228516 31.59512901306152 83.5 36.96437835693359 83.5 42.5 C 83.5 48.03562164306641 82.41617584228516 53.40486907958984 80.27863311767578 58.45858764648438 C 78.21369171142578 63.34066009521484 75.25723266601562 67.72553253173828 71.49137878417969 71.49137878417969 C 67.72553253173828 75.25723266601562 63.34066009521484 78.21369171142578 58.45858764648438 80.27863311767578 C 53.40486907958984 82.41617584228516 48.03562164306641 83.5 42.5 83.5 Z" stroke="none"/>
                              <path d="M 42.5 3 C 37.16621398925781 3 31.99356079101562 4.043960571289062 27.125732421875 6.102882385253906 C 22.42246627807617 8.092185974121094 18.19785308837891 10.94070434570312 14.56928253173828 14.56928253173828 C 10.94070434570312 18.19785308837891 8.092185974121094 22.42246627807617 6.102882385253906 27.125732421875 C 4.043960571289062 31.99356079101562 3 37.16621398925781 3 42.5 C 3 47.83378601074219 4.043960571289062 53.00643920898438 6.102882385253906 57.87425231933594 C 8.092185974121094 62.57753372192383 10.94070434570312 66.80213165283203 14.56928253173828 70.43071746826172 C 18.19786834716797 74.05929565429688 22.42246627807617 76.90781402587891 27.125732421875 78.89711761474609 C 31.99356079101562 80.95603942871094 37.16621398925781 82 42.5 82 C 47.83378601074219 82 53.00642395019531 80.95603942871094 57.87425231933594 78.89711761474609 C 62.57753372192383 76.90781402587891 66.80213165283203 74.05929565429688 70.43071746826172 70.43071746826172 C 74.05929565429688 66.80213165283203 76.90781402587891 62.57753372192383 78.89711761474609 57.87425231933594 C 80.95603942871094 53.00642395019531 82 47.83378601074219 82 42.5 C 82 37.16621398925781 80.95603942871094 31.99356079101562 78.89711761474609 27.125732421875 C 76.90781402587891 22.42246627807617 74.05929565429688 18.19786834716797 70.43071746826172 14.56928253173828 C 66.80213165283203 10.94070434570312 62.57753372192383 8.092185974121094 57.87425231933594 6.102882385253906 C 53.00643920898438 4.043960571289062 47.83378601074219 3 42.5 3 M 42.5 0 C 65.97209167480469 0 85 19.02789306640625 85 42.5 C 85 65.97209167480469 65.97209167480469 85 42.5 85 C 19.02789306640625 85 0 65.97209167480469 0 42.5 C 0 19.02789306640625 19.02789306640625 0 42.5 0 Z" stroke="none" fill="#fc3"/>
                            </g>
                          </g>
                        </g>
                      </g>
                    </g>
                  </g>
                </g>
              </g>
            </g>
          </g>
        </g>
      </g>
    </g>
    <g id="obrero" transform="translate(196.852 466.317)">
      <path id="Trazado_1085481" data-name="Trazado 1085481" d="M54.4,27.8h-2.67a1.553,1.553,0,0,1-1.494-1.159,19.1,19.1,0,0,0-1.861-4.479,1.522,1.522,0,0,1,.231-1.839l1.906-1.906a1.509,1.509,0,0,0,0-2.134L47.127,12.9a1.509,1.509,0,0,0-2.134,0L43.086,14.8a1.522,1.522,0,0,1-1.84.231,19.092,19.092,0,0,0-4.479-1.861,1.554,1.554,0,0,1-1.159-1.494V9.009A1.509,1.509,0,0,0,34.1,7.5H29.31A1.509,1.509,0,0,0,27.8,9.009v2.67a1.554,1.554,0,0,1-1.159,1.494,19.08,19.08,0,0,0-4.479,1.861,1.522,1.522,0,0,1-1.84-.231L18.417,12.9a1.509,1.509,0,0,0-2.134,0L12.9,16.283a1.509,1.509,0,0,0,0,2.134L14.8,20.324a1.523,1.523,0,0,1,.231,1.84,19.065,19.065,0,0,0-1.861,4.479A1.554,1.554,0,0,1,11.679,27.8H9.009A1.509,1.509,0,0,0,7.5,29.31V34.1A1.509,1.509,0,0,0,9.009,35.61h2.67a1.553,1.553,0,0,1,1.494,1.159,19.086,19.086,0,0,0,1.861,4.478,1.523,1.523,0,0,1-.231,1.84L12.9,44.993a1.509,1.509,0,0,0,0,2.134l3.386,3.387a1.509,1.509,0,0,0,2.134,0l1.907-1.906a1.522,1.522,0,0,1,1.839-.231,19.1,19.1,0,0,0,4.479,1.861A1.555,1.555,0,0,1,27.8,51.732V54.4a1.509,1.509,0,0,0,1.509,1.509H34.1A1.509,1.509,0,0,0,35.609,54.4V51.732a1.555,1.555,0,0,1,1.159-1.494,19.1,19.1,0,0,0,4.479-1.861,1.522,1.522,0,0,1,1.839.231l1.906,1.906a1.509,1.509,0,0,0,2.134,0l3.387-3.387a1.509,1.509,0,0,0,0-2.134l-1.906-1.906a1.523,1.523,0,0,1-.231-1.84,19.091,19.091,0,0,0,1.861-4.479A1.554,1.554,0,0,1,51.73,35.61H54.4A1.509,1.509,0,0,0,55.91,34.1V29.31A1.508,1.508,0,0,0,54.4,27.8ZM31.7,41.786A10.081,10.081,0,1,1,41.786,31.705,10.081,10.081,0,0,1,31.7,41.786Zm0,0" transform="translate(-6.303 -6.304)" fill="#8ebac5"/>
      <path id="Trazado_1085482" data-name="Trazado 1085482" d="M243.123,283.769l-4.309-8.536v-9.343H225.521v9.343l-4.309,8.536Zm0,0" transform="translate(-185.92 -223.471)" fill="#bb5d4c"/>
      <path id="Trazado_1085483" data-name="Trazado 1085483" d="M301.547,265.891v17.879h9.1l-4.309-8.536v-9.343Zm0,0" transform="translate(-253.439 -223.471)" fill="#a44f3e"/>
      <path id="Trazado_1085484" data-name="Trazado 1085484" d="M221.668,109.128h-.843v-3.359A11.536,11.536,0,0,0,216.918,97a12.672,12.672,0,0,0-16.936,0,11.536,11.536,0,0,0-3.907,8.766v3.359h-.843a2.24,2.24,0,0,0-2.24,2.24v2.482a2.24,2.24,0,0,0,2.24,2.24h.847a11.515,11.515,0,0,0,3.9,8.5,12.672,12.672,0,0,0,16.936,0,11.511,11.511,0,0,0,3.9-8.5h.848a2.24,2.24,0,0,0,2.24-2.24v-2.482a2.241,2.241,0,0,0-2.24-2.24Zm0,0" transform="translate(-162.203 -78.8)" fill="#bb5d4c"/>
      <path id="Trazado_1085485" data-name="Trazado 1085485" d="M314.434,121.932h-.843v-3.359a11.536,11.536,0,0,0-3.907-8.766c-.325-.28-.673-.552-1.041-.814l0,21.9a11.515,11.515,0,0,1-3.9,8.5,14.269,14.269,0,0,1-1.372,1.043,13.106,13.106,0,0,0,6.317-3.045,11.515,11.515,0,0,0,3.9-8.5h.848a2.24,2.24,0,0,0,2.24-2.24v-2.482a2.241,2.241,0,0,0-2.24-2.24Zm0,0" transform="translate(-254.969 -91.604)" fill="#a44f3e"/>
      <path id="Trazado_1085486" data-name="Trazado 1085486" d="M212.026,70.328h-1.3a14.254,14.254,0,0,0-14.254,14.254v4.1h29.8v-4.1a14.255,14.255,0,0,0-14.254-14.254Zm0,0" transform="translate(-165.131 -59.108)" fill="#ff9838"/>
      <path id="Trazado_1085487" data-name="Trazado 1085487" d="M277.687,70.328h-1.3a14.383,14.383,0,0,0-1.79.113,14.257,14.257,0,0,1,12.448,14.141v4.1h4.893v-4.1a14.255,14.255,0,0,0-14.254-14.254Zm0,0" transform="translate(-230.792 -59.108)" fill="#ff8709"/>
      <path id="Trazado_1085488" data-name="Trazado 1085488" d="M213.458,176.724H182.739a2.063,2.063,0,1,1,0-4.126h30.719a2.063,2.063,0,0,1,0,4.126Zm0,0" transform="translate(-151.851 -145.062)" fill="#ff8709"/>
      <path id="Trazado_1085489" data-name="Trazado 1085489" d="M152.043,327.246l-14.36-2.793c0,3.671-6.647,6.647-6.647,6.647s-6.647-2.976-6.647-6.647l-14.36,2.793c-5.422,1.6-9.145,4.429-9.145,10.082V349.5a3.679,3.679,0,0,0,3.679,3.679h52.946a3.679,3.679,0,0,0,3.679-3.679v-12.17c0-5.653-3.723-8.485-9.145-10.082Zm0,0" transform="translate(-84.789 -272.691)" fill="#deecf1"/>
      <path id="Trazado_1085490" data-name="Trazado 1085490" d="M438.008,347.836a9.077,9.077,0,0,1,1.735,5.634V372.83h1.107a3.679,3.679,0,0,0,3.679-3.679V356.98c0-4.685-2.559-7.432-6.521-9.144Zm0,0" transform="translate(-368.13 -292.343)" fill="#a8d3d8"/>
      <path id="Trazado_1085491" data-name="Trazado 1085491" d="M219.874,324.453l-5.381,1.046c.32,2.982,2.966,5.679,5.7,7.706a2.356,2.356,0,0,0,2.615.123l3.717-2.229s-6.646-2.976-6.646-6.647Zm0,0" transform="translate(-180.273 -272.691)" fill="#8ebac5"/>
      <path id="Trazado_1085492" data-name="Trazado 1085492" d="M296.53,324.453c0,3.671-6.647,6.647-6.647,6.647l3.717,2.229a2.355,2.355,0,0,0,2.615-.123c2.73-2.028,5.376-4.724,5.7-7.706Zm0,0" transform="translate(-243.636 -272.691)" fill="#8ebac5"/>
      <path id="Trazado_1085493" data-name="Trazado 1085493" d="M145.773,333.438l.8,2.678a49.685,49.685,0,0,1,1.97,13.852v8.724h20.22v-7.225a9.85,9.85,0,0,0-1.795-5.67c-3.353-4.766-10.233-14.783-10.233-14.783l-7.7,1.5a19.4,19.4,0,0,0-3.264.926Zm0,0" transform="translate(-122.517 -278.206)" fill="#ff9838"/>
      <path id="Trazado_1085494" data-name="Trazado 1085494" d="M312.874,333.438l-.8,2.678a49.686,49.686,0,0,0-1.971,13.852v8.724h-20.22v-7.225a9.85,9.85,0,0,1,1.795-5.67c3.353-4.766,10.233-14.783,10.233-14.783l7.7,1.5a19.418,19.418,0,0,1,3.264.926Zm0,0" transform="translate(-243.636 -278.206)" fill="#ff8709"/>
      <path id="Trazado_1085495" data-name="Trazado 1085495" d="M333.332,445.377h-7.037a.849.849,0,0,1-.849-.849v-2.4a.849.849,0,0,1,.849-.849h7.037a.849.849,0,0,1,.849.849v2.4A.849.849,0,0,1,333.332,445.377Zm0,0" transform="translate(-273.525 -370.881)" fill="#fff156"/>
      <path id="Trazado_1085496" data-name="Trazado 1085496" d="M327.028,440.271h-7.037a2.048,2.048,0,0,1-2.046-2.046v-2.4a2.048,2.048,0,0,1,2.046-2.046h7.037a2.048,2.048,0,0,1,2.046,2.046v2.4A2.048,2.048,0,0,1,327.028,440.271Zm-6.69-2.393h6.343v-1.7h-6.343Zm0,0" transform="translate(-267.221 -364.577)"/>
      <path id="Trazado_1085497" data-name="Trazado 1085497" d="M27.8,50.8h-4.79A2.709,2.709,0,0,1,20.3,48.1v-2.67a.359.359,0,0,0-.277-.34,20.28,20.28,0,0,1-4.76-1.977.326.326,0,0,0-.4.039L12.96,45.057a2.707,2.707,0,0,1-3.826,0L5.746,41.67a2.705,2.705,0,0,1,0-3.826l1.906-1.907a.325.325,0,0,0,.039-.4,20.3,20.3,0,0,1-1.977-4.76.359.359,0,0,0-.34-.277H2.706A2.709,2.709,0,0,1,0,27.8v-4.79A2.709,2.709,0,0,1,2.706,20.3h2.67a.358.358,0,0,0,.34-.277,20.3,20.3,0,0,1,1.977-4.76.326.326,0,0,0-.039-.4L5.746,12.96a2.705,2.705,0,0,1,0-3.826L9.133,5.746a2.707,2.707,0,0,1,3.827,0l1.906,1.906a.326.326,0,0,0,.4.039,20.3,20.3,0,0,1,4.759-1.977.358.358,0,0,0,.277-.34V2.706A2.709,2.709,0,0,1,23.007,0H27.8A2.709,2.709,0,0,1,30.5,2.706v2.67a.357.357,0,0,0,.277.339,20.315,20.315,0,0,1,4.759,1.978.327.327,0,0,0,.4-.039l1.906-1.907a2.7,2.7,0,0,1,3.827,0l.358.358A1.2,1.2,0,0,1,40.336,7.8c-.221-.191-.5-.656-.8-.358L37.629,9.345a2.727,2.727,0,0,1-3.281.423,17.933,17.933,0,0,0-4.2-1.744,2.76,2.76,0,0,1-2.041-2.649V2.706a.313.313,0,0,0-.313-.313h-4.79a.313.313,0,0,0-.312.313v2.67a2.76,2.76,0,0,1-2.041,2.649,17.924,17.924,0,0,0-4.2,1.744,2.726,2.726,0,0,1-3.28-.423L11.268,7.439a.312.312,0,0,0-.442,0L7.438,10.826a.312.312,0,0,0,0,.442l1.907,1.907a2.726,2.726,0,0,1,.423,3.28,17.937,17.937,0,0,0-1.744,4.2,2.759,2.759,0,0,1-2.648,2.04H2.706a.313.313,0,0,0-.313.313V27.8a.313.313,0,0,0,.313.313h2.67a2.76,2.76,0,0,1,2.649,2.04,17.887,17.887,0,0,0,1.744,4.2,2.726,2.726,0,0,1-.423,3.28L7.439,39.536a.305.305,0,0,0-.092.221.31.31,0,0,0,.092.221l3.387,3.386a.312.312,0,0,0,.442,0l1.906-1.906a2.727,2.727,0,0,1,3.281-.423,17.922,17.922,0,0,0,4.2,1.744,2.76,2.76,0,0,1,2.041,2.649V48.1a.313.313,0,0,0,.312.313H27.8a.313.313,0,0,0,.313-.313V45.429A2.76,2.76,0,0,1,30.15,42.78a1.2,1.2,0,0,1,.629,2.308.359.359,0,0,0-.277.34V48.1A2.709,2.709,0,0,1,27.8,50.8Zm0,0"/>
      <path id="Trazado_1085498" data-name="Trazado 1085498" d="M88.535,99.769a11.292,11.292,0,0,1,15.287-10.543,1.2,1.2,0,0,1-.853,2.237,8.885,8.885,0,1,0-2.627,17.175,1.2,1.2,0,0,1,.141,2.389A11.29,11.29,0,0,1,88.535,99.769Zm0,0" transform="translate(-74.411 -74.367)"/>
      <path id="Trazado_1085499" data-name="Trazado 1085499" d="M144.7,105.939l-12.124-2.358v-3a12.655,12.655,0,0,0,5.649-9.306,3.441,3.441,0,0,0,3.162-3.425V85.4a3.263,3.263,0,0,0-.556-6.166V78.28a15.452,15.452,0,0,0-15.451-15.451h-1.3a15.451,15.451,0,0,0-15.451,15.451v.95a3.263,3.263,0,0,0-.556,6.166v2.459a3.441,3.441,0,0,0,3.162,3.425,12.621,12.621,0,0,0,4.244,8.225,15.725,15.725,0,0,0,1.405,1.081v3l-12.124,2.358c-6.4,1.244-11.382,4.85-11.382,11.5v12.17a4.876,4.876,0,0,0,4.876,4.876h52.946a4.876,4.876,0,0,0,4.876-4.876v-12.17c0-6.631-4.955-10.253-11.382-11.5Zm-9.959.5c-.869,1.263-2.2,3.191-3.631,5.268a1.741,1.741,0,0,1-2.043.709l-1.89-1.134c1.843-1.089,4.394-2.958,5.168-5.31Zm-10.008,3.448c-1.817-.915-5.44-3.175-5.45-5.311v-2.67a13.74,13.74,0,0,0,10.9,0v2.66c0,2.14-3.631,4.405-5.45,5.321ZM111.03,78.279a13.067,13.067,0,0,1,6.736-11.423v1.5a1.2,1.2,0,0,0,2.393,0V65.825a12.973,12.973,0,0,1,3.38-.592V71.15a1.2,1.2,0,0,0,2.393,0V65.233a12.978,12.978,0,0,1,3.38.592v2.531a1.2,1.2,0,0,0,2.393,0v-1.5a13.067,13.067,0,0,1,6.736,11.423v.865H111.03Zm-1.654,3.258h30.719a.867.867,0,0,1,0,1.733H109.376A.867.867,0,0,1,109.376,81.537Zm4.184,8.531a1.2,1.2,0,0,0-1.2-1.171c-.2-.049-1.89.311-1.89-1.043V85.664H139v2.191c0,1.351-1.736,1-1.89,1.043a1.2,1.2,0,0,0-1.2,1.171,10.318,10.318,0,0,1-3.487,7.623,11.487,11.487,0,0,1-15.375,0,10.317,10.317,0,0,1-3.488-7.623Zm3.564,15.906c.775,2.351,3.325,4.221,5.169,5.31-1.895,1.015-1.761,1.318-2.621,1.216a1.887,1.887,0,0,1-1.322-.806c-1.431-2.071-2.755-3.994-3.622-5.254Zm-13.806,26.121H98.262a2.483,2.483,0,0,1-2.483-2.483v-12.17c0-3.586,1.629-6.065,5.2-7.777a49.214,49.214,0,0,1,2.337,14.9Zm20.22,0H105.711v-7.528a50.21,50.21,0,0,0-2.5-15.793c1.4-.464.36-.107,8.953-1.837,2.47,3.589,7.079,10.285,9.8,14.147a8.611,8.611,0,0,1,1.577,4.982Zm1.2-11.032a11.262,11.262,0,0,0-.816-1.354c-.919-1.3-2.111-3.018-3.355-4.813a3.586,3.586,0,0,0,1.069-.426l3.1-1.86,3.1,1.86a3.58,3.58,0,0,0,1.069.426c-1.244,1.794-2.436,3.507-3.355,4.813a11.188,11.188,0,0,0-.816,1.354Zm28.956,8.55a2.483,2.483,0,0,1-2.483,2.483h-5.057V127.58a1.2,1.2,0,0,0-2.393,0v4.514H125.932v-6.028a8.612,8.612,0,0,1,1.577-4.981c1.546-2.2,7.909-11.379,9.8-14.148,8.589,1.729,7.553,1.372,8.952,1.837a52.181,52.181,0,0,0-2.465,13.971,1.2,1.2,0,0,0,2.391.086,47.854,47.854,0,0,1,2.306-13.167c3.573,1.713,5.2,4.192,5.2,7.777Zm0,0" transform="translate(-78.488 -52.805)"/>
    </g>
  </g>
</svg>
