<svg xmlns="http://www.w3.org/2000/svg" xmlns:xlink="http://www.w3.org/1999/xlink" width="112.208" height="105.627" viewBox="0 0 112.208 105.627">
  <defs>
    <clipPath id="clip-path">
      <rect id="Rectángulo_421337" data-name="Rectángulo 421337" width="112.208" height="105.627" transform="translate(1239 6855.732)" fill="#fff" stroke="#707070" stroke-width="1" opacity="0.81"/>
    </clipPath>
  </defs>
  <g id="Enmascarar_grupo_1211471" data-name="Enmascarar grupo 1211471" transform="translate(-1239 -6855.732)" clip-path="url(#clip-path)">
    <g id="Grupo_1218032" data-name="Grupo 1218032" transform="translate(1239.85 6855.732)">
      <rect id="Rectángulo_421334" data-name="Rectángulo 421334" width="77.351" height="120.078" fill="#fc3"/>
      <g id="automation_7760662" transform="translate(0 9.586)">
        <g id="Grupo_1218028" data-name="Grupo 1218028">
          <rect id="Rectángulo_421335" data-name="Rectángulo 421335" width="18.299" height="13.176" transform="translate(4.772 75.754)" fill="#62dbfb"/>
          <rect id="Rectángulo_421336" data-name="Rectángulo 421336" width="18.858" height="6.643" transform="translate(61.129 79.431) rotate(-18.276)" fill="#62dbfb"/>
          <path id="Trazado_1084529" data-name="Trazado 1084529" d="M103.729,298.8l8.955,7.571L125.852,290.8a5.863,5.863,0,0,0-8.955-7.571Z" transform="translate(-83.75 -228.366)" fill="#62dbfb"/>
          <path id="Trazado_1084530" data-name="Trazado 1084530" d="M147.094,282.593a5.837,5.837,0,0,0-3.368-1.37,5.863,5.863,0,0,1,.155,7.745L131.41,303.72l3.208,2.712,13.168-15.576A5.863,5.863,0,0,0,147.094,282.593Z" transform="translate(-105.684 -228.426)" fill="#01c0fa"/>
          <path id="Trazado_1084531" data-name="Trazado 1084531" d="M377.5,340.595l8.933-11.339a5.311,5.311,0,0,0-8.344-6.574l-7.635,9.692a1.383,1.383,0,0,0-.043,1.654l4.6,6.5A1.553,1.553,0,0,0,377.5,340.595Z" transform="translate(-294.863 -259.673)" fill="#eaf6ff"/>
          <path id="Trazado_1084532" data-name="Trazado 1084532" d="M400.436,321.8a5.286,5.286,0,0,0-3.291-1.138,5.311,5.311,0,0,1,.663,7.274l-8.862,11.249.955,1.35a1.553,1.553,0,0,0,2.487.064l8.933-11.339A5.311,5.311,0,0,0,400.436,321.8Z" transform="translate(-309.75 -259.679)" fill="#d5e3f4"/>
          <path id="Trazado_1084533" data-name="Trazado 1084533" d="M251.656,388.458v12.929h13.657a1.5,1.5,0,0,0,1.5-1.5v-9.928a1.5,1.5,0,0,0-1.5-1.5H251.656Z" transform="translate(-200.964 -313.397)" fill="#528fd8"/>
          <path id="Trazado_1084534" data-name="Trazado 1084534" d="M301.586,388.458h-4.152a1.5,1.5,0,0,1,1.5,1.5v9.928a1.5,1.5,0,0,1-1.5,1.5h4.152a1.5,1.5,0,0,0,1.5-1.5v-9.928A1.5,1.5,0,0,0,301.586,388.458Z" transform="translate(-237.237 -313.397)" fill="#0473ce"/>
          <path id="Trazado_1084535" data-name="Trazado 1084535" d="M87.243,369.42l34.749-2.906a4.286,4.286,0,0,0,3.929-4.271V348.736a2.143,2.143,0,0,0-2.143-2.143H104.363a3.834,3.834,0,0,1-2.391-.837l-6.538-5.217A6.475,6.475,0,0,0,84.921,345.6v21.684A2.143,2.143,0,0,0,87.243,369.42Z" transform="translate(-68.847 -274.307)" fill="#eaf6ff"/>
          <path id="Trazado_1084536" data-name="Trazado 1084536" d="M256.222,375.092H252.07a2.143,2.143,0,0,1,2.143,2.143v14.544a4.28,4.28,0,0,1-1.668,3.391l1.892-.158a4.286,4.286,0,0,0,3.929-4.271V377.235A2.143,2.143,0,0,0,256.222,375.092Z" transform="translate(-201.292 -302.806)" fill="#d5e3f4"/>
          <path id="Trazado_1084537" data-name="Trazado 1084537" d="M16.993,367.688v18.34a3.058,3.058,0,0,1-3.058,3.058H8.572A1.072,1.072,0,0,1,7.5,388.015V365.7a1.072,1.072,0,0,1,1.072-1.072h5.364A3.058,3.058,0,0,1,16.993,367.688Z" transform="translate(-7.5 -294.516)" fill="#eaf6ff"/>
          <path id="Trazado_1084538" data-name="Trazado 1084538" d="M22.647,364.63H18.495a3.058,3.058,0,0,1,3.058,3.058v18.34a3.058,3.058,0,0,1-3.058,3.058h4.152a3.058,3.058,0,0,0,3.058-3.058v-18.34A3.058,3.058,0,0,0,22.647,364.63Z" transform="translate(-16.212 -294.516)" fill="#d5e3f4"/>
          <path id="Trazado_1084539" data-name="Trazado 1084539" d="M263.9,179.97v18.27a.677.677,0,0,0,.677.677h18.27a.677.677,0,0,0,.677-.677V179.97a.677.677,0,0,0-.677-.677h-18.27A.677.677,0,0,0,263.9,179.97Z" transform="translate(-210.664 -147.659)" fill="#62dbfb"/>
          <path id="Trazado_1084540" data-name="Trazado 1084540" d="M339.307,179.293h-4.152a.677.677,0,0,1,.677.677v18.27a.677.677,0,0,1-.677.677h4.152a.677.677,0,0,0,.677-.677V179.97A.677.677,0,0,0,339.307,179.293Z" transform="translate(-267.127 -147.659)" fill="#01c0fa"/>
          <path id="Trazado_1084541" data-name="Trazado 1084541" d="M293.158,209.175V215.4a.623.623,0,0,0,.623.623h6.229a.623.623,0,0,0,.623-.623v-6.229a.623.623,0,0,0-.623-.623h-6.229A.623.623,0,0,0,293.158,209.175Z" transform="translate(-233.849 -170.843)" fill="#528fd8"/>
          <path id="Trazado_1084542" data-name="Trazado 1084542" d="M134.742,71.949a23.719,23.719,0,1,1,46.43.007,1.084,1.084,0,0,0,1.065,1.3h14.558a1.305,1.305,0,0,0,1.305-1.305V62.19a1.305,1.305,0,0,0-1.305-1.305h-5.551a.653.653,0,0,1-.639-.526,33.136,33.136,0,0,0-4.818-11.625.653.653,0,0,1,.08-.823l3.927-3.927a1.305,1.305,0,0,0,0-1.846l-6.9-6.9a1.305,1.305,0,0,0-1.846,0l-3.927,3.927a.653.653,0,0,1-.823.08,33.136,33.136,0,0,0-11.625-4.818.653.653,0,0,1-.526-.639V28.234a1.305,1.305,0,0,0-1.305-1.305h-9.762a1.305,1.305,0,0,0-1.305,1.305v5.551a.653.653,0,0,1-.526.639,33.136,33.136,0,0,0-11.625,4.818.653.653,0,0,1-.823-.08l-3.927-3.927a1.305,1.305,0,0,0-1.846,0l-6.9,6.9a1.305,1.305,0,0,0,0,1.846l3.927,3.927a.653.653,0,0,1,.08.823,33.132,33.132,0,0,0-4.818,11.625.653.653,0,0,1-.639.526H119.12a1.305,1.305,0,0,0-1.305,1.305v9.762a1.305,1.305,0,0,0,1.305,1.305h14.558A1.085,1.085,0,0,0,134.742,71.949Z" transform="translate(-94.911 -26.929)" fill="#7ca1b1"/>
          <path id="Trazado_1084543" data-name="Trazado 1084543" d="M352.776,60.885h-5.551a.653.653,0,0,1-.639-.526,33.133,33.133,0,0,0-4.818-11.625.653.653,0,0,1,.08-.823l3.927-3.927a1.305,1.305,0,0,0,0-1.846l-6.9-6.9a1.305,1.305,0,0,0-1.846,0L333.1,39.161a.653.653,0,0,1-.823.08,33.132,33.132,0,0,0-11.626-4.818.653.653,0,0,1-.526-.639V28.234a1.3,1.3,0,0,0-1.305-1.305h-4.152a1.305,1.305,0,0,1,1.3,1.305v7.7a2.186,2.186,0,0,0,1.881,2.174A29.243,29.243,0,0,1,342.5,73.257h10.272a1.305,1.305,0,0,0,1.305-1.305V62.19A1.3,1.3,0,0,0,352.776,60.885Z" transform="translate(-250.893 -26.929)" fill="#678d98"/>
        </g>
        <g id="Grupo_1218031" data-name="Grupo 1218031">
          <line id="Línea_651" data-name="Línea 651" x1="6.582" transform="translate(9.492 75.755)" fill="none" stroke="#000" stroke-linecap="round" stroke-linejoin="round" stroke-miterlimit="10" stroke-width="4"/>
          <line id="Línea_652" data-name="Línea 652" x1="6.582" transform="translate(9.492 88.931)" fill="none" stroke="#000" stroke-linecap="round" stroke-linejoin="round" stroke-miterlimit="10" stroke-width="4"/>
          <line id="Línea_653" data-name="Línea 653" x1="13.894" y2="4.588" transform="translate(65.849 80.279)" fill="none" stroke="#000" stroke-linecap="round" stroke-linejoin="round" stroke-miterlimit="10" stroke-width="4"/>
          <line id="Línea_654" data-name="Línea 654" x1="9.879" y2="3.262" transform="translate(65.849 74.607)" fill="none" stroke="#000" stroke-linecap="round" stroke-linejoin="round" stroke-miterlimit="10" stroke-width="4"/>
          <path id="Trazado_1084544" data-name="Trazado 1084544" d="M125.4,293.481l8.668-10.254a5.863,5.863,0,1,1,8.955,7.57l-8.076,9.553" transform="translate(-100.921 -228.366)" fill="none" stroke="#000" stroke-linecap="round" stroke-linejoin="round" stroke-miterlimit="10" stroke-width="4"/>
          <path id="Trazado_1084545" data-name="Trazado 1084545" d="M385.984,329.83l.452-.573a5.311,5.311,0,0,0-8.344-6.574l-7.635,9.692a1.383,1.383,0,0,0-.043,1.654l4.6,6.5a1.553,1.553,0,0,0,2.487.064l3.985-5.059" transform="translate(-294.864 -259.674)" fill="none" stroke="#000" stroke-linecap="round" stroke-linejoin="round" stroke-miterlimit="10" stroke-width="4"/>
          <path id="Trazado_1084546" data-name="Trazado 1084546" d="M282.382,388.46h7.275a1.5,1.5,0,0,1,1.5,1.5v9.928a1.5,1.5,0,0,1-1.5,1.5H282.38" transform="translate(-225.309 -313.398)" fill="none" stroke="#000" stroke-linecap="round" stroke-linejoin="round" stroke-miterlimit="10" stroke-width="4"/>
          <path id="Trazado_1084547" data-name="Trazado 1084547" d="M87.243,369.42l34.749-2.906a4.286,4.286,0,0,0,3.929-4.271V348.736a2.143,2.143,0,0,0-2.143-2.143H104.363a3.834,3.834,0,0,1-2.391-.837l-6.538-5.217A6.475,6.475,0,0,0,84.921,345.6v21.684A2.143,2.143,0,0,0,87.243,369.42Z" transform="translate(-68.847 -274.307)" fill="none" stroke="#000" stroke-linecap="round" stroke-linejoin="round" stroke-miterlimit="10" stroke-width="4"/>
          <path id="Trazado_1084548" data-name="Trazado 1084548" d="M16.993,367.688v18.34a3.058,3.058,0,0,1-3.058,3.058H8.572A1.072,1.072,0,0,1,7.5,388.015V365.7a1.072,1.072,0,0,1,1.072-1.072h5.364A3.058,3.058,0,0,1,16.993,367.688Z" transform="translate(-7.5 -294.516)" fill="none" stroke="#000" stroke-linecap="round" stroke-linejoin="round" stroke-miterlimit="10" stroke-width="4"/>
          <g id="Grupo_1218029" data-name="Grupo 1218029" transform="translate(48.438 35.19)">
            <line id="Línea_655" data-name="Línea 655" x1="4.794" transform="translate(24.42)" fill="none" stroke="#000" stroke-linecap="round" stroke-linejoin="round" stroke-miterlimit="10" stroke-width="4"/>
            <line id="Línea_656" data-name="Línea 656" x1="4.796" fill="none" stroke="#000" stroke-linecap="round" stroke-linejoin="round" stroke-miterlimit="10" stroke-width="4"/>
            <line id="Línea_657" data-name="Línea 657" x1="4.794" transform="translate(24.42 6.256)" fill="none" stroke="#000" stroke-linecap="round" stroke-linejoin="round" stroke-miterlimit="10" stroke-width="4"/>
            <line id="Línea_658" data-name="Línea 658" x1="4.796" transform="translate(0 6.256)" fill="none" stroke="#000" stroke-linecap="round" stroke-linejoin="round" stroke-miterlimit="10" stroke-width="4"/>
            <line id="Línea_659" data-name="Línea 659" x1="4.794" transform="translate(24.42 12.513)" fill="none" stroke="#000" stroke-linecap="round" stroke-linejoin="round" stroke-miterlimit="10" stroke-width="4"/>
            <line id="Línea_660" data-name="Línea 660" x1="4.796" transform="translate(0 12.513)" fill="none" stroke="#000" stroke-linecap="round" stroke-linejoin="round" stroke-miterlimit="10" stroke-width="4"/>
          </g>
          <g id="Grupo_1218030" data-name="Grupo 1218030" transform="translate(56.789 26.839)">
            <line id="Línea_661" data-name="Línea 661" y1="4.796" transform="translate(12.513 24.418)" fill="none" stroke="#000" stroke-linecap="round" stroke-linejoin="round" stroke-miterlimit="10" stroke-width="4"/>
            <line id="Línea_662" data-name="Línea 662" y1="4.794" transform="translate(12.513)" fill="none" stroke="#000" stroke-linecap="round" stroke-linejoin="round" stroke-miterlimit="10" stroke-width="4"/>
            <line id="Línea_663" data-name="Línea 663" y1="4.796" transform="translate(6.258 24.418)" fill="none" stroke="#000" stroke-linecap="round" stroke-linejoin="round" stroke-miterlimit="10" stroke-width="4"/>
            <line id="Línea_664" data-name="Línea 664" y1="4.794" transform="translate(6.258)" fill="none" stroke="#000" stroke-linecap="round" stroke-linejoin="round" stroke-miterlimit="10" stroke-width="4"/>
            <line id="Línea_665" data-name="Línea 665" y1="4.796" transform="translate(0 24.418)" fill="none" stroke="#000" stroke-linecap="round" stroke-linejoin="round" stroke-miterlimit="10" stroke-width="4"/>
            <line id="Línea_666" data-name="Línea 666" y1="4.794" fill="none" stroke="#000" stroke-linecap="round" stroke-linejoin="round" stroke-miterlimit="10" stroke-width="4"/>
          </g>
          <path id="Trazado_1084549" data-name="Trazado 1084549" d="M263.9,179.97v18.27a.677.677,0,0,0,.677.677h18.27a.677.677,0,0,0,.677-.677V179.97a.677.677,0,0,0-.677-.677h-18.27A.677.677,0,0,0,263.9,179.97Z" transform="translate(-210.664 -147.659)" fill="none" stroke="#000" stroke-linecap="round" stroke-linejoin="round" stroke-miterlimit="10" stroke-width="4"/>
          <path id="Trazado_1084550" data-name="Trazado 1084550" d="M293.158,209.175V215.4a.623.623,0,0,0,.623.623h6.229a.623.623,0,0,0,.623-.623v-6.229a.623.623,0,0,0-.623-.623h-6.229A.623.623,0,0,0,293.158,209.175Z" transform="translate(-233.849 -170.843)" fill="none" stroke="#000" stroke-linecap="round" stroke-linejoin="round" stroke-miterlimit="10" stroke-width="4"/>
          <path id="Trazado_1084551" data-name="Trazado 1084551" d="M145.082,47.168a23.7,23.7,0,0,1,36.6,19.9,23.784,23.784,0,0,1-.505,4.885,1.084,1.084,0,0,0,1.065,1.3h14.558a1.305,1.305,0,0,0,1.305-1.305V62.19a1.305,1.305,0,0,0-1.305-1.305h-5.551a.653.653,0,0,1-.639-.526,33.136,33.136,0,0,0-4.818-11.625.653.653,0,0,1,.08-.823l3.927-3.927a1.305,1.305,0,0,0,0-1.846l-6.9-6.9a1.305,1.305,0,0,0-1.846,0l-3.927,3.927a.653.653,0,0,1-.823.08,33.136,33.136,0,0,0-11.625-4.818.653.653,0,0,1-.526-.639V28.234a1.305,1.305,0,0,0-1.305-1.305h-9.762a1.305,1.305,0,0,0-1.305,1.305v5.551a.653.653,0,0,1-.526.639,33.136,33.136,0,0,0-11.625,4.818.653.653,0,0,1-.823-.08l-3.927-3.927a1.305,1.305,0,0,0-1.846,0l-6.9,6.9a1.305,1.305,0,0,0,0,1.846l3.927,3.927a.653.653,0,0,1,.08.823,33.133,33.133,0,0,0-4.818,11.625.653.653,0,0,1-.639.526h-5.551a1.305,1.305,0,0,0-1.305,1.305v9.762a1.305,1.305,0,0,0,1.305,1.305h14.558a1.086,1.086,0,0,0,1.063-1.308,23.85,23.85,0,0,1-.479-5.982,23.577,23.577,0,0,1,5.408-13.975" transform="translate(-94.912 -26.929)" fill="none" stroke="#000" stroke-linecap="round" stroke-linejoin="round" stroke-miterlimit="10" stroke-width="4"/>
        </g>
      </g>
    </g>
  </g>
</svg>
