<svg xmlns="http://www.w3.org/2000/svg" width="84.271" height="105.531" viewBox="0 0 84.271 105.531">
  <g id="Grupo_1218643" data-name="Grupo 1218643" transform="translate(-9.71)">
    <rect id="Rectángulo_422062" data-name="Rectángulo 422062" width="69.711" height="105.532" transform="translate(9.71)" fill="#fc3"/>
    <g id="Page-1" transform="translate(12.735 15.753)">
      <g id="_004---CPU-Speed" data-name="004---CPU-Speed" transform="translate(0 0)">
        <g id="Icons" transform="translate(1.354 1.356)">
          <path id="Shape" d="M54.736,43.926V61.674a4.061,4.061,0,0,1-4.061,4.061H10.061A4.061,4.061,0,0,1,6,61.674V21.061A4.061,4.061,0,0,1,10.061,17H27.809a25.52,25.52,0,0,0-.149,2.708A24.368,24.368,0,0,0,52.028,44.075,25.519,25.519,0,0,0,54.736,43.926Z" transform="translate(2.123 4.679)" fill="#60a917"/>
          <path id="Shape-2" data-name="Shape" d="M41.415,37.039c-.458,0-.9-.043-1.354-.069V54.638A4.061,4.061,0,0,1,36,58.7h4.061a4.061,4.061,0,0,0,4.061-4.061V36.89A25.518,25.518,0,0,1,41.415,37.039Z" transform="translate(12.736 11.715)" fill="#549414"/>
          <path id="Shape-3" data-name="Shape" d="M47.906,42.511V58.906H10V21H26.394A24.38,24.38,0,0,0,47.906,42.511Z" transform="translate(3.538 6.094)" fill="#a4c400"/>
          <path id="Shape-4" data-name="Shape" d="M23.171,21H19.11A24.38,24.38,0,0,0,40.621,42.511V58.906h4.061V42.511A24.38,24.38,0,0,1,23.171,21Z" transform="translate(6.761 6.094)" fill="#90ac00"/>
          <g id="Grupo_1218641" data-name="Grupo 1218641" transform="translate(0 13.556)">
            <path id="Shape-5" data-name="Shape" d="M12.708,11a2.708,2.708,0,0,1,2.708,2.708v5.415H10V13.708A2.708,2.708,0,0,1,12.708,11Z" transform="translate(3.538 -11)" fill="#ffdf00"/>
            <path id="Shape-6" data-name="Shape" d="M20.708,11a2.708,2.708,0,0,1,2.708,2.708v5.415H18V13.708A2.708,2.708,0,0,1,20.708,11Z" transform="translate(6.368 -11)" fill="#ffdf00"/>
            <path id="Shape-7" data-name="Shape" d="M10,53h5.415v5.415a2.708,2.708,0,1,1-5.415,0Z" transform="translate(3.538 3.858)" fill="#ffdf00"/>
            <path id="Shape-8" data-name="Shape" d="M18,53h5.415v5.415a2.708,2.708,0,1,1-5.415,0Z" transform="translate(6.368 3.858)" fill="#ffdf00"/>
            <path id="Shape-9" data-name="Shape" d="M26,53h5.415v5.415a2.708,2.708,0,1,1-5.415,0Z" transform="translate(9.198 3.858)" fill="#ffdf00"/>
            <path id="Shape-10" data-name="Shape" d="M34,53h5.415v5.415a2.708,2.708,0,1,1-5.415,0Z" transform="translate(12.028 3.858)" fill="#ffdf00"/>
            <path id="Shape-11" data-name="Shape" d="M0,0H5.415V5.415A2.708,2.708,0,1,1,0,5.415Z" transform="translate(56.858 51.443) rotate(-90)" fill="#ffdf00"/>
            <path id="Shape-12" data-name="Shape" d="M0,0H5.415V5.415A2.708,2.708,0,1,1,0,5.415Z" transform="translate(56.858 40.613) rotate(-90)" fill="#ffdf00"/>
            <path id="Shape-13" data-name="Shape" d="M0,0H5.415V5.415A2.708,2.708,0,1,1,0,5.415Z" transform="translate(8.123 13.538) rotate(90)" fill="#ffdf00"/>
            <path id="Shape-14" data-name="Shape" d="M0,0H5.415V5.415A2.708,2.708,0,1,1,0,5.415Z" transform="translate(8.123 24.368) rotate(90)" fill="#ffdf00"/>
            <path id="Shape-15" data-name="Shape" d="M0,0H5.415V5.415A2.708,2.708,0,0,1,0,5.415Z" transform="translate(8.123 35.198) rotate(90)" fill="#ffdf00"/>
            <path id="Shape-16" data-name="Shape" d="M0,0H5.415V5.415A2.708,2.708,0,0,1,0,5.415Z" transform="translate(8.123 46.028) rotate(90)" fill="#ffdf00"/>
          </g>
          <path id="Shape-17" data-name="Shape" d="M70.736,25.373a24.381,24.381,0,0,1-21.66,24.219,24.689,24.689,0,0,1-5.415,0A24.38,24.38,0,0,1,22.149,28.08a24.689,24.689,0,0,1,0-5.415,24.368,24.368,0,0,1,48.587,2.708Z" transform="translate(7.783 -0.986)" fill="#02a9f4"/>
          <path id="Shape-18" data-name="Shape" d="M40.549,1c-.709,0-1.408.039-2.1.1A24.358,24.358,0,0,1,39.2,49.587c-.225.024-.451.037-.677.056.67.056,1.342.093,2.031.093a25.517,25.517,0,0,0,2.708-.149A24.368,24.368,0,0,0,40.549,1Z" transform="translate(13.601 -0.982)" fill="#0377bc"/>
          <circle id="Oval" cx="4.061" cy="4.061" r="4.061" transform="translate(50.089 20.325)" fill="#f44335"/>
        </g>
        <g id="Icons_copy">
          <path id="Shape-19" data-name="Shape" d="M15.354,31.769A1.354,1.354,0,0,1,14,30.415V26.354A1.354,1.354,0,0,1,15.354,25h4.061a1.354,1.354,0,0,1,0,2.708H16.708v2.708A1.354,1.354,0,0,1,15.354,31.769Z" transform="translate(4.953 7.511)" fill="#f5f5f5"/>
          <g id="Grupo_1218642" data-name="Grupo 1218642">
            <path id="Shape-20" data-name="Shape" d="M4.061,60.571a4.061,4.061,0,0,0,0,8.123H8.123a5.415,5.415,0,0,0,5.415,5.415V78.17a4.061,4.061,0,0,0,8.123,0V74.109h2.708V78.17a4.061,4.061,0,0,0,8.123,0V74.109H35.2V78.17a4.061,4.061,0,0,0,8.123,0V74.109h2.708V78.17a4.061,4.061,0,0,0,8.123,0V74.109a5.415,5.415,0,0,0,5.415-5.415h4.061a4.061,4.061,0,0,0,0-8.123H59.566V57.864h4.061A4.049,4.049,0,0,0,65.7,50.33a25.722,25.722,0,1,0-33.8-33.8A4.049,4.049,0,0,0,24.368,18.6v4.061H21.66V18.6a4.061,4.061,0,1,0-8.123,0v4.061a5.415,5.415,0,0,0-5.415,5.415H4.061a4.061,4.061,0,1,0,0,8.123H8.123v2.708H4.061a4.061,4.061,0,1,0,0,8.123H8.123v2.708H4.061a4.061,4.061,0,0,0,0,8.123H8.123v2.708Zm0,5.415a1.354,1.354,0,1,1,0-2.708H8.123v2.708ZM18.953,78.17a1.354,1.354,0,0,1-2.708,0V74.109h2.708Zm10.83,0a1.354,1.354,0,0,1-2.708,0V74.109h2.708Zm10.83,0a1.354,1.354,0,0,1-2.708,0V74.109h2.708Zm10.83,0a1.354,1.354,0,0,1-2.708,0V74.109h2.708ZM63.627,63.279a1.354,1.354,0,1,1,0,2.708H59.566V63.279Zm0-8.123H59.566V52.449h4.061a1.354,1.354,0,1,1,0,2.708ZM55.5,3.713A23.014,23.014,0,1,1,32.49,26.727,23.014,23.014,0,0,1,55.5,3.713ZM51.443,52.1V65.986h-35.2v-35.2H30.136A25.738,25.738,0,0,0,51.443,52.1ZM27.075,18.6a1.354,1.354,0,0,1,2.708,0v4.061H27.075Zm-10.83,0a1.354,1.354,0,0,1,2.708,0v4.061H16.245ZM10.83,28.081a2.708,2.708,0,0,1,2.708-2.708H29.852c-.024.451-.069.9-.069,1.354s.045.9.069,1.354H14.891a1.354,1.354,0,0,0-1.354,1.354V67.34a1.354,1.354,0,0,0,1.354,1.354H52.8a1.354,1.354,0,0,0,1.354-1.354V52.379c.451.024.9.069,1.354.069s.9-.045,1.354-.069V68.694A2.708,2.708,0,0,1,54.151,71.4H13.538a2.708,2.708,0,0,1-2.708-2.708ZM4.061,33.5a1.354,1.354,0,1,1,0-2.708H8.123V33.5Zm0,10.83a1.354,1.354,0,1,1,0-2.708H8.123v2.708Zm0,10.83a1.354,1.354,0,1,1,0-2.708H8.123v2.708Z" transform="translate(0 -0.985)"/>
            <path id="Shape-21" data-name="Shape" d="M31.946,39.663a1.353,1.353,0,0,0,1.916,0l2.871-2.871a1.354,1.354,0,1,0-1.914-1.914l-1.878,1.878a17.484,17.484,0,0,1-4.174-10.1h2.648a1.354,1.354,0,0,0,0-2.708H28.777a17.5,17.5,0,0,1,4.179-10.082l1.864,1.863a1.354,1.354,0,1,0,1.914-1.914l-1.863-1.864A17.5,17.5,0,0,1,44.953,7.777v2.638a1.354,1.354,0,1,0,2.708,0V7.777a17.5,17.5,0,0,1,10.082,4.179L55.879,13.82a1.354,1.354,0,1,0,1.914,1.914l1.864-1.863a17.5,17.5,0,0,1,4.179,10.082H61.2a1.354,1.354,0,1,0,0,2.708h2.648a17.484,17.484,0,0,1-4.175,10.1l-1.878-1.878a1.354,1.354,0,1,0-1.914,1.914l2.873,2.873a1.35,1.35,0,0,0,1.914,0,20.307,20.307,0,1,0-28.722,0Z" transform="translate(9.198 0.435)"/>
            <path id="Shape-22" data-name="Shape" d="M48.438,10.134a1.354,1.354,0,0,0-1.8.636L43.1,18.189a5.1,5.1,0,0,0-.663-.068,5.464,5.464,0,1,0,3.188,1.061l3.445-7.248a1.354,1.354,0,0,0-.636-1.8Zm-6,16.11a2.708,2.708,0,1,1,2.708-2.708A2.708,2.708,0,0,1,42.441,26.244Z" transform="translate(13.064 2.205)"/>
          </g>
        </g>
      </g>
    </g>
  </g>
</svg>
