<svg xmlns="http://www.w3.org/2000/svg" xmlns:xlink="http://www.w3.org/1999/xlink" width="113" height="113" viewBox="0 0 113 113">
  <defs>
    <filter id="Trazado_982547" x="0" y="0" width="113" height="113" filterUnits="userSpaceOnUse">
      <feOffset dy="3" input="SourceAlpha"/>
      <feGaussianBlur stdDeviation="3" result="blur"/>
      <feFlood flood-opacity="0.161"/>
      <feComposite operator="in" in2="blur"/>
      <feComposite in="SourceGraphic"/>
    </filter>
  </defs>
  <g id="Grupo_1218697" data-name="Grupo 1218697" transform="translate(-271 -4880.914)">
    <g id="Grupo_1215811" data-name="Grupo 1215811" transform="translate(0.001 -4594)">
      <g id="Grupo_1210956" data-name="Grupo 1210956" transform="translate(279.999 9480.914)">
        <g id="Grupo_1209935" data-name="Grupo 1209935">
          <g id="Grupo_1208705" data-name="Grupo 1208705">
            <g id="Grupo_1148633" data-name="Grupo 1148633">
              <g id="Grupo_1148525" data-name="Grupo 1148525">
                <g transform="matrix(1, 0, 0, 1, -9, -6)" filter="url(#Trazado_982547)">
                  <g id="Trazado_982547-2" data-name="Trazado 982547" transform="translate(9 6)" fill="#ffefc0">
                    <path d="M 47.5 93.5 C 41.28937149047852 93.5 35.26533508300781 92.28397369384766 29.59518623352051 89.88570404052734 C 24.11771965026855 87.56893157958984 19.19813346862793 84.25196075439453 14.97309303283691 80.02691650390625 C 10.74804019927979 75.80186462402344 7.431066513061523 70.88229370117188 5.114293098449707 65.40481567382812 C 2.716026782989502 59.73468017578125 1.5 53.71062850952148 1.5 47.5 C 1.5 41.28937149047852 2.716026782989502 35.26533508300781 5.114293098449707 29.59518623352051 C 7.431066513061523 24.11771965026855 10.74804019927979 19.19813346862793 14.97309303283691 14.97309303283691 C 19.19813346862793 10.74804019927979 24.11771965026855 7.431066513061523 29.59518623352051 5.114293098449707 C 35.26533508300781 2.716026782989502 41.28937149047852 1.5 47.5 1.5 C 53.71062850952148 1.5 59.73468017578125 2.716026782989502 65.40481567382812 5.114293098449707 C 70.88229370117188 7.431066513061523 75.80186462402344 10.74804019927979 80.02691650390625 14.97309303283691 C 84.25196075439453 19.19813346862793 87.56893157958984 24.11771965026855 89.88570404052734 29.59518623352051 C 92.28397369384766 35.26533508300781 93.5 41.28937149047852 93.5 47.5 C 93.5 53.71062850952148 92.28397369384766 59.73468017578125 89.88570404052734 65.40481567382812 C 87.56893157958984 70.88229370117188 84.25196075439453 75.80186462402344 80.02691650390625 80.02691650390625 C 75.80186462402344 84.25196075439453 70.88229370117188 87.56893157958984 65.40481567382812 89.88570404052734 C 59.73468017578125 92.28397369384766 53.71062850952148 93.5 47.5 93.5 Z" stroke="none"/>
                    <path d="M 47.5 3 C 41.49121475219727 3 35.66376876831055 4.176155090332031 30.17950439453125 6.495796203613281 C 24.88084411621094 8.736953735351562 20.12152099609375 11.94598388671875 16.03375244140625 16.03375244140625 C 11.94598388671875 20.12152099609375 8.736953735351562 24.88084411621094 6.495796203613281 30.17950439453125 C 4.176155090332031 35.66376876831055 3 41.49121475219727 3 47.5 C 3 53.50878524780273 4.176155090332031 59.33623123168945 6.495796203613281 64.82049560546875 C 8.736953735351562 70.11915588378906 11.94598388671875 74.87847900390625 16.03375244140625 78.96624755859375 C 20.12152099609375 83.05401611328125 24.88084411621094 86.26304626464844 30.17950439453125 88.50419616699219 C 35.66376876831055 90.82384490966797 41.49121475219727 92 47.5 92 C 53.50878524780273 92 59.33623123168945 90.82384490966797 64.82049560546875 88.50419616699219 C 70.11915588378906 86.26304626464844 74.87847900390625 83.05401611328125 78.96624755859375 78.96624755859375 C 83.05401611328125 74.87847900390625 86.26304626464844 70.11915588378906 88.50419616699219 64.82049560546875 C 90.82384490966797 59.33623123168945 92 53.50878524780273 92 47.5 C 92 41.49121475219727 90.82384490966797 35.66376876831055 88.50419616699219 30.17950439453125 C 86.26304626464844 24.88084411621094 83.05401611328125 20.12152099609375 78.96624755859375 16.03375244140625 C 74.87847900390625 11.94598388671875 70.11915588378906 8.736953735351562 64.82049560546875 6.495796203613281 C 59.33623123168945 4.176155090332031 53.50878524780273 3 47.5 3 M 47.5 0 C 73.7335205078125 0 95 21.2664794921875 95 47.5 C 95 73.7335205078125 73.7335205078125 95 47.5 95 C 21.2664794921875 95 0 73.7335205078125 0 47.5 C 0 21.2664794921875 21.2664794921875 0 47.5 0 Z" stroke="none" fill="#fc3"/>
                  </g>
                </g>
              </g>
            </g>
          </g>
        </g>
      </g>
    </g>
    <g id="mantenimiento" transform="translate(293.408 4896.601)">
      <g id="Grupo_1218693" data-name="Grupo 1218693" transform="translate(23.43 14.116)">
        <path id="Trazado_1086274" data-name="Trazado 1086274" d="M201.43,80.075a3.452,3.452,0,0,1-3.419-5.926,12.94,12.94,0,0,0-5.7-3.3,3.452,3.452,0,0,1-6.843,0,12.937,12.937,0,0,0-5.7,3.3,3.452,3.452,0,0,1-3.419,5.926,13.048,13.048,0,0,0,0,6.575,3.452,3.452,0,0,1,3.426,5.919,12.938,12.938,0,0,0,5.687,3.285,3.452,3.452,0,0,1,6.838,0A12.938,12.938,0,0,0,198,92.568a3.452,3.452,0,0,1,3.426-5.919,13.044,13.044,0,0,0,0-6.575Zm-12.537,7.719a4.44,4.44,0,1,1,4.44-4.44A4.44,4.44,0,0,1,188.892,87.794Z" transform="translate(-175.937 -70.854)" fill="#ffce62"/>
      </g>
      <g id="Grupo_1218694" data-name="Grupo 1218694" transform="translate(11.412 44.068)">
        <path id="Trazado_1086275" data-name="Trazado 1086275" d="M85.7,295.764h14l13.578,5.62a4.628,4.628,0,0,1,2.492,6.081l-.046.109a4.762,4.762,0,0,1-6.1,2.606c-3.853-1.486-8.906-3.429-8.906-3.429l13.011,5a14.788,14.788,0,0,0,8.607.612l13.33-3.052a4.473,4.473,0,0,1,2.1,8.7l-15.905,4.042a14.788,14.788,0,0,1-9.042-.565l-20.527-8.051H85.7Z" transform="translate(-85.696 -295.764)" fill="#ffdad5"/>
      </g>
      <g id="Grupo_1218695" data-name="Grupo 1218695" transform="translate(1.332 40.927)">
        <path id="Trazado_1086276" data-name="Trazado 1086276" d="M10,272.182H20.081V295.59H10Z" transform="translate(-10 -272.182)" fill="#a7bcce"/>
      </g>
      <g id="Grupo_1218696" data-name="Grupo 1218696" transform="translate(0 5.4)">
        <path id="Trazado_1086277" data-name="Trazado 1086277" d="M192.251,79.222a1.346,1.346,0,0,0,1.793-.894,14.381,14.381,0,0,0,.005-7.248,1.346,1.346,0,0,0-1.794-.9,2.12,2.12,0,0,1-2.1-3.638,1.346,1.346,0,0,0,.125-2A14.3,14.3,0,0,0,184,60.91a1.346,1.346,0,0,0-1.671,1.111,2.12,2.12,0,0,1-4.2,0,1.346,1.346,0,0,0-1.671-1.111,14.3,14.3,0,0,0-6.282,3.634,1.346,1.346,0,0,0,.125,2,2.12,2.12,0,0,1-2.1,3.639,1.346,1.346,0,0,0-1.794.9,14.378,14.378,0,0,0,.005,7.248,1.346,1.346,0,0,0,1.793.894,2.12,2.12,0,0,1,2.1,3.635,1.332,1.332,0,0,0-.119,2,14.3,14.3,0,0,0,6.273,3.623,1.346,1.346,0,0,0,1.67-1.1,2.12,2.12,0,0,1,4.2,0,1.346,1.346,0,0,0,1.67,1.1,14.3,14.3,0,0,0,6.274-3.623,1.346,1.346,0,0,0-.119-2,2.12,2.12,0,0,1,2.1-3.635Zm-4.942-.428a4.8,4.8,0,0,0,.138,5.006,11.64,11.64,0,0,1-2.957,1.709,4.782,4.782,0,0,0-8.534,0A11.639,11.639,0,0,1,173,83.8a4.782,4.782,0,0,0-4.274-7.39,11.761,11.761,0,0,1,0-3.415,4.782,4.782,0,0,0,4.268-7.4,11.647,11.647,0,0,1,2.956-1.712,4.783,4.783,0,0,0,8.551,0,11.64,11.64,0,0,1,2.956,1.712,4.782,4.782,0,0,0,4.269,7.4,11.761,11.761,0,0,1,0,3.416A4.8,4.8,0,0,0,187.309,78.794Z" transform="translate(-143.838 -53.477)"/>
        <path id="Trazado_1086278" data-name="Trazado 1086278" d="M235.649,121.371a5.772,5.772,0,1,0,5.772,5.772A5.779,5.779,0,0,0,235.649,121.371Zm0,8.881a3.109,3.109,0,1,1,3.109-3.109A3.112,3.112,0,0,1,235.649,130.252Z" transform="translate(-199.264 -105.927)"/>
        <path id="Trazado_1086279" data-name="Trazado 1086279" d="M68.061,283.382a5.859,5.859,0,0,0-6.979-4.477l-13.33,3.052a13.405,13.405,0,0,1-7.209-.335,6.133,6.133,0,0,0,2.122-2.639,6.027,6.027,0,0,0-3.163-7.939l-13.578-5.62a1.333,1.333,0,0,0-.509-.1H12.744v-1.809a1.345,1.345,0,0,0-1.332-1.332H1.332A1.332,1.332,0,0,0,0,263.514v23.408a1.332,1.332,0,0,0,1.332,1.332h10.08a1.332,1.332,0,0,0,1.332-1.332v-1.266h5.262a1.332,1.332,0,0,0,0-2.663H12.744V267.986H25.151L38.484,273.5a3.339,3.339,0,0,1,1.729,4.44,3.424,3.424,0,0,1-4.224,1.944L26.909,276.4a1.332,1.332,0,0,0-.956,2.486s5.052,1.942,8.9,3.428q.115.044.231.084l3.875,1.49a16.063,16.063,0,0,0,9.381.667l13.33-3.052a3.17,3.17,0,0,1,3.777,2.423,3.136,3.136,0,0,1-2.3,3.684L47.246,291.65a13.38,13.38,0,0,1-8.227-.514L29.6,287.443a1.332,1.332,0,0,0-.973,2.479l9.414,3.692a16.028,16.028,0,0,0,9.856.616l15.905-4.042a5.794,5.794,0,0,0,4.254-6.808Zm-65.4,2.209V264.845h7.417v19.479h0v1.266Z" transform="translate(0 -227.986)"/>
        <path id="Trazado_1086280" data-name="Trazado 1086280" d="M92.07,32.325l3.754,2.212a1.345,1.345,0,0,0,1.775-.395l2.481-3.62a1.332,1.332,0,1,0-2.2-1.505l-.794,1.158A18.688,18.688,0,1,1,128.6,40.057a1.332,1.332,0,0,0-.013,1.883,1.346,1.346,0,0,0,1.883.013,21.358,21.358,0,1,0-36-11.307l-1.045-.616a1.332,1.332,0,0,0-1.352,2.295Z" transform="translate(-79.241 -5.4)"/>
        <path id="Trazado_1086281" data-name="Trazado 1086281" d="M334.561,286.389a1.332,1.332,0,1,0-.368,1.847A1.344,1.344,0,0,0,334.561,286.389Z" transform="translate(-287.899 -248.461)"/>
        <path id="Trazado_1086282" data-name="Trazado 1086282" d="M168.5,435.256a1.323,1.323,0,0,0-.123-.23,1.265,1.265,0,0,0-.165-.2,1.336,1.336,0,0,0-.433-.288,1.236,1.236,0,0,0-.249-.076,1.314,1.314,0,0,0-.521,0,1.332,1.332,0,0,0-.847.566,1.312,1.312,0,0,0-.123.23,1.348,1.348,0,0,0-.076.249,1.345,1.345,0,0,0,0,.519,1.34,1.34,0,0,0,.076.249,1.314,1.314,0,0,0,.123.23,1.278,1.278,0,0,0,.166.2,1.258,1.258,0,0,0,.2.165,1.35,1.35,0,0,0,.229.122,1.375,1.375,0,0,0,.249.077,1.333,1.333,0,0,0,.261.025,1.317,1.317,0,0,0,.26-.025,1.337,1.337,0,0,0,.249-.077,1.423,1.423,0,0,0,.23-.122,1.323,1.323,0,0,0,.2-.165,1.277,1.277,0,0,0,.165-.2,1.324,1.324,0,0,0,.123-.23,1.353,1.353,0,0,0,.076-.249,1.286,1.286,0,0,0,0-.519A1.36,1.36,0,0,0,168.5,435.256Z" transform="translate(-143.842 -377.299)"/>
      </g>
    </g>
  </g>
</svg>
