<svg xmlns="http://www.w3.org/2000/svg" xmlns:xlink="http://www.w3.org/1999/xlink" width="113" height="113" viewBox="0 0 113 113">
  <defs>
    <filter id="Trazado_982547" x="0" y="0" width="113" height="113" filterUnits="userSpaceOnUse">
      <feOffset dy="3" input="SourceAlpha"/>
      <feGaussianBlur stdDeviation="3" result="blur"/>
      <feFlood flood-opacity="0.161"/>
      <feComposite operator="in" in2="blur"/>
      <feComposite in="SourceGraphic"/>
    </filter>
  </defs>
  <g id="Grupo_1218721" data-name="Grupo 1218721" transform="translate(-585 -4881)">
    <g id="Grupo_1215864" data-name="Grupo 1215864" transform="translate(0 -4593.914)">
      <g id="Grupo_1214720" data-name="Grupo 1214720" transform="translate(594 9480.914)">
        <g id="Grupo_1209935" data-name="Grupo 1209935">
          <g id="Grupo_1208705" data-name="Grupo 1208705">
            <g id="Grupo_1148633" data-name="Grupo 1148633">
              <g id="Grupo_1148525" data-name="Grupo 1148525">
                <g transform="matrix(1, 0, 0, 1, -9, -6)" filter="url(#Trazado_982547)">
                  <g id="Trazado_982547-2" data-name="Trazado 982547" transform="translate(9 6)" fill="#ffefc0">
                    <path d="M 47.5 93.5 C 41.28937149047852 93.5 35.26533508300781 92.28397369384766 29.59518623352051 89.88570404052734 C 24.11771965026855 87.56893157958984 19.19813346862793 84.25196075439453 14.97309303283691 80.02691650390625 C 10.74804019927979 75.80186462402344 7.431066513061523 70.88229370117188 5.114293098449707 65.40481567382812 C 2.716026782989502 59.73468017578125 1.5 53.71062850952148 1.5 47.5 C 1.5 41.28937149047852 2.716026782989502 35.26533508300781 5.114293098449707 29.59518623352051 C 7.431066513061523 24.11771965026855 10.74804019927979 19.19813346862793 14.97309303283691 14.97309303283691 C 19.19813346862793 10.74804019927979 24.11771965026855 7.431066513061523 29.59518623352051 5.114293098449707 C 35.26533508300781 2.716026782989502 41.28937149047852 1.5 47.5 1.5 C 53.71062850952148 1.5 59.73468017578125 2.716026782989502 65.40481567382812 5.114293098449707 C 70.88229370117188 7.431066513061523 75.80186462402344 10.74804019927979 80.02691650390625 14.97309303283691 C 84.25196075439453 19.19813346862793 87.56893157958984 24.11771965026855 89.88570404052734 29.59518623352051 C 92.28397369384766 35.26533508300781 93.5 41.28937149047852 93.5 47.5 C 93.5 53.71062850952148 92.28397369384766 59.73468017578125 89.88570404052734 65.40481567382812 C 87.56893157958984 70.88229370117188 84.25196075439453 75.80186462402344 80.02691650390625 80.02691650390625 C 75.80186462402344 84.25196075439453 70.88229370117188 87.56893157958984 65.40481567382812 89.88570404052734 C 59.73468017578125 92.28397369384766 53.71062850952148 93.5 47.5 93.5 Z" stroke="none"/>
                    <path d="M 47.5 3 C 41.49121475219727 3 35.66376876831055 4.176155090332031 30.17950439453125 6.495796203613281 C 24.88084411621094 8.736953735351562 20.12152099609375 11.94598388671875 16.03375244140625 16.03375244140625 C 11.94598388671875 20.12152099609375 8.736953735351562 24.88084411621094 6.495796203613281 30.17950439453125 C 4.176155090332031 35.66376876831055 3 41.49121475219727 3 47.5 C 3 53.50878524780273 4.176155090332031 59.33623123168945 6.495796203613281 64.82049560546875 C 8.736953735351562 70.11915588378906 11.94598388671875 74.87847900390625 16.03375244140625 78.96624755859375 C 20.12152099609375 83.05401611328125 24.88084411621094 86.26304626464844 30.17950439453125 88.50419616699219 C 35.66376876831055 90.82384490966797 41.49121475219727 92 47.5 92 C 53.50878524780273 92 59.33623123168945 90.82384490966797 64.82049560546875 88.50419616699219 C 70.11915588378906 86.26304626464844 74.87847900390625 83.05401611328125 78.96624755859375 78.96624755859375 C 83.05401611328125 74.87847900390625 86.26304626464844 70.11915588378906 88.50419616699219 64.82049560546875 C 90.82384490966797 59.33623123168945 92 53.50878524780273 92 47.5 C 92 41.49121475219727 90.82384490966797 35.66376876831055 88.50419616699219 30.17950439453125 C 86.26304626464844 24.88084411621094 83.05401611328125 20.12152099609375 78.96624755859375 16.03375244140625 C 74.87847900390625 11.94598388671875 70.11915588378906 8.736953735351562 64.82049560546875 6.495796203613281 C 59.33623123168945 4.176155090332031 53.50878524780273 3 47.5 3 M 47.5 0 C 73.7335205078125 0 95 21.2664794921875 95 47.5 C 95 73.7335205078125 73.7335205078125 95 47.5 95 C 21.2664794921875 95 0 73.7335205078125 0 47.5 C 0 21.2664794921875 21.2664794921875 0 47.5 0 Z" stroke="none" fill="#fc3"/>
                  </g>
                </g>
              </g>
            </g>
          </g>
        </g>
      </g>
    </g>
    <g id="energia-solar" transform="translate(609.729 4900)">
      <g id="Grupo_1218698" data-name="Grupo 1218698" transform="translate(58.423 38.32)">
        <path id="Trazado_1086283" data-name="Trazado 1086283" d="M461.318,316.138h3.773a1.613,1.613,0,0,0,1.641-1.585v-9.19a1.613,1.613,0,0,0-1.641-1.585h-3.773Z" transform="translate(-461.318 -303.779)" fill="#cbe5e8"/>
      </g>
      <g id="Grupo_1218699" data-name="Grupo 1218699" transform="translate(58.423 43.699)">
        <path id="Trazado_1086284" data-name="Trazado 1086284" d="M465.092,348.008h-3.773v5.4h3.773a1.613,1.613,0,0,0,1.641-1.585v-5.4A1.613,1.613,0,0,1,465.092,348.008Z" transform="translate(-461.319 -346.423)" fill="#a8d3d8"/>
      </g>
      <g id="Grupo_1218702" data-name="Grupo 1218702" transform="translate(19.912 10.822)">
        <g id="Grupo_1218700" data-name="Grupo 1218700" transform="translate(0 0)">
          <path id="Trazado_1086285" data-name="Trazado 1086285" d="M166.039,85.792a10.039,10.039,0,0,0-10,9.216.765.765,0,0,0,.765.821h18.48a.765.765,0,0,0,.765-.821A10.039,10.039,0,0,0,166.039,85.792Z" transform="translate(-156.032 -85.792)" fill="#fee45a"/>
        </g>
        <g id="Grupo_1218701" data-name="Grupo 1218701">
          <path id="Trazado_1086286" data-name="Trazado 1086286" d="M161.371,95.007a10.043,10.043,0,0,1,7.337-8.855,10.038,10.038,0,0,0-12.673,8.855.765.765,0,0,0,.765.821h5.336A.764.764,0,0,1,161.371,95.007Z" transform="translate(-156.032 -85.791)" fill="#fed402"/>
        </g>
      </g>
      <g id="Grupo_1218719" data-name="Grupo 1218719" transform="translate(1.209 25.36)">
        <g id="Grupo_1218713" data-name="Grupo 1218713" transform="translate(0 2.502)">
          <g id="Grupo_1218712" data-name="Grupo 1218712">
            <g id="Grupo_1218703" data-name="Grupo 1218703" transform="translate(0)">
              <path id="Trazado_1086287" data-name="Trazado 1086287" d="M35.457,240.86a.317.317,0,0,0-.31-.382H27.022a.317.317,0,0,1-.27-.482l11.687-19.121H10.915a3.152,3.152,0,0,0-3.152,3.152V251a3.152,3.152,0,0,0,3.152,3.152H32.671Z" transform="translate(-7.763 -220.876)" fill="#7ca1b1"/>
              <path id="Trazado_1086288" data-name="Trazado 1086288" d="M247.247,220.877H225.484l-2.778,13.29a.317.317,0,0,0,.31.381h8.124a.317.317,0,0,1,.27.482l-11.7,19.12h27.532A3.153,3.153,0,0,0,250.4,251V224.029A3.153,3.153,0,0,0,247.247,220.877Z" transform="translate(-192.978 -220.877)" fill="#7ca1b1"/>
            </g>
            <g id="Grupo_1218704" data-name="Grupo 1218704" transform="translate(0 0)">
              <path id="Trazado_1086289" data-name="Trazado 1086289" d="M18.237,251V224.029a3.153,3.153,0,0,1,3.152-3.152H10.915a3.153,3.153,0,0,0-3.152,3.152V251a3.153,3.153,0,0,0,3.152,3.152H21.39A3.153,3.153,0,0,1,18.237,251Z" transform="translate(-7.763 -220.877)" fill="#678d98"/>
            </g>
            <g id="Grupo_1218711" data-name="Grupo 1218711" transform="translate(4.857 4.857)">
              <g id="Grupo_1218705" data-name="Grupo 1218705" transform="translate(0)">
                <path id="Trazado_1086290" data-name="Trazado 1086290" d="M69.1,274.507a.317.317,0,0,0-.31-.382H60.669a.317.317,0,0,1-.27-.482l8.718-14.263H47.076a.809.809,0,0,0-.809.809v21.941a.809.809,0,0,0,.809.809h20.26Z" transform="translate(-46.267 -259.38)" fill="#a2e62e"/>
              </g>
              <g id="Grupo_1218706" data-name="Grupo 1218706" transform="translate(0 0)">
                <path id="Trazado_1086291" data-name="Trazado 1086291" d="M47.076,259.381a.809.809,0,0,0-.809.809v21.941a.809.809,0,0,0,.809.809h4.808v-23.56Z" transform="translate(-46.267 -259.381)" fill="#97d729"/>
              </g>
              <g id="Grupo_1218707" data-name="Grupo 1218707" transform="translate(24.85 0)">
                <path id="Trazado_1086292" data-name="Trazado 1086292" d="M265.314,259.381H245.049l-1.763,8.433a.317.317,0,0,0,.31.381h8.124a.317.317,0,0,1,.27.482l-8.724,14.263h22.047a.809.809,0,0,0,.809-.809V260.19a.81.81,0,0,0-.81-.809Z" transform="translate(-243.267 -259.381)" fill="#fff"/>
              </g>
              <g id="Grupo_1218710" data-name="Grupo 1218710" transform="translate(24.85 0)">
                <g id="Grupo_1218708" data-name="Grupo 1218708" transform="translate(0.013)">
                  <path id="Trazado_1086293" data-name="Trazado 1086293" d="M243.685,268.2h4.255a.317.317,0,0,1-.31-.381l1.763-8.433h-4.255l-1.763,8.433A.317.317,0,0,0,243.685,268.2Z" transform="translate(-243.368 -259.381)" fill="#eef5f6"/>
                </g>
                <g id="Grupo_1218709" data-name="Grupo 1218709" transform="translate(0 8.815)">
                  <path id="Trazado_1086294" data-name="Trazado 1086294" d="M255.976,329.259H251.72a.317.317,0,0,1,.27.482L243.266,344h4.255l8.724-14.263A.317.317,0,0,0,255.976,329.259Z" transform="translate(-243.266 -329.259)" fill="#eef5f6"/>
                </g>
              </g>
            </g>
          </g>
        </g>
        <g id="Grupo_1218715" data-name="Grupo 1218715" transform="translate(18.942)">
          <g id="Grupo_1218714" data-name="Grupo 1218714">
            <path id="Trazado_1086295" data-name="Trazado 1086295" d="M177.145,217.213H169.02a.317.317,0,0,1-.31-.381l3.185-15.237a.46.46,0,0,0-.842-.334l-13.081,21.4a.317.317,0,0,0,.27.482h8.124a.317.317,0,0,1,.31.382l-3.193,15.235a.46.46,0,0,0,.842.334l13.09-21.4a.317.317,0,0,0-.27-.482Z" transform="translate(-157.925 -201.038)" fill="#fee45a"/>
          </g>
        </g>
        <g id="Grupo_1218718" data-name="Grupo 1218718" transform="translate(18.942 0)">
          <g id="Grupo_1218716" data-name="Grupo 1218716">
            <path id="Trazado_1086296" data-name="Trazado 1086296" d="M162.16,222.663l8.1-13.255L171.9,201.6a.46.46,0,0,0-.842-.334l-13.081,21.4a.317.317,0,0,0,.27.482h4.188A.317.317,0,0,1,162.16,222.663Z" transform="translate(-157.925 -201.04)" fill="#fed402"/>
          </g>
          <g id="Grupo_1218717" data-name="Grupo 1218717" transform="translate(5.547 22.105)">
            <path id="Trazado_1086297" data-name="Trazado 1086297" d="M209.027,376.655a.317.317,0,0,0-.31-.382h-3.923a.317.317,0,0,1,.31.382L201.91,391.89a.46.46,0,0,0,.842.334l4.581-7.49Z" transform="translate(-201.899 -376.273)" fill="#fed402"/>
          </g>
        </g>
      </g>
      <g id="Grupo_1218720" data-name="Grupo 1218720" transform="translate(0.263 0)">
        <path id="Trazado_1086298" data-name="Trazado 1086298" d="M62.2,206.486h-2.62v-6.359a4.1,4.1,0,0,0-4.1-4.1H51.823a.946.946,0,0,0,0,1.892h3.655a2.209,2.209,0,0,1,2.206,2.206V227.1a2.209,2.209,0,0,1-2.206,2.206H29.633l1.814-2.965H52.964a1.758,1.758,0,0,0,1.756-1.756V202.641a1.758,1.758,0,0,0-1.756-1.756h-19.1l.62-2.965H47.408a.946.946,0,0,0,0-1.892H34.879l.169-.807a1.406,1.406,0,0,0-2.575-1.021l-1.117,1.828H4.362a4.1,4.1,0,0,0-4.1,4.1V227.1a4.1,4.1,0,0,0,4.1,4.1H24.952l-.169.805a1.386,1.386,0,0,0,.857,1.595,1.439,1.439,0,0,0,.531.1,1.385,1.385,0,0,0,1.186-.676l1.118-1.827h27a4.1,4.1,0,0,0,4.1-4.1v-6.359H62.2a2.562,2.562,0,0,0,2.587-2.531v-9.19a2.562,2.562,0,0,0-2.587-2.531Zm-9.369-3.709v21.668H32.6l7.844-12.824a1.263,1.263,0,0,0-1.077-1.922h-7.35l1.447-6.923ZM4.362,229.3A2.209,2.209,0,0,1,2.155,227.1V200.127a2.209,2.209,0,0,1,2.206-2.206H30.2l-1.812,2.965H6.876a1.758,1.758,0,0,0-1.756,1.756v21.941a1.758,1.758,0,0,0,1.756,1.756h7.861a.946.946,0,1,0,0-1.892H7.012V202.778H27.23L19.391,215.6a1.263,1.263,0,0,0,1.077,1.921h7.349l-1.451,6.923H19.151a.946.946,0,1,0,0,1.892H25.97l-.622,2.965H4.362Zm22.851.331,2.616-12.481a1.263,1.263,0,0,0-1.236-1.522h-7L32.62,197.587l-2.61,12.484a1.263,1.263,0,0,0,1.236,1.521h7ZM62.89,218.207a.669.669,0,0,1-.695.638h-2.62V208.379H62.2a.669.669,0,0,1,.695.638Z" transform="translate(-0.263 -169.112)"/>
        <path id="Trazado_1086299" data-name="Trazado 1086299" d="M150.246,90.222h9.194a.946.946,0,1,0,0-1.892h-9a9.093,9.093,0,0,1,18.087,0h-4.674a.946.946,0,0,0,0,1.892h4.871a1.711,1.711,0,0,0,1.708-1.844,10.985,10.985,0,0,0-21.9,0,1.711,1.711,0,0,0,1.708,1.844Z" transform="translate(-129.829 -68.416)"/>
        <path id="Trazado_1086300" data-name="Trazado 1086300" d="M228.81,5.778a.946.946,0,0,0,.946-.946V.946a.946.946,0,1,0-1.892,0V4.832A.946.946,0,0,0,228.81,5.778Z" transform="translate(-199.153 0)"/>
        <path id="Trazado_1086301" data-name="Trazado 1086301" d="M70.944,159.758H74.83a.946.946,0,1,0,0-1.892H70.944a.946.946,0,1,0,0,1.892Z" transform="translate(-61.201 -137.952)"/>
        <path id="Trazado_1086302" data-name="Trazado 1086302" d="M354.928,158.812a.946.946,0,0,0,.946.946h3.886a.946.946,0,1,0,0-1.892h-3.886A.946.946,0,0,0,354.928,158.812Z" transform="translate(-310.189 -137.952)"/>
        <path id="Trazado_1086303" data-name="Trazado 1086303" d="M151,25.933a.946.946,0,0,0,1.639-.946L150.7,21.622a.946.946,0,0,0-1.639.946Z" transform="translate(-130.176 -18.481)"/>
        <path id="Trazado_1086304" data-name="Trazado 1086304" d="M338.85,82.767a.943.943,0,0,0,.472-.127l3.365-1.943a.946.946,0,0,0-.946-1.639L338.376,81a.946.946,0,0,0,.474,1.766Z" transform="translate(-295.312 -68.975)"/>
        <path id="Trazado_1086305" data-name="Trazado 1086305" d="M91.62,80.7l3.365,1.943A.946.946,0,1,0,95.931,81l-3.365-1.943A.946.946,0,1,0,91.62,80.7Z" transform="translate(-79.682 -68.975)"/>
        <path id="Trazado_1086306" data-name="Trazado 1086306" d="M291.867,26.279a.946.946,0,0,0,1.292-.346l1.943-3.365a.946.946,0,1,0-1.639-.946l-1.943,3.365A.946.946,0,0,0,291.867,26.279Z" transform="translate(-254.67 -18.481)"/>
      </g>
    </g>
  </g>
</svg>
