<svg xmlns="http://www.w3.org/2000/svg" xmlns:xlink="http://www.w3.org/1999/xlink" width="113" height="113" viewBox="0 0 113 113">
  <defs>
    <filter id="Trazado_982547" x="0" y="0" width="113" height="113" filterUnits="userSpaceOnUse">
      <feOffset dy="3" input="SourceAlpha"/>
      <feGaussianBlur stdDeviation="3" result="blur"/>
      <feFlood flood-opacity="0.161"/>
      <feComposite operator="in" in2="blur"/>
      <feComposite in="SourceGraphic"/>
    </filter>
  </defs>
  <g id="Grupo_1218760" data-name="Grupo 1218760" transform="translate(-900.001 -4880.914)">
    <g id="Grupo_1215867" data-name="Grupo 1215867" transform="translate(0.001 -4594)">
      <g id="Grupo_1214721" data-name="Grupo 1214721" transform="translate(909 9480.914)">
        <g id="Grupo_1209935" data-name="Grupo 1209935">
          <g id="Grupo_1208705" data-name="Grupo 1208705">
            <g id="Grupo_1148633" data-name="Grupo 1148633">
              <g id="Grupo_1148525" data-name="Grupo 1148525">
                <g transform="matrix(1, 0, 0, 1, -9, -6)" filter="url(#Trazado_982547)">
                  <g id="Trazado_982547-2" data-name="Trazado 982547" transform="translate(9 6)" fill="#ffefc0">
                    <path d="M 47.5 93.5 C 41.28937149047852 93.5 35.26533508300781 92.28397369384766 29.59518623352051 89.88570404052734 C 24.11771965026855 87.56893157958984 19.19813346862793 84.25196075439453 14.97309303283691 80.02691650390625 C 10.74804019927979 75.80186462402344 7.431066513061523 70.88229370117188 5.114293098449707 65.40481567382812 C 2.716026782989502 59.73468017578125 1.5 53.71062850952148 1.5 47.5 C 1.5 41.28937149047852 2.716026782989502 35.26533508300781 5.114293098449707 29.59518623352051 C 7.431066513061523 24.11771965026855 10.74804019927979 19.19813346862793 14.97309303283691 14.97309303283691 C 19.19813346862793 10.74804019927979 24.11771965026855 7.431066513061523 29.59518623352051 5.114293098449707 C 35.26533508300781 2.716026782989502 41.28937149047852 1.5 47.5 1.5 C 53.71062850952148 1.5 59.73468017578125 2.716026782989502 65.40481567382812 5.114293098449707 C 70.88229370117188 7.431066513061523 75.80186462402344 10.74804019927979 80.02691650390625 14.97309303283691 C 84.25196075439453 19.19813346862793 87.56893157958984 24.11771965026855 89.88570404052734 29.59518623352051 C 92.28397369384766 35.26533508300781 93.5 41.28937149047852 93.5 47.5 C 93.5 53.71062850952148 92.28397369384766 59.73468017578125 89.88570404052734 65.40481567382812 C 87.56893157958984 70.88229370117188 84.25196075439453 75.80186462402344 80.02691650390625 80.02691650390625 C 75.80186462402344 84.25196075439453 70.88229370117188 87.56893157958984 65.40481567382812 89.88570404052734 C 59.73468017578125 92.28397369384766 53.71062850952148 93.5 47.5 93.5 Z" stroke="none"/>
                    <path d="M 47.5 3 C 41.49121475219727 3 35.66376876831055 4.176155090332031 30.17950439453125 6.495796203613281 C 24.88084411621094 8.736953735351562 20.12152099609375 11.94598388671875 16.03375244140625 16.03375244140625 C 11.94598388671875 20.12152099609375 8.736953735351562 24.88084411621094 6.495796203613281 30.17950439453125 C 4.176155090332031 35.66376876831055 3 41.49121475219727 3 47.5 C 3 53.50878524780273 4.176155090332031 59.33623123168945 6.495796203613281 64.82049560546875 C 8.736953735351562 70.11915588378906 11.94598388671875 74.87847900390625 16.03375244140625 78.96624755859375 C 20.12152099609375 83.05401611328125 24.88084411621094 86.26304626464844 30.17950439453125 88.50419616699219 C 35.66376876831055 90.82384490966797 41.49121475219727 92 47.5 92 C 53.50878524780273 92 59.33623123168945 90.82384490966797 64.82049560546875 88.50419616699219 C 70.11915588378906 86.26304626464844 74.87847900390625 83.05401611328125 78.96624755859375 78.96624755859375 C 83.05401611328125 74.87847900390625 86.26304626464844 70.11915588378906 88.50419616699219 64.82049560546875 C 90.82384490966797 59.33623123168945 92 53.50878524780273 92 47.5 C 92 41.49121475219727 90.82384490966797 35.66376876831055 88.50419616699219 30.17950439453125 C 86.26304626464844 24.88084411621094 83.05401611328125 20.12152099609375 78.96624755859375 16.03375244140625 C 74.87847900390625 11.94598388671875 70.11915588378906 8.736953735351562 64.82049560546875 6.495796203613281 C 59.33623123168945 4.176155090332031 53.50878524780273 3 47.5 3 M 47.5 0 C 73.7335205078125 0 95 21.2664794921875 95 47.5 C 95 73.7335205078125 73.7335205078125 95 47.5 95 C 21.2664794921875 95 0 73.7335205078125 0 47.5 C 0 21.2664794921875 21.2664794921875 0 47.5 0 Z" stroke="none" fill="#fc3"/>
                  </g>
                </g>
              </g>
            </g>
          </g>
        </g>
      </g>
    </g>
    <g id="produccion_1_" data-name="produccion (1)" transform="translate(920.552 4894.827)">
      <g id="Grupo_1218734" data-name="Grupo 1218734" transform="translate(9.128 42.583)">
        <g id="Grupo_1218727" data-name="Grupo 1218727" transform="translate(0 0)">
          <g id="Grupo_1218722" data-name="Grupo 1218722" transform="translate(0 2.603)">
            <path id="Trazado_1086307" data-name="Trazado 1086307" d="M77.693,268.925c0,1.335-2.874,2.462-6.276,2.462s-6.276-1.128-6.276-2.462H65v10.942c.243-.021.487-.033.735-.033h12.1V268.925Z" transform="translate(-65 -268.925)" fill="#26a6fe"/>
          </g>
          <g id="Grupo_1218724" data-name="Grupo 1218724" transform="translate(8.425 2.603)">
            <g id="Grupo_1218723" data-name="Grupo 1218723">
              <path id="Trazado_1086308" data-name="Trazado 1086308" d="M129.267,268.925c0,1.061-1.815,1.99-4.267,2.327v8.581h4.408V268.925Z" transform="translate(-125 -268.925)" fill="#0593fc"/>
            </g>
          </g>
          <g id="Grupo_1218725" data-name="Grupo 1218725" transform="translate(0 0)">
            <ellipse id="Elipse_14454" data-name="Elipse 14454" cx="6.417" cy="2.603" rx="6.417" ry="2.603" fill="#0593fc"/>
          </g>
          <g id="Grupo_1218726" data-name="Grupo 1218726" transform="translate(4.213)">
            <path id="Trazado_1086309" data-name="Trazado 1086309" d="M97.2,250.389a15.091,15.091,0,0,0-2.2.158c2.458.365,4.213,1.322,4.213,2.445s-1.755,2.081-4.213,2.445a15.089,15.089,0,0,0,2.2.158c3.544,0,6.417-1.165,6.417-2.6S100.748,250.389,97.2,250.389Z" transform="translate(-95 -250.389)" fill="#0182fc"/>
          </g>
        </g>
        <g id="Grupo_1218733" data-name="Grupo 1218733" transform="translate(19.708)">
          <g id="Grupo_1218728" data-name="Grupo 1218728" transform="translate(0 2.603)">
            <path id="Trazado_1086310" data-name="Trazado 1086310" d="M218.04,268.925c0,1.335-2.874,2.462-6.276,2.462s-6.276-1.128-6.276-2.462h-.14v10.908H218.18V268.925Z" transform="translate(-205.347 -268.925)" fill="#26a6fe"/>
          </g>
          <g id="Grupo_1218730" data-name="Grupo 1218730" transform="translate(8.431 2.603)">
            <g id="Grupo_1218729" data-name="Grupo 1218729">
              <path id="Trazado_1086311" data-name="Trazado 1086311" d="M269.649,268.925c0,1.06-1.812,1.988-4.261,2.326v8.582h4.4V268.925Z" transform="translate(-265.388 -268.925)" fill="#0593fc"/>
            </g>
          </g>
          <g id="Grupo_1218731" data-name="Grupo 1218731" transform="translate(0 0)">
            <ellipse id="Elipse_14455" data-name="Elipse 14455" cx="6.417" cy="2.603" rx="6.417" ry="2.603" fill="#0593fc"/>
          </g>
          <g id="Grupo_1218732" data-name="Grupo 1218732" transform="translate(4.216)">
            <path id="Trazado_1086312" data-name="Trazado 1086312" d="M237.569,250.389a15.073,15.073,0,0,0-2.2.157c2.46.364,4.216,1.322,4.216,2.446s-1.756,2.081-4.216,2.446a15.09,15.09,0,0,0,2.2.157c3.544,0,6.417-1.165,6.417-2.6S241.113,250.389,237.569,250.389Z" transform="translate(-235.368 -250.389)" fill="#0182fc"/>
          </g>
        </g>
      </g>
      <g id="Grupo_1218735" data-name="Grupo 1218735" transform="translate(1.053 55.954)">
        <path id="Trazado_1086313" data-name="Trazado 1086313" d="M68.482,363.225H16.309a8.809,8.809,0,1,1,0-17.619H68.482a8.809,8.809,0,1,1,0,17.619Z" transform="translate(-7.5 -345.606)" fill="#ffe177"/>
      </g>
      <g id="Grupo_1218736" data-name="Grupo 1218736" transform="translate(56.348 55.954)">
        <path id="Trazado_1086314" data-name="Trazado 1086314" d="M406.953,345.606h-5.687a8.809,8.809,0,1,1,0,17.619h5.687a8.809,8.809,0,1,0,0-17.619Z" transform="translate(-401.266 -345.606)" fill="#ffd15b"/>
      </g>
      <g id="Grupo_1218745" data-name="Grupo 1218745" transform="translate(6.281 60.563)">
        <g id="Grupo_1218737" data-name="Grupo 1218737">
          <circle id="Elipse_14456" data-name="Elipse 14456" cx="4.2" cy="4.2" r="4.2" fill="#9e9797"/>
        </g>
        <g id="Grupo_1218738" data-name="Grupo 1218738" transform="translate(16.979)">
          <circle id="Elipse_14457" data-name="Elipse 14457" cx="4.2" cy="4.2" r="4.2" fill="#9e9797"/>
        </g>
        <g id="Grupo_1218739" data-name="Grupo 1218739" transform="translate(33.957)">
          <circle id="Elipse_14458" data-name="Elipse 14458" cx="4.2" cy="4.2" r="4.2" fill="#9e9797"/>
        </g>
        <g id="Grupo_1218740" data-name="Grupo 1218740" transform="translate(36.378)">
          <path id="Trazado_1086315" data-name="Trazado 1086315" d="M305.566,378.431a4.178,4.178,0,0,0-1.779.4,4.2,4.2,0,0,1,0,7.606,4.2,4.2,0,1,0,1.779-8Z" transform="translate(-303.787 -378.431)" fill="#868686"/>
        </g>
        <g id="Grupo_1218741" data-name="Grupo 1218741" transform="translate(50.936)">
          <circle id="Elipse_14459" data-name="Elipse 14459" cx="4.2" cy="4.2" r="4.2" fill="#9e9797"/>
        </g>
        <g id="Grupo_1218742" data-name="Grupo 1218742" transform="translate(53.357)">
          <path id="Trazado_1086316" data-name="Trazado 1086316" d="M426.476,378.431a4.179,4.179,0,0,0-1.779.4,4.2,4.2,0,0,1,0,7.606,4.2,4.2,0,1,0,1.779-8Z" transform="translate(-424.697 -378.431)" fill="#868686"/>
        </g>
        <g id="Grupo_1218743" data-name="Grupo 1218743" transform="translate(19.4)">
          <path id="Trazado_1086317" data-name="Trazado 1086317" d="M184.657,378.431a4.178,4.178,0,0,0-1.779.4,4.2,4.2,0,0,1,0,7.606,4.2,4.2,0,1,0,1.779-8Z" transform="translate(-182.878 -378.431)" fill="#868686"/>
        </g>
        <g id="Grupo_1218744" data-name="Grupo 1218744" transform="translate(2.421)">
          <path id="Trazado_1086318" data-name="Trazado 1086318" d="M63.748,378.431a4.179,4.179,0,0,0-1.779.4,4.2,4.2,0,0,1,0,7.606,4.2,4.2,0,1,0,1.779-8Z" transform="translate(-61.969 -378.431)" fill="#868686"/>
        </g>
      </g>
      <g id="Grupo_1218754" data-name="Grupo 1218754" transform="translate(29.242 8.635)">
        <g id="Grupo_1218750" data-name="Grupo 1218750" transform="translate(15.001 15.21)">
          <g id="Grupo_1218746" data-name="Grupo 1218746">
            <path id="Trazado_1086319" data-name="Trazado 1086319" d="M340.413,127.575h-1.89a1.243,1.243,0,0,1-1.163-.789q-.086-.224-.183-.442a1.244,1.244,0,0,1,.264-1.38l1.336-1.336a1.252,1.252,0,0,0,0-1.771l-2.017-2.017a1.252,1.252,0,0,0-1.771,0l-1.336,1.336a1.244,1.244,0,0,1-1.38.264q-.218-.1-.442-.183a1.243,1.243,0,0,1-.789-1.163V118.2a1.252,1.252,0,0,0-1.252-1.252h-2.852a1.244,1.244,0,0,0-.555.131c0,.051,0,.1,0,.153a10.832,10.832,0,0,1-10.82,10.82c-.078,0-.155,0-.233-.006a1.245,1.245,0,0,0-.271.777v2.852a1.252,1.252,0,0,0,1.252,1.252h1.89a1.243,1.243,0,0,1,1.163.789q.086.224.183.442a1.244,1.244,0,0,1-.264,1.38l-1.336,1.336a1.252,1.252,0,0,0,0,1.771l2.017,2.017a1.252,1.252,0,0,0,1.771,0l1.336-1.336a1.244,1.244,0,0,1,1.38-.264q.218.1.442.183a1.243,1.243,0,0,1,.789,1.163v1.89a1.252,1.252,0,0,0,1.252,1.252h2.852a1.252,1.252,0,0,0,1.252-1.252v-1.89a1.243,1.243,0,0,1,.789-1.163q.224-.086.442-.183a1.244,1.244,0,0,1,1.38.264l1.336,1.336a1.252,1.252,0,0,0,1.771,0l2.017-2.017a1.252,1.252,0,0,0,0-1.771l-1.336-1.336a1.244,1.244,0,0,1-.264-1.38q.1-.218.183-.442a1.243,1.243,0,0,1,1.163-.789h1.89a1.252,1.252,0,0,0,1.252-1.252v-2.852a1.252,1.252,0,0,0-1.252-1.252Z" transform="translate(-315.064 -116.952)" fill="#cdbfba"/>
          </g>
          <g id="Grupo_1218747" data-name="Grupo 1218747" transform="translate(10.623)">
            <path id="Trazado_1086320" data-name="Trazado 1086320" d="M405.439,127.575h-1.89a1.243,1.243,0,0,1-1.163-.789q-.086-.224-.183-.442a1.244,1.244,0,0,1,.264-1.38l1.336-1.336a1.252,1.252,0,0,0,0-1.771l-2.017-2.017a1.252,1.252,0,0,0-1.771,0l-1.336,1.336a1.244,1.244,0,0,1-1.38.264q-.218-.1-.443-.183a1.243,1.243,0,0,1-.789-1.163V118.2a1.252,1.252,0,0,0-1.252-1.252h-2.852a1.244,1.244,0,0,0-.555.131c0,.051,0,.1,0,.153a10.87,10.87,0,0,1-.092,1.388,13.274,13.274,0,0,1-.609,23.574v.1a1.252,1.252,0,0,0,1.252,1.252h2.852a1.252,1.252,0,0,0,1.252-1.252v-1.89a1.243,1.243,0,0,1,.789-1.163q.224-.086.442-.183a1.244,1.244,0,0,1,1.38.264l1.336,1.336a1.252,1.252,0,0,0,1.771,0l2.017-2.017a1.252,1.252,0,0,0,0-1.771l-1.336-1.336a1.244,1.244,0,0,1-.264-1.38q.1-.218.183-.442a1.243,1.243,0,0,1,1.163-.789h1.89a1.252,1.252,0,0,0,1.252-1.252v-2.852A1.252,1.252,0,0,0,405.439,127.575Z" transform="translate(-390.712 -116.952)" fill="#b9acac"/>
          </g>
          <g id="Grupo_1218748" data-name="Grupo 1218748" transform="translate(9.016 9.016)">
            <circle id="Elipse_14460" data-name="Elipse 14460" cx="4.285" cy="4.285" r="4.285" fill="#9e9797"/>
          </g>
          <g id="Grupo_1218749" data-name="Grupo 1218749" transform="translate(11.456 9.016)">
            <path id="Trazado_1086321" data-name="Trazado 1086321" d="M398.492,181.158a4.268,4.268,0,0,0-1.844.417,4.286,4.286,0,0,1,0,7.736,4.285,4.285,0,1,0,1.844-8.153Z" transform="translate(-396.648 -181.158)" fill="#868686"/>
          </g>
        </g>
        <g id="Grupo_1218753" data-name="Grupo 1218753" transform="translate(0 0)">
          <g id="Grupo_1218751" data-name="Grupo 1218751">
            <circle id="Elipse_14461" data-name="Elipse 14461" cx="10.96" cy="10.96" r="10.96" transform="translate(0 15.498) rotate(-45)" fill="#ffe177"/>
          </g>
          <g id="Grupo_1218752" data-name="Grupo 1218752" transform="translate(12.576 4.534)">
            <path id="Trazado_1086322" data-name="Trazado 1086322" d="M300.729,40.926a10.963,10.963,0,0,0-2.928.4,10.96,10.96,0,0,1,0,21.123,10.96,10.96,0,1,0,2.928-21.522Z" transform="translate(-297.801 -40.926)" fill="#ffd15b"/>
          </g>
        </g>
      </g>
      <g id="Grupo_1218758" data-name="Grupo 1218758" transform="translate(1.053 16.971)">
        <g id="Grupo_1218756" data-name="Grupo 1218756">
          <g id="Grupo_1218755" data-name="Grupo 1218755">
            <circle id="Elipse_14462" data-name="Elipse 14462" cx="4.798" cy="4.798" r="4.798" fill="#fd4755"/>
          </g>
        </g>
        <g id="Grupo_1218757" data-name="Grupo 1218757" transform="translate(2.937)">
          <path id="Trazado_1086323" data-name="Trazado 1086323" d="M30.276,68a4.783,4.783,0,0,0-1.861.374,4.8,4.8,0,0,1,0,8.846A4.8,4.8,0,1,0,30.276,68Z" transform="translate(-28.415 -68)" fill="#fb2b3a"/>
        </g>
      </g>
      <g id="Grupo_1218759" data-name="Grupo 1218759" transform="translate(0 12.116)">
        <path id="Trazado_1086324" data-name="Trazado 1086324" d="M62.035,256.26H42.722v-9.715c0-2.4-3.758-3.656-7.47-3.656s-7.47,1.256-7.47,3.656v9.715H23.014v-9.715c0-2.4-3.758-3.656-7.47-3.656s-7.47,1.256-7.47,3.656v3.8a1.053,1.053,0,1,0,2.106,0v-1.183a12.945,12.945,0,0,0,5.363,1.037,12.945,12.945,0,0,0,5.363-1.037v7.1H10.181v-1a1.053,1.053,0,1,0-2.106,0v1.163a9.862,9.862,0,0,0,1.788,19.56h40.55a1.053,1.053,0,1,0,0-2.106H9.863a7.756,7.756,0,1,1,0-15.512H62.035a7.756,7.756,0,1,1,0,15.512H55.327a1.053,1.053,0,0,0,0,2.106h6.708a9.863,9.863,0,0,0,0-19.725Zm-42.349-8.85a11.579,11.579,0,0,1-4.141.685,11.578,11.578,0,0,1-4.141-.685c-1.01-.41-1.222-.8-1.222-.865s.212-.455,1.222-.865A11.579,11.579,0,0,1,15.544,245a11.578,11.578,0,0,1,4.141.685c1.01.41,1.222.8,1.222.865S20.7,247,19.686,247.41Zm11.426-1.729A11.578,11.578,0,0,1,35.252,245a11.578,11.578,0,0,1,4.141.685c1.01.41,1.222.8,1.222.865s-.212.455-1.222.865a11.579,11.579,0,0,1-4.141.685,11.578,11.578,0,0,1-4.141-.685c-1.01-.41-1.222-.8-1.222-.865s.212-.455,1.222-.865Zm-1.222,3.484a12.945,12.945,0,0,0,5.363,1.037,12.945,12.945,0,0,0,5.363-1.037v7.1H29.889v-7.1Z" transform="translate(0 -213.475)"/>
        <path id="Trazado_1086325" data-name="Trazado 1086325" d="M37.228,376.184a5.253,5.253,0,1,0,5.253-5.253A5.259,5.259,0,0,0,37.228,376.184Zm8.4,0a3.147,3.147,0,1,1-3.147-3.147A3.15,3.15,0,0,1,45.628,376.184Z" transform="translate(-32 -323.537)"/>
        <path id="Trazado_1086326" data-name="Trazado 1086326" d="M158.137,376.184a5.253,5.253,0,1,0,5.253-5.253A5.259,5.259,0,0,0,158.137,376.184Zm8.4,0a3.147,3.147,0,1,1-3.147-3.147A3.15,3.15,0,0,1,166.537,376.184Z" transform="translate(-135.931 -323.537)"/>
        <path id="Trazado_1086327" data-name="Trazado 1086327" d="M279.046,376.184a5.253,5.253,0,1,0,5.253-5.253A5.259,5.259,0,0,0,279.046,376.184Zm8.4,0a3.147,3.147,0,1,1-3.147-3.147A3.15,3.15,0,0,1,287.446,376.184Z" transform="translate(-239.861 -323.537)"/>
        <path id="Trazado_1086328" data-name="Trazado 1086328" d="M410.46,376.184a5.253,5.253,0,1,0-5.253,5.253A5.259,5.259,0,0,0,410.46,376.184Zm-8.4,0a3.147,3.147,0,1,1,3.147,3.147A3.15,3.15,0,0,1,402.06,376.184Z" transform="translate(-343.791 -323.537)"/>
        <path id="Trazado_1086329" data-name="Trazado 1086329" d="M377.107,173.658A5.338,5.338,0,1,0,382.445,179,5.344,5.344,0,0,0,377.107,173.658Zm0,8.57A3.232,3.232,0,1,1,380.339,179,3.235,3.235,0,0,1,377.107,182.228Z" transform="translate(-319.563 -153.966)"/>
        <path id="Trazado_1086330" data-name="Trazado 1086330" d="M271.676,54.725h-1.89a.19.19,0,0,1-.18-.114c-.063-.164-.131-.329-.2-.491a.19.19,0,0,1,.046-.209l1.336-1.336a2.308,2.308,0,0,0,0-3.26L268.769,47.3a2.3,2.3,0,0,0-3.26,0l-1.337,1.336a.19.19,0,0,1-.209.046c-.161-.071-.327-.14-.491-.2a.19.19,0,0,1-.114-.18v-1.89a2.308,2.308,0,0,0-2.305-2.305h-2.286a12.012,12.012,0,0,0-23.644-1.355,1.053,1.053,0,1,0,2.053.471,9.952,9.952,0,0,1,3.441-5.493,9.789,9.789,0,0,1,6.213-2.192,9.907,9.907,0,0,1,0,19.814,9.789,9.789,0,0,1-6.213-2.192,9.951,9.951,0,0,1-3.441-5.493,1.053,1.053,0,0,0-2.053.471,12.012,12.012,0,0,0,10.15,9.218v2.532a2.308,2.308,0,0,0,2.305,2.305h1.89a.19.19,0,0,1,.18.114c.063.165.132.33.2.491a.191.191,0,0,1-.046.209l-1.336,1.336a2.3,2.3,0,0,0,0,3.26l2.017,2.017a2.3,2.3,0,0,0,3.26,0l1.336-1.336a.19.19,0,0,1,.209-.046c.16.071.325.139.491.2a.19.19,0,0,1,.114.18V70.5A2.308,2.308,0,0,0,258.2,72.81h2.852a2.308,2.308,0,0,0,2.305-2.305v-1.89a.19.19,0,0,1,.114-.18c.166-.064.331-.132.491-.2a.19.19,0,0,1,.209.046l1.336,1.336a2.305,2.305,0,0,0,3.26,0l2.017-2.017a2.308,2.308,0,0,0,0-3.26L269.449,63a.191.191,0,0,1-.046-.209c.071-.161.139-.326.2-.491a.19.19,0,0,1,.18-.114h1.89a2.308,2.308,0,0,0,2.305-2.305V57.03A2.307,2.307,0,0,0,271.676,54.725Zm.2,5.157a.2.2,0,0,1-.2.2h-1.89a2.308,2.308,0,0,0-2.146,1.464c-.051.132-.106.265-.163.394a2.309,2.309,0,0,0,.482,2.552l1.336,1.336a.2.2,0,0,1,0,.281l-2.017,2.017a.2.2,0,0,1-.281,0l-1.336-1.336a2.309,2.309,0,0,0-2.552-.482c-.128.057-.26.111-.393.163a2.308,2.308,0,0,0-1.465,2.146V70.5a.2.2,0,0,1-.2.2H258.2a.2.2,0,0,1-.2-.2v-1.89a2.308,2.308,0,0,0-1.464-2.146c-.133-.051-.266-.106-.394-.163a2.309,2.309,0,0,0-2.552.482l-1.336,1.336a.2.2,0,0,1-.281,0l-2.017-2.017a.2.2,0,0,1,0-.281l1.336-1.336a2.309,2.309,0,0,0,.482-2.551c-.057-.129-.112-.262-.163-.394a2.308,2.308,0,0,0-2.146-1.464h-1.89a.2.2,0,0,1-.2-.2V57.439a12.028,12.028,0,0,0,11.437-11.23h2.237a.2.2,0,0,1,.2.2V48.3a2.308,2.308,0,0,0,1.465,2.146c.132.051.264.105.394.163a2.309,2.309,0,0,0,2.551-.482L267,48.788a.2.2,0,0,1,.281,0L269.3,50.8a.2.2,0,0,1,0,.281l-1.336,1.336a2.309,2.309,0,0,0-.483,2.551c.057.13.112.263.163.394a2.308,2.308,0,0,0,2.146,1.464h1.89a.2.2,0,0,1,.2.2v2.852Z" transform="translate(-202.083 -33.426)"/>
        <path id="Trazado_1086331" data-name="Trazado 1086331" d="M293.214,75.7h-5.79a1.053,1.053,0,1,0,0,2.106h2.427v.837a1.053,1.053,0,0,0,2.106,0v-.837h1.257a2.225,2.225,0,0,0,2.223-2.223V73.2a2.225,2.225,0,0,0-2.223-2.223h-4.621a.116.116,0,0,1-.116-.116V68.474a.116.116,0,0,1,.116-.116h5.79a1.053,1.053,0,1,0,0-2.106h-2.427v-.837a1.053,1.053,0,0,0-2.106,0v.837h-1.257a2.225,2.225,0,0,0-2.223,2.223v2.387a2.225,2.225,0,0,0,2.223,2.223h4.621a.116.116,0,0,1,.116.116v2.387A.116.116,0,0,1,293.214,75.7Z" transform="translate(-246.157 -60.017)"/>
        <path id="Trazado_1086332" data-name="Trazado 1086332" d="M261.03,108.657v-.68a1.053,1.053,0,0,0-2.106,0v.68a1.053,1.053,0,0,0,2.106,0Z" transform="translate(-222.565 -96.602)"/>
        <path id="Trazado_1086333" data-name="Trazado 1086333" d="M365.486,108.657v-.68a1.053,1.053,0,0,0-2.106,0v.68a1.053,1.053,0,0,0,2.106,0Z" transform="translate(-312.352 -96.602)"/>
        <path id="Trazado_1086334" data-name="Trazado 1086334" d="M1.053,164.716H29.945l-2.269,2.269a1.053,1.053,0,0,0,1.49,1.489l4.067-4.067a1.053,1.053,0,0,0,0-1.489l-4.067-4.067a1.053,1.053,0,1,0-1.489,1.489l2.269,2.269H1.053a1.053,1.053,0,1,0,0,2.106Z" transform="translate(0 -140.973)"/>
        <path id="Trazado_1086335" data-name="Trazado 1086335" d="M5.851,72.2A5.851,5.851,0,1,0,0,66.351,5.857,5.857,0,0,0,5.851,72.2Zm0-9.6a3.744,3.744,0,1,1-3.744,3.744A3.749,3.749,0,0,1,5.851,62.606Z" transform="translate(0 -56.698)"/>
        <path id="Trazado_1086336" data-name="Trazado 1086336" d="M94.609,68.337h15.436a1.053,1.053,0,0,0,0-2.106H94.609a1.053,1.053,0,1,0,0,2.106Z" transform="translate(-80.418 -61.624)"/>
        <path id="Trazado_1086337" data-name="Trazado 1086337" d="M94.609,96.771h15.436a1.053,1.053,0,1,0,0-2.106H94.609a1.053,1.053,0,1,0,0,2.106Z" transform="translate(-80.418 -86.066)"/>
        <path id="Trazado_1086338" data-name="Trazado 1086338" d="M94.609,125.2h8.844a1.053,1.053,0,0,0,0-2.106H94.609a1.053,1.053,0,1,0,0,2.106Z" transform="translate(-80.418 -110.506)"/>
      </g>
    </g>
  </g>
</svg>
