<svg xmlns="http://www.w3.org/2000/svg" xmlns:xlink="http://www.w3.org/1999/xlink" width="113" height="113" viewBox="0 0 113 113">
  <defs>
    <filter id="Trazado_982547" x="0" y="0" width="113" height="113" filterUnits="userSpaceOnUse">
      <feOffset dy="3" input="SourceAlpha"/>
      <feGaussianBlur stdDeviation="3" result="blur"/>
      <feFlood flood-opacity="0.161"/>
      <feComposite operator="in" in2="blur"/>
      <feComposite in="SourceGraphic"/>
    </filter>
  </defs>
  <g id="Grupo_1218761" data-name="Grupo 1218761" transform="translate(-1215.5 -4880.914)">
    <g id="Grupo_1215875" data-name="Grupo 1215875" transform="translate(0.001 -4594)">
      <g id="Grupo_1214722" data-name="Grupo 1214722" transform="translate(1224.499 9480.914)">
        <g id="Grupo_1209935" data-name="Grupo 1209935">
          <g id="Grupo_1208705" data-name="Grupo 1208705">
            <g id="Grupo_1148633" data-name="Grupo 1148633">
              <g id="Grupo_1148525" data-name="Grupo 1148525">
                <g transform="matrix(1, 0, 0, 1, -9, -6)" filter="url(#Trazado_982547)">
                  <g id="Trazado_982547-2" data-name="Trazado 982547" transform="translate(9 6)" fill="#ffefc0">
                    <path d="M 47.5 93.5 C 41.28937149047852 93.5 35.26533508300781 92.28397369384766 29.59518623352051 89.88570404052734 C 24.11771965026855 87.56893157958984 19.19813346862793 84.25196075439453 14.97309303283691 80.02691650390625 C 10.74804019927979 75.80186462402344 7.431066513061523 70.88229370117188 5.114293098449707 65.40481567382812 C 2.716026782989502 59.73468017578125 1.5 53.71062850952148 1.5 47.5 C 1.5 41.28937149047852 2.716026782989502 35.26533508300781 5.114293098449707 29.59518623352051 C 7.431066513061523 24.11771965026855 10.74804019927979 19.19813346862793 14.97309303283691 14.97309303283691 C 19.19813346862793 10.74804019927979 24.11771965026855 7.431066513061523 29.59518623352051 5.114293098449707 C 35.26533508300781 2.716026782989502 41.28937149047852 1.5 47.5 1.5 C 53.71062850952148 1.5 59.73468017578125 2.716026782989502 65.40481567382812 5.114293098449707 C 70.88229370117188 7.431066513061523 75.80186462402344 10.74804019927979 80.02691650390625 14.97309303283691 C 84.25196075439453 19.19813346862793 87.56893157958984 24.11771965026855 89.88570404052734 29.59518623352051 C 92.28397369384766 35.26533508300781 93.5 41.28937149047852 93.5 47.5 C 93.5 53.71062850952148 92.28397369384766 59.73468017578125 89.88570404052734 65.40481567382812 C 87.56893157958984 70.88229370117188 84.25196075439453 75.80186462402344 80.02691650390625 80.02691650390625 C 75.80186462402344 84.25196075439453 70.88229370117188 87.56893157958984 65.40481567382812 89.88570404052734 C 59.73468017578125 92.28397369384766 53.71062850952148 93.5 47.5 93.5 Z" stroke="none"/>
                    <path d="M 47.5 3 C 41.49121475219727 3 35.66376876831055 4.176155090332031 30.17950439453125 6.495796203613281 C 24.88084411621094 8.736953735351562 20.12152099609375 11.94598388671875 16.03375244140625 16.03375244140625 C 11.94598388671875 20.12152099609375 8.736953735351562 24.88084411621094 6.495796203613281 30.17950439453125 C 4.176155090332031 35.66376876831055 3 41.49121475219727 3 47.5 C 3 53.50878524780273 4.176155090332031 59.33623123168945 6.495796203613281 64.82049560546875 C 8.736953735351562 70.11915588378906 11.94598388671875 74.87847900390625 16.03375244140625 78.96624755859375 C 20.12152099609375 83.05401611328125 24.88084411621094 86.26304626464844 30.17950439453125 88.50419616699219 C 35.66376876831055 90.82384490966797 41.49121475219727 92 47.5 92 C 53.50878524780273 92 59.33623123168945 90.82384490966797 64.82049560546875 88.50419616699219 C 70.11915588378906 86.26304626464844 74.87847900390625 83.05401611328125 78.96624755859375 78.96624755859375 C 83.05401611328125 74.87847900390625 86.26304626464844 70.11915588378906 88.50419616699219 64.82049560546875 C 90.82384490966797 59.33623123168945 92 53.50878524780273 92 47.5 C 92 41.49121475219727 90.82384490966797 35.66376876831055 88.50419616699219 30.17950439453125 C 86.26304626464844 24.88084411621094 83.05401611328125 20.12152099609375 78.96624755859375 16.03375244140625 C 74.87847900390625 11.94598388671875 70.11915588378906 8.736953735351562 64.82049560546875 6.495796203613281 C 59.33623123168945 4.176155090332031 53.50878524780273 3 47.5 3 M 47.5 0 C 73.7335205078125 0 95 21.2664794921875 95 47.5 C 95 73.7335205078125 73.7335205078125 95 47.5 95 C 21.2664794921875 95 0 73.7335205078125 0 47.5 C 0 21.2664794921875 21.2664794921875 0 47.5 0 Z" stroke="none" fill="#fc3"/>
                  </g>
                </g>
              </g>
            </g>
          </g>
        </g>
      </g>
    </g>
    <g id="Layer_2" data-name="Layer 2" transform="translate(1237.693 4899.152)">
      <path id="Trazado_1086339" data-name="Trazado 1086339" d="M34.548,3h0A26.681,26.681,0,0,0,8.135,25.908L7,33.854H62.1l-1.135-7.946A26.681,26.681,0,0,0,34.548,3Z" transform="translate(0.51 0.306)" fill="#f8c460"/>
      <path id="Trazado_1086340" data-name="Trazado 1086340" d="M18.332,29.97a6.962,6.962,0,0,1-6.892-7.946h0A26.577,26.577,0,0,1,17.412,8.672,26.611,26.611,0,0,0,8.135,25.33L7,33.276H62.1l-.473-3.306Z" transform="translate(0.51 0.884)" fill="#faaf42"/>
      <path id="Trazado_1086341" data-name="Trazado 1086341" d="M35.265,29.65H30.231a2.2,2.2,0,0,1-2.178-1.873L24.714,6.069A4.408,4.408,0,0,1,29.07,1h7.357a4.408,4.408,0,0,1,4.356,5.078L37.443,27.786A2.2,2.2,0,0,1,35.265,29.65Z" transform="translate(2.31 0.102)" fill="#faaf42"/>
      <rect id="Rectángulo_422064" data-name="Rectángulo 422064" width="63.912" height="6.612" rx="3" transform="translate(3.102 34.16)" fill="#f8c460"/>
      <path id="Trazado_1086342" data-name="Trazado 1086342" d="M6.306,34.306A3.306,3.306,0,0,1,9.612,31H6.306a3.306,3.306,0,1,0,0,6.612H9.612A3.306,3.306,0,0,1,6.306,34.306Z" transform="translate(0.102 3.16)" fill="#faaf42"/>
      <path id="Trazado_1086343" data-name="Trazado 1086343" d="M64.5,39.2V37H51.226a16.509,16.509,0,0,1-32.948,0H5v2.2l4.706.588a25.167,25.167,0,0,0,1.41,5.255L7.333,47.909l3.306,5.73,4.377-1.847a25.468,25.468,0,0,0,3.845,3.845l-1.849,4.375,5.73,3.306,2.865-3.784a25.168,25.168,0,0,0,5.255,1.41l.585,4.706h6.612l.588-4.706a25.167,25.167,0,0,0,5.255-1.41l2.865,3.784,5.73-3.306L50.65,55.635a25.468,25.468,0,0,0,3.845-3.845l4.371,1.849,3.306-5.73-3.784-2.865a25.168,25.168,0,0,0,1.41-5.255Z" transform="translate(0.306 3.772)" fill="#d6e4e8"/>
      <path id="Trazado_1086344" data-name="Trazado 1086344" d="M46.436,40.306h9.045c.031-.172.067-.34.094-.514l4.706-.588V37H47a16.587,16.587,0,0,1-.566,3.306Z" transform="translate(4.53 3.772)" fill="#baced3"/>
      <path id="Trazado_1086345" data-name="Trazado 1086345" d="M18.278,37H5v2.2l4.706.588c.026.173.063.342.094.514h9.045A16.588,16.588,0,0,1,18.278,37Z" transform="translate(0.306 3.772)" fill="#baced3"/>
      <path id="Trazado_1086346" data-name="Trazado 1086346" d="M68.116,37.466a4.408,4.408,0,0,0-4.408-4.408h-.147l-1-7A27.934,27.934,0,0,0,43.92,3.664,5.48,5.48,0,0,0,38.735,0H31.381A5.48,5.48,0,0,0,26.2,3.664,27.934,27.934,0,0,0,7.555,26.057l-1,7H6.408a4.393,4.393,0,0,0-2.2,8.2v1.715a1.1,1.1,0,0,0,.965,1.093l3.894.487a26.36,26.36,0,0,0,1.042,3.878L6.974,50.8a1.1,1.1,0,0,0-.29,1.433l3.306,5.73a1.1,1.1,0,0,0,1.383.465L15,56.9a26.7,26.7,0,0,0,2.835,2.835L16.3,63.355a1.1,1.1,0,0,0,.465,1.383l5.73,3.306a1.1,1.1,0,0,0,1.433-.29l2.37-3.132a26.361,26.361,0,0,0,3.878,1.042l.487,3.894a1.1,1.1,0,0,0,1.087.965h6.612a1.1,1.1,0,0,0,1.093-.965l.487-3.894a26.362,26.362,0,0,0,3.878-1.042l2.366,3.132a1.1,1.1,0,0,0,1.433.29l5.73-3.306a1.1,1.1,0,0,0,.465-1.383L52.286,59.73A26.491,26.491,0,0,0,55.121,56.9l3.624,1.529a1.1,1.1,0,0,0,1.383-.465l3.306-5.73a1.1,1.1,0,0,0-.29-1.433l-3.132-2.37a26.361,26.361,0,0,0,1.042-3.878l3.894-.487a1.1,1.1,0,0,0,.963-1.086V41.261a4.393,4.393,0,0,0,2.2-3.8ZM28.872,3.356A3.306,3.306,0,0,1,31.381,2.2h7.354A3.306,3.306,0,0,1,42,6.013L38.66,27.721a1.094,1.094,0,0,1-1.089.934h-5.03a1.094,1.094,0,0,1-1.089-.934L28.116,6.013a3.306,3.306,0,0,1,.756-2.657ZM9.736,26.37A25.73,25.73,0,0,1,25.912,6.106c.009.08.011.161.024.241l3.339,21.708a3.288,3.288,0,0,0,3.266,2.8h5.034a3.288,3.288,0,0,0,3.267-2.8L44.181,6.343c.013-.08.015-.161.024-.241A25.73,25.73,0,0,1,60.381,26.37l.955,6.688H8.78ZM63.709,42l-3.747.468a1.1,1.1,0,0,0-.952.925,24.119,24.119,0,0,1-1.35,5.025,1.1,1.1,0,0,0,.363,1.277l3.008,2.278L58.7,56.015l-3.474-1.469a1.1,1.1,0,0,0-1.286.323,24.446,24.446,0,0,1-3.673,3.68,1.1,1.1,0,0,0-.331,1.286l1.468,3.48-4.04,2.333L45.086,62.64a1.1,1.1,0,0,0-1.277-.363,24.119,24.119,0,0,1-5.025,1.35,1.1,1.1,0,0,0-.925.952l-.468,3.741H32.725l-.468-3.747a1.1,1.1,0,0,0-.925-.952,24.119,24.119,0,0,1-5.025-1.35,1.1,1.1,0,0,0-1.277.363l-2.278,3.008-4.04-2.333,1.469-3.474a1.1,1.1,0,0,0-.323-1.286A24.4,24.4,0,0,1,16.18,54.87a1.1,1.1,0,0,0-1.287-.324l-3.48,1.468L9.08,51.975,12.088,49.7a1.1,1.1,0,0,0,.363-1.277A24.119,24.119,0,0,1,11.1,43.4a1.1,1.1,0,0,0-.952-.925L6.408,42v-.129H17.6a17.588,17.588,0,0,0,34.909,0h11.2ZM19.82,41.874H50.3a15.392,15.392,0,0,1-30.477,0Zm43.889-2.2H6.408a2.2,2.2,0,0,1,0-4.408h57.3a2.2,2.2,0,0,1,0,4.408Z" transform="translate(0 0)"/>
    </g>
  </g>
</svg>
