<svg xmlns="http://www.w3.org/2000/svg" width="83.815" height="89" viewBox="0 0 83.815 89">
  <g id="Grupo_1218774" data-name="Grupo 1218774" transform="translate(-705 -534)">
    <rect id="Rectángulo_422065" data-name="Rectángulo 422065" width="56" height="89" transform="translate(705 534)" fill="#fc3"/>
    <g id="idea_6_" data-name="idea (6)" transform="translate(703.875 541.577)">
      <g id="Grupo_1218771" data-name="Grupo 1218771" transform="translate(13.44 1.193)">
        <g id="Grupo_1218770" data-name="Grupo 1218770" transform="translate(0)">
          <g id="Grupo_1218766" data-name="Grupo 1218766" transform="translate(8.112)">
            <g id="Grupo_1218762" data-name="Grupo 1218762">
              <path id="Trazado_1086347" data-name="Trazado 1086347" d="M167,56.061a3.431,3.431,0,0,0,3.1-4.907l-3.56-7.474a3.409,3.409,0,0,1-.331-1.425l-.068-5.489a28.949,28.949,0,1,0-57.9-.314,28.822,28.822,0,0,0,5.9,17.516,21.5,21.5,0,0,1,4.364,13.027V83.7h27.6V75.768a2.993,2.993,0,0,1,3.427-2.961l8.333,1.222a4.971,4.971,0,0,0,5.693-4.918v-9.64A3.411,3.411,0,0,1,167,56.061Z" transform="translate(-108.244 -7.504)" fill="#ffece3"/>
            </g>
            <g id="Grupo_1218764" data-name="Grupo 1218764" transform="translate(29.856 0.015)">
              <g id="Grupo_1218763" data-name="Grupo 1218763" transform="translate(1.587 64.323)">
                <path id="Trazado_1086348" data-name="Trazado 1086348" d="M309.39,412.1a2.993,2.993,0,0,0-3.427,2.961v8.86h6.418V416a2.993,2.993,0,0,1,3.217-2.984Z" transform="translate(-305.963 -412.072)" fill="#ffddce"/>
              </g>
              <path id="Trazado_1086349" data-name="Trazado 1086349" d="M327.981,51.232l-3.56-7.474a3.409,3.409,0,0,1-.331-1.425l-.068-5.489A29.165,29.165,0,0,0,295.981,7.6,29.286,29.286,0,0,1,317.6,35.911l.068,5.489A3.41,3.41,0,0,0,318,42.825l3.56,7.474a3.432,3.432,0,0,1-3.1,4.907,3.411,3.411,0,0,0-3.444,3.41v9.64a4.971,4.971,0,0,1-5.408,4.952l6.133.9a4.971,4.971,0,0,0,5.693-4.918V59.55a3.411,3.411,0,0,1,3.444-3.41A3.432,3.432,0,0,0,327.981,51.232Z" transform="translate(-295.981 -7.597)" fill="#ffddce"/>
            </g>
            <path id="Trazado_1086350" data-name="Trazado 1086350" d="M176.637,453.99l-31.363-.03a2.82,2.82,0,0,1-2.818-2.821V447.26a2.82,2.82,0,0,1,3.08-2.808l31.363,2.9a2.82,2.82,0,0,1,2.561,2.808v1.009A2.821,2.821,0,0,1,176.637,453.99Z" transform="translate(-137.015 -374.954)" fill="#8db9c2"/>
            <g id="Grupo_1218765" data-name="Grupo 1218765" transform="translate(33.276 72.036)">
              <path id="Trazado_1086351" data-name="Trazado 1086351" d="M324.1,460.841l-3.908-.361v4.179a2.818,2.818,0,0,1-2.7,2.815l6.346.006a2.821,2.821,0,0,0,2.823-2.821V463.65A2.821,2.821,0,0,0,324.1,460.841Z" transform="translate(-317.489 -460.48)" fill="#7ba0b0"/>
            </g>
          </g>
          <g id="Grupo_1218769" data-name="Grupo 1218769" transform="translate(0 7.624)">
            <g id="Grupo_1218768" data-name="Grupo 1218768">
              <g id="Grupo_1218767" data-name="Grupo 1218767">
                <path id="Trazado_1086352" data-name="Trazado 1086352" d="M126.394,316.774h-5.04a4.874,4.874,0,0,1-4.874-4.874v-6.842h14.788V311.9A4.874,4.874,0,0,1,126.394,316.774Z" transform="translate(-107.058 -265.362)" fill="#daeaef"/>
                <path id="Trazado_1086353" data-name="Trazado 1086353" d="M146.8,305.058V311.9a4.875,4.875,0,0,1-4.16,4.822,4.924,4.924,0,0,0,.714.053h5.04a4.874,4.874,0,0,0,4.874-4.874v-6.842Z" transform="translate(-129.057 -265.363)" fill="#c9e2e7"/>
                <path id="Trazado_1086354" data-name="Trazado 1086354" d="M90.532,72.095A16.648,16.648,0,1,0,61.057,82.707,24.654,24.654,0,0,1,66.84,98.414v.025H80.928v-.026a24.315,24.315,0,0,1,5.715-15.625,16.579,16.579,0,0,0,3.889-10.693Z" transform="translate(-57.236 -55.447)" fill="#fbe77b"/>
                <path id="Trazado_1086355" data-name="Trazado 1086355" d="M144.458,55.448a16.53,16.53,0,0,0-3.02.321,16.649,16.649,0,0,1,9.487,27.019,24.314,24.314,0,0,0-5.715,15.625v.026h6.53v-.026a24.314,24.314,0,0,1,5.715-15.625,16.648,16.648,0,0,0-13-27.339Z" transform="translate(-128.047 -55.447)" fill="#fcdd2e"/>
                <path id="Trazado_1086356" data-name="Trazado 1086356" d="M121.165,299.226H105.918a1.525,1.525,0,0,1-1.525-1.525V291.94a1.525,1.525,0,0,1,1.525-1.525h15.248a1.525,1.525,0,0,1,1.525,1.525V297.7A1.525,1.525,0,0,1,121.165,299.226Z" transform="translate(-96.894 -253.048)" fill="#eff3f5"/>
              </g>
            </g>
            <path id="Trazado_1086357" data-name="Trazado 1086357" d="M115.723,104.778a1.493,1.493,0,0,1-1.055-2.548,1.669,1.669,0,0,0,0-2.361l-.634-.634a1.669,1.669,0,0,0-2.361,0,1.493,1.493,0,0,1-2.548-1.055,1.669,1.669,0,0,0-1.669-1.669h-.9a1.669,1.669,0,0,0-1.669,1.669,1.493,1.493,0,0,1-2.548,1.055,1.669,1.669,0,0,0-2.361,0l-.634.634a1.669,1.669,0,0,0,0,2.361,1.493,1.493,0,0,1-1.055,2.548,1.669,1.669,0,0,0-1.669,1.669v.9a1.669,1.669,0,0,0,1.669,1.669,1.493,1.493,0,0,1,1.055,2.548,1.669,1.669,0,0,0,0,2.361l.634.634a1.669,1.669,0,0,0,2.361,0,1.493,1.493,0,0,1,2.548,1.055,1.669,1.669,0,0,0,1.669,1.669h.9a1.669,1.669,0,0,0,1.669-1.669,1.493,1.493,0,0,1,2.548-1.055,1.669,1.669,0,0,0,2.361,0l.634-.634a1.669,1.669,0,0,0,0-2.361,1.493,1.493,0,0,1,1.055-2.548,1.669,1.669,0,0,0,1.669-1.669v-.9A1.669,1.669,0,0,0,115.723,104.778Zm-8.715,5.067a2.95,2.95,0,1,1,2.95-2.95A2.95,2.95,0,0,1,107.008,109.845Z" transform="translate(-90.36 -89.981)" fill="#d5b0ec"/>
          </g>
        </g>
        <path id="Trazado_1086358" data-name="Trazado 1086358" d="M175.656,290.414h-6.468a1.525,1.525,0,0,1,1.525,1.525V297.7a1.525,1.525,0,0,1-1.525,1.525h6.468a1.525,1.525,0,0,0,1.525-1.525v-5.762A1.525,1.525,0,0,0,175.656,290.414Z" transform="translate(-151.384 -245.423)" fill="#daeaef"/>
      </g>
      <g id="Grupo_1218773" data-name="Grupo 1218773" transform="translate(5.158 0)">
        <g id="Grupo_1218772" data-name="Grupo 1218772">
          <path id="Trazado_1086359" data-name="Trazado 1086359" d="M155.609,7.62A1.193,1.193,0,0,0,156.8,6.426v-2.3a1.194,1.194,0,1,0-2.387,0v2.3A1.194,1.194,0,0,0,155.609,7.62Z" transform="translate(-130.68 -2.464)"/>
          <path id="Trazado_1086360" data-name="Trazado 1086360" d="M251.756,50.312l1.628-1.628A1.193,1.193,0,1,0,251.7,47l-1.628,1.628a1.193,1.193,0,0,0,1.688,1.688Z" transform="translate(-210.826 -39.228)"/>
          <path id="Trazado_1086361" data-name="Trazado 1086361" d="M50.852,247.839l-1.628,1.628a1.193,1.193,0,0,0,1.688,1.688l1.628-1.628a1.193,1.193,0,0,0-1.688-1.688Z" transform="translate(-41.922 -208.132)"/>
          <path id="Trazado_1086362" data-name="Trazado 1086362" d="M292.689,154.575a1.194,1.194,0,1,0,0-2.387h-2.3a1.194,1.194,0,1,0,0,2.387Z" transform="translate(-244.023 -127.986)"/>
          <path id="Trazado_1086363" data-name="Trazado 1086363" d="M8.654,152.188h-2.3a1.194,1.194,0,0,0,0,2.387h2.3a1.194,1.194,0,0,0,0-2.387Z" transform="translate(-5.158 -127.986)"/>
          <path id="Trazado_1086364" data-name="Trazado 1086364" d="M251.756,247.839a1.193,1.193,0,0,0-1.688,1.688l1.492,1.492a1.193,1.193,0,0,0,1.688-1.688Z" transform="translate(-210.826 -208.132)"/>
          <path id="Trazado_1086365" data-name="Trazado 1086365" d="M50.853,50.313a1.193,1.193,0,0,0,1.688-1.688L50.912,47a1.193,1.193,0,0,0-1.688,1.688Z" transform="translate(-41.923 -39.229)"/>
          <path id="Trazado_1086366" data-name="Trazado 1086366" d="M96.875,109.087a.3.3,0,0,1,.511.212,2.866,2.866,0,0,0,2.863,2.863h.9a2.866,2.866,0,0,0,2.863-2.863.3.3,0,0,1,.511-.212,2.863,2.863,0,0,0,4.048,0l.634-.634a2.863,2.863,0,0,0,0-4.048.3.3,0,0,1,.212-.511,2.866,2.866,0,0,0,2.863-2.863v-.9a2.866,2.866,0,0,0-2.863-2.863.3.3,0,0,1-.212-.511,2.863,2.863,0,0,0,0-4.048l-.634-.634a2.863,2.863,0,0,0-4.048,0,.3.3,0,0,1-.511-.212,2.866,2.866,0,0,0-2.863-2.863h-.9a2.866,2.866,0,0,0-2.863,2.863.3.3,0,0,1-.511.212,2.863,2.863,0,0,0-4.048,0l-.634.634a2.863,2.863,0,0,0,0,4.049.3.3,0,0,1-.212.511,2.866,2.866,0,0,0-2.863,2.863v.9a2.866,2.866,0,0,0,2.863,2.863.3.3,0,0,1,.212.511,2.863,2.863,0,0,0,0,4.048l.634.634a2.866,2.866,0,0,0,4.048,0Zm-4.894-7.58a.476.476,0,0,1-.476-.476v-.9a.476.476,0,0,1,.476-.476,2.686,2.686,0,0,0,1.9-4.586.476.476,0,0,1,0-.673l.634-.634a.476.476,0,0,1,.673,0,2.686,2.686,0,0,0,4.586-1.9.476.476,0,0,1,.476-.476h.9a.476.476,0,0,1,.476.476,2.686,2.686,0,0,0,4.586,1.9.476.476,0,0,1,.673,0l.634.634a.476.476,0,0,1,0,.673,2.686,2.686,0,0,0,1.9,4.585.476.476,0,0,1,.476.476v.9a.476.476,0,0,1-.476.476,2.686,2.686,0,0,0-1.9,4.585.476.476,0,0,1,0,.673l-.634.634a.476.476,0,0,1-.673,0,2.686,2.686,0,0,0-4.585,1.9.476.476,0,0,1-.476.476h-.9a.476.476,0,0,1-.476-.476,2.685,2.685,0,0,0-4.586-1.9.476.476,0,0,1-.673,0l-.634-.634a.476.476,0,0,1,0-.673,2.686,2.686,0,0,0-1.9-4.585Z" transform="translate(-75.767 -74.851)"/>
          <path id="Trazado_1086367" data-name="Trazado 1086367" d="M140.011,144.041a4.143,4.143,0,1,0-4.143-4.143A4.148,4.148,0,0,0,140.011,144.041Zm0-5.9a1.756,1.756,0,1,1-1.756,1.756A1.758,1.758,0,0,1,140.011,138.142Z" transform="translate(-115.081 -114.166)"/>
          <path id="Trazado_1086368" data-name="Trazado 1086368" d="M193.637,44.33l-3.56-7.473a2.234,2.234,0,0,1-.215-.926l-.068-5.474A30.356,30.356,0,0,0,159.759,0h-.105a30.1,30.1,0,0,0-15.279,4.155,1.194,1.194,0,1,0,1.212,2.057,27.717,27.717,0,0,1,14.067-3.824h.1a27.968,27.968,0,0,1,27.656,28.083l.068,5.489a4.636,4.636,0,0,0,.447,1.923l3.56,7.473a2.236,2.236,0,0,1-2.009,3.2,4.6,4.6,0,0,0-4.649,4.6V62.8a3.779,3.779,0,0,1-4.326,3.738l-8.333-1.222a4.187,4.187,0,0,0-4.794,4.142V72.1L142.16,69.764V65.809a1.194,1.194,0,1,0-2.387,0v3.734l-.438-.041a4.016,4.016,0,0,0-4.384,4v3.879a4.019,4.019,0,0,0,4.01,4.014l31.363.03h0a4.012,4.012,0,0,0,4.014-4.014V76.4a4,4,0,0,0-3.644-4l-.939-.087V69.458a1.8,1.8,0,0,1,2.06-1.78l8.333,1.222a6.166,6.166,0,0,0,7.059-6.1v-9.64a2.216,2.216,0,0,1,2.25-2.217,4.625,4.625,0,0,0,4.175-6.614ZM171.955,76.4v1.009a1.626,1.626,0,0,1-1.627,1.627h0l-31.363-.03a1.629,1.629,0,0,1-1.625-1.627V73.5a1.626,1.626,0,0,1,1.777-1.62l1.729.16h0l29.633,2.74A1.619,1.619,0,0,1,171.955,76.4Z" transform="translate(-114.31 0)"/>
          <path id="Trazado_1086369" data-name="Trazado 1086369" d="M65.2,101.741h5.04a6.076,6.076,0,0,0,6.038-5.469,2.721,2.721,0,0,0,1.617-2.483V88.027a2.718,2.718,0,0,0-1.208-2.258,23.389,23.389,0,0,1,4.539-8.525c9.839-11.725,1.248-29.5-13.928-29.3-14.96.208-22.984,17.755-13.492,29.213a24.232,24.232,0,0,1,4.6,8.621,2.717,2.717,0,0,0-1.194,2.249v5.762a2.721,2.721,0,0,0,1.967,2.61A6.075,6.075,0,0,0,65.2,101.741ZM59.927,94.12a.332.332,0,0,1-.331-.331V88.027a.332.332,0,0,1,.331-.331H75.185a.331.331,0,0,1,.321.33v5.762a.332.332,0,0,1-.331.331Zm10.311,5.233H65.2a3.686,3.686,0,0,1-3.584-2.847H73.823A3.686,3.686,0,0,1,70.239,99.354ZM67.331,50.331A15.475,15.475,0,0,1,79.4,75.71a25.783,25.783,0,0,0-5.061,9.6H60.752a26.614,26.614,0,0,0-5.108-9.675A15.48,15.48,0,0,1,67.331,50.331Z" transform="translate(-42.622 -40.318)"/>
        </g>
      </g>
    </g>
  </g>
</svg>
