<svg xmlns="http://www.w3.org/2000/svg" xmlns:xlink="http://www.w3.org/1999/xlink" width="93.934" height="93.934" viewBox="0 0 93.934 93.934">
  <defs>
    <filter id="Trazado_982547" x="0" y="0" width="93.934" height="93.934" filterUnits="userSpaceOnUse">
      <feOffset dy="3" input="SourceAlpha"/>
      <feGaussianBlur stdDeviation="3" result="blur"/>
      <feFlood flood-opacity="0.161"/>
      <feComposite operator="in" in2="blur"/>
      <feComposite in="SourceGraphic"/>
    </filter>
  </defs>
  <g id="Grupo_1218780" data-name="Grupo 1218780" transform="translate(-611.066 -1611)">
    <g id="Grupo_1218055" data-name="Grupo 1218055" transform="translate(420 -6838.729)">
      <g id="Grupo_1214711" data-name="Grupo 1214711" transform="translate(-0.229 3321.729)">
        <g id="Grupo_1214432" data-name="Grupo 1214432" transform="translate(-0.771 -2738.674)">
          <g id="Grupo_1183196" data-name="Grupo 1183196" transform="translate(1 1016.674)">
            <g id="Grupo_1179610" data-name="Grupo 1179610" transform="translate(8 4723.467)">
              <g id="Grupo_1175227" data-name="Grupo 1175227" transform="translate(-5.967 140.533)">
                <g id="Grupo_1167337" data-name="Grupo 1167337" transform="translate(198.033 1992)">
                  <g id="Grupo_1166720" data-name="Grupo 1166720">
                    <g id="Grupo_1164305" data-name="Grupo 1164305">
                      <g id="Grupo_1163948" data-name="Grupo 1163948">
                        <g id="Grupo_1158168" data-name="Grupo 1158168">
                          <g id="Grupo_1152576" data-name="Grupo 1152576">
                            <g id="Grupo_1148633" data-name="Grupo 1148633">
                              <g id="Grupo_1148525" data-name="Grupo 1148525">
                                <g transform="matrix(1, 0, 0, 1, -9, -6)" filter="url(#Trazado_982547)">
                                  <g id="Trazado_982547-2" data-name="Trazado 982547" transform="translate(9 6)" fill="#eaf5fb">
                                    <path d="M 37.966796875 74.43359375 C 33.04315185546875 74.43359375 28.26757431030273 73.46962738037109 23.77274131774902 71.56847381591797 C 19.43047523498535 69.73184967041016 15.53040790557861 67.10224914550781 12.18087482452393 63.75271987915039 C 8.831341743469238 60.4031867980957 6.201741218566895 56.50312042236328 4.365118980407715 52.16086196899414 C 2.463963508605957 47.66601943969727 1.499996900558472 42.89044189453125 1.499996900558472 37.966796875 C 1.499996900558472 33.04315185546875 2.463963508605957 28.26757431030273 4.365118980407715 23.77274131774902 C 6.201741218566895 19.43047523498535 8.831341743469238 15.53040790557861 12.18087482452393 12.18087482452393 C 15.53040790557861 8.831341743469238 19.43047523498535 6.201741218566895 23.77274131774902 4.365118980407715 C 28.26757431030273 2.463963508605957 33.04315185546875 1.499996900558472 37.966796875 1.499996900558472 C 42.89044189453125 1.499996900558472 47.66601943969727 2.463963508605957 52.16086196899414 4.365118980407715 C 56.50312042236328 6.201741218566895 60.4031867980957 8.831341743469238 63.75271987915039 12.18087482452393 C 67.10224914550781 15.53040790557861 69.73184967041016 19.43047523498535 71.56847381591797 23.77274131774902 C 73.46962738037109 28.26757431030273 74.43359375 33.04315185546875 74.43359375 37.966796875 C 74.43359375 42.89044189453125 73.46962738037109 47.66601943969727 71.56847381591797 52.16086196899414 C 69.73184967041016 56.50313186645508 67.10224914550781 60.4031867980957 63.75271987915039 63.75271987915039 C 60.4031867980957 67.10224914550781 56.50313186645508 69.73184967041016 52.16086196899414 71.56847381591797 C 47.66601943969727 73.46962738037109 42.89044189453125 74.43359375 37.966796875 74.43359375 Z" stroke="none"/>
                                    <path d="M 37.966796875 3 C 33.2449836730957 3 28.66600799560547 3.924095153808594 24.35705947875977 5.746635437011719 C 20.19359588623047 7.507637023925781 16.45379638671875 10.02928161621094 13.24153518676758 13.24153518676758 C 10.02927398681641 16.45379638671875 7.507621765136719 20.19359588623047 5.746635437011719 24.35705947875977 C 3.924095153808594 28.66600799560547 3 33.2449836730957 3 37.966796875 C 3 42.6886100769043 3.924095153808594 47.26758575439453 5.746635437011719 51.57653427124023 C 7.507621765136719 55.73999786376953 10.02927398681641 59.47979736328125 13.24153518676758 62.69205856323242 C 16.45379638671875 65.90431976318359 20.19359588623047 68.42597198486328 24.35705947875977 70.18695831298828 C 28.66600799560547 72.00949859619141 33.2449836730957 72.93359375 37.966796875 72.93359375 C 42.6886100769043 72.93359375 47.26758575439453 72.00949859619141 51.57653427124023 70.18695831298828 C 55.73999786376953 68.42597198486328 59.47979736328125 65.90431976318359 62.69205856323242 62.69205856323242 C 65.90431976318359 59.47979736328125 68.42597198486328 55.73999786376953 70.18695831298828 51.57653427124023 C 72.00949859619141 47.26758575439453 72.93359375 42.6886100769043 72.93359375 37.966796875 C 72.93359375 33.2449836730957 72.00949859619141 28.66600799560547 70.18695831298828 24.35705947875977 C 68.42597198486328 20.19359588623047 65.90431976318359 16.45379638671875 62.69205856323242 13.24153518676758 C 59.47979736328125 10.02928161621094 55.73999786376953 7.507637023925781 51.57653427124023 5.746635437011719 C 47.26758575439453 3.924095153808594 42.6886100769043 3 37.966796875 3 M 37.966796875 0 C 58.93528366088867 0 75.93359375 16.99832153320312 75.93359375 37.966796875 C 75.93359375 58.93528366088867 58.93528366088867 75.93359375 37.966796875 75.93359375 C 16.99831008911133 75.93359375 0 58.93528366088867 0 37.966796875 C 0 16.99832153320312 16.99831008911133 0 37.966796875 0 Z" stroke="none" fill="#3ea6db"/>
                                  </g>
                                </g>
                              </g>
                            </g>
                          </g>
                        </g>
                      </g>
                    </g>
                  </g>
                </g>
              </g>
            </g>
          </g>
        </g>
      </g>
    </g>
    <g id="FILLED_OUTLINE" transform="translate(619.379 1616.312)">
      <path id="Trazado_1086384" data-name="Trazado 1086384" d="M32,96h6.041v23.409H32Z" transform="translate(-14.49 -72.448)" fill="#46accb"/>
      <path id="Trazado_1086385" data-name="Trazado 1086385" d="M128,24h6.041V54.206H128Z" transform="translate(-101.428 -7.244)" fill="#46accb"/>
      <path id="Trazado_1086386" data-name="Trazado 1086386" d="M224,73h6.041V98.58H224Z" transform="translate(-188.366 -51.619)" fill="#46accb"/>
      <path id="Trazado_1086387" data-name="Trazado 1086387" d="M320,24h6.041V54.206H320Z" transform="translate(-275.305 -7.244)" fill="#46accb"/>
      <path id="Trazado_1086388" data-name="Trazado 1086388" d="M416,73h6.041V98.58H416Z" transform="translate(-362.243 -51.619)" fill="#46accb"/>
      <path id="Trazado_1086389" data-name="Trazado 1086389" d="M24,368H45.144v5.286H24Z" transform="translate(-7.245 -318.773)" fill="#f9b89b"/>
      <path id="Trazado_1086390" data-name="Trazado 1086390" d="M34.572,373.286,24,368v6.041c0,2.919,4.733,5.286,10.572,5.286H67.8v-6.041Z" transform="translate(-7.245 -318.773)" fill="#f4aa8e"/>
      <g id="Grupo_1218779" data-name="Grupo 1218779" transform="translate(17.144 43.448)">
        <ellipse id="Elipse_14463" data-name="Elipse 14463" cx="10.293" cy="5.146" rx="10.293" ry="5.146" transform="translate(0 0)" fill="#ffcbb1"/>
        <path id="Trazado_1086391" data-name="Trazado 1086391" d="M192,424h1.51v3.021H192Z" transform="translate(-176.53 -412.936)" fill="#ffcbb1"/>
        <path id="Trazado_1086392" data-name="Trazado 1086392" d="M256,424h1.51v3.021H256Z" transform="translate(-234.489 -412.936)" fill="#ffcbb1"/>
        <path id="Trazado_1086393" data-name="Trazado 1086393" d="M320,424h1.51v3.021H320Z" transform="translate(-292.448 -412.936)" fill="#ffcbb1"/>
        <path id="Trazado_1086394" data-name="Trazado 1086394" d="M384,424h1.51v3.021H384Z" transform="translate(-350.407 -412.936)" fill="#ffcbb1"/>
        <path id="Trazado_1086395" data-name="Trazado 1086395" d="M448,424h1.51v3.021H448Z" transform="translate(-408.366 -412.936)" fill="#ffcbb1"/>
      </g>
      <ellipse id="Elipse_14464" data-name="Elipse 14464" cx="4.575" cy="1.144" rx="4.575" ry="1.144" transform="translate(22.862 48.023)" fill="#f4aa8e"/>
      <path id="Trazado_1086396" data-name="Trazado 1086396" d="M298.123,200.613h-6.041l-2.265,3.021-2.265-3.021H281.51A1.51,1.51,0,0,1,280,199.1V185.51a1.51,1.51,0,0,1,1.51-1.51h16.613a1.51,1.51,0,0,1,1.51,1.51V199.1A1.51,1.51,0,0,1,298.123,200.613Z" transform="translate(-239.08 -152.142)" fill="#abc79b"/>
      <path id="Trazado_1086397" data-name="Trazado 1086397" d="M328,232h10.572v9.062H328Z" transform="translate(-282.549 -195.611)" fill="#ffe8de"/>
      <path id="Trazado_1086398" data-name="Trazado 1086398" d="M344,208h1.51v2.265H344Z" transform="translate(-297.039 -173.876)" fill="#ffe8de"/>
      <path id="Trazado_1086399" data-name="Trazado 1086399" d="M408,208h1.51v2.265H408Z" transform="translate(-354.998 -173.876)" fill="#ffe8de"/>
      <path id="Trazado_1086400" data-name="Trazado 1086400" d="M328,232h10.572v3.021H328Z" transform="translate(-282.549 -195.611)" fill="#8bb276"/>
      <path id="Trazado_1086401" data-name="Trazado 1086401" d="M360,288h1.51v1.51H360Z" transform="translate(-311.529 -246.325)" fill="#abc79b"/>
      <path id="Trazado_1086402" data-name="Trazado 1086402" d="M392,288h1.51v1.51H392Z" transform="translate(-340.508 -246.325)" fill="#abc79b"/>
      <path id="Trazado_1086403" data-name="Trazado 1086403" d="M58.808,88.311,57.6,87.4l9.062-12.082A.755.755,0,0,1,67.6,75.1l8.62,4.31,8.682-7.235a.755.755,0,0,1,.821-.1l9.062,4.531-.675,1.351-8.62-4.31-8.682,7.235a.755.755,0,0,1-.821.1l-8.5-4.249Z" transform="translate(-37.673 -50.713)" fill="#abc79b"/>
      <path id="Trazado_1086404" data-name="Trazado 1086404" d="M129.51,423.873v3.021H128V423.86q.374.013.755.013Z" transform="translate(-101.428 -369.36)" fill="#ffcbb1"/>
      <path id="Trazado_1086405" data-name="Trazado 1086405" d="M64,415.15h1.51v-3.728a13.814,13.814,0,0,1-1.51-.53Z" transform="translate(-43.469 -357.617)" fill="#ffcbb1"/>
      <path id="Trazado_1086406" data-name="Trazado 1086406" d="M60.553,314.572h-21.9v-4.531c0-3.388-4.975-6.041-11.327-6.041S16,306.654,16,310.041v6.041c0,3.388,4.975,6.041,11.327,6.041H60.553a.755.755,0,0,0,.755-.755v-6.041a.755.755,0,0,0-.755-.755Zm-40.364-7.593a16.356,16.356,0,0,1,7.138-1.469,16.356,16.356,0,0,1,7.138,1.469c1.7.851,2.679,1.967,2.679,3.062s-.976,2.211-2.679,3.062a16.356,16.356,0,0,1-7.138,1.469,16.356,16.356,0,0,1-7.138-1.469c-1.7-.851-2.679-1.967-2.679-3.062S18.487,307.83,20.189,306.979Zm16.955,6.12v1.473h-2.25a8.926,8.926,0,0,0,2.25-1.473ZM59.8,320.613H27.327a16.356,16.356,0,0,1-7.138-1.469c-1.7-.851-2.679-1.967-2.679-3.062V313.1a9.65,9.65,0,0,0,3.021,1.807v3.442h1.51v-2.941a19.63,19.63,0,0,0,4.531.662v2.279h1.51v-2.265h4.531v2.265h1.51v-2.265h4.531v2.265h1.51v-2.265H44.7v2.265h1.51v-2.265h4.531v2.265h1.51v-2.265h4.531v2.265h1.51v-2.265H59.8Z" transform="translate(0 -260.814)"/>
      <path id="Trazado_1086407" data-name="Trazado 1086407" d="M85.286,348.531c2.631,0,5.286-.7,5.286-2.265S87.917,344,85.286,344,80,344.7,80,346.265,82.655,348.531,85.286,348.531Zm0-3.021a7.031,7.031,0,0,1,3.707.755,7.03,7.03,0,0,1-3.707.755,7.03,7.03,0,0,1-3.707-.755A7.031,7.031,0,0,1,85.286,345.51Z" transform="translate(-57.959 -297.039)"/>
      <path id="Trazado_1086408" data-name="Trazado 1086408" d="M290.879,176H274.265A2.268,2.268,0,0,0,272,178.265v13.593a2.268,2.268,0,0,0,2.265,2.265h5.664l2.039,2.718a.755.755,0,0,0,1.208,0l2.039-2.718h5.664a2.268,2.268,0,0,0,2.265-2.265V178.265A2.268,2.268,0,0,0,290.879,176Zm.755,15.858a.756.756,0,0,1-.755.755h-6.041a.755.755,0,0,0-.6.3l-1.661,2.215-1.661-2.215a.755.755,0,0,0-.6-.3h-6.041a.756.756,0,0,1-.755-.755V178.265a.756.756,0,0,1,.755-.755h16.613a.756.756,0,0,1,.755.755Z" transform="translate(-231.835 -144.897)"/>
      <path id="Trazado_1086409" data-name="Trazado 1086409" d="M331.327,209.51h-1.51V208h-1.51v1.51h-4.531V208h-1.51v1.51h-1.51a.755.755,0,0,0-.755.755v9.062a.755.755,0,0,0,.755.755h10.572a.755.755,0,0,0,.755-.755v-9.062A.755.755,0,0,0,331.327,209.51Zm-.755,9.062H321.51v-4.531h9.062Zm0-6.041H321.51v-1.51h9.062Z" transform="translate(-275.305 -173.876)"/>
      <path id="Trazado_1086410" data-name="Trazado 1086410" d="M25.51,24.307h4.531v8.558l-2.87,3.826,1.208.906,1.661-2.215V42.43h1.51V33.369l1.51-2.014v10.32h1.51V29.341l2.491-3.322,2.039,1.02V41.675h1.51V27.794l1.51.755V43.186h1.51V29.3l1.928.964a.755.755,0,0,0,.821-.1l1.782-1.485v.9h1.51V27.43l1.51-1.259v3.422H52.7V24.912l2.369-1.975,2.161,1.081v5.574h1.51V24.774l1.51.755v4.064h1.51V26.284l1.928.964L64.36,25.9l-2.6-1.3V22.8h4.531v6.8H67.8V22.042a.755.755,0,0,0-.755-.755H61a.755.755,0,0,0-.755.755v1.8l-1.51-.755v-6.33A.755.755,0,0,0,57.981,16H51.94a.755.755,0,0,0-.755.755v7.449l-1.51,1.259V22.042a.755.755,0,0,0-.755-.755H42.879a.755.755,0,0,0-.755.755v4.819l-1.51-.755v-9.35A.755.755,0,0,0,39.858,16H33.817a.755.755,0,0,0-.755.755V28.838l-1.51,2.014v-7.3A.755.755,0,0,0,30.8,22.8H24.755a.755.755,0,0,0-.755.755V43.941h1.51Zm27.185-6.8h4.531V22.33L55.3,21.366a.755.755,0,0,0-.821.1L52.7,22.946ZM43.634,22.8h4.531v3.925L45.8,28.7l-2.161-1.081Zm-9.062-5.286H39.1v7.84l-1.928-.964a.755.755,0,0,0-.942.222l-1.661,2.215Z" transform="translate(-7.245)"/>
      <path id="Trazado_1086411" data-name="Trazado 1086411" d="M360,288h1.51v1.51H360Z" transform="translate(-311.529 -246.325)"/>
      <path id="Trazado_1086412" data-name="Trazado 1086412" d="M392,288h1.51v1.51H392Z" transform="translate(-340.508 -246.325)"/>
    </g>
  </g>
</svg>
