<svg xmlns="http://www.w3.org/2000/svg" xmlns:xlink="http://www.w3.org/1999/xlink" width="93.934" height="93.934" viewBox="0 0 93.934 93.934">
  <defs>
    <filter id="Trazado_982547" x="0" y="0" width="93.934" height="93.934" filterUnits="userSpaceOnUse">
      <feOffset dy="3" input="SourceAlpha"/>
      <feGaussianBlur stdDeviation="3" result="blur"/>
      <feFlood flood-opacity="0.161"/>
      <feComposite operator="in" in2="blur"/>
      <feComposite in="SourceGraphic"/>
    </filter>
  </defs>
  <g id="Grupo_1218814" data-name="Grupo 1218814" transform="translate(-611.066 -1763)">
    <g id="Grupo_1218058" data-name="Grupo 1218058" transform="translate(420 -6686.729)">
      <g id="Grupo_1214711" data-name="Grupo 1214711" transform="translate(-0.229 3321.729)">
        <g id="Grupo_1214432" data-name="Grupo 1214432" transform="translate(-0.771 -2738.674)">
          <g id="Grupo_1183196" data-name="Grupo 1183196" transform="translate(1 1016.674)">
            <g id="Grupo_1179610" data-name="Grupo 1179610" transform="translate(8 4723.467)">
              <g id="Grupo_1175227" data-name="Grupo 1175227" transform="translate(-5.967 140.533)">
                <g id="Grupo_1167337" data-name="Grupo 1167337" transform="translate(198.033 1992)">
                  <g id="Grupo_1166720" data-name="Grupo 1166720">
                    <g id="Grupo_1164305" data-name="Grupo 1164305">
                      <g id="Grupo_1163948" data-name="Grupo 1163948">
                        <g id="Grupo_1158168" data-name="Grupo 1158168">
                          <g id="Grupo_1152576" data-name="Grupo 1152576">
                            <g id="Grupo_1148633" data-name="Grupo 1148633">
                              <g id="Grupo_1148525" data-name="Grupo 1148525">
                                <g transform="matrix(1, 0, 0, 1, -9, -6)" filter="url(#Trazado_982547)">
                                  <g id="Trazado_982547-2" data-name="Trazado 982547" transform="translate(9 6)" fill="#eaf5fb">
                                    <path d="M 37.966796875 74.43359375 C 33.04315185546875 74.43359375 28.26757431030273 73.46962738037109 23.77274131774902 71.56847381591797 C 19.43047523498535 69.73184967041016 15.53040790557861 67.10224914550781 12.18087482452393 63.75271987915039 C 8.831341743469238 60.4031867980957 6.201741218566895 56.50312042236328 4.365118980407715 52.16086196899414 C 2.463963508605957 47.66601943969727 1.499996900558472 42.89044189453125 1.499996900558472 37.966796875 C 1.499996900558472 33.04315185546875 2.463963508605957 28.26757431030273 4.365118980407715 23.77274131774902 C 6.201741218566895 19.43047523498535 8.831341743469238 15.53040790557861 12.18087482452393 12.18087482452393 C 15.53040790557861 8.831341743469238 19.43047523498535 6.201741218566895 23.77274131774902 4.365118980407715 C 28.26757431030273 2.463963508605957 33.04315185546875 1.499996900558472 37.966796875 1.499996900558472 C 42.89044189453125 1.499996900558472 47.66601943969727 2.463963508605957 52.16086196899414 4.365118980407715 C 56.50312042236328 6.201741218566895 60.4031867980957 8.831341743469238 63.75271987915039 12.18087482452393 C 67.10224914550781 15.53040790557861 69.73184967041016 19.43047523498535 71.56847381591797 23.77274131774902 C 73.46962738037109 28.26757431030273 74.43359375 33.04315185546875 74.43359375 37.966796875 C 74.43359375 42.89044189453125 73.46962738037109 47.66601943969727 71.56847381591797 52.16086196899414 C 69.73184967041016 56.50313186645508 67.10224914550781 60.4031867980957 63.75271987915039 63.75271987915039 C 60.4031867980957 67.10224914550781 56.50313186645508 69.73184967041016 52.16086196899414 71.56847381591797 C 47.66601943969727 73.46962738037109 42.89044189453125 74.43359375 37.966796875 74.43359375 Z" stroke="none"/>
                                    <path d="M 37.966796875 3 C 33.2449836730957 3 28.66600799560547 3.924095153808594 24.35705947875977 5.746635437011719 C 20.19359588623047 7.507637023925781 16.45379638671875 10.02928161621094 13.24153518676758 13.24153518676758 C 10.02927398681641 16.45379638671875 7.507621765136719 20.19359588623047 5.746635437011719 24.35705947875977 C 3.924095153808594 28.66600799560547 3 33.2449836730957 3 37.966796875 C 3 42.6886100769043 3.924095153808594 47.26758575439453 5.746635437011719 51.57653427124023 C 7.507621765136719 55.73999786376953 10.02927398681641 59.47979736328125 13.24153518676758 62.69205856323242 C 16.45379638671875 65.90431976318359 20.19359588623047 68.42597198486328 24.35705947875977 70.18695831298828 C 28.66600799560547 72.00949859619141 33.2449836730957 72.93359375 37.966796875 72.93359375 C 42.6886100769043 72.93359375 47.26758575439453 72.00949859619141 51.57653427124023 70.18695831298828 C 55.73999786376953 68.42597198486328 59.47979736328125 65.90431976318359 62.69205856323242 62.69205856323242 C 65.90431976318359 59.47979736328125 68.42597198486328 55.73999786376953 70.18695831298828 51.57653427124023 C 72.00949859619141 47.26758575439453 72.93359375 42.6886100769043 72.93359375 37.966796875 C 72.93359375 33.2449836730957 72.00949859619141 28.66600799560547 70.18695831298828 24.35705947875977 C 68.42597198486328 20.19359588623047 65.90431976318359 16.45379638671875 62.69205856323242 13.24153518676758 C 59.47979736328125 10.02928161621094 55.73999786376953 7.507637023925781 51.57653427124023 5.746635437011719 C 47.26758575439453 3.924095153808594 42.6886100769043 3 37.966796875 3 M 37.966796875 0 C 58.93528366088867 0 75.93359375 16.99832153320312 75.93359375 37.966796875 C 75.93359375 58.93528366088867 58.93528366088867 75.93359375 37.966796875 75.93359375 C 16.99831008911133 75.93359375 0 58.93528366088867 0 37.966796875 C 0 16.99832153320312 16.99831008911133 0 37.966796875 0 Z" stroke="none" fill="#3ea6db"/>
                                  </g>
                                </g>
                              </g>
                            </g>
                          </g>
                        </g>
                      </g>
                    </g>
                  </g>
                </g>
              </g>
            </g>
          </g>
        </g>
      </g>
    </g>
    <g id="lista-de-verificacion_3_" data-name="lista-de-verificacion (3)" transform="translate(597.866 1782.823)">
      <g id="Grupo_1218787" data-name="Grupo 1218787" transform="translate(39.625 0.735)">
        <path id="Trazado_1086434" data-name="Trazado 1086434" d="M81.238,56.207H47.975a1.584,1.584,0,0,1-1.584-1.584V9.084A1.584,1.584,0,0,1,47.975,7.5H81.238a1.584,1.584,0,0,1,1.584,1.584V54.623a1.584,1.584,0,0,1-1.584,1.584Z" transform="translate(-46.391 -7.5)" fill="#ecf4ff"/>
      </g>
      <g id="Grupo_1218788" data-name="Grupo 1218788" transform="translate(72.493 0.735)">
        <path id="Trazado_1086435" data-name="Trazado 1086435" d="M383.745,7.5h-1.98a1.584,1.584,0,0,1,1.584,1.584V54.623a1.584,1.584,0,0,1-1.584,1.584h1.98a1.584,1.584,0,0,0,1.584-1.584V9.084A1.584,1.584,0,0,0,383.745,7.5Z" transform="translate(-381.765 -7.5)" fill="#ddeafb"/>
      </g>
      <g id="Grupo_1218807" data-name="Grupo 1218807" transform="translate(43.486 7.071)">
        <g id="Grupo_1218794" data-name="Grupo 1218794" transform="translate(0)">
          <g id="Grupo_1218793" data-name="Grupo 1218793">
            <g id="Grupo_1218792" data-name="Grupo 1218792">
              <g id="Grupo_1218791" data-name="Grupo 1218791">
                <g id="Grupo_1218789" data-name="Grupo 1218789" transform="translate(0)">
                  <path id="Trazado_1086436" data-name="Trazado 1086436" d="M94.274,82.05H87.2a1.414,1.414,0,0,1-1.414-1.414V73.564A1.414,1.414,0,0,1,87.2,72.15h7.071a1.414,1.414,0,0,1,1.414,1.414v7.071A1.414,1.414,0,0,1,94.274,82.05Z" transform="translate(-85.788 -72.15)" fill="#b3e59f"/>
                </g>
                <g id="Grupo_1218790" data-name="Grupo 1218790" transform="translate(0 0.006)">
                  <path id="Trazado_1086437" data-name="Trazado 1086437" d="M94.392,72.212q.022.295.023.6a7.743,7.743,0,0,1-7.743,7.743,7.832,7.832,0,0,1-.884-.05v.192A1.414,1.414,0,0,0,87.2,82.106h7.071a1.414,1.414,0,0,0,1.414-1.414V73.62A1.414,1.414,0,0,0,94.392,72.212Z" transform="translate(-85.788 -72.212)" fill="#95d6a4"/>
                </g>
              </g>
            </g>
          </g>
        </g>
        <g id="Grupo_1218800" data-name="Grupo 1218800" transform="translate(0 13.068)">
          <g id="Grupo_1218799" data-name="Grupo 1218799">
            <g id="Grupo_1218798" data-name="Grupo 1218798">
              <g id="Grupo_1218797" data-name="Grupo 1218797">
                <g id="Grupo_1218795" data-name="Grupo 1218795" transform="translate(0)">
                  <path id="Trazado_1086438" data-name="Trazado 1086438" d="M94.274,215.392H87.2a1.414,1.414,0,0,1-1.414-1.414v-7.071a1.414,1.414,0,0,1,1.414-1.414h7.071a1.414,1.414,0,0,1,1.414,1.414v7.071A1.414,1.414,0,0,1,94.274,215.392Z" transform="translate(-85.788 -205.492)" fill="#b3e59f"/>
                </g>
                <g id="Grupo_1218796" data-name="Grupo 1218796" transform="translate(0 0.006)">
                  <path id="Trazado_1086439" data-name="Trazado 1086439" d="M94.392,205.553q.022.295.023.6a7.743,7.743,0,0,1-8.627,7.692v.192a1.414,1.414,0,0,0,1.414,1.414h7.071a1.414,1.414,0,0,0,1.414-1.414v-7.071A1.414,1.414,0,0,0,94.392,205.553Z" transform="translate(-85.788 -205.553)" fill="#95d6a4"/>
                </g>
              </g>
            </g>
          </g>
        </g>
        <g id="Grupo_1218806" data-name="Grupo 1218806" transform="translate(0 26.136)">
          <g id="Grupo_1218805" data-name="Grupo 1218805">
            <g id="Grupo_1218804" data-name="Grupo 1218804">
              <g id="Grupo_1218803" data-name="Grupo 1218803">
                <g id="Grupo_1218801" data-name="Grupo 1218801" transform="translate(0)">
                  <path id="Trazado_1086440" data-name="Trazado 1086440" d="M94.274,348.734H87.2a1.414,1.414,0,0,1-1.414-1.414v-7.071a1.414,1.414,0,0,1,1.414-1.414h7.071a1.414,1.414,0,0,1,1.414,1.414v7.071A1.414,1.414,0,0,1,94.274,348.734Z" transform="translate(-85.788 -338.834)" fill="#b3e59f"/>
                </g>
                <g id="Grupo_1218802" data-name="Grupo 1218802" transform="translate(0 0.006)">
                  <path id="Trazado_1086441" data-name="Trazado 1086441" d="M94.392,338.895q.022.295.023.6a7.743,7.743,0,0,1-8.627,7.693v.192a1.414,1.414,0,0,0,1.414,1.414h7.071a1.414,1.414,0,0,0,1.414-1.414V340.3a1.414,1.414,0,0,0-1.3-1.408Z" transform="translate(-85.788 -338.895)" fill="#95d6a4"/>
                </g>
              </g>
            </g>
          </g>
        </g>
      </g>
      <g id="Grupo_1218812" data-name="Grupo 1218812" transform="translate(64.682 24.103)">
        <g id="Grupo_1218808" data-name="Grupo 1218808" transform="translate(0)">
          <path id="Trazado_1086442" data-name="Trazado 1086442" d="M304.172,270.482l-1.852.8-.23-2.006a3.96,3.96,0,0,1,.5-2.43l12.068-20.9,3.429,1.98-12.068,20.9A3.96,3.96,0,0,1,304.172,270.482Z" transform="translate(-302.064 -245.947)" fill="#4a80aa"/>
        </g>
        <g id="Grupo_1218809" data-name="Grupo 1218809" transform="translate(0.085 1.089)">
          <path id="Trazado_1086443" data-name="Trazado 1086443" d="M317.331,257.059l-12.068,20.9a3.96,3.96,0,0,1-1.852,1.652l-.479.208.17,1.487,1.852-.8a3.96,3.96,0,0,0,1.852-1.652l12.068-20.9Z" transform="translate(-302.932 -257.059)" fill="#407093"/>
        </g>
        <g id="Grupo_1218810" data-name="Grupo 1218810" transform="translate(9.232 3.088)">
          <path id="Trazado_1086444" data-name="Trazado 1086444" d="M0,0H3.168V3.96H0Z" transform="matrix(0.5, -0.866, 0.866, 0.5, 0, 2.743)" fill="#ffe07d"/>
        </g>
        <g id="Grupo_1218811" data-name="Grupo 1218811" transform="translate(11.118 4.177)">
          <path id="Trazado_1086445" data-name="Trazado 1086445" d="M0,0H3.168V1.782H0Z" transform="matrix(0.5, -0.866, 0.866, 0.5, 0, 2.743)" fill="#ffd064"/>
        </g>
      </g>
      <g id="Grupo_1218813" data-name="Grupo 1218813" transform="translate(38.89 0)">
        <path id="Trazado_1086446" data-name="Trazado 1086446" d="M39.625,40.411a.735.735,0,0,0,.735-.735V2.319a.85.85,0,0,1,.849-.849H74.473a.85.85,0,0,1,.849.849v7.789a.735.735,0,1,0,1.47,0V2.319A2.321,2.321,0,0,0,74.473,0H41.209A2.321,2.321,0,0,0,38.89,2.319V39.676a.735.735,0,0,0,.735.735Z" transform="translate(-38.89 0)"/>
        <path id="Trazado_1086447" data-name="Trazado 1086447" d="M89.657,66.8a2.152,2.152,0,0,0-2.149-2.149H80.436A2.152,2.152,0,0,0,78.287,66.8v7.071a2.152,2.152,0,0,0,2.149,2.149h7.071a2.152,2.152,0,0,0,2.149-2.149Zm-1.47,7.071a.68.68,0,0,1-.679.679H80.436a.68.68,0,0,1-.679-.679V66.8a.68.68,0,0,1,.679-.679h7.071a.68.68,0,0,1,.679.679Z" transform="translate(-74.426 -58.314)"/>
        <path id="Trazado_1086448" data-name="Trazado 1086448" d="M114.59,102.579l-1.988,1.988-.734-.734a.735.735,0,1,0-1.039,1.039l1.254,1.254a.735.735,0,0,0,1.039,0l2.508-2.508a.735.735,0,0,0-1.039-1.04Z" transform="translate(-103.584 -92.332)"/>
        <path id="Trazado_1086449" data-name="Trazado 1086449" d="M226.506,114.609h11.583a.735.735,0,0,0,0-1.47H226.506a.735.735,0,0,0,0,1.47Z" transform="translate(-207.456 -102.051)"/>
        <path id="Trazado_1086450" data-name="Trazado 1086450" d="M307.277,80.813h-7.029a.735.735,0,0,0,0,1.47h7.029a.735.735,0,0,0,0-1.47Z" transform="translate(-273.971 -72.893)"/>
        <path id="Trazado_1086451" data-name="Trazado 1086451" d="M226.506,82.283h3.762a.735.735,0,0,0,0-1.47h-3.762a.735.735,0,0,0,0,1.47Z" transform="translate(-207.456 -72.893)"/>
        <path id="Trazado_1086452" data-name="Trazado 1086452" d="M271.963,145.464a.735.735,0,1,0,0,1.47h3.861a.735.735,0,0,0,0-1.47Z" transform="translate(-248.458 -131.208)"/>
        <path id="Trazado_1086453" data-name="Trazado 1086453" d="M226.506,146.934h.99a.735.735,0,0,0,0-1.47h-.99a.735.735,0,0,0,0,1.47Z" transform="translate(-207.456 -131.208)"/>
        <path id="Trazado_1086454" data-name="Trazado 1086454" d="M89.657,200.141a2.152,2.152,0,0,0-2.149-2.149H80.436a2.152,2.152,0,0,0-2.149,2.149v7.071a2.152,2.152,0,0,0,2.149,2.149h7.071a2.152,2.152,0,0,0,2.149-2.149Zm-1.47,7.071a.68.68,0,0,1-.679.679H80.436a.68.68,0,0,1-.679-.679v-7.071a.68.68,0,0,1,.679-.679h7.071a.68.68,0,0,1,.679.679Z" transform="translate(-74.426 -178.588)"/>
        <path id="Trazado_1086455" data-name="Trazado 1086455" d="M114.59,235.921l-1.988,1.988-.734-.734a.735.735,0,0,0-1.039,1.04l1.254,1.254a.735.735,0,0,0,1.039,0l2.508-2.508a.735.735,0,0,0-1.039-1.04Z" transform="translate(-103.584 -212.606)"/>
        <path id="Trazado_1086456" data-name="Trazado 1086456" d="M238.824,247.214a.735.735,0,0,0-.735-.735H226.506a.735.735,0,0,0,0,1.47h11.583A.735.735,0,0,0,238.824,247.214Z" transform="translate(-207.456 -222.323)"/>
        <path id="Trazado_1086457" data-name="Trazado 1086457" d="M308.012,214.889a.735.735,0,0,0-.735-.735h-7.029a.735.735,0,0,0,0,1.47h7.029A.735.735,0,0,0,308.012,214.889Z" transform="translate(-273.971 -193.166)"/>
        <path id="Trazado_1086458" data-name="Trazado 1086458" d="M226.506,215.624h3.762a.735.735,0,0,0,0-1.47h-3.762a.735.735,0,0,0,0,1.47Z" transform="translate(-207.456 -193.166)"/>
        <path id="Trazado_1086459" data-name="Trazado 1086459" d="M276.56,279.54a.735.735,0,0,0-.735-.735h-3.861a.735.735,0,1,0,0,1.47h3.861A.735.735,0,0,0,276.56,279.54Z" transform="translate(-248.459 -251.481)"/>
        <path id="Trazado_1086460" data-name="Trazado 1086460" d="M226.506,280.275h.99a.735.735,0,1,0,0-1.47h-.99a.735.735,0,1,0,0,1.47Z" transform="translate(-207.456 -251.481)"/>
        <path id="Trazado_1086461" data-name="Trazado 1086461" d="M87.508,331.333H80.436a2.152,2.152,0,0,0-2.149,2.149v7.071a2.152,2.152,0,0,0,2.149,2.149h7.071a2.152,2.152,0,0,0,2.149-2.149v-7.071A2.152,2.152,0,0,0,87.508,331.333Zm.679,9.221a.68.68,0,0,1-.679.679H80.436a.68.68,0,0,1-.679-.679v-7.071a.68.68,0,0,1,.679-.679h7.071a.68.68,0,0,1,.679.679Z" transform="translate(-74.426 -298.862)"/>
        <path id="Trazado_1086462" data-name="Trazado 1086462" d="M114.59,369.261l-1.988,1.988-.734-.734a.735.735,0,0,0-1.039,1.04l1.254,1.254a.735.735,0,0,0,1.039,0l2.508-2.508a.735.735,0,0,0-1.039-1.04Z" transform="translate(-103.584 -332.879)"/>
        <path id="Trazado_1086463" data-name="Trazado 1086463" d="M226.506,348.966h3.762a.735.735,0,0,0,0-1.47h-3.762a.735.735,0,1,0,0,1.47Z" transform="translate(-207.456 -313.441)"/>
        <path id="Trazado_1086464" data-name="Trazado 1086464" d="M227.5,413.616a.735.735,0,0,0,0-1.47h-.99a.735.735,0,0,0,0,1.47Z" transform="translate(-207.456 -371.755)"/>
        <path id="Trazado_1086465" data-name="Trazado 1086465" d="M81.42,143.73a.735.735,0,0,0-.343-.446l-3.429-1.98a.735.735,0,0,0-.857.088V131.375a.735.735,0,1,0-1.47,0v12.489l-4.636,8.029H65.166a.735.735,0,0,0,0,1.47h4.671l-.98,1.7H57.94a.735.735,0,1,0,0,1.47H68.008l-.98,1.7H62.395a.735.735,0,0,0,0,1.47h3.784l-1.6,2.777a4.659,4.659,0,0,0-.6,2.881l.136,1.188h-22.9a.85.85,0,0,1-.849-.849v-4.752a.735.735,0,0,0-1.47,0V165.7a2.321,2.321,0,0,0,2.319,2.319H74.473a2.321,2.321,0,0,0,2.319-2.319V152.177l4.555-7.889A.735.735,0,0,0,81.42,143.73Zm-4.345,5.016L74.919,147.5l.849-1.47,2.156,1.245ZM75.321,165.7a.85.85,0,0,1-.849.849H68.1a4.716,4.716,0,0,0,1.182-1.354l2.875-4.979a.735.735,0,1,0-1.273-.735L68,164.455A3.249,3.249,0,0,1,66.5,165.8l-.942.409-.117-1.02a3.2,3.2,0,0,1,.411-1.979l8.335-14.435,2.156,1.245L72.6,156.5a.735.735,0,1,0,1.273.735l1.453-2.517V165.7ZM78.658,146,76.5,144.758l1.047-1.813,2.156,1.245Z" transform="translate(-38.89 -117.837)"/>
      </g>
    </g>
  </g>
</svg>
