<svg xmlns="http://www.w3.org/2000/svg" xmlns:xlink="http://www.w3.org/1999/xlink" width="103" height="103" viewBox="0 0 103 103">
  <defs>
    <filter id="Trazado_978624" x="0" y="0" width="103" height="103" filterUnits="userSpaceOnUse">
      <feOffset dy="3" input="SourceAlpha"/>
      <feGaussianBlur stdDeviation="3" result="blur"/>
      <feFlood flood-opacity="0.161"/>
      <feComposite operator="in" in2="blur"/>
      <feComposite in="SourceGraphic"/>
    </filter>
  </defs>
  <g id="Grupo_1218834" data-name="Grupo 1218834" transform="translate(-191.375 -4329.578)">
    <g id="Grupo_1218068" data-name="Grupo 1218068" transform="translate(200.375 4335.578)">
      <g id="Grupo_1213565" data-name="Grupo 1213565" transform="translate(0)">
        <g id="Grupo_1210098" data-name="Grupo 1210098">
          <g id="Grupo_1178144" data-name="Grupo 1178144">
            <g id="Grupo_1177896" data-name="Grupo 1177896">
              <g id="Grupo_1176881" data-name="Grupo 1176881">
                <g id="Grupo_1175148" data-name="Grupo 1175148">
                  <g id="Grupo_1173798" data-name="Grupo 1173798">
                    <g id="Grupo_1171925" data-name="Grupo 1171925">
                      <g id="Grupo_1164524" data-name="Grupo 1164524">
                        <g id="Grupo_1144123" data-name="Grupo 1144123">
                          <g transform="matrix(1, 0, 0, 1, -9, -6)" filter="url(#Trazado_978624)">
                            <g id="Trazado_978624-2" data-name="Trazado 978624" transform="translate(9 6)" fill="#eaf5fb">
                              <path d="M 42.5 83.5 C 36.96437835693359 83.5 31.59512901306152 82.41617584228516 26.54141235351562 80.27863311767578 C 21.65934181213379 78.21369171142578 17.27447128295898 75.25723266601562 13.50862312316895 71.49137878417969 C 9.742764472961426 67.72553253173828 6.786305904388428 63.34066009521484 4.721364498138428 58.45858764648438 C 2.583823442459106 53.40486907958984 1.5 48.03562164306641 1.5 42.5 C 1.5 36.96437835693359 2.583823442459106 31.59512901306152 4.721364498138428 26.54141235351562 C 6.786305904388428 21.65934181213379 9.742764472961426 17.27447128295898 13.50862312316895 13.50862312316895 C 17.27447128295898 9.742764472961426 21.65934181213379 6.786305904388428 26.54141235351562 4.721364498138428 C 31.59512901306152 2.583823442459106 36.96437835693359 1.5 42.5 1.5 C 48.03562164306641 1.5 53.40486907958984 2.583823442459106 58.45858764648438 4.721364498138428 C 63.34066009521484 6.786305904388428 67.72553253173828 9.742764472961426 71.49137878417969 13.50862312316895 C 75.25723266601562 17.27447128295898 78.21369171142578 21.65934181213379 80.27863311767578 26.54141235351562 C 82.41617584228516 31.59512901306152 83.5 36.96437835693359 83.5 42.5 C 83.5 48.03562164306641 82.41617584228516 53.40486907958984 80.27863311767578 58.45858764648438 C 78.21369171142578 63.34066009521484 75.25723266601562 67.72553253173828 71.49137878417969 71.49137878417969 C 67.72553253173828 75.25723266601562 63.34066009521484 78.21369171142578 58.45858764648438 80.27863311767578 C 53.40486907958984 82.41617584228516 48.03562164306641 83.5 42.5 83.5 Z" stroke="none"/>
                              <path d="M 42.5 3 C 37.16621398925781 3 31.99356079101562 4.043960571289062 27.125732421875 6.102882385253906 C 22.42246627807617 8.092185974121094 18.19785308837891 10.94070434570312 14.56928253173828 14.56928253173828 C 10.94070434570312 18.19785308837891 8.092185974121094 22.42246627807617 6.102882385253906 27.125732421875 C 4.043960571289062 31.99356079101562 3 37.16621398925781 3 42.5 C 3 47.83378601074219 4.043960571289062 53.00643920898438 6.102882385253906 57.87425231933594 C 8.092185974121094 62.57753372192383 10.94070434570312 66.80213165283203 14.56928253173828 70.43071746826172 C 18.19786834716797 74.05929565429688 22.42246627807617 76.90781402587891 27.125732421875 78.89711761474609 C 31.99356079101562 80.95603942871094 37.16621398925781 82 42.5 82 C 47.83378601074219 82 53.00642395019531 80.95603942871094 57.87425231933594 78.89711761474609 C 62.57753372192383 76.90781402587891 66.80213165283203 74.05929565429688 70.43071746826172 70.43071746826172 C 74.05929565429688 66.80213165283203 76.90781402587891 62.57753372192383 78.89711761474609 57.87425231933594 C 80.95603942871094 53.00642395019531 82 47.83378601074219 82 42.5 C 82 37.16621398925781 80.95603942871094 31.99356079101562 78.89711761474609 27.125732421875 C 76.90781402587891 22.42246627807617 74.05929565429688 18.19786834716797 70.43071746826172 14.56928253173828 C 66.80213165283203 10.94070434570312 62.57753372192383 8.092185974121094 57.87425231933594 6.102882385253906 C 53.00643920898438 4.043960571289062 47.83378601074219 3 42.5 3 M 42.5 0 C 65.97209167480469 0 85 19.02789306640625 85 42.5 C 85 65.97209167480469 65.97209167480469 85 42.5 85 C 19.02789306640625 85 0 65.97209167480469 0 42.5 C 0 19.02789306640625 19.02789306640625 0 42.5 0 Z" stroke="none" fill="#3ea6db"/>
                            </g>
                          </g>
                        </g>
                      </g>
                    </g>
                  </g>
                </g>
              </g>
            </g>
          </g>
        </g>
      </g>
    </g>
    <g id="maquina-de-fabricacion" transform="translate(200.375 4343.846)">
      <g id="Grupo_1218832" data-name="Grupo 1218832" transform="translate(0.828 0.839)">
        <g id="Grupo_1218815" data-name="Grupo 1218815" transform="translate(5.605 58.477)">
          <path id="Trazado_1086466" data-name="Trazado 1086466" d="M21.318,397.9c-9.159,0-9.159,13.941,0,13.941H78c9.153,0,9.162-13.941,0-13.941Z" transform="translate(-14.448 -397.902)" fill="#f7c5b8" fill-rule="evenodd"/>
        </g>
        <g id="Grupo_1218816" data-name="Grupo 1218816" transform="translate(53.223 43.712)">
          <path id="Trazado_1086467" data-name="Trazado 1086467" d="M49.163,304.6v14.765H66.476V304.6Z" transform="translate(-49.163 -304.598)" fill="#6c8cc7" fill-rule="evenodd"/>
        </g>
        <g id="Grupo_1218817" data-name="Grupo 1218817" transform="translate(22.79 0.422)">
          <path id="Trazado_1086468" data-name="Trazado 1086468" d="M219.92,43.032c-2.185,1.629-1.909,5.227.119,7.333,2.1,2.027,5.7,2.3,7.331.118l11.99-14.43-5.01-5.01Z" transform="translate(-218.396 -31.043)" fill="#8ed8f8" fill-rule="evenodd"/>
        </g>
        <g id="Grupo_1218818" data-name="Grupo 1218818" transform="translate(16.783 17.416)">
          <path id="Trazado_1086469" data-name="Trazado 1086469" d="M261.841,168.422l-5.757-26.711,12.223-3.275,8.37,26.011c1.524,3.939-1.35,8.312-5.43,9.405S262.491,172.594,261.841,168.422Z" transform="translate(-256.085 -138.436)" fill="#8ed8f8" fill-rule="evenodd"/>
        </g>
        <g id="Grupo_1218819" data-name="Grupo 1218819" transform="translate(15.805 12.989)">
          <path id="Trazado_1086470" data-name="Trazado 1086470" d="M303.319,110.724a7.705,7.705,0,1,0,9.436,5.449A7.707,7.707,0,0,0,303.319,110.724Z" transform="translate(-297.606 -110.459)" fill="#6c8cc7" fill-rule="evenodd"/>
        </g>
        <g id="Grupo_1218820" data-name="Grupo 1218820" transform="translate(19.609 16.792)">
          <path id="Trazado_1086471" data-name="Trazado 1086471" d="M324.532,134.626a3.9,3.9,0,1,0,4.78,2.76A3.9,3.9,0,0,0,324.532,134.626Z" transform="translate(-321.638 -134.492)" fill="#8ed8f8" fill-rule="evenodd"/>
        </g>
        <g id="Grupo_1218821" data-name="Grupo 1218821" transform="translate(35.903 0)">
          <path id="Trazado_1086472" data-name="Trazado 1086472" d="M161.578,29.006c-1.7-1.345-4.412-.391-5.612,1.6-1.125,2.035-.6,4.858,1.42,5.66l12.94,5.957,2.882-4.992Z" transform="translate(-155.385 -28.379)" fill="#6c8cc7" fill-rule="evenodd"/>
        </g>
        <g id="Grupo_1218822" data-name="Grupo 1218822" transform="translate(49.562 6.631)">
          <path id="Trazado_1086473" data-name="Trazado 1086473" d="M0,5.015H10.9V0H0Z" transform="translate(0 9.438) rotate(-59.999)" fill="#8ed8f8" fill-rule="evenodd"/>
        </g>
        <g id="Grupo_1218823" data-name="Grupo 1218823" transform="translate(12.038 35.012)">
          <path id="Trazado_1086474" data-name="Trazado 1086474" d="M254.952,273.09l-3.9-23.465H228.045l-3.9,23.465Z" transform="translate(-224.146 -249.625)" fill="#6c8cc7" fill-rule="evenodd"/>
        </g>
        <g id="Grupo_1218824" data-name="Grupo 1218824" transform="translate(65.474 62.199)">
          <path id="Trazado_1086475" data-name="Trazado 1086475" d="M44.178,427.808a3.248,3.248,0,1,0-3.977-2.3A3.248,3.248,0,0,0,44.178,427.808Z" transform="translate(-40.09 -421.423)" fill="#6c8cc7" fill-rule="evenodd"/>
        </g>
        <g id="Grupo_1218825" data-name="Grupo 1218825" transform="translate(51.522 62.199)">
          <path id="Trazado_1086476" data-name="Trazado 1086476" d="M132.348,427.808a3.248,3.248,0,1,0-3.977-2.3A3.248,3.248,0,0,0,132.348,427.808Z" transform="translate(-128.26 -421.423)" fill="#6c8cc7" fill-rule="evenodd"/>
        </g>
        <g id="Grupo_1218826" data-name="Grupo 1218826" transform="translate(37.569 62.199)">
          <path id="Trazado_1086477" data-name="Trazado 1086477" d="M220.518,427.808a3.248,3.248,0,1,0-3.977-2.3A3.248,3.248,0,0,0,220.518,427.808Z" transform="translate(-216.43 -421.423)" fill="#6c8cc7" fill-rule="evenodd"/>
        </g>
        <g id="Grupo_1218827" data-name="Grupo 1218827" transform="translate(23.616 62.199)">
          <path id="Trazado_1086478" data-name="Trazado 1086478" d="M308.689,427.808a3.248,3.248,0,1,0-3.978-2.3A3.248,3.248,0,0,0,308.689,427.808Z" transform="translate(-304.6 -421.423)" fill="#6c8cc7" fill-rule="evenodd"/>
        </g>
        <g id="Grupo_1218828" data-name="Grupo 1218828" transform="translate(9.663 62.199)">
          <path id="Trazado_1086479" data-name="Trazado 1086479" d="M396.859,427.808a3.247,3.247,0,1,0-3.977-2.3,3.249,3.249,0,0,0,3.977,2.3Z" transform="translate(-392.77 -421.423)" fill="#6c8cc7" fill-rule="evenodd"/>
        </g>
        <g id="Grupo_1218829" data-name="Grupo 1218829" transform="translate(3.221 44.131)">
          <ellipse id="Elipse_14472" data-name="Elipse 14472" cx="2.455" cy="2.455" rx="2.455" ry="2.455" fill="#08a9f1"/>
        </g>
        <g id="Grupo_1218830" data-name="Grupo 1218830" transform="translate(0 52.353)">
          <ellipse id="Elipse_14473" data-name="Elipse 14473" cx="2.455" cy="2.455" rx="2.455" ry="2.455" fill="#08a9f1"/>
        </g>
        <g id="Grupo_1218831" data-name="Grupo 1218831" transform="translate(0.113 36.518)">
          <ellipse id="Elipse_14474" data-name="Elipse 14474" cx="2.455" cy="2.455" rx="2.455" ry="2.455" fill="#08a9f1"/>
        </g>
      </g>
      <g id="Grupo_1218833" data-name="Grupo 1218833" transform="translate(0 0)">
        <path id="Trazado_1086480" data-name="Trazado 1086480" d="M324.927,131.774a4.9,4.9,0,1,1-4.739-3.638A4.913,4.913,0,0,1,324.927,131.774Zm-2.073.555a2.764,2.764,0,1,0-1.952,3.382A2.765,2.765,0,0,0,322.854,132.329Z" transform="translate(-295.844 -111.51)"/>
        <path id="Trazado_1086481" data-name="Trazado 1086481" d="M87.39,336.216H82.4a1.108,1.108,0,0,1,0-2.215H87.39a1.108,1.108,0,0,1,0,2.215Z" transform="translate(-22.19 -284.796)"/>
        <path id="Trazado_1086482" data-name="Trazado 1086482" d="M40.374,411.634a4.263,4.263,0,1,1-3.015,5.221A4.278,4.278,0,0,1,40.374,411.634Zm-.942,4.666a2.117,2.117,0,1,0,2.046-2.666,2.119,2.119,0,0,0-2.046,2.666Z" transform="translate(27.514 -350.022)"/>
        <path id="Trazado_1086483" data-name="Trazado 1086483" d="M126.981,411.634a4.263,4.263,0,1,1-3.015,5.221A4.279,4.279,0,0,1,126.981,411.634Zm-.942,4.666a2.117,2.117,0,1,0,2.046-2.666,2.119,2.119,0,0,0-2.046,2.666Z" transform="translate(-72.799 -350.022)"/>
        <path id="Trazado_1086484" data-name="Trazado 1086484" d="M213.589,411.634A4.264,4.264,0,1,1,211,413.62,4.236,4.236,0,0,1,213.589,411.634Zm-.942,4.666a2.117,2.117,0,1,0,2.047-2.666,2.118,2.118,0,0,0-2.047,2.666Z" transform="translate(-173.112 -350.022)"/>
        <path id="Trazado_1086485" data-name="Trazado 1086485" d="M300.2,411.634a4.264,4.264,0,1,1-2.589,1.986A4.236,4.236,0,0,1,300.2,411.634Zm-.942,4.666a2.117,2.117,0,1,0,2.047-2.666,2.118,2.118,0,0,0-2.047,2.666Z" transform="translate(-273.425 -350.022)"/>
        <path id="Trazado_1086486" data-name="Trazado 1086486" d="M392.026,414.648a4.259,4.259,0,1,1-4.116-3.161A4.269,4.269,0,0,1,392.026,414.648Zm-5.952.045a2.1,2.1,0,0,0-.211,1.606,2.117,2.117,0,1,0,2.046-2.666,2.123,2.123,0,0,0-1.835,1.06Z" transform="translate(-373.74 -350.021)"/>
        <path id="Trazado_1086487" data-name="Trazado 1086487" d="M15.332,75.058A3.485,3.485,0,0,1,18.648,77.5h1.112l3.6-3.623a1.091,1.091,0,0,1,.758-.334h1.354l.335-2.057H21.7a3.477,3.477,0,1,1,0-2.057h4.466l.235-1.424h-2.28a1.093,1.093,0,0,1-.758-.333l-3.6-3.623H18.648a3.447,3.447,0,0,1-3.315,2.4,3.492,3.492,0,0,1-3.483-3.489,3.444,3.444,0,0,1,3.483-3.433,3.5,3.5,0,0,1,3.315,2.464H20.2a1.024,1.024,0,0,1,.758.254l3.6,3.544h2.193l1.175-7.041a1.051,1.051,0,0,1,1.058-.871h2.533l-1.561-7.264a8.65,8.65,0,0,1,6.125-14.646c.1-.088.2-.171.289-.24L48.994,25.246a5.624,5.624,0,0,1,3.388-2.092,4.069,4.069,0,0,1,3.292.735l10.462,7.4.673-1.165a1.073,1.073,0,0,1,1.466-.393L72.542,32.2a1.073,1.073,0,0,1,.393,1.466l-.222.385L76.2,34.4a1.073,1.073,0,0,1,.822.533l1.891,3.3A1.073,1.073,0,1,1,77.053,39.3l-1.617-2.818-3.9-.4L68.98,40.512l2.292,3.235,3.249.047h0A1.026,1.026,0,0,1,75.6,44.807a1.055,1.055,0,0,1-1.069,1.054l-3.8-.01h0a1.077,1.077,0,0,1-.87-.452L67.8,42.552l-.222.382a1.072,1.072,0,0,1-1.466.392L61.85,40.863a1.073,1.073,0,0,1-.393-1.466l.673-1.165-8.439-3.886-8.45,10.169a4.654,4.654,0,0,1-.416.483,8.8,8.8,0,0,1-.245,1.7l3.591,11.18H51.59a1.1,1.1,0,0,1,1.058.925l3.681,22.18h8.71V67.455a.989.989,0,0,1,1.014-1.031H83.059a1.087,1.087,0,0,1,1.128,1.031V81.361a7.894,7.894,0,0,1,4.93,7.483,7.682,7.682,0,0,1-7.848,7.965H25.589a7.948,7.948,0,0,1-1.354-15.756l.884-5.292h-.553l-3.6,3.543a1.021,1.021,0,0,1-.758.255H18.647a3.476,3.476,0,1,1-3.315-4.5ZM18.386,69.1a1.339,1.339,0,1,0,1.339,1.339A1.34,1.34,0,0,0,18.386,69.1Zm-3.054-7.478a1.339,1.339,0,1,0,1.34,1.339A1.341,1.341,0,0,0,15.332,61.617ZM27.65,73.546h4.681a4.919,4.919,0,0,1-.718-2.057H27.985Zm9.764,3.889a.239.239,0,0,0,.069.229,1.807,1.807,0,0,0,1.33.488,2.49,2.49,0,0,0,.432-.044V74.415a1.03,1.03,0,1,1,2.057,0v3.693a2.694,2.694,0,0,0,.448.044,1.813,1.813,0,0,0,1.332-.488c.093-.117.087-.185.077-.229a1.078,1.078,0,0,1,.834-1.28,1.958,1.958,0,0,0,1.442-.961.682.682,0,0,0-.094-.678,1.01,1.01,0,0,0-.945-.378,1.073,1.073,0,0,1-.076-2.144,3.37,3.37,0,0,1,2.012.54,4.141,4.141,0,0,0,0-4.2,3.284,3.284,0,0,1-1.867.541c-.048,0-.1,0-.147,0a1.073,1.073,0,0,1,.076-2.144,1,1,0,0,0,.949-.383.68.68,0,0,0,.091-.673,1.956,1.956,0,0,0-1.441-.961,1.072,1.072,0,0,1-.829-1.28c.007-.035.024-.109-.079-.236a1.782,1.782,0,0,0-1.316-.479,2.763,2.763,0,0,0-.47.045v3.689a1.03,1.03,0,1,1-2.057,0V62.76a2.5,2.5,0,0,0-.432-.044,1.789,1.789,0,0,0-1.323.488.245.245,0,0,0-.073.23,1.075,1.075,0,0,1-.831,1.28,1.957,1.957,0,0,0-1.442.961.68.68,0,0,0,.091.673,1.009,1.009,0,0,0,.949.383,1.073,1.073,0,1,1,.076,2.144c-.049,0-.1,0-.147,0a3.286,3.286,0,0,1-1.868-.541,4.142,4.142,0,0,0,0,4.195,3.276,3.276,0,0,1,2.014-.537,1.073,1.073,0,1,1-.076,2.144,1.016,1.016,0,0,0-.945.377.682.682,0,0,0-.095.679,1.956,1.956,0,0,0,1.441.961,1.073,1.073,0,0,1,.829,1.281Zm-9.073-8h3.271a7.086,7.086,0,0,1,.4-1.424H28.577Zm2.225-28.07a6.495,6.495,0,1,0,11.769,5.351l-.012-.038.027-.009a6.494,6.494,0,0,0-11.783-5.3Zm35.693-.43.527-.912h0l3.754-6.5-2.409-1.391-4.28,7.413Zm-1.2-7.774-10.67-7.55a2,2,0,0,0-1.624-.342,3.319,3.319,0,0,0-2.541,4.4,2.031,2.031,0,0,0,1.159,1.258l11.822,5.443Zm-13.385.26-1.135-.523A4.113,4.113,0,0,1,48.2,30.388a5.308,5.308,0,0,1-.3-1.453l-9,7.473A8.659,8.659,0,0,1,44.46,42.1ZM43.257,49.6a8.689,8.689,0,0,1-10.7,2.874l1.162,5.409h12.2ZM81.972,68.64H67.1V80.983H81.275c.243,0,.539-.086.7-.068ZM19.914,88.817a5.492,5.492,0,0,0,5.675,5.776H81.27a5.777,5.777,0,0,0,.005-11.552H25.589A5.492,5.492,0,0,0,19.914,88.817Zm6.512-7.833H54.154L50.681,60.094H29.9l-.967,5.7h4.02a2.769,2.769,0,0,1,.2-.924,3.75,3.75,0,0,1,2.165-2.009,2.471,2.471,0,0,1,.491-1A3.873,3.873,0,0,1,38.8,60.571a4.213,4.213,0,0,1,1.492.268,4.306,4.306,0,0,1,1.51-.266,3.781,3.781,0,0,1,2.958,1.28,2.508,2.508,0,0,1,.5,1.006,3.752,3.752,0,0,1,2.168,2.012,2.781,2.781,0,0,1,.139,1.66,5.87,5.87,0,0,1,0,7.806A2.783,2.783,0,0,1,47.426,76a3.752,3.752,0,0,1-2.165,2.011,2.475,2.475,0,0,1-.491,1A3.874,3.874,0,0,1,41.78,80.3a4.205,4.205,0,0,1-1.49-.268,4.207,4.207,0,0,1-1.49.268,3.873,3.873,0,0,1-2.988-1.288,2.471,2.471,0,0,1-.491-1,3.685,3.685,0,0,1-2.165-1.963c-.044-.109-.079-.284-.109-.284H27.294ZM15.332,79.849a1.339,1.339,0,1,0-1.338-1.339A1.341,1.341,0,0,0,15.332,79.849Z" transform="translate(-11.849 -23.076)"/>
      </g>
    </g>
  </g>
</svg>
