<svg xmlns="http://www.w3.org/2000/svg" xmlns:xlink="http://www.w3.org/1999/xlink" width="93.934" height="93.934" viewBox="0 0 93.934 93.934">
  <defs>
    <filter id="Trazado_982547" x="0" y="0" width="93.934" height="93.934" filterUnits="userSpaceOnUse">
      <feOffset dy="3" input="SourceAlpha"/>
      <feGaussianBlur stdDeviation="3" result="blur"/>
      <feFlood flood-opacity="0.161"/>
      <feComposite operator="in" in2="blur"/>
      <feComposite in="SourceGraphic"/>
    </filter>
  </defs>
  <g id="Grupo_1219353" data-name="Grupo 1219353" transform="translate(-191.066 -440)">
    <g id="Grupo_1218069" data-name="Grupo 1218069" transform="translate(0 -8009.729)">
      <g id="Grupo_1214711" data-name="Grupo 1214711" transform="translate(-0.229 3321.729)">
        <g id="Grupo_1214432" data-name="Grupo 1214432" transform="translate(-0.771 -2738.674)">
          <g id="Grupo_1183196" data-name="Grupo 1183196" transform="translate(1 1016.674)">
            <g id="Grupo_1179610" data-name="Grupo 1179610" transform="translate(8 4723.467)">
              <g id="Grupo_1175227" data-name="Grupo 1175227" transform="translate(-5.967 140.533)">
                <g id="Grupo_1167337" data-name="Grupo 1167337" transform="translate(198.033 1992)">
                  <g id="Grupo_1166720" data-name="Grupo 1166720">
                    <g id="Grupo_1164305" data-name="Grupo 1164305">
                      <g id="Grupo_1163948" data-name="Grupo 1163948">
                        <g id="Grupo_1158168" data-name="Grupo 1158168">
                          <g id="Grupo_1152576" data-name="Grupo 1152576">
                            <g id="Grupo_1148633" data-name="Grupo 1148633">
                              <g id="Grupo_1148525" data-name="Grupo 1148525">
                                <g transform="matrix(1, 0, 0, 1, -9, -6)" filter="url(#Trazado_982547)">
                                  <g id="Trazado_982547-2" data-name="Trazado 982547" transform="translate(9 6)" fill="#eaf5fb">
                                    <path d="M 37.966796875 74.43359375 C 33.04315185546875 74.43359375 28.26757431030273 73.46962738037109 23.77274131774902 71.56847381591797 C 19.43047523498535 69.73184967041016 15.53040790557861 67.10224914550781 12.18087482452393 63.75271987915039 C 8.831341743469238 60.4031867980957 6.201741218566895 56.50312042236328 4.365118980407715 52.16086196899414 C 2.463963508605957 47.66601943969727 1.499996900558472 42.89044189453125 1.499996900558472 37.966796875 C 1.499996900558472 33.04315185546875 2.463963508605957 28.26757431030273 4.365118980407715 23.77274131774902 C 6.201741218566895 19.43047523498535 8.831341743469238 15.53040790557861 12.18087482452393 12.18087482452393 C 15.53040790557861 8.831341743469238 19.43047523498535 6.201741218566895 23.77274131774902 4.365118980407715 C 28.26757431030273 2.463963508605957 33.04315185546875 1.499996900558472 37.966796875 1.499996900558472 C 42.89044189453125 1.499996900558472 47.66601943969727 2.463963508605957 52.16086196899414 4.365118980407715 C 56.50312042236328 6.201741218566895 60.4031867980957 8.831341743469238 63.75271987915039 12.18087482452393 C 67.10224914550781 15.53040790557861 69.73184967041016 19.43047523498535 71.56847381591797 23.77274131774902 C 73.46962738037109 28.26757431030273 74.43359375 33.04315185546875 74.43359375 37.966796875 C 74.43359375 42.89044189453125 73.46962738037109 47.66601943969727 71.56847381591797 52.16086196899414 C 69.73184967041016 56.50313186645508 67.10224914550781 60.4031867980957 63.75271987915039 63.75271987915039 C 60.4031867980957 67.10224914550781 56.50313186645508 69.73184967041016 52.16086196899414 71.56847381591797 C 47.66601943969727 73.46962738037109 42.89044189453125 74.43359375 37.966796875 74.43359375 Z" stroke="none"/>
                                    <path d="M 37.966796875 3 C 33.2449836730957 3 28.66600799560547 3.924095153808594 24.35705947875977 5.746635437011719 C 20.19359588623047 7.507637023925781 16.45379638671875 10.02928161621094 13.24153518676758 13.24153518676758 C 10.02927398681641 16.45379638671875 7.507621765136719 20.19359588623047 5.746635437011719 24.35705947875977 C 3.924095153808594 28.66600799560547 3 33.2449836730957 3 37.966796875 C 3 42.6886100769043 3.924095153808594 47.26758575439453 5.746635437011719 51.57653427124023 C 7.507621765136719 55.73999786376953 10.02927398681641 59.47979736328125 13.24153518676758 62.69205856323242 C 16.45379638671875 65.90431976318359 20.19359588623047 68.42597198486328 24.35705947875977 70.18695831298828 C 28.66600799560547 72.00949859619141 33.2449836730957 72.93359375 37.966796875 72.93359375 C 42.6886100769043 72.93359375 47.26758575439453 72.00949859619141 51.57653427124023 70.18695831298828 C 55.73999786376953 68.42597198486328 59.47979736328125 65.90431976318359 62.69205856323242 62.69205856323242 C 65.90431976318359 59.47979736328125 68.42597198486328 55.73999786376953 70.18695831298828 51.57653427124023 C 72.00949859619141 47.26758575439453 72.93359375 42.6886100769043 72.93359375 37.966796875 C 72.93359375 33.2449836730957 72.00949859619141 28.66600799560547 70.18695831298828 24.35705947875977 C 68.42597198486328 20.19359588623047 65.90431976318359 16.45379638671875 62.69205856323242 13.24153518676758 C 59.47979736328125 10.02928161621094 55.73999786376953 7.507637023925781 51.57653427124023 5.746635437011719 C 47.26758575439453 3.924095153808594 42.6886100769043 3 37.966796875 3 M 37.966796875 0 C 58.93528366088867 0 75.93359375 16.99832153320312 75.93359375 37.966796875 C 75.93359375 58.93528366088867 58.93528366088867 75.93359375 37.966796875 75.93359375 C 16.99831008911133 75.93359375 0 58.93528366088867 0 37.966796875 C 0 16.99832153320312 16.99831008911133 0 37.966796875 0 Z" stroke="none" fill="#3ea6db"/>
                                  </g>
                                </g>
                              </g>
                            </g>
                          </g>
                        </g>
                      </g>
                    </g>
                  </g>
                </g>
              </g>
            </g>
          </g>
        </g>
      </g>
    </g>
    <g id="economia" transform="translate(207.709 453.178)">
      <g id="Grupo_1219351" data-name="Grupo 1219351" transform="translate(0.888 0.887)">
        <g id="Grupo_1219350" data-name="Grupo 1219350">
          <path id="Trazado_1087474" data-name="Trazado 1087474" d="M47.329,9.881l-6.14-2.307A1.117,1.117,0,0,0,39.694,8.8l.258,1.554A28.216,28.216,0,0,0,21.365,32.53a1.743,1.743,0,1,0,3.444.542A24.717,24.717,0,0,1,40.53,13.851l.236,1.423a1.117,1.117,0,0,0,1.811.68l5.068-4.164A1.117,1.117,0,0,0,47.329,9.881Z" transform="translate(-19.704 -7.501)" fill="#0ed2b3"/>
          <path id="Trazado_1087475" data-name="Trazado 1087475" d="M301.932,39.7l-1.554.258A28.216,28.216,0,0,0,278.2,21.367a1.743,1.743,0,0,0-.542,3.444,24.717,24.717,0,0,1,19.222,15.721l-1.423.236a1.117,1.117,0,0,0-.68,1.811l4.164,5.068a1.117,1.117,0,0,0,1.909-.316l2.307-6.14A1.117,1.117,0,0,0,301.932,39.7Z" transform="translate(-244.362 -19.705)" fill="#0ed2b3"/>
          <path id="Trazado_1087476" data-name="Trazado 1087476" d="M290.409,276.211a1.743,1.743,0,0,0-1.993,1.451,24.717,24.717,0,0,1-15.721,19.221l-.236-1.423a1.117,1.117,0,0,0-1.811-.68l-5.068,4.164a1.117,1.117,0,0,0,.316,1.909l6.14,2.307a1.117,1.117,0,0,0,1.495-1.228l-.258-1.554A28.216,28.216,0,0,0,291.859,278.2,1.743,1.743,0,0,0,290.409,276.211Z" transform="translate(-234.649 -244.363)" fill="#0ed2b3"/>
          <path id="Trazado_1087477" data-name="Trazado 1087477" d="M33.072,288.417A24.717,24.717,0,0,1,13.85,272.7l1.423-.236a1.117,1.117,0,0,0,.68-1.811l-4.164-5.068a1.117,1.117,0,0,0-1.909.316l-2.307,6.14A1.117,1.117,0,0,0,8.8,273.532l1.554-.258A28.216,28.216,0,0,0,32.53,291.86a1.743,1.743,0,1,0,.542-3.444Z" transform="translate(-7.5 -234.65)" fill="#0ed2b3"/>
        </g>
        <circle id="Elipse_14491" data-name="Elipse 14491" cx="17.25" cy="17.25" r="17.25" transform="translate(12.186 12.186)" fill="#fef48b"/>
        <path id="Trazado_1087478" data-name="Trazado 1087478" d="M129.142,144.8q-.75.066-1.519.066a17.25,17.25,0,1,1,0-34.5q.768,0,1.519.066a17.251,17.251,0,0,0,0,34.368Z" transform="translate(-98.187 -98.185)" fill="#fee45a"/>
        <circle id="Elipse_14492" data-name="Elipse 14492" cx="12.874" cy="12.874" r="12.874" transform="translate(16.562 16.562)" fill="#fee45a"/>
        <path id="Trazado_1087479" data-name="Trazado 1087479" d="M251.15,160.194a12.878,12.878,0,0,1-15.256,12.652,12.874,12.874,0,0,0,0-25.3,12.877,12.877,0,0,1,15.256,12.652Z" transform="translate(-208.84 -130.758)" fill="#ffd15b"/>
      </g>
      <g id="Grupo_1219352" data-name="Grupo 1219352" transform="translate(0 -0.002)">
        <path id="Trazado_1087480" data-name="Trazado 1087480" d="M16.072,28.787a2.65,2.65,0,0,0,.411.032,2.618,2.618,0,0,0,2.6-2.222A23.761,23.761,0,0,1,33.228,8.473l.055.333a2.005,2.005,0,0,0,3.252,1.221L41.6,5.863a2.005,2.005,0,0,0-.568-3.426L34.894.129a2.005,2.005,0,0,0-2.684,2.205l.137.824a29.108,29.108,0,0,0-18.466,22.62,2.631,2.631,0,0,0,2.19,3.009Zm-.435-2.732a27.327,27.327,0,0,1,18-21.472.889.889,0,0,0,.586-.985l-.258-1.554a.218.218,0,0,1,.08-.214.222.222,0,0,1,.142-.053.237.237,0,0,1,.084.016L40.409,4.1a.229.229,0,0,1,.065.391L35.406,8.655a.229.229,0,0,1-.371-.139L34.8,7.093a.888.888,0,0,0-1.187-.687A25.54,25.54,0,0,0,17.325,26.321a.853.853,0,0,1-.977.711.855.855,0,0,1-.711-.977Z" transform="translate(-12.208 0.002)"/>
        <path id="Trazado_1087481" data-name="Trazado 1087481" d="M297.052,32.918a1.983,1.983,0,0,0-1.877-.7l-.824.136a29.107,29.107,0,0,0-22.62-18.465,2.631,2.631,0,1,0-.819,5.2,23.385,23.385,0,0,1,2.865.638.888.888,0,1,0,.494-1.707,25.159,25.159,0,0,0-3.083-.686.855.855,0,0,1-.371-1.536.848.848,0,0,1,.636-.153,27.326,27.326,0,0,1,21.472,18,.888.888,0,0,0,.985.586l1.555-.257a.228.228,0,0,1,.25.306l-2.308,6.14a.228.228,0,0,1-.39.064l-4.164-5.067a.229.229,0,0,1,.139-.371l1.423-.236a.888.888,0,0,0,.687-1.187,25.642,25.642,0,0,0-12.835-14.067.888.888,0,1,0-.774,1.6A23.882,23.882,0,0,1,289.037,33.23l-.334.055a2.005,2.005,0,0,0-1.221,3.251l4.164,5.067a1.982,1.982,0,0,0,1.541.733,2.066,2.066,0,0,0,.337-.028,1.984,1.984,0,0,0,1.548-1.273l2.307-6.139A1.984,1.984,0,0,0,297.052,32.918Z" transform="translate(-236.863 -12.21)"/>
        <path id="Trazado_1087482" data-name="Trazado 1087482" d="M283.928,268.72a2.632,2.632,0,0,0-3.009,2.19,23.759,23.759,0,0,1-14.147,18.124l-.055-.334a2.005,2.005,0,0,0-3.252-1.221l-5.067,4.164a2,2,0,0,0,.568,3.426l6.139,2.307a2.019,2.019,0,0,0,.714.131,2.009,2.009,0,0,0,1.971-2.335l-.136-.825a28.6,28.6,0,0,0,2.68-1.166.888.888,0,1,0-.792-1.59,26.907,26.907,0,0,1-3.176,1.332.888.888,0,0,0-.586.984l.257,1.555a.228.228,0,0,1-.306.25l-6.14-2.308a.228.228,0,0,1-.064-.39l5.067-4.164a.229.229,0,0,1,.371.139l.236,1.423a.888.888,0,0,0,1.187.687,25.54,25.54,0,0,0,16.288-19.915.855.855,0,1,1,1.688.267A27.37,27.37,0,0,1,272.917,289.6a.888.888,0,1,0,1.011,1.461,29.155,29.155,0,0,0,12.19-19.333,2.631,2.631,0,0,0-2.189-3.01Z" transform="translate(-227.143 -236.86)"/>
        <path id="Trazado_1087483" data-name="Trazado 1087483" d="M26.6,280.922A23.76,23.76,0,0,1,8.474,266.775l.333-.055a2.005,2.005,0,0,0,1.222-3.252L5.865,258.4a2.006,2.006,0,0,0-3.427.568l-2.307,6.14a2.005,2.005,0,0,0,2.205,2.684l.824-.137a29.108,29.108,0,0,0,22.62,18.466,2.647,2.647,0,0,0,.411.032,2.631,2.631,0,0,0,.407-5.231Zm.435,2.732a.853.853,0,0,1-.977.711,27.327,27.327,0,0,1-21.472-18,.887.887,0,0,0-.985-.586l-1.554.258a.229.229,0,0,1-.251-.306l2.307-6.14a.229.229,0,0,1,.391-.065L8.656,264.6a.229.229,0,0,1-.139.371l-1.423.236a.888.888,0,0,0-.687,1.187,25.541,25.541,0,0,0,19.915,16.288.855.855,0,0,1,.711.977Z" transform="translate(0 -227.146)"/>
        <path id="Trazado_1087484" data-name="Trazado 1087484" d="M139.154,121.016a18.138,18.138,0,1,0-18.138,18.138A18.158,18.158,0,0,0,139.154,121.016Zm-18.138,16.361a16.361,16.361,0,1,1,16.361-16.361A16.38,16.38,0,0,1,121.016,137.377Z" transform="translate(-90.692 -90.692)"/>
        <path id="Trazado_1087485" data-name="Trazado 1087485" d="M153.585,139.824a13.769,13.769,0,0,0-13.3,17.312.888.888,0,1,0,1.716-.459,11.991,11.991,0,1,1,1.574,3.5.888.888,0,0,0-1.483.979,13.762,13.762,0,1,0,11.491-21.335Z" transform="translate(-123.261 -123.261)"/>
        <path id="Trazado_1087486" data-name="Trazado 1087486" d="M221.215,193.974a.888.888,0,1,0-.973,1.487,5.337,5.337,0,0,0,2.913,1.021v.961a.888.888,0,1,0,1.777,0v-1.031a4.352,4.352,0,0,0,3.415-3.57,3.821,3.821,0,0,0-2.63-4.372c-.258-.091-.522-.187-.785-.286v-4.2a2.739,2.739,0,0,1,1.082.518.888.888,0,0,0,1.136-1.366,4.67,4.67,0,0,0-2.218-.957v-.859a.888.888,0,1,0-1.777,0v.926c-.132.029-.266.063-.4.1a3.618,3.618,0,0,0-2.478,2.838,3.186,3.186,0,0,0,1.043,3.139,8.58,8.58,0,0,0,1.838,1.052V194.7A3.648,3.648,0,0,1,221.215,193.974Zm1.2-7.049a1.432,1.432,0,0,1-.393-1.412,1.88,1.88,0,0,1,1.135-1.428V187.4A5.335,5.335,0,0,1,222.414,186.924Zm2.711,3.22a2.073,2.073,0,0,1,1.47,2.4,2.612,2.612,0,0,1-1.663,2.019v-4.49Z" transform="translate(-193.799 -159.055)"/>
      </g>
    </g>
  </g>
</svg>
