<svg xmlns="http://www.w3.org/2000/svg" xmlns:xlink="http://www.w3.org/1999/xlink" width="93.934" height="93.934" viewBox="0 0 93.934 93.934">
  <defs>
    <filter id="Trazado_982547" x="0" y="0" width="93.934" height="93.934" filterUnits="userSpaceOnUse">
      <feOffset dy="3" input="SourceAlpha"/>
      <feGaussianBlur stdDeviation="3" result="blur"/>
      <feFlood flood-opacity="0.161"/>
      <feComposite operator="in" in2="blur"/>
      <feComposite in="SourceGraphic"/>
    </filter>
  </defs>
  <g id="Grupo_1219355" data-name="Grupo 1219355" transform="translate(-611.066 -440)">
    <g id="Grupo_1218070" data-name="Grupo 1218070" transform="translate(420 -8009.729)">
      <g id="Grupo_1214711" data-name="Grupo 1214711" transform="translate(-0.229 3321.729)">
        <g id="Grupo_1214432" data-name="Grupo 1214432" transform="translate(-0.771 -2738.674)">
          <g id="Grupo_1183196" data-name="Grupo 1183196" transform="translate(1 1016.674)">
            <g id="Grupo_1179610" data-name="Grupo 1179610" transform="translate(8 4723.467)">
              <g id="Grupo_1175227" data-name="Grupo 1175227" transform="translate(-5.967 140.533)">
                <g id="Grupo_1167337" data-name="Grupo 1167337" transform="translate(198.033 1992)">
                  <g id="Grupo_1166720" data-name="Grupo 1166720">
                    <g id="Grupo_1164305" data-name="Grupo 1164305">
                      <g id="Grupo_1163948" data-name="Grupo 1163948">
                        <g id="Grupo_1158168" data-name="Grupo 1158168">
                          <g id="Grupo_1152576" data-name="Grupo 1152576">
                            <g id="Grupo_1148633" data-name="Grupo 1148633">
                              <g id="Grupo_1148525" data-name="Grupo 1148525">
                                <g transform="matrix(1, 0, 0, 1, -9, -6)" filter="url(#Trazado_982547)">
                                  <g id="Trazado_982547-2" data-name="Trazado 982547" transform="translate(9 6)" fill="#eaf5fb">
                                    <path d="M 37.966796875 74.43359375 C 33.04315185546875 74.43359375 28.26757431030273 73.46962738037109 23.77274131774902 71.56847381591797 C 19.43047523498535 69.73184967041016 15.53040790557861 67.10224914550781 12.18087482452393 63.75271987915039 C 8.831341743469238 60.4031867980957 6.201741218566895 56.50312042236328 4.365118980407715 52.16086196899414 C 2.463963508605957 47.66601943969727 1.499996900558472 42.89044189453125 1.499996900558472 37.966796875 C 1.499996900558472 33.04315185546875 2.463963508605957 28.26757431030273 4.365118980407715 23.77274131774902 C 6.201741218566895 19.43047523498535 8.831341743469238 15.53040790557861 12.18087482452393 12.18087482452393 C 15.53040790557861 8.831341743469238 19.43047523498535 6.201741218566895 23.77274131774902 4.365118980407715 C 28.26757431030273 2.463963508605957 33.04315185546875 1.499996900558472 37.966796875 1.499996900558472 C 42.89044189453125 1.499996900558472 47.66601943969727 2.463963508605957 52.16086196899414 4.365118980407715 C 56.50312042236328 6.201741218566895 60.4031867980957 8.831341743469238 63.75271987915039 12.18087482452393 C 67.10224914550781 15.53040790557861 69.73184967041016 19.43047523498535 71.56847381591797 23.77274131774902 C 73.46962738037109 28.26757431030273 74.43359375 33.04315185546875 74.43359375 37.966796875 C 74.43359375 42.89044189453125 73.46962738037109 47.66601943969727 71.56847381591797 52.16086196899414 C 69.73184967041016 56.50313186645508 67.10224914550781 60.4031867980957 63.75271987915039 63.75271987915039 C 60.4031867980957 67.10224914550781 56.50313186645508 69.73184967041016 52.16086196899414 71.56847381591797 C 47.66601943969727 73.46962738037109 42.89044189453125 74.43359375 37.966796875 74.43359375 Z" stroke="none"/>
                                    <path d="M 37.966796875 3 C 33.2449836730957 3 28.66600799560547 3.924095153808594 24.35705947875977 5.746635437011719 C 20.19359588623047 7.507637023925781 16.45379638671875 10.02928161621094 13.24153518676758 13.24153518676758 C 10.02927398681641 16.45379638671875 7.507621765136719 20.19359588623047 5.746635437011719 24.35705947875977 C 3.924095153808594 28.66600799560547 3 33.2449836730957 3 37.966796875 C 3 42.6886100769043 3.924095153808594 47.26758575439453 5.746635437011719 51.57653427124023 C 7.507621765136719 55.73999786376953 10.02927398681641 59.47979736328125 13.24153518676758 62.69205856323242 C 16.45379638671875 65.90431976318359 20.19359588623047 68.42597198486328 24.35705947875977 70.18695831298828 C 28.66600799560547 72.00949859619141 33.2449836730957 72.93359375 37.966796875 72.93359375 C 42.6886100769043 72.93359375 47.26758575439453 72.00949859619141 51.57653427124023 70.18695831298828 C 55.73999786376953 68.42597198486328 59.47979736328125 65.90431976318359 62.69205856323242 62.69205856323242 C 65.90431976318359 59.47979736328125 68.42597198486328 55.73999786376953 70.18695831298828 51.57653427124023 C 72.00949859619141 47.26758575439453 72.93359375 42.6886100769043 72.93359375 37.966796875 C 72.93359375 33.2449836730957 72.00949859619141 28.66600799560547 70.18695831298828 24.35705947875977 C 68.42597198486328 20.19359588623047 65.90431976318359 16.45379638671875 62.69205856323242 13.24153518676758 C 59.47979736328125 10.02928161621094 55.73999786376953 7.507637023925781 51.57653427124023 5.746635437011719 C 47.26758575439453 3.924095153808594 42.6886100769043 3 37.966796875 3 M 37.966796875 0 C 58.93528366088867 0 75.93359375 16.99832153320312 75.93359375 37.966796875 C 75.93359375 58.93528366088867 58.93528366088867 75.93359375 37.966796875 75.93359375 C 16.99831008911133 75.93359375 0 58.93528366088867 0 37.966796875 C 0 16.99832153320312 16.99831008911133 0 37.966796875 0 Z" stroke="none" fill="#3ea6db"/>
                                  </g>
                                </g>
                              </g>
                            </g>
                          </g>
                        </g>
                      </g>
                    </g>
                  </g>
                </g>
              </g>
            </g>
          </g>
        </g>
      </g>
    </g>
    <g id="rsc" transform="translate(624.858 456.689)">
      <path id="Trazado_1087487" data-name="Trazado 1087487" d="M26,22H38.455V42.758H26Z" transform="translate(0.947 0.758)" fill="#a8a8a8"/>
      <path id="Trazado_1087488" data-name="Trazado 1087488" d="M18,27h8.3V42.568H18Z" transform="translate(0.644 0.947)" fill="#999"/>
      <path id="Trazado_1087489" data-name="Trazado 1087489" d="M38,27h8.3V42.568H38Z" transform="translate(1.402 0.947)" fill="#999"/>
      <path id="Trazado_1087490" data-name="Trazado 1087490" d="M33.072,38A31.149,31.149,0,0,0,3.707,58.758h58.73A31.149,31.149,0,0,0,33.072,38Z" transform="translate(0.103 1.364)" fill="#a7dbfc"/>
      <path id="Trazado_1087491" data-name="Trazado 1087491" d="M52.619,45.635A31.178,31.178,0,0,1,34.693,58.468h26.57a31.152,31.152,0,0,0-8.644-12.833Z" transform="translate(1.277 1.653)" fill="#90d2fc"/>
      <path id="Trazado_1087492" data-name="Trazado 1087492" d="M34.227,18H30.076A2.075,2.075,0,0,0,28,20.076v2.076h8.3V20.076A2.075,2.075,0,0,0,34.227,18Z" transform="translate(1.023 0.606)" fill="#dbdbdb"/>
      <path id="Trazado_1087493" data-name="Trazado 1087493" d="M30,34h4.152v4.152H30Z" transform="translate(1.099 1.212)" fill="#eaeaea"/>
      <path id="Trazado_1087494" data-name="Trazado 1087494" d="M40.227,47.3l3.114-2.076,3.114,1.038,4.891-.978a30.024,30.024,0,0,0-11.233-6.114l-1.961,2.94H36.076L34,44.183,36.076,47.3Z" transform="translate(1.25 1.408)" fill="#63bc94"/>
      <path id="Trazado_1087495" data-name="Trazado 1087495" d="M12.008,46.227H17.2l2.076,1.038h3.114L25.5,45.189l-1.038-3.114L22.387,40h-.854a30.112,30.112,0,0,0-9.748,6.227Z" transform="translate(0.409 1.44)" fill="#63bc94"/>
      <path id="Trazado_1087496" data-name="Trazado 1087496" d="M32.379,63.227V61.152A4.152,4.152,0,0,0,28.227,57H26.152A4.152,4.152,0,0,0,22,61.152v2.076" transform="translate(0.796 2.084)" fill="#eaeaea"/>
      <path id="Trazado_1087497" data-name="Trazado 1087497" d="M22.379,63.227V61.152A4.152,4.152,0,0,0,18.227,57H16.152A4.152,4.152,0,0,0,12,61.152v2.076" transform="translate(0.417 2.084)" fill="#a8a8a8"/>
      <path id="Trazado_1087498" data-name="Trazado 1087498" d="M12.379,63.227V61.152A4.152,4.152,0,0,0,8.227,57H6.152A4.152,4.152,0,0,0,2,61.152v2.076" transform="translate(0.038 2.084)" fill="#eaeaea"/>
      <path id="Trazado_1087499" data-name="Trazado 1087499" d="M42.379,63.227V61.152A4.152,4.152,0,0,0,38.227,57H36.152A4.152,4.152,0,0,0,32,61.152v2.076" transform="translate(1.175 2.084)" fill="#a8a8a8"/>
      <path id="Trazado_1087500" data-name="Trazado 1087500" d="M52.379,63.227V61.152A4.152,4.152,0,0,0,48.227,57H46.152A4.152,4.152,0,0,0,42,61.152v2.076" transform="translate(1.553 2.084)" fill="#eaeaea"/>
      <path id="Trazado_1087501" data-name="Trazado 1087501" d="M62.379,63.227V61.152A4.152,4.152,0,0,0,58.227,57H56.152A4.152,4.152,0,0,0,52,61.152v2.076" transform="translate(1.932 2.084)" fill="#a8a8a8"/>
      <g id="Grupo_1219354" data-name="Grupo 1219354" transform="translate(4.114 52.857)">
        <circle id="Elipse_14493" data-name="Elipse 14493" cx="3" cy="3" r="3" transform="translate(21.235 0.455)" fill="#ffd6a8"/>
        <circle id="Elipse_14494" data-name="Elipse 14494" cx="3" cy="3" r="3" transform="translate(10.235 0.455)" fill="#ffd6a8"/>
        <circle id="Elipse_14495" data-name="Elipse 14495" cx="3" cy="3" r="3" transform="translate(0.235 0.455)" fill="#ffd6a8"/>
        <circle id="Elipse_14496" data-name="Elipse 14496" cx="3" cy="3" r="3" transform="translate(31.235 0.455)" fill="#ffd6a8"/>
        <ellipse id="Elipse_14497" data-name="Elipse 14497" cx="3.5" cy="3" rx="3.5" ry="3" transform="translate(41.235 0.455)" fill="#ffd6a8"/>
        <circle id="Elipse_14498" data-name="Elipse 14498" cx="3" cy="3" r="3" transform="translate(52.235 0.455)" fill="#ffd6a8"/>
      </g>
      <path id="Trazado_1087502" data-name="Trazado 1087502" d="M53.138,14.138c-2.838,2.838-8.806,1.468-8.806,1.468S42.962,9.635,45.8,6.8s8.806-1.468,8.806-1.468,1.369,5.969-1.468,8.806Z" transform="translate(1.629 0.114)" fill="#63bc94"/>
      <path id="Trazado_1087503" data-name="Trazado 1087503" d="M7.8,18.6C4.961,15.763,6.331,9.794,6.331,9.794s5.97-1.369,8.806,1.468,1.468,8.806,1.468,8.806S10.635,21.438,7.8,18.6Z" transform="translate(0.189 0.283)" fill="#63bc94"/>
      <path id="Trazado_1087504" data-name="Trazado 1087504" d="M43.357,15.874a1.034,1.034,0,0,0,.779.779,16.82,16.82,0,0,0,3.452.356c2.074,0,4.628-.409,6.321-2.1C57.115,11.7,55.716,5.4,55.655,5.135a1.034,1.034,0,0,0-.779-.779C54.611,4.295,48.31,2.9,45.1,6.1S43.3,15.609,43.357,15.874Zm9.085-2.433C50.865,15.017,48,15.035,46.2,14.863l7.717-6.946c.083,1.871-.165,4.209-1.48,5.525ZM46.569,7.569C48.141,6,50.988,5.976,52.786,6.146l-7.7,6.928c-.08-1.867.17-4.193,1.481-5.5Z" transform="translate(1.591 0.076)"/>
      <path id="Trazado_1087505" data-name="Trazado 1087505" d="M62.35,58.056a4.111,4.111,0,0,0,.924-2.578,4.156,4.156,0,0,0-4.152-4.152,4.1,4.1,0,0,0-.508.051,31.14,31.14,0,0,0-9.871-9.228V27.455a1.038,1.038,0,0,0-1.038-1.038H40.44V22.265A1.038,1.038,0,0,0,39.4,21.227H38.364V20.189a3.117,3.117,0,0,0-3.114-3.114H34.212V15H32.137v2.076H31.1a3.117,3.117,0,0,0-3.114,3.114v1.038H26.947a1.038,1.038,0,0,0-1.038,1.038v4.152H18.644a1.038,1.038,0,0,0-1.038,1.038v14.42A31.145,31.145,0,0,0,7.289,51.332c-.021,0-.04-.006-.061-.006a4.156,4.156,0,0,0-4.152,4.152A4.111,4.111,0,0,0,4,58.056a5.183,5.183,0,0,0-3,4.687v2.076H3.076V62.743a3.117,3.117,0,0,1,3.114-3.114H8.265a3.117,3.117,0,0,1,3.114,3.114v2.076h2.076V62.743a3.117,3.117,0,0,1,3.114-3.114h2.076a3.117,3.117,0,0,1,3.114,3.114v2.076h2.076V62.743a3.117,3.117,0,0,1,3.114-3.114h2.076a3.117,3.117,0,0,1,3.114,3.114v2.076h2.076V62.743a3.117,3.117,0,0,1,3.114-3.114H39.4a3.117,3.117,0,0,1,3.114,3.114v2.076h2.076V62.743a3.117,3.117,0,0,1,3.114-3.114h2.076a3.117,3.117,0,0,1,3.114,3.114v2.076H54.97V62.743a3.117,3.117,0,0,1,3.114-3.114H60.16a3.117,3.117,0,0,1,3.114,3.114v2.076h2.076V62.743A5.183,5.183,0,0,0,62.35,58.056ZM40.44,28.493h6.227V41.029A31.013,31.013,0,0,0,40.44,38.75ZM40.265,43.6l1.54-2.309a28.935,28.935,0,0,1,8.414,4.324l-2.447.49-2.852-.951a1.041,1.041,0,0,0-.9.121l-2.853,1.9H37.881l-1.3-1.944,1.171-1.17H39.4a1.039,1.039,0,0,0,.864-.462Zm-10.2-23.41A1.04,1.04,0,0,1,31.1,19.152H35.25a1.04,1.04,0,0,1,1.038,1.038v1.038H30.061ZM27.985,23.3H38.364V38.316c-.686-.12-1.378-.216-2.076-.291V34.72a1.038,1.038,0,0,0-1.038-1.038H31.1a1.038,1.038,0,0,0-1.038,1.038v3.261q-1.046.1-2.076.262Zm6.227,12.455v2.115c-.424-.017-.849-.039-1.276-.039-.268,0-.532.018-.8.025v-2.1Zm-14.53-7.265h6.227V38.645a31,31,0,0,0-6.227,2.148ZM22.3,41.921l1.663,1.663.71,2.13-2.193,1.461H19.927l-1.857-.929a1.04,1.04,0,0,0-.464-.109H14.962a28.981,28.981,0,0,1,7.34-4.216ZM7.227,57.553A2.076,2.076,0,1,1,9.3,55.478,2.078,2.078,0,0,1,7.227,57.553Zm10.379,0a2.076,2.076,0,1,1,2.076-2.076A2.078,2.078,0,0,1,17.606,57.553Zm10.379,0a2.076,2.076,0,1,1,2.076-2.076A2.078,2.078,0,0,1,27.985,57.553Zm10.379,0a2.076,2.076,0,1,1,2.076-2.076A2.078,2.078,0,0,1,38.364,57.553Zm10.379,0a2.076,2.076,0,1,1,2.076-2.076A2.078,2.078,0,0,1,48.743,57.553Zm6.227-2.076a4.111,4.111,0,0,0,.924,2.578,5.209,5.209,0,0,0-1.962,1.606,5.2,5.2,0,0,0-1.962-1.606,4.111,4.111,0,0,0,.924-2.578,4.152,4.152,0,0,0-8.3,0,4.111,4.111,0,0,0,.924,2.578,5.209,5.209,0,0,0-1.962,1.606,5.2,5.2,0,0,0-1.962-1.606,4.111,4.111,0,0,0,.924-2.578,4.152,4.152,0,0,0-8.3,0,4.111,4.111,0,0,0,.924,2.578,5.209,5.209,0,0,0-1.962,1.606,5.2,5.2,0,0,0-1.962-1.606,4.111,4.111,0,0,0,.924-2.578,4.152,4.152,0,0,0-8.3,0,4.111,4.111,0,0,0,.924,2.578A5.209,5.209,0,0,0,22.8,59.661a5.2,5.2,0,0,0-1.962-1.606,4.111,4.111,0,0,0,.924-2.578,4.152,4.152,0,0,0-8.3,0,4.111,4.111,0,0,0,.924,2.578,5.209,5.209,0,0,0-1.962,1.606,5.2,5.2,0,0,0-1.962-1.606,4.1,4.1,0,0,0-1.063-6.1,29.141,29.141,0,0,1,3.22-3.74h4.75l1.857.929a1.033,1.033,0,0,0,.463.109H22.8a1.044,1.044,0,0,0,.576-.174L26.485,47a1.037,1.037,0,0,0,.409-1.191L25.856,42.7a1.039,1.039,0,0,0-.251-.406l-1.12-1.12A28.932,28.932,0,0,1,39.7,40.712l-.85,1.273H37.326a1.035,1.035,0,0,0-.734.3l-2.076,2.076a1.037,1.037,0,0,0-.13,1.31l2.076,3.114a1.039,1.039,0,0,0,.864.462h4.152a1.044,1.044,0,0,0,.576-.174l2.691-1.795,2.632.877a1.053,1.053,0,0,0,.532.033l4.4-.88a29.223,29.223,0,0,1,4.327,4.86,4.136,4.136,0,0,0-1.668,3.306Zm4.152,2.076A2.076,2.076,0,1,1,61.2,55.478,2.078,2.078,0,0,1,59.122,57.553Z" transform="translate(0 0.493)"/>
      <path id="Trazado_1087506" data-name="Trazado 1087506" d="M29,25h6.227v2.076H29Z" transform="translate(1.061 0.871)"/>
      <path id="Trazado_1087507" data-name="Trazado 1087507" d="M29,29h6.227v2.076H29Z" transform="translate(1.061 1.023)"/>
      <path id="Trazado_1087508" data-name="Trazado 1087508" d="M21,30h2.076v2.076H21Z" transform="translate(0.758 1.061)"/>
      <path id="Trazado_1087509" data-name="Trazado 1087509" d="M21,34h2.076v2.076H21Z" transform="translate(0.758 1.212)"/>
      <path id="Trazado_1087510" data-name="Trazado 1087510" d="M41,30h2.076v2.076H41Z" transform="translate(1.516 1.061)"/>
      <path id="Trazado_1087511" data-name="Trazado 1087511" d="M41,34h2.076v2.076H41Z" transform="translate(1.516 1.212)"/>
      <path id="Trazado_1087512" data-name="Trazado 1087512" d="M13.423,21.475a16.832,16.832,0,0,0,3.452-.356,1.034,1.034,0,0,0,.779-.779c.061-.267,1.461-6.566-1.746-9.773S6.4,8.76,6.136,8.821a1.034,1.034,0,0,0-.779.779C5.3,9.867,3.9,16.166,7.1,19.373c1.692,1.692,4.246,2.1,6.321,2.1Zm1.018-9.442c1.377,1.377,1.563,3.742,1.474,5.516L8.207,10.605c1.948-.18,4.743-.062,6.235,1.428ZM7.1,12.4l7.7,6.936c-1.948.177-4.736.059-6.224-1.429C7.2,16.53,7.007,14.172,7.1,12.4Z" transform="translate(0.152 0.245)"/>
      <path id="Trazado_1087513" data-name="Trazado 1087513" d="M8.376,21.827A25.116,25.116,0,0,0,8,26.158a24.668,24.668,0,0,0,5.146,15.163l1.646-1.265a22.61,22.61,0,0,1-4.716-13.9,22.933,22.933,0,0,1,.345-3.972Z" transform="translate(0.265 0.751)"/>
      <path id="Trazado_1087514" data-name="Trazado 1087514" d="M50.251,42.6A24.935,24.935,0,0,0,54.3,16.608l-1.91.813a22.862,22.862,0,0,1-3.709,23.827Z" transform="translate(1.806 0.553)"/>
      <path id="Trazado_1087515" data-name="Trazado 1087515" d="M32.613,4.076a22.863,22.863,0,0,1,10.92,2.775l.994-1.823A24.925,24.925,0,0,0,15.834,8.5l1.4,1.534A22.774,22.774,0,0,1,32.613,4.076Z" transform="translate(0.562 0)"/>
    </g>
  </g>
</svg>
