<svg xmlns="http://www.w3.org/2000/svg" width="85.171" height="169.945" viewBox="0 0 85.171 169.945">
  <g id="Grupo_1218025" data-name="Grupo 1218025" transform="translate(-179.829 -248.055)">
    <g id="Grupo_1218024" data-name="Grupo 1218024">
      <rect id="Rectángulo_421327" data-name="Rectángulo 421327" width="68" height="161" transform="translate(180 257)" fill="#3ea6db"/>
      <g id="Grupo_1218023" data-name="Grupo 1218023" transform="translate(-44.658 -207.769)">
        <g id="Grupo_1217983" data-name="Grupo 1217983" transform="translate(275.936 512.696)">
          <path id="Trazado_1084380" data-name="Trazado 1084380" d="M1472.956,1672.716a12.886,12.886,0,1,1,17.956-3.112A12.9,12.9,0,0,1,1472.956,1672.716Zm11.561-16.4a7.184,7.184,0,1,0,1.735,10.011A7.183,7.183,0,0,0,1484.517,1656.315Z" transform="translate(-1464.397 -1646.369)" fill="#7866c0"/>
          <path id="Trazado_1084381" data-name="Trazado 1084381" d="M1898.774,1626.668a1.252,1.252,0,0,1-1.681.489l-3.5-2.468a1.254,1.254,0,0,1-.105-1.748l.779-1.106a1.254,1.254,0,0,1,1.681-.489l3.5,2.465a1.254,1.254,0,0,1,.105,1.749l-.779,1.108Z" transform="translate(-1872.823 -1619.389)" fill="#7866c0"/>
          <path id="Trazado_1084382" data-name="Trazado 1084382" d="M1983.039,2082.8a1.254,1.254,0,0,0,1.748-.1l2.466-3.5a1.252,1.252,0,0,0-.489-1.679l-1.106-.778a1.255,1.255,0,0,0-1.747.1l-2.466,3.494a1.255,1.255,0,0,0,.49,1.682l1.106.779Z" transform="translate(-1957.338 -2056.181)" fill="#7866c0"/>
          <path id="Trazado_1084383" data-name="Trazado 1084383" d="M2058.47,1829.052a1.254,1.254,0,0,0,1.162-1.309l-.732-4.218a1.254,1.254,0,0,0-1.535-.844l-1.333.231a1.254,1.254,0,0,0-1.161,1.312l.731,4.218a1.254,1.254,0,0,0,1.535.842l1.333-.231Z" transform="translate(-2027.933 -1812.691)" fill="#7866c0"/>
          <path id="Trazado_1084384" data-name="Trazado 1084384" d="M1394.679,1937.407a1.255,1.255,0,0,0,1.162-1.31l-.731-4.219a1.256,1.256,0,0,0-1.536-.845l-1.333.231a1.255,1.255,0,0,0-1.162,1.312l.731,4.219a1.254,1.254,0,0,0,1.535.843Z" transform="translate(-1391.067 -1916.649)" fill="#7866c0"/>
          <path id="Trazado_1084385" data-name="Trazado 1084385" d="M1767.442,2231.9a1.254,1.254,0,0,0-1.31-1.162l-4.217.732a1.253,1.253,0,0,0-.843,1.534l.231,1.333a1.254,1.254,0,0,0,1.31,1.162l4.217-.73a1.254,1.254,0,0,0,.843-1.535l-.231-1.333Z" transform="translate(-1746.039 -2204.205)" fill="#7866c0"/>
          <path id="Trazado_1084386" data-name="Trazado 1084386" d="M1649.093,1578.192a1.254,1.254,0,0,0-1.311-1.162l-4.217.73a1.254,1.254,0,0,0-.843,1.535l.231,1.333a1.255,1.255,0,0,0,1.311,1.162l4.217-.731a1.254,1.254,0,0,0,.843-1.535l-.231-1.333Z" transform="translate(-1632.49 -1577.017)" fill="#7866c0"/>
          <path id="Trazado_1084387" data-name="Trazado 1084387" d="M1439.479,1699.728a1.253,1.253,0,0,0,1.748-.1l2.465-3.5a1.254,1.254,0,0,0-.489-1.681l-1.106-.779a1.254,1.254,0,0,0-1.748.1l-2.466,3.5a1.254,1.254,0,0,0,.489,1.681l1.106.781Z" transform="translate(-1435.826 -1688.644)" fill="#7866c0"/>
          <path id="Trazado_1084388" data-name="Trazado 1084388" d="M1518.224,2166.9a1.255,1.255,0,0,1-1.682.489l-3.5-2.465a1.25,1.25,0,0,1-.1-1.745l.779-1.1a1.255,1.255,0,0,1,1.682-.489l3.5,2.46a1.253,1.253,0,0,1,.105,1.748l-.779,1.106Z" transform="translate(-1507.71 -2137.714)" fill="#7866c0"/>
        </g>
        <g id="Grupo_1217999" data-name="Grupo 1217999" transform="translate(224.487 455.824)">
          <rect id="Rectángulo_421310" data-name="Rectángulo 421310" width="28.027" height="113.675" transform="translate(10.486 42.19)" fill="#fedd1b"/>
          <path id="Trazado_1084453" data-name="Trazado 1084453" d="M461.07,246.222l21.541,21.911,19.566-33.778-7.9-8.035Z" transform="translate(-447.344 -224.236)" fill="#ffae0d"/>
          <path id="Trazado_1084454" data-name="Trazado 1084454" d="M472.693,545.11l-11.633,6.971L482.6,573.992l6.854-11.833a17.817,17.817,0,0,0-16.764-17.049Z" transform="translate(-447.335 -530.095)" fill="#f29700"/>
          <path id="Trazado_1084455" data-name="Trazado 1084455" d="M381.12,998a17.425,17.425,0,0,0,28.027,0V987.1H381.12Z" transform="translate(-370.637 -954.156)" fill="#ffae0d"/>
          <path id="Trazado_1084456" data-name="Trazado 1084456" d="M366.312,605.13a15.5,15.5,0,1,0,15.232,15.494A15.364,15.364,0,0,0,366.312,605.13Z" transform="translate(-341.816 -587.68)" fill="#7866c0"/>
          <path id="Trazado_1084457" data-name="Trazado 1084457" d="M452.786,696.8a11.777,11.777,0,1,0,11.577,11.775A11.69,11.69,0,0,0,452.786,696.8Z" transform="translate(-428.29 -675.632)" fill="#3a1053"/>
          <path id="Trazado_1084458" data-name="Trazado 1084458" d="M290.46,4017.47H257.037a2.457,2.457,0,0,0-2.437,2.478v4.561h38.3v-4.561A2.457,2.457,0,0,0,290.46,4017.47Z" transform="translate(-249.249 -3861.606)" fill="#fedd1b"/>
          <rect id="Rectángulo_421311" data-name="Rectángulo 421311" width="38.297" height="2.479" transform="translate(5.351 160.425)" fill="#ffae0d"/>
          <path id="Trazado_1084459" data-name="Trazado 1084459" d="M169.251,4191.02H125.127a2.459,2.459,0,0,0-2.437,2.479v4.562h49V4193.5a2.458,2.458,0,0,0-2.437-2.479Z" transform="translate(-122.69 -4028.116)" fill="#3a1053"/>
          <path id="Trazado_1084460" data-name="Trazado 1084460" d="M1375.622,1288.46l-1.078,3.918-1.078-3.918-14.07,5.657-1.906.765.127,1.621,1.124,14.422h2.626l.96-12.317,12.218-2.125,12.216,2.125.96,12.317h2.627l1.124-14.422.125-1.621-1.906-.765Z" transform="translate(-1307.403 -1243.292)" fill="#fedd1b"/>
          <g id="Grupo_1217997" data-name="Grupo 1217997" transform="translate(50.087 45.168)">
            <path id="Trazado_1084461" data-name="Trazado 1084461" d="M1362.949,1392.72l-3.552,1.428-1.906.765.127,1.621.336,4.318a4.5,4.5,0,0,0,4.2,0l.173-2.213,2.157-.375a4.8,4.8,0,0,0-1.535-5.544Z" transform="translate(-1357.49 -1388.491)" fill="#f29700"/>
            <path id="Trazado_1084462" data-name="Trazado 1084462" d="M2019.684,1392.72a4.8,4.8,0,0,0-1.535,5.544l2.157.375.172,2.213a4.5,4.5,0,0,0,4.2,0l.337-4.317.125-1.621-1.906-.766Z" transform="translate(-1991.035 -1388.491)" fill="#f29700"/>
            <path id="Trazado_1084463" data-name="Trazado 1084463" d="M1606.079,1288.46l-1.078,3.918-1.078-3.918-6.089,2.449a7.564,7.564,0,0,0-.144,1.47,7.467,7.467,0,0,0,1.949,5.038l5.363-.933,5.363.933a7.5,7.5,0,0,0,1.8-6.508l-6.088-2.449Z" transform="translate(-1587.947 -1288.46)" fill="#f29700"/>
          </g>
          <path id="Trazado_1084464" data-name="Trazado 1084464" d="M2051.391,1397.98a3.6,3.6,0,1,0,3.54,3.6A3.571,3.571,0,0,0,2051.391,1397.98Z" transform="translate(-1969.76 -1348.37)" fill="#7866c0"/>
          <path id="Trazado_1084465" data-name="Trazado 1084465" d="M2081.143,1429.55a2.321,2.321,0,1,0,2.282,2.321A2.3,2.3,0,0,0,2081.143,1429.55Z" transform="translate(-1999.512 -1378.66)" fill="#3a1053"/>
          <g id="Grupo_1217998" data-name="Grupo 1217998" transform="translate(49.11 49.61)">
            <path id="Trazado_1084466" data-name="Trazado 1084466" d="M1336.95,1397.98a3.6,3.6,0,1,0,3.54,3.6A3.571,3.571,0,0,0,1336.95,1397.98Z" transform="translate(-1333.41 -1397.98)" fill="#7866c0"/>
            <path id="Trazado_1084467" data-name="Trazado 1084467" d="M1366.7,1429.55a2.321,2.321,0,1,0,2.282,2.321A2.3,2.3,0,0,0,1366.7,1429.55Z" transform="translate(-1363.162 -1428.27)" fill="#3a1053"/>
          </g>
          <rect id="Rectángulo_421312" data-name="Rectángulo 421312" width="9.749" height="22.73" transform="translate(62.266 26.356)" fill="#ffae0d"/>
          <path id="Trazado_1084468" data-name="Trazado 1084468" d="M1657.75,830.228a7.178,7.178,0,0,0,9.749,0V824.7h-9.749Z" transform="translate(-1595.484 -798.344)" fill="#f29700"/>
          <path id="Trazado_1084469" data-name="Trazado 1084469" d="M1657.75,1203.639v5.528h9.749v-5.528a7.178,7.178,0,0,0-9.749,0Z" transform="translate(-1595.484 -1160.08)" fill="#f29700"/>
          <path id="Trazado_1084470" data-name="Trazado 1084470" d="M1633.813,1232.28a6.2,6.2,0,1,0,6.092,6.2A6.146,6.146,0,0,0,1633.813,1232.28Z" transform="translate(-1566.672 -1189.391)" fill="#7866c0"/>
          <path id="Trazado_1084471" data-name="Trazado 1084471" d="M1685.028,1286.55a4,4,0,1,0,3.927,4A3.967,3.967,0,0,0,1685.028,1286.55Z" transform="translate(-1617.886 -1241.46)" fill="#3a1053"/>
          <path id="Trazado_1084472" data-name="Trazado 1084472" d="M1278.4,302.521l16.257,17.68,8.009-7.621L1286.41,294.9Z" transform="translate(-1231.521 -290.034)" fill="#ffae0d"/>
          <path id="Trazado_1084473" data-name="Trazado 1084473" d="M1278.4,302.511l5.5,5.977a9.831,9.831,0,0,0,8.015-7.615l-5.5-5.983-8.01,7.621Z" transform="translate(-1231.521 -290.024)" fill="#f29700"/>
          <path id="Trazado_1084474" data-name="Trazado 1084474" d="M1137.459,229.4a9.987,9.987,0,0,0-.639,3.5,9.862,9.862,0,0,0,8.817,9.867l4.88-8.425-7.9-8.035-5.16,3.093Z" transform="translate(-1095.684 -224.226)" fill="#f29700"/>
          <path id="Trazado_1084475" data-name="Trazado 1084475" d="M1175.39,174.94a8.678,8.678,0,1,0,8.53,8.676A8.6,8.6,0,0,0,1175.39,174.94Z" transform="translate(-1124.505 -174.94)" fill="#7866c0"/>
          <path id="Trazado_1084476" data-name="Trazado 1084476" d="M1240.555,244.05a5.874,5.874,0,1,0,5.774,5.873A5.831,5.831,0,0,0,1240.555,244.05Z" transform="translate(-1189.67 -241.247)" fill="#3a1053"/>
          <path id="Trazado_1084477" data-name="Trazado 1084477" d="M1604.991,641.35a7.383,7.383,0,0,0-7.311,7.437c0,.076.009.151.011.227l3.295,3.583,8.009-7.621-3.3-3.59c-.232-.023-.466-.036-.7-.036Z" transform="translate(-1537.85 -622.431)" fill="#f29700"/>
          <path id="Trazado_1084478" data-name="Trazado 1084478" d="M1633.813,671.9a6.2,6.2,0,1,0,6.092,6.2A6.146,6.146,0,0,0,1633.813,671.9Z" transform="translate(-1566.672 -651.742)" fill="#7866c0"/>
          <path id="Trazado_1084479" data-name="Trazado 1084479" d="M1685.028,726.17a4,4,0,1,0,3.927,4A3.967,3.967,0,0,0,1685.028,726.17Z" transform="translate(-1617.886 -703.81)" fill="#3a1053"/>
          <rect id="Rectángulo_421313" data-name="Rectángulo 421313" width="28.027" height="2.479" transform="translate(10.486 153.385)" fill="#ffae0d"/>
        </g>
      </g>
    </g>
    <g id="Grupo_1218022" data-name="Grupo 1218022" transform="translate(198.011 386.64)">
      <g id="Grupo_1218020" data-name="Grupo 1218020" transform="translate(1.525)">
        <path id="Trazado_1084523" data-name="Trazado 1084523" d="M140.97,4462.665v-8.48l8.975-16.805h11.7V4456.4h2.551v6.268H161.64v4.807h-7.255v-4.807Zm13.415-6.268v-14l-6.246,11.789-1.189,2.212h7.435Z" transform="translate(-140.97 -4436.784)" fill="#aa2f5e"/>
        <path id="Trazado_1084524" data-name="Trazado 1084524" d="M729.223,4971.37a5.589,5.589,0,0,1,3.38.789,3.981,3.981,0,0,1,0,5.307,7.641,7.641,0,0,1-6.759,0,3.982,3.982,0,0,1,0-5.307A5.588,5.588,0,0,1,729.223,4971.37Z" transform="translate(-698.718 -4946.893)" fill="#aa2f5e"/>
        <path id="Trazado_1084525" data-name="Trazado 1084525" d="M994.4,4451.239q-3-4.105-2.995-11.989,0-7.441,2.995-11.315t8.72-3.875q6.462,0,9.1,3.413t2.617,11.663v.115q0,7.885-2.986,11.989t-8.729,4.1c-3.829,0-6.724-1.368-8.72-4.1Zm12.574-4.566q1.247-2.5,1.229-7.5a10.612,10.612,0,0,0-1.276-5.74,4.473,4.473,0,0,0-7.416,0,10.675,10.675,0,0,0-1.266,5.74,17.7,17.7,0,0,0,1.257,7.5,3.962,3.962,0,0,0,3.712,2.5,4.031,4.031,0,0,0,3.76-2.5Z" transform="translate(-953.376 -4424.06)" fill="#aa2f5e"/>
      </g>
      <g id="Grupo_1218021" data-name="Grupo 1218021">
        <path id="Trazado_1084526" data-name="Trazado 1084526" d="M106.86,4462.665v-8.48l8.975-16.805h11.7V4456.4h2.551v6.268h-2.551v4.807h-7.256v-4.807Zm13.415-6.268v-14l-6.246,11.789-1.189,2.212h7.435Z" transform="translate(-106.86 -4436.784)" fill="#d34881"/>
        <path id="Trazado_1084527" data-name="Trazado 1084527" d="M695.113,4971.37a5.589,5.589,0,0,1,3.38.789,3.98,3.98,0,0,1,0,5.307,7.642,7.642,0,0,1-6.76,0,3.981,3.981,0,0,1,0-5.307A5.589,5.589,0,0,1,695.113,4971.37Z" transform="translate(-664.608 -4946.893)" fill="#d34881"/>
        <path id="Trazado_1084528" data-name="Trazado 1084528" d="M960.3,4451.239q-2.995-4.105-2.995-11.989,0-7.441,2.995-11.315t8.72-3.875q6.462,0,9.1,3.413t2.617,11.663v.115q0,7.885-2.985,11.989t-8.729,4.1c-3.829,0-6.724-1.368-8.72-4.1Zm12.574-4.566q1.246-2.5,1.228-7.5a10.616,10.616,0,0,0-1.275-5.74,4.473,4.473,0,0,0-7.416,0,10.68,10.68,0,0,0-1.266,5.74,17.7,17.7,0,0,0,1.257,7.5,3.962,3.962,0,0,0,3.712,2.5A4.03,4.03,0,0,0,972.878,4446.672Z" transform="translate(-919.276 -4424.06)" fill="#d34881"/>
      </g>
    </g>
  </g>
</svg>
